<svg xmlns="http://www.w3.org/2000/svg" xmlns:xlink="http://www.w3.org/1999/xlink" width="1040" height="170.26"><rect width="1040" height="170.26" rx="0" ry="0" class="a"></rect><svg height="130.26" viewBox="0 0 100 13.026" width="1000" x="20" xmlns="http://www.w3.org/2000/svg" xmlns:xlink="http://www.w3.org/1999/xlink" y="20"><style>.a{fill:rgb(40,45,53)}.b{font-family:'Fira Code',Monaco,Consolas,Menlo,'Bitstream Vera Sans Mono','Powerline Symbols',monospace}.c{fill:rgb(232,131,136);white-space:pre}.d{fill:rgb(185,192,203);white-space:pre}.e{fill:transparent}</style><g font-family="&#x27;Fira Code&#x27;,Monaco,Consolas,Menlo,&#x27;Bitstream Vera Sans Mono&#x27;,&#x27;Powerline Symbols&#x27;,monospace" font-size="1.67" class="b"><defs><symbol id="1"><text x="0" y="1.67" class="c">✖</text><text x="2.004" y="1.67" class="d">Metadata</text><text x="11.021999999999998" y="1.67" class="d">update</text><text x="18.035999999999998" y="1.67" class="d">failed</text></symbol><symbol id="2"><text x="0" y="1.67" class="d">Error</text><text x="6.012" y="1.67" class="d">in</text><text x="9.017999999999999" y="1.67" class="d">stop(http_error(resp))</text><text x="32.064" y="1.67" class="d">:</text><text x="34.068" y="1.67" class="d">Not</text><text x="38.07599999999999" y="1.67" class="d">Found</text><text x="44.087999999999994" y="1.67" class="d">(HTTP</text><text x="50.1" y="1.67" class="d">404).</text></symbol><symbol id="a"><rect height="7" width="100" x="0" y="0" class="e"></rect></symbol></defs><rect height="13.026" width="100" class="a"></rect><svg x="0" y="0" width="100"><svg x="0"><use xlink:href="#a"></use><use xlink:href="#1" y="0"></use><use xlink:href="#2" y="2.171"></use><use xlink:href="#1" y="4.342"></use><use xlink:href="#2" y="6.513"></use><text x="0" y="10.354" class="d">Error</text><text x="6.012" y="10.354" class="d">in</text><text x="9.017999999999999" y="10.354" class="d">pkgplan_get_resolution_download(self,</text><text x="47.093999999999994" y="10.354" class="d">private)</text><text x="56.111999999999995" y="10.354" class="d">:</text><text x="58.116" y="10.354" class="d">No</text><text x="61.12199999999999" y="10.354" class="d">downloads</text><text x="0" y="12.525" class="d">character(0)</text></svg></svg></g></svg></svg>