<svg xmlns="http://www.w3.org/2000/svg" xmlns:xlink="http://www.w3.org/1999/xlink" width="1040" height="365.65"><rect width="1040" height="365.65" rx="0" ry="0" class="a"></rect><svg height="325.65" viewBox="0 0 100 32.565" width="1000" x="20" xmlns="http://www.w3.org/2000/svg" xmlns:xlink="http://www.w3.org/1999/xlink" y="20"><style>.a{fill:rgb(40,45,53)}.b{font-family:'Fira Code',Monaco,Consolas,Menlo,'Bitstream Vera Sans Mono','Powerline Symbols',monospace}.c{fill:transparent}.d{fill:rgb(102,194,205);white-space:pre}.e{fill:rgb(185,192,203);white-space:pre}.f{fill:rgb(168,204,140);white-space:pre}.g{fill:rgb(113,190,242);white-space:pre}.h{fill:rgb(111,119,131);white-space:pre}.i{fill:rgb(111,119,131);font-style:italic;white-space:pre}.j{fill:rgb(232,131,136);white-space:pre}</style><g font-family="&#x27;Fira Code&#x27;,Monaco,Consolas,Menlo,&#x27;Bitstream Vera Sans Mono&#x27;,&#x27;Powerline Symbols&#x27;,monospace" font-size="1.67" class="b"><defs><symbol id="a"><rect height="16" width="100" x="0" y="0" class="c"></rect></symbol></defs><rect height="32.565" width="100" class="a"></rect><svg x="0" y="0" width="100"><svg x="0"><use xlink:href="#a"></use><text x="0" y="1.67" class="d">ℹ</text><text x="2.004" y="1.67" class="e">Getting</text><text x="10.02" y="1.67" class="e">1</text><text x="12.024" y="1.67" class="e">pkg</text><text x="16.032" y="1.67" class="e">(17.63</text><text x="23.045999999999996" y="1.67" class="e">kB)</text><text x="0" y="3.8409999999999997" class="f">✔</text><text x="2.004" y="3.8409999999999997" class="e">Cached</text><text x="9.017999999999999" y="3.8409999999999997" class="e">copy</text><text x="14.027999999999999" y="3.8409999999999997" class="e">of</text><text x="17.034" y="3.8409999999999997" class="g">pkgconfig</text><text x="27.054" y="3.8409999999999997" class="e">2.0.3</text><text x="33.065999999999995" y="3.8409999999999997" class="e">(macos)</text><text x="41.082" y="3.8409999999999997" class="e">is</text><text x="44.087999999999994" y="3.8409999999999997" class="e">the</text><text x="48.096" y="3.8409999999999997" class="e">latest</text><text x="55.10999999999999" y="3.8409999999999997" class="e">build</text><text x="0" y="6.012" class="f">✔</text><text x="2.004" y="6.012" class="e">No</text><text x="5.01" y="6.012" class="e">downloads</text><text x="15.029999999999998" y="6.012" class="e">needed,</text><text x="23.045999999999996" y="6.012" class="e">all</text><text x="27.054" y="6.012" class="e">packages</text><text x="36.071999999999996" y="6.012" class="e">are</text><text x="40.08" y="6.012" class="e">cached</text><text x="0" y="8.183" class="f">✔</text><text x="2.004" y="8.183" class="e">Installed</text><text x="12.024" y="8.183" class="g">pkgconfig</text><text x="22.043999999999997" y="8.183" class="e">2.0.3</text><text x="29.058" y="8.183" class="e">36ms</text><text x="0" y="10.354" class="f">✔</text><text x="2.004" y="10.354" class="e">DONE</text><text x="8.016" y="10.354" class="e">✨</text><text x="10.02" y="10.354" class="e">1</text><text x="13.026" y="10.354" class="e">📦</text><text x="17.034" y="10.354" class="e">in</text><text x="20.04" y="10.354" class="e">36ms</text><text x="0" y="12.525" class="h">#</text><text x="2.004" y="12.525" class="h">A</text><text x="4.008" y="12.525" class="h">tibble:</text><text x="12.024" y="12.525" class="h">1</text><text x="14.027999999999999" y="12.525" class="h">x</text><text x="16.032" y="12.525" class="h">30</text><text x="2.004" y="14.696" class="e">library</text><text x="10.02" y="14.696" class="e">package</text><text x="18.035999999999998" y="14.696" class="e">title</text><text x="24.048" y="14.696" class="e">version</text><text x="32.064" y="14.696" class="e">depends</text><text x="40.08" y="14.696" class="e">suggests</text><text x="49.098" y="14.696" class="e">imports</text><text x="57.114" y="14.696" class="e">linkingto</text><text x="67.134" y="14.696" class="e">enhances</text><text x="2.004" y="16.866999999999997" class="i">&lt;chr&gt;</text><text x="10.02" y="16.866999999999997" class="i">&lt;chr&gt;</text><text x="18.035999999999998" y="16.866999999999997" class="i">&lt;chr&gt;</text><text x="24.048" y="16.866999999999997" class="i">&lt;chr&gt;</text><text x="32.064" y="16.866999999999997" class="i">&lt;chr&gt;</text><text x="40.08" y="16.866999999999997" class="i">&lt;chr&gt;</text><text x="49.098" y="16.866999999999997" class="i">&lt;chr&gt;</text><text x="57.114" y="16.866999999999997" class="i">&lt;chr&gt;</text><text x="67.134" y="16.866999999999997" class="i">&lt;chr&gt;</text><text x="0" y="19.037999999999997" class="h">1</text><text x="2.004" y="19.037999999999997" class="e">/var/f…</text><text x="10.02" y="19.037999999999997" class="e">pkgcon…</text><text x="18.035999999999998" y="19.037999999999997" class="e">Priv…</text><text x="24.048" y="19.037999999999997" class="e">2.0.3</text><text x="32.064" y="19.037999999999997" class="j">NA</text><text x="40.08" y="19.037999999999997" class="e">covr,</text><text x="46.09199999999999" y="19.037999999999997" class="e">t…</text><text x="49.098" y="19.037999999999997" class="e">utils</text><text x="57.114" y="19.037999999999997" class="j">NA</text><text x="67.134" y="19.037999999999997" class="j">NA</text><text x="0" y="21.209000000000003" class="h">#</text><text x="2.004" y="21.209000000000003" class="h">…</text><text x="4.008" y="21.209000000000003" class="h">with</text><text x="9.017999999999999" y="21.209000000000003" class="h">21</text><text x="12.024" y="21.209000000000003" class="h">more</text><text x="17.034" y="21.209000000000003" class="h">variables:</text><text x="28.055999999999997" y="21.209000000000003" class="h">built</text><text x="34.068" y="21.209000000000003" class="i">&lt;chr&gt;</text><text x="39.077999999999996" y="21.209000000000003" class="h">,</text><text x="41.082" y="21.209000000000003" class="h">md5sum</text><text x="48.096" y="21.209000000000003" class="i">&lt;chr&gt;</text><text x="53.105999999999995" y="21.209000000000003" class="h">,</text><text x="55.10999999999999" y="21.209000000000003" class="h">needscompilation</text><text x="72.14399999999999" y="21.209000000000003" class="i">&lt;lgl&gt;</text><text x="77.154" y="21.209000000000003" class="h">,</text><text x="0" y="23.380000000000003" class="h">#</text><text x="4.008" y="23.380000000000003" class="h">platform</text><text x="13.026" y="23.380000000000003" class="i">&lt;chr&gt;</text><text x="18.035999999999998" y="23.380000000000003" class="h">,</text><text x="20.04" y="23.380000000000003" class="h">license</text><text x="28.055999999999997" y="23.380000000000003" class="i">&lt;chr&gt;</text><text x="33.065999999999995" y="23.380000000000003" class="h">,</text><text x="35.06999999999999" y="23.380000000000003" class="h">priority</text><text x="44.087999999999994" y="23.380000000000003" class="i">&lt;chr&gt;</text><text x="49.098" y="23.380000000000003" class="h">,</text><text x="51.102" y="23.380000000000003" class="h">repository</text><text x="62.123999999999995" y="23.380000000000003" class="i">&lt;chr&gt;</text><text x="67.134" y="23.380000000000003" class="h">,</text><text x="0" y="25.550999999999995" class="h">#</text><text x="4.008" y="25.550999999999995" class="h">biocviews</text><text x="14.027999999999999" y="25.550999999999995" class="i">&lt;chr&gt;</text><text x="19.037999999999997" y="25.550999999999995" class="h">,</text><text x="21.041999999999998" y="25.550999999999995" class="h">remotetype</text><text x="32.064" y="25.550999999999995" class="i">&lt;chr&gt;</text><text x="37.074" y="25.550999999999995" class="h">,</text><text x="39.077999999999996" y="25.550999999999995" class="h">remotepkgref</text><text x="52.104" y="25.550999999999995" class="i">&lt;chr&gt;</text><text x="57.114" y="25.550999999999995" class="h">,</text><text x="59.117999999999995" y="25.550999999999995" class="h">remoteref</text><text x="69.13799999999999" y="25.550999999999995" class="i">&lt;chr&gt;</text><text x="74.148" y="25.550999999999995" class="h">,</text><text x="0" y="27.722" class="h">#</text><text x="4.008" y="27.722" class="h">remoterepos</text><text x="16.032" y="27.722" class="i">&lt;chr&gt;</text><text x="21.041999999999998" y="27.722" class="h">,</text><text x="23.045999999999996" y="27.722" class="h">remotepkgtype</text><text x="37.074" y="27.722" class="i">&lt;chr&gt;</text><text x="42.083999999999996" y="27.722" class="h">,</text><text x="44.087999999999994" y="27.722" class="h">remotesha</text><text x="54.108" y="27.722" class="i">&lt;chr&gt;</text><text x="59.117999999999995" y="27.722" class="h">,</text><text x="61.12199999999999" y="27.722" class="h">ref</text><text x="65.13" y="27.722" class="i">&lt;chr&gt;</text><text x="70.13999999999999" y="27.722" class="h">,</text><text x="0" y="29.893" class="h">#</text><text x="4.008" y="29.893" class="h">type</text><text x="9.017999999999999" y="29.893" class="i">&lt;chr&gt;</text><text x="14.027999999999999" y="29.893" class="h">,</text><text x="16.032" y="29.893" class="h">status</text><text x="23.045999999999996" y="29.893" class="i">&lt;chr&gt;</text><text x="28.055999999999997" y="29.893" class="h">,</text><text x="30.059999999999995" y="29.893" class="h">rversion</text><text x="39.077999999999996" y="29.893" class="i">&lt;chr&gt;</text><text x="44.087999999999994" y="29.893" class="h">,</text><text x="46.09199999999999" y="29.893" class="h">sources</text><text x="54.108" y="29.893" class="i">&lt;list&gt;</text><text x="60.11999999999999" y="29.893" class="h">,</text><text x="62.123999999999995" y="29.893" class="h">repotype</text><text x="71.142" y="29.893" class="i">&lt;chr&gt;</text><text x="76.15199999999999" y="29.893" class="h">,</text><text x="0" y="32.064" class="h">#</text><text x="4.008" y="32.064" class="h">deps</text><text x="9.017999999999999" y="32.064" class="i">&lt;list&gt;</text></svg></svg></g></svg></svg>