<svg xmlns="http://www.w3.org/2000/svg" xmlns:xlink="http://www.w3.org/1999/xlink" width="1040" height="1776.8000000000002"><rect width="1040" height="1776.8000000000002" rx="0" ry="0" class="a"></rect><svg height="1736.8000000000002" viewBox="0 0 100 173.68" width="1000" x="20" xmlns="http://www.w3.org/2000/svg" xmlns:xlink="http://www.w3.org/1999/xlink" y="20"><style>.a{fill:rgb(40,45,53)}.b{font-family:'Fira Code',Monaco,Consolas,Menlo,'Bitstream Vera Sans Mono','Powerline Symbols',monospace}.c{fill:rgb(185,192,203);white-space:pre}.d{fill:transparent}.e{fill:rgb(111,119,131);white-space:pre}.f{fill:rgb(111,119,131);font-style:italic;white-space:pre}</style><g font-family="&#x27;Fira Code&#x27;,Monaco,Consolas,Menlo,&#x27;Bitstream Vera Sans Mono&#x27;,&#x27;Powerline Symbols&#x27;,monospace" font-size="1.67" class="b"><defs><symbol id="1"><text x="0" y="1.67" class="c">✔</text><text x="2.004" y="1.67" class="c">Got</text><text x="6.012" y="1.67" class="c">lattice</text><text x="14.027999999999999" y="1.67" class="c">0.20-41</text><text x="22.043999999999997" y="1.67" class="c">(source)</text><text x="31.061999999999998" y="1.67" class="c">(389.63</text><text x="39.077999999999996" y="1.67" class="c">kB)</text></symbol><symbol id="2"><text x="0" y="1.67" class="c">✔</text><text x="2.004" y="1.67" class="c">Got</text><text x="6.012" y="1.67" class="c">MASS</text><text x="11.021999999999998" y="1.67" class="c">7.3-53</text><text x="18.035999999999998" y="1.67" class="c">(source)</text><text x="27.054" y="1.67" class="c">(495.47</text><text x="35.06999999999999" y="1.67" class="c">kB)</text></symbol><symbol id="3"><text x="0" y="1.67" class="c">✔</text><text x="2.004" y="1.67" class="c">Got</text><text x="6.012" y="1.67" class="c">nlme</text><text x="11.021999999999998" y="1.67" class="c">3.1-151</text><text x="19.037999999999997" y="1.67" class="c">(source)</text><text x="28.055999999999997" y="1.67" class="c">(805.59</text><text x="36.071999999999996" y="1.67" class="c">kB)</text></symbol><symbol id="4"><text x="0" y="1.67" class="c">✔</text><text x="2.004" y="1.67" class="c">Got</text><text x="6.012" y="1.67" class="c">mgcv</text><text x="11.021999999999998" y="1.67" class="c">1.8-33</text><text x="18.035999999999998" y="1.67" class="c">(source)</text><text x="27.054" y="1.67" class="c">(1.00</text><text x="33.065999999999995" y="1.67" class="c">MB)</text></symbol><symbol id="a"><rect height="81" width="100" x="0" y="0" class="d"></rect></symbol></defs><rect height="173.68" width="100" class="a"></rect><svg x="0" y="0" width="100"><svg x="0"><use xlink:href="#a"></use><text x="0" y="1.67" class="c">ℹ</text><text x="2.004" y="1.67" class="c">Getting</text><text x="10.02" y="1.67" class="c">57</text><text x="13.026" y="1.67" class="c">pkgs</text><text x="18.035999999999998" y="1.67" class="c">(52.42</text><text x="25.05" y="1.67" class="c">MB),</text><text x="30.059999999999995" y="1.67" class="c">46</text><text x="33.065999999999995" y="1.67" class="c">(11.94</text><text x="40.08" y="1.67" class="c">MB)</text><text x="44.087999999999994" y="1.67" class="c">cached</text><text x="0" y="3.8409999999999997" class="c">✔</text><text x="2.004" y="3.8409999999999997" class="c">Cached</text><text x="9.017999999999999" y="3.8409999999999997" class="c">copy</text><text x="14.027999999999999" y="3.8409999999999997" class="c">of</text><text x="17.034" y="3.8409999999999997" class="c">assertthat</text><text x="28.055999999999997" y="3.8409999999999997" class="c">0.2.1</text><text x="34.068" y="3.8409999999999997" class="c">(macos)</text><text x="42.083999999999996" y="3.8409999999999997" class="c">is</text><text x="45.089999999999996" y="3.8409999999999997" class="c">the</text><text x="49.098" y="3.8409999999999997" class="c">latest</text><text x="56.111999999999995" y="3.8409999999999997" class="c">build</text><text x="0" y="6.012" class="c">✔</text><text x="2.004" y="6.012" class="c">Cached</text><text x="9.017999999999999" y="6.012" class="c">copy</text><text x="14.027999999999999" y="6.012" class="c">of</text><text x="17.034" y="6.012" class="c">crayon</text><text x="24.048" y="6.012" class="c">1.3.4</text><text x="30.059999999999995" y="6.012" class="c">(macos)</text><text x="38.07599999999999" y="6.012" class="c">is</text><text x="41.082" y="6.012" class="c">the</text><text x="45.089999999999996" y="6.012" class="c">latest</text><text x="52.104" y="6.012" class="c">build</text><text x="0" y="8.183" class="c">✔</text><text x="2.004" y="8.183" class="c">Cached</text><text x="9.017999999999999" y="8.183" class="c">copy</text><text x="14.027999999999999" y="8.183" class="c">of</text><text x="17.034" y="8.183" class="c">desc</text><text x="22.043999999999997" y="8.183" class="c">1.2.0</text><text x="28.055999999999997" y="8.183" class="c">(macos)</text><text x="36.071999999999996" y="8.183" class="c">is</text><text x="39.077999999999996" y="8.183" class="c">the</text><text x="43.086" y="8.183" class="c">latest</text><text x="50.1" y="8.183" class="c">build</text><text x="0" y="10.354" class="c">✔</text><text x="2.004" y="10.354" class="c">Cached</text><text x="9.017999999999999" y="10.354" class="c">copy</text><text x="14.027999999999999" y="10.354" class="c">of</text><text x="17.034" y="10.354" class="c">ellipsis</text><text x="26.052" y="10.354" class="c">0.3.1</text><text x="32.064" y="10.354" class="c">(macos)</text><text x="40.08" y="10.354" class="c">is</text><text x="43.086" y="10.354" class="c">the</text><text x="47.093999999999994" y="10.354" class="c">latest</text><text x="54.108" y="10.354" class="c">build</text><text x="0" y="12.525" class="c">✔</text><text x="2.004" y="12.525" class="c">Cached</text><text x="9.017999999999999" y="12.525" class="c">copy</text><text x="14.027999999999999" y="12.525" class="c">of</text><text x="17.034" y="12.525" class="c">fansi</text><text x="23.045999999999996" y="12.525" class="c">0.4.1</text><text x="29.058" y="12.525" class="c">(macos)</text><text x="37.074" y="12.525" class="c">is</text><text x="40.08" y="12.525" class="c">the</text><text x="44.087999999999994" y="12.525" class="c">latest</text><text x="51.102" y="12.525" class="c">build</text><text x="0" y="14.696" class="c">✔</text><text x="2.004" y="14.696" class="c">Cached</text><text x="9.017999999999999" y="14.696" class="c">copy</text><text x="14.027999999999999" y="14.696" class="c">of</text><text x="17.034" y="14.696" class="c">lifecycle</text><text x="27.054" y="14.696" class="c">0.2.0</text><text x="33.065999999999995" y="14.696" class="c">(macos)</text><text x="41.082" y="14.696" class="c">is</text><text x="44.087999999999994" y="14.696" class="c">the</text><text x="48.096" y="14.696" class="c">latest</text><text x="55.10999999999999" y="14.696" class="c">build</text><text x="0" y="16.866999999999997" class="c">✔</text><text x="2.004" y="16.866999999999997" class="c">Cached</text><text x="9.017999999999999" y="16.866999999999997" class="c">copy</text><text x="14.027999999999999" y="16.866999999999997" class="c">of</text><text x="17.034" y="16.866999999999997" class="c">pkgconfig</text><text x="27.054" y="16.866999999999997" class="c">2.0.3</text><text x="33.065999999999995" y="16.866999999999997" class="c">(macos)</text><text x="41.082" y="16.866999999999997" class="c">is</text><text x="44.087999999999994" y="16.866999999999997" class="c">the</text><text x="48.096" y="16.866999999999997" class="c">latest</text><text x="55.10999999999999" y="16.866999999999997" class="c">build</text><text x="0" y="19.037999999999997" class="c">✔</text><text x="2.004" y="19.037999999999997" class="c">Cached</text><text x="9.017999999999999" y="19.037999999999997" class="c">copy</text><text x="14.027999999999999" y="19.037999999999997" class="c">of</text><text x="17.034" y="19.037999999999997" class="c">prettyunits</text><text x="29.058" y="19.037999999999997" class="c">1.1.1</text><text x="35.06999999999999" y="19.037999999999997" class="c">(macos)</text><text x="43.086" y="19.037999999999997" class="c">is</text><text x="46.09199999999999" y="19.037999999999997" class="c">the</text><text x="50.1" y="19.037999999999997" class="c">latest</text><text x="57.114" y="19.037999999999997" class="c">build</text><text x="0" y="21.209000000000003" class="c">✔</text><text x="2.004" y="21.209000000000003" class="c">Cached</text><text x="9.017999999999999" y="21.209000000000003" class="c">copy</text><text x="14.027999999999999" y="21.209000000000003" class="c">of</text><text x="17.034" y="21.209000000000003" class="c">rematch2</text><text x="26.052" y="21.209000000000003" class="c">2.1.2</text><text x="32.064" y="21.209000000000003" class="c">(macos)</text><text x="40.08" y="21.209000000000003" class="c">is</text><text x="43.086" y="21.209000000000003" class="c">the</text><text x="47.093999999999994" y="21.209000000000003" class="c">latest</text><text x="54.108" y="21.209000000000003" class="c">build</text><text x="0" y="23.380000000000003" class="c">✔</text><text x="2.004" y="23.380000000000003" class="c">Cached</text><text x="9.017999999999999" y="23.380000000000003" class="c">copy</text><text x="14.027999999999999" y="23.380000000000003" class="c">of</text><text x="17.034" y="23.380000000000003" class="c">utf8</text><text x="22.043999999999997" y="23.380000000000003" class="c">1.1.4</text><text x="28.055999999999997" y="23.380000000000003" class="c">(macos)</text><text x="36.071999999999996" y="23.380000000000003" class="c">is</text><text x="39.077999999999996" y="23.380000000000003" class="c">the</text><text x="43.086" y="23.380000000000003" class="c">latest</text><text x="50.1" y="23.380000000000003" class="c">build</text><text x="0" y="25.550999999999995" class="c">✔</text><text x="2.004" y="25.550999999999995" class="c">Got</text><text x="6.012" y="25.550999999999995" class="c">MASS</text><text x="11.021999999999998" y="25.550999999999995" class="c">7.3-53</text><text x="18.035999999999998" y="25.550999999999995" class="c">(macos)</text><text x="26.052" y="25.550999999999995" class="c">(1.16</text><text x="32.064" y="25.550999999999995" class="c">MB)</text><text x="0" y="27.722" class="c">✔</text><text x="2.004" y="27.722" class="c">Got</text><text x="6.012" y="27.722" class="c">Matrix</text><text x="13.026" y="27.722" class="c">1.3-0</text><text x="19.037999999999997" y="27.722" class="c">(macos)</text><text x="27.054" y="27.722" class="c">(4.85</text><text x="33.065999999999995" y="27.722" class="c">MB)</text><text x="0" y="29.893" class="c">✔</text><text x="2.004" y="29.893" class="c">Got</text><text x="6.012" y="29.893" class="c">RColorBrewer</text><text x="19.037999999999997" y="29.893" class="c">1.1-2</text><text x="25.05" y="29.893" class="c">(macos)</text><text x="33.065999999999995" y="29.893" class="c">(52.94</text><text x="40.08" y="29.893" class="c">kB)</text><text x="0" y="32.064" class="c">✔</text><text x="2.004" y="32.064" class="c">Got</text><text x="6.012" y="32.064" class="c">brio</text><text x="11.021999999999998" y="32.064" class="c">1.1.0</text><text x="17.034" y="32.064" class="c">(macos)</text><text x="25.05" y="32.064" class="c">(36.74</text><text x="32.064" y="32.064" class="c">kB)</text><text x="0" y="34.235" class="c">✔</text><text x="2.004" y="34.235" class="c">Got</text><text x="6.012" y="34.235" class="c">colorspace</text><text x="17.034" y="34.235" class="c">2.0-0</text><text x="23.045999999999996" y="34.235" class="c">(macos)</text><text x="31.061999999999998" y="34.235" class="c">(2.62</text><text x="37.074" y="34.235" class="c">MB)</text><text x="0" y="36.406" class="c">✔</text><text x="2.004" y="36.406" class="c">Got</text><text x="6.012" y="36.406" class="c">labeling</text><text x="15.029999999999998" y="36.406" class="c">0.4.2</text><text x="21.041999999999998" y="36.406" class="c">(macos)</text><text x="29.058" y="36.406" class="c">(60.30</text><text x="36.071999999999996" y="36.406" class="c">kB)</text><text x="0" y="38.577000000000005" class="c">✔</text><text x="2.004" y="38.577000000000005" class="c">Got</text><text x="6.012" y="38.577000000000005" class="c">praise</text><text x="13.026" y="38.577000000000005" class="c">1.0.0</text><text x="19.037999999999997" y="38.577000000000005" class="c">(macos)</text><text x="27.054" y="38.577000000000005" class="c">(16.14</text><text x="34.068" y="38.577000000000005" class="c">kB)</text><text x="0" y="40.748000000000005" class="c">✔</text><text x="2.004" y="40.748000000000005" class="c">Got</text><text x="6.012" y="40.748000000000005" class="c">viridisLite</text><text x="18.035999999999998" y="40.748000000000005" class="c">0.3.0</text><text x="24.048" y="40.748000000000005" class="c">(macos)</text><text x="32.064" y="40.748000000000005" class="c">(57.01</text><text x="39.077999999999996" y="40.748000000000005" class="c">kB)</text><text x="0" y="42.919" class="c">✔</text><text x="2.004" y="42.919" class="c">Got</text><text x="6.012" y="42.919" class="c">brio</text><text x="11.021999999999998" y="42.919" class="c">1.1.0</text><text x="17.034" y="42.919" class="c">(source)</text><text x="26.052" y="42.919" class="c">(11.61</text><text x="33.065999999999995" y="42.919" class="c">kB)</text><text x="0" y="45.09" class="c">✔</text><text x="2.004" y="45.09" class="c">Got</text><text x="6.012" y="45.09" class="c">evaluate</text><text x="15.029999999999998" y="45.09" class="c">0.14</text><text x="20.04" y="45.09" class="c">(source)</text><text x="29.058" y="45.09" class="c">(24.21</text><text x="36.071999999999996" y="45.09" class="c">kB)</text><text x="0" y="47.261" class="c">✔</text><text x="2.004" y="47.261" class="c">Got</text><text x="6.012" y="47.261" class="c">labeling</text><text x="15.029999999999998" y="47.261" class="c">0.4.2</text><text x="21.041999999999998" y="47.261" class="c">(source)</text><text x="30.059999999999995" y="47.261" class="c">(10.16</text><text x="37.074" y="47.261" class="c">kB)</text><text x="0" y="49.431999999999995" class="c">✔</text><text x="2.004" y="49.431999999999995" class="c">Got</text><text x="6.012" y="49.431999999999995" class="c">viridisLite</text><text x="18.035999999999998" y="49.431999999999995" class="c">0.3.0</text><text x="24.048" y="49.431999999999995" class="c">(source)</text><text x="33.065999999999995" y="49.431999999999995" class="c">(44.02</text><text x="40.08" y="49.431999999999995" class="c">kB)</text><text x="0" y="51.603" class="c">✔</text><text x="2.004" y="51.603" class="c">Got</text><text x="6.012" y="51.603" class="c">praise</text><text x="13.026" y="51.603" class="c">1.0.0</text><text x="19.037999999999997" y="51.603" class="c">(source)</text><text x="28.055999999999997" y="51.603" class="c">(6.10</text><text x="34.068" y="51.603" class="c">kB)</text><text x="0" y="53.774" class="c">✔</text><text x="2.004" y="53.774" class="c">Got</text><text x="6.012" y="53.774" class="c">waldo</text><text x="12.024" y="53.774" class="c">0.2.3</text><text x="18.035999999999998" y="53.774" class="c">(source)</text><text x="27.054" y="53.774" class="c">(25.73</text><text x="34.068" y="53.774" class="c">kB)</text><text x="0" y="55.945" class="c">✔</text><text x="2.004" y="55.945" class="c">Got</text><text x="6.012" y="55.945" class="c">RColorBrewer</text><text x="19.037999999999997" y="55.945" class="c">1.1-2</text><text x="25.05" y="55.945" class="c">(source)</text><text x="34.068" y="55.945" class="c">(11.53</text><text x="41.082" y="55.945" class="c">kB)</text><text x="0" y="58.11600000000001" class="c">✔</text><text x="2.004" y="58.11600000000001" class="c">Got</text><text x="6.012" y="58.11600000000001" class="c">evaluate</text><text x="15.029999999999998" y="58.11600000000001" class="c">0.14</text><text x="20.04" y="58.11600000000001" class="c">(macos)</text><text x="28.055999999999997" y="58.11600000000001" class="c">(74.36</text><text x="35.06999999999999" y="58.11600000000001" class="c">kB)</text><text x="0" y="60.287" class="c">✔</text><text x="2.004" y="60.287" class="c">Got</text><text x="6.012" y="60.287" class="c">waldo</text><text x="12.024" y="60.287" class="c">0.2.3</text><text x="18.035999999999998" y="60.287" class="c">(macos)</text><text x="26.052" y="60.287" class="c">(70.17</text><text x="33.065999999999995" y="60.287" class="c">kB)</text><text x="0" y="62.458" class="c">✔</text><text x="2.004" y="62.458" class="c">Got</text><text x="6.012" y="62.458" class="c">munsell</text><text x="14.027999999999999" y="62.458" class="c">0.5.0</text><text x="20.04" y="62.458" class="c">(source)</text><text x="29.058" y="62.458" class="c">(182.65</text><text x="37.074" y="62.458" class="c">kB)</text><text x="0" y="64.629" class="c">✔</text><text x="2.004" y="64.629" class="c">Got</text><text x="6.012" y="64.629" class="c">diffobj</text><text x="14.027999999999999" y="64.629" class="c">0.3.2</text><text x="20.04" y="64.629" class="c">(macos)</text><text x="28.055999999999997" y="64.629" class="c">(1.01</text><text x="34.068" y="64.629" class="c">MB)</text><text x="0" y="66.8" class="c">✔</text><text x="2.004" y="66.8" class="c">Got</text><text x="6.012" y="66.8" class="c">munsell</text><text x="14.027999999999999" y="66.8" class="c">0.5.0</text><text x="20.04" y="66.8" class="c">(macos)</text><text x="28.055999999999997" y="66.8" class="c">(241.50</text><text x="36.071999999999996" y="66.8" class="c">kB)</text><text x="0" y="68.971" class="c">✔</text><text x="2.004" y="68.971" class="c">Got</text><text x="6.012" y="68.971" class="c">gtable</text><text x="13.026" y="68.971" class="c">0.3.0</text><text x="19.037999999999997" y="68.971" class="c">(source)</text><text x="28.055999999999997" y="68.971" class="c">(368.08</text><text x="36.071999999999996" y="68.971" class="c">kB)</text><use xlink:href="#1" y="69.472"></use><use xlink:href="#1" y="71.643"></use><text x="0" y="75.48400000000001" class="c">✔</text><text x="2.004" y="75.48400000000001" class="c">Got</text><text x="6.012" y="75.48400000000001" class="c">gtable</text><text x="13.026" y="75.48400000000001" class="c">0.3.0</text><text x="19.037999999999997" y="75.48400000000001" class="c">(macos)</text><text x="27.054" y="75.48400000000001" class="c">(431.50</text><text x="35.06999999999999" y="75.48400000000001" class="c">kB)</text><text x="0" y="77.655" class="c">✔</text><text x="2.004" y="77.655" class="c">Got</text><text x="6.012" y="77.655" class="c">diffobj</text><text x="14.027999999999999" y="77.655" class="c">0.3.2</text><text x="20.04" y="77.655" class="c">(source)</text><text x="29.058" y="77.655" class="c">(446.38</text><text x="37.074" y="77.655" class="c">kB)</text><use xlink:href="#2" y="78.156"></use><text x="0" y="81.997" class="c">✔</text><text x="2.004" y="81.997" class="c">Got</text><text x="6.012" y="81.997" class="c">scales</text><text x="13.026" y="81.997" class="c">1.1.1</text><text x="19.037999999999997" y="81.997" class="c">(source)</text><text x="28.055999999999997" y="81.997" class="c">(515.20</text><text x="36.071999999999996" y="81.997" class="c">kB)</text><use xlink:href="#2" y="82.49799999999999"></use><text x="0" y="86.339" class="c">✔</text><text x="2.004" y="86.339" class="c">Got</text><text x="6.012" y="86.339" class="c">scales</text><text x="13.026" y="86.339" class="c">1.1.1</text><text x="19.037999999999997" y="86.339" class="c">(macos)</text><text x="27.054" y="86.339" class="c">(552.88</text><text x="35.06999999999999" y="86.339" class="c">kB)</text><text x="0" y="88.51" class="c">✔</text><text x="2.004" y="88.51" class="c">Got</text><text x="6.012" y="88.51" class="c">testthat</text><text x="15.029999999999998" y="88.51" class="c">3.0.1</text><text x="21.041999999999998" y="88.51" class="c">(source)</text><text x="30.059999999999995" y="88.51" class="c">(678.20</text><text x="38.07599999999999" y="88.51" class="c">kB)</text><use xlink:href="#3" y="89.011"></use><use xlink:href="#3" y="91.182"></use><use xlink:href="#4" y="93.35300000000001"></use><use xlink:href="#4" y="95.52399999999999"></use><text x="0" y="99.365" class="c">✔</text><text x="2.004" y="99.365" class="c">Got</text><text x="6.012" y="99.365" class="c">lattice</text><text x="14.027999999999999" y="99.365" class="c">0.20-41</text><text x="22.043999999999997" y="99.365" class="c">(macos)</text><text x="30.059999999999995" y="99.365" class="c">(1.15</text><text x="36.071999999999996" y="99.365" class="c">MB)</text><text x="0" y="101.536" class="c">✔</text><text x="2.004" y="101.536" class="c">Got</text><text x="6.012" y="101.536" class="c">farver</text><text x="13.026" y="101.536" class="c">2.0.3</text><text x="19.037999999999997" y="101.536" class="c">(source)</text><text x="28.055999999999997" y="101.536" class="c">(1.28</text><text x="34.068" y="101.536" class="c">MB)</text><text x="0" y="103.707" class="c">✔</text><text x="2.004" y="103.707" class="c">Got</text><text x="6.012" y="103.707" class="c">farver</text><text x="13.026" y="103.707" class="c">2.0.3</text><text x="19.037999999999997" y="103.707" class="c">(macos)</text><text x="27.054" y="103.707" class="c">(1.83</text><text x="33.065999999999995" y="103.707" class="c">MB)</text><text x="0" y="105.878" class="c">✔</text><text x="2.004" y="105.878" class="c">Got</text><text x="6.012" y="105.878" class="c">Matrix</text><text x="13.026" y="105.878" class="c">1.2-18</text><text x="20.04" y="105.878" class="c">(source)</text><text x="29.058" y="105.878" class="c">(1.87</text><text x="35.06999999999999" y="105.878" class="c">MB)</text><text x="0" y="108.049" class="c">✔</text><text x="2.004" y="108.049" class="c">Got</text><text x="6.012" y="108.049" class="c">isoband</text><text x="14.027999999999999" y="108.049" class="c">0.2.3</text><text x="20.04" y="108.049" class="c">(source)</text><text x="29.058" y="108.049" class="c">(1.90</text><text x="35.06999999999999" y="108.049" class="c">MB)</text><text x="0" y="110.22" class="c">✔</text><text x="2.004" y="110.22" class="c">Got</text><text x="6.012" y="110.22" class="c">Matrix</text><text x="13.026" y="110.22" class="c">1.3-0</text><text x="19.037999999999997" y="110.22" class="c">(source)</text><text x="28.055999999999997" y="110.22" class="c">(1.97</text><text x="34.068" y="110.22" class="c">MB)</text><text x="0" y="112.391" class="c">✔</text><text x="2.004" y="112.391" class="c">Got</text><text x="6.012" y="112.391" class="c">colorspace</text><text x="17.034" y="112.391" class="c">2.0-0</text><text x="23.045999999999996" y="112.391" class="c">(source)</text><text x="32.064" y="112.391" class="c">(2.20</text><text x="38.07599999999999" y="112.391" class="c">MB)</text><text x="0" y="114.56200000000001" class="c">✔</text><text x="2.004" y="114.56200000000001" class="c">Got</text><text x="6.012" y="114.56200000000001" class="c">nlme</text><text x="11.021999999999998" y="114.56200000000001" class="c">3.1-151</text><text x="19.037999999999997" y="114.56200000000001" class="c">(macos)</text><text x="27.054" y="114.56200000000001" class="c">(2.41</text><text x="33.065999999999995" y="114.56200000000001" class="c">MB)</text><text x="0" y="116.73299999999999" class="c">✔</text><text x="2.004" y="116.73299999999999" class="c">Got</text><text x="6.012" y="116.73299999999999" class="c">ggplot2</text><text x="14.027999999999999" y="116.73299999999999" class="c">3.3.2</text><text x="20.04" y="116.73299999999999" class="c">(macos)</text><text x="28.055999999999997" y="116.73299999999999" class="c">(4.06</text><text x="34.068" y="116.73299999999999" class="c">MB)</text><text x="0" y="118.904" class="c">✔</text><text x="2.004" y="118.904" class="c">Got</text><text x="6.012" y="118.904" class="c">ggplot2</text><text x="14.027999999999999" y="118.904" class="c">3.3.2</text><text x="20.04" y="118.904" class="c">(source)</text><text x="29.058" y="118.904" class="c">(3.05</text><text x="35.06999999999999" y="118.904" class="c">MB)</text><text x="0" y="121.075" class="c">✔</text><text x="2.004" y="121.075" class="c">Got</text><text x="6.012" y="121.075" class="c">testthat</text><text x="15.029999999999998" y="121.075" class="c">3.0.1</text><text x="21.041999999999998" y="121.075" class="c">(macos)</text><text x="29.058" y="121.075" class="c">(2.90</text><text x="35.06999999999999" y="121.075" class="c">MB)</text><text x="0" y="123.246" class="c">✔</text><text x="2.004" y="123.246" class="c">Got</text><text x="6.012" y="123.246" class="c">isoband</text><text x="14.027999999999999" y="123.246" class="c">0.2.3</text><text x="20.04" y="123.246" class="c">(macos)</text><text x="28.055999999999997" y="123.246" class="c">(3.68</text><text x="34.068" y="123.246" class="c">MB)</text><text x="0" y="125.417" class="c">✔</text><text x="2.004" y="125.417" class="c">Got</text><text x="6.012" y="125.417" class="c">mgcv</text><text x="11.021999999999998" y="125.417" class="c">1.8-33</text><text x="18.035999999999998" y="125.417" class="c">(macos)</text><text x="26.052" y="125.417" class="c">(3.47</text><text x="32.064" y="125.417" class="c">MB)</text><text x="0" y="127.58800000000001" class="c">✔</text><text x="2.004" y="127.58800000000001" class="c">Downloaded</text><text x="13.026" y="127.58800000000001" class="c">47</text><text x="16.032" y="127.58800000000001" class="c">packages</text><text x="25.05" y="127.58800000000001" class="c">(50.72</text><text x="32.064" y="127.58800000000001" class="c">MB)</text><text x="36.071999999999996" y="127.58800000000001" class="c">in</text><text x="39.077999999999996" y="127.58800000000001" class="c">12.5s</text><text x="0" y="129.759" class="e">#</text><text x="2.004" y="129.759" class="e">A</text><text x="4.008" y="129.759" class="e">tibble:</text><text x="12.024" y="129.759" class="e">103</text><text x="16.032" y="129.759" class="e">x</text><text x="18.035999999999998" y="129.759" class="e">32</text><text x="3.006" y="131.92999999999998" class="c">ref</text><text x="9.017999999999999" y="131.92999999999998" class="c">type</text><text x="15.029999999999998" y="131.92999999999998" class="c">direct</text><text x="22.043999999999997" y="131.92999999999998" class="c">directpkg</text><text x="32.064" y="131.92999999999998" class="c">status</text><text x="39.077999999999996" y="131.92999999999998" class="c">package</text><text x="47.093999999999994" y="131.92999999999998" class="c">version</text><text x="55.10999999999999" y="131.92999999999998" class="c">license</text><text x="63.12599999999999" y="131.92999999999998" class="c">needscompilation</text><text x="3.006" y="134.10099999999997" class="f">&lt;chr&gt;</text><text x="9.017999999999999" y="134.10099999999997" class="f">&lt;chr&gt;</text><text x="15.029999999999998" y="134.10099999999997" class="f">&lt;lgl&gt;</text><text x="22.043999999999997" y="134.10099999999997" class="f">&lt;lgl&gt;</text><text x="32.064" y="134.10099999999997" class="f">&lt;chr&gt;</text><text x="39.077999999999996" y="134.10099999999997" class="f">&lt;chr&gt;</text><text x="47.093999999999994" y="134.10099999999997" class="f">&lt;chr&gt;</text><text x="55.10999999999999" y="134.10099999999997" class="f">&lt;chr&gt;</text><text x="63.12599999999999" y="134.10099999999997" class="f">&lt;lgl&gt;</text><text x="1.002" y="136.272" class="e">1</text><text x="3.006" y="136.272" class="c">MASS</text><text x="9.017999999999999" y="136.272" class="c">stan…</text><text x="15.029999999999998" y="136.272" class="c">FALSE</text><text x="22.043999999999997" y="136.272" class="c">FALSE</text><text x="32.064" y="136.272" class="c">OK</text><text x="39.077999999999996" y="136.272" class="c">MASS</text><text x="47.093999999999994" y="136.272" class="c">7.3-53</text><text x="55.10999999999999" y="136.272" class="c">GPL-2</text><text x="61.12199999999999" y="136.272" class="c">…</text><text x="63.12599999999999" y="136.272" class="c">FALSE</text><text x="1.002" y="138.44299999999998" class="e">2</text><text x="3.006" y="138.44299999999998" class="c">Matr…</text><text x="9.017999999999999" y="138.44299999999998" class="c">stan…</text><text x="15.029999999999998" y="138.44299999999998" class="c">FALSE</text><text x="22.043999999999997" y="138.44299999999998" class="c">FALSE</text><text x="32.064" y="138.44299999999998" class="c">OK</text><text x="39.077999999999996" y="138.44299999999998" class="c">Matrix</text><text x="47.093999999999994" y="138.44299999999998" class="c">1.3-0</text><text x="55.10999999999999" y="138.44299999999998" class="c">GPL</text><text x="59.117999999999995" y="138.44299999999998" class="c">(&gt;…</text><text x="63.12599999999999" y="138.44299999999998" class="c">FALSE</text><text x="1.002" y="140.61399999999998" class="e">3</text><text x="3.006" y="140.61399999999998" class="c">R6</text><text x="9.017999999999999" y="140.61399999999998" class="c">stan…</text><text x="15.029999999999998" y="140.61399999999998" class="c">FALSE</text><text x="22.043999999999997" y="140.61399999999998" class="c">FALSE</text><text x="32.064" y="140.61399999999998" class="c">OK</text><text x="39.077999999999996" y="140.61399999999998" class="c">R6</text><text x="47.093999999999994" y="140.61399999999998" class="c">2.5.0</text><text x="55.10999999999999" y="140.61399999999998" class="c">MIT</text><text x="59.117999999999995" y="140.61399999999998" class="c">+</text><text x="61.12199999999999" y="140.61399999999998" class="c">…</text><text x="63.12599999999999" y="140.61399999999998" class="c">FALSE</text><text x="1.002" y="142.785" class="e">4</text><text x="3.006" y="142.785" class="c">RCol…</text><text x="9.017999999999999" y="142.785" class="c">stan…</text><text x="15.029999999999998" y="142.785" class="c">FALSE</text><text x="22.043999999999997" y="142.785" class="c">FALSE</text><text x="32.064" y="142.785" class="c">OK</text><text x="39.077999999999996" y="142.785" class="c">RColor…</text><text x="47.093999999999994" y="142.785" class="c">1.1-2</text><text x="55.10999999999999" y="142.785" class="c">Apache…</text><text x="63.12599999999999" y="142.785" class="c">FALSE</text><text x="1.002" y="144.956" class="e">5</text><text x="3.006" y="144.956" class="c">asse…</text><text x="9.017999999999999" y="144.956" class="c">stan…</text><text x="15.029999999999998" y="144.956" class="c">FALSE</text><text x="22.043999999999997" y="144.956" class="c">FALSE</text><text x="32.064" y="144.956" class="c">OK</text><text x="39.077999999999996" y="144.956" class="c">assert…</text><text x="47.093999999999994" y="144.956" class="c">0.2.1</text><text x="55.10999999999999" y="144.956" class="c">GPL-3</text><text x="63.12599999999999" y="144.956" class="c">FALSE</text><text x="1.002" y="147.12699999999998" class="e">6</text><text x="3.006" y="147.12699999999998" class="c">brio</text><text x="9.017999999999999" y="147.12699999999998" class="c">stan…</text><text x="15.029999999999998" y="147.12699999999998" class="c">FALSE</text><text x="22.043999999999997" y="147.12699999999998" class="c">FALSE</text><text x="32.064" y="147.12699999999998" class="c">OK</text><text x="39.077999999999996" y="147.12699999999998" class="c">brio</text><text x="47.093999999999994" y="147.12699999999998" class="c">1.1.0</text><text x="55.10999999999999" y="147.12699999999998" class="c">MIT</text><text x="59.117999999999995" y="147.12699999999998" class="c">+</text><text x="61.12199999999999" y="147.12699999999998" class="c">…</text><text x="63.12599999999999" y="147.12699999999998" class="c">FALSE</text><text x="1.002" y="149.298" class="e">7</text><text x="3.006" y="149.298" class="c">callr</text><text x="9.017999999999999" y="149.298" class="c">stan…</text><text x="15.029999999999998" y="149.298" class="c">FALSE</text><text x="22.043999999999997" y="149.298" class="c">FALSE</text><text x="32.064" y="149.298" class="c">OK</text><text x="39.077999999999996" y="149.298" class="c">callr</text><text x="47.093999999999994" y="149.298" class="c">3.5.1</text><text x="55.10999999999999" y="149.298" class="c">MIT</text><text x="59.117999999999995" y="149.298" class="c">+</text><text x="61.12199999999999" y="149.298" class="c">…</text><text x="63.12599999999999" y="149.298" class="c">FALSE</text><text x="1.002" y="151.46899999999997" class="e">8</text><text x="3.006" y="151.46899999999997" class="c">cli</text><text x="9.017999999999999" y="151.46899999999997" class="c">stan…</text><text x="15.029999999999998" y="151.46899999999997" class="c">FALSE</text><text x="22.043999999999997" y="151.46899999999997" class="c">FALSE</text><text x="32.064" y="151.46899999999997" class="c">OK</text><text x="39.077999999999996" y="151.46899999999997" class="c">cli</text><text x="47.093999999999994" y="151.46899999999997" class="c">2.2.0</text><text x="55.10999999999999" y="151.46899999999997" class="c">MIT</text><text x="59.117999999999995" y="151.46899999999997" class="c">+</text><text x="61.12199999999999" y="151.46899999999997" class="c">…</text><text x="63.12599999999999" y="151.46899999999997" class="c">FALSE</text><text x="1.002" y="153.64" class="e">9</text><text x="3.006" y="153.64" class="c">colo…</text><text x="9.017999999999999" y="153.64" class="c">stan…</text><text x="15.029999999999998" y="153.64" class="c">FALSE</text><text x="22.043999999999997" y="153.64" class="c">FALSE</text><text x="32.064" y="153.64" class="c">OK</text><text x="39.077999999999996" y="153.64" class="c">colors…</text><text x="47.093999999999994" y="153.64" class="c">2.0-0</text><text x="55.10999999999999" y="153.64" class="c">BSD_3_…</text><text x="63.12599999999999" y="153.64" class="c">FALSE</text><text x="0" y="155.81099999999998" class="e">10</text><text x="3.006" y="155.81099999999998" class="c">cray…</text><text x="9.017999999999999" y="155.81099999999998" class="c">stan…</text><text x="15.029999999999998" y="155.81099999999998" class="c">FALSE</text><text x="22.043999999999997" y="155.81099999999998" class="c">FALSE</text><text x="32.064" y="155.81099999999998" class="c">OK</text><text x="39.077999999999996" y="155.81099999999998" class="c">crayon</text><text x="47.093999999999994" y="155.81099999999998" class="c">1.3.4</text><text x="55.10999999999999" y="155.81099999999998" class="c">MIT</text><text x="59.117999999999995" y="155.81099999999998" class="c">+</text><text x="61.12199999999999" y="155.81099999999998" class="c">…</text><text x="63.12599999999999" y="155.81099999999998" class="c">FALSE</text><text x="0" y="157.982" class="e">#</text><text x="2.004" y="157.982" class="e">…</text><text x="4.008" y="157.982" class="e">with</text><text x="9.017999999999999" y="157.982" class="e">93</text><text x="12.024" y="157.982" class="e">more</text><text x="17.034" y="157.982" class="e">rows,</text><text x="23.045999999999996" y="157.982" class="e">and</text><text x="27.054" y="157.982" class="e">23</text><text x="30.059999999999995" y="157.982" class="e">more</text><text x="35.06999999999999" y="157.982" class="e">variables:</text><text x="46.09199999999999" y="157.982" class="e">priority</text><text x="55.10999999999999" y="157.982" class="f">&lt;chr&gt;</text><text x="60.11999999999999" y="157.982" class="e">,</text><text x="62.123999999999995" y="157.982" class="e">md5sum</text><text x="69.13799999999999" y="157.982" class="f">&lt;chr&gt;</text><text x="74.148" y="157.982" class="e">,</text><text x="0" y="160.153" class="e">#</text><text x="4.008" y="160.153" class="e">sha256</text><text x="11.021999999999998" y="160.153" class="f">&lt;chr&gt;</text><text x="16.032" y="160.153" class="e">,</text><text x="18.035999999999998" y="160.153" class="e">filesize</text><text x="27.054" y="160.153" class="f">&lt;int&gt;</text><text x="32.064" y="160.153" class="e">,</text><text x="34.068" y="160.153" class="e">built</text><text x="40.08" y="160.153" class="f">&lt;chr&gt;</text><text x="45.089999999999996" y="160.153" class="e">,</text><text x="47.093999999999994" y="160.153" class="e">platform</text><text x="56.111999999999995" y="160.153" class="f">&lt;chr&gt;</text><text x="61.12199999999999" y="160.153" class="e">,</text><text x="63.12599999999999" y="160.153" class="e">rversion</text><text x="72.14399999999999" y="160.153" class="f">&lt;chr&gt;</text><text x="77.154" y="160.153" class="e">,</text><text x="0" y="162.32399999999998" class="e">#</text><text x="4.008" y="162.32399999999998" class="e">repodir</text><text x="12.024" y="162.32399999999998" class="f">&lt;chr&gt;</text><text x="17.034" y="162.32399999999998" class="e">,</text><text x="19.037999999999997" y="162.32399999999998" class="e">target</text><text x="26.052" y="162.32399999999998" class="f">&lt;chr&gt;</text><text x="31.061999999999998" y="162.32399999999998" class="e">,</text><text x="33.065999999999995" y="162.32399999999998" class="e">deps</text><text x="38.07599999999999" y="162.32399999999998" class="f">&lt;list&gt;</text><text x="44.087999999999994" y="162.32399999999998" class="e">,</text><text x="46.09199999999999" y="162.32399999999998" class="e">mirror</text><text x="53.105999999999995" y="162.32399999999998" class="f">&lt;chr&gt;</text><text x="58.116" y="162.32399999999998" class="e">,</text><text x="60.11999999999999" y="162.32399999999998" class="e">sources</text><text x="68.136" y="162.32399999999998" class="f">&lt;list&gt;</text><text x="74.148" y="162.32399999999998" class="e">,</text><text x="0" y="164.495" class="e">#</text><text x="4.008" y="164.495" class="e">remote</text><text x="11.021999999999998" y="164.495" class="f">&lt;list&gt;</text><text x="17.034" y="164.495" class="e">,</text><text x="19.037999999999997" y="164.495" class="e">error</text><text x="25.05" y="164.495" class="f">&lt;list&gt;</text><text x="31.061999999999998" y="164.495" class="e">,</text><text x="33.065999999999995" y="164.495" class="e">metadata</text><text x="42.083999999999996" y="164.495" class="f">&lt;list&gt;</text><text x="48.096" y="164.495" class="e">,</text><text x="50.1" y="164.495" class="e">extra</text><text x="56.111999999999995" y="164.495" class="f">&lt;list&gt;</text><text x="62.123999999999995" y="164.495" class="e">,</text><text x="0" y="166.66599999999997" class="e">#</text><text x="4.008" y="166.66599999999997" class="e">dep_types</text><text x="14.027999999999999" y="166.66599999999997" class="f">&lt;list&gt;</text><text x="20.04" y="166.66599999999997" class="e">,</text><text x="22.043999999999997" y="166.66599999999997" class="e">cache_status</text><text x="35.06999999999999" y="166.66599999999997" class="f">&lt;chr&gt;</text><text x="40.08" y="166.66599999999997" class="e">,</text><text x="42.083999999999996" y="166.66599999999997" class="e">fulltarget</text><text x="53.105999999999995" y="166.66599999999997" class="f">&lt;chr&gt;</text><text x="58.116" y="166.66599999999997" class="e">,</text><text x="0" y="168.837" class="e">#</text><text x="4.008" y="168.837" class="e">fulltarget_tree</text><text x="20.04" y="168.837" class="f">&lt;chr&gt;</text><text x="25.05" y="168.837" class="e">,</text><text x="27.054" y="168.837" class="e">download_status</text><text x="43.086" y="168.837" class="f">&lt;chr&gt;</text><text x="48.096" y="168.837" class="e">,</text><text x="50.1" y="168.837" class="e">download_error</text><text x="65.13" y="168.837" class="f">&lt;list&gt;</text><text x="71.142" y="168.837" class="e">,</text><text x="0" y="171.00799999999998" class="e">#</text><text x="4.008" y="171.00799999999998" class="e">file_size</text><text x="14.027999999999999" y="171.00799999999998" class="f">&lt;dbl&gt;</text><text x="0" y="173.179" class="c">[1]</text><text x="4.008" y="173.179" class="c">&quot;bin&quot;</text><text x="10.02" y="173.179" class="c">&quot;src&quot;</text></svg></svg></g></svg></svg>