<svg xmlns="http://www.w3.org/2000/svg" xmlns:xlink="http://www.w3.org/1999/xlink" width="1040" height="1147.21"><rect width="1040" height="1147.21" rx="0" ry="0" class="a"></rect><svg height="1107.21" viewBox="0 0 100 110.721" width="1000" x="20" xmlns="http://www.w3.org/2000/svg" xmlns:xlink="http://www.w3.org/1999/xlink" y="20"><style>.a{fill:rgb(40,45,53)}.b{font-family:'Fira Code',Monaco,Consolas,Menlo,'Bitstream Vera Sans Mono','Powerline Symbols',monospace}.c{fill:transparent}.d{fill:rgb(185,192,203);white-space:pre}</style><g font-family="&#x27;Fira Code&#x27;,Monaco,Consolas,Menlo,&#x27;Bitstream Vera Sans Mono&#x27;,&#x27;Powerline Symbols&#x27;,monospace" font-size="1.67" class="b"><defs><symbol id="a"><rect height="52" width="100" x="0" y="0" class="c"></rect></symbol></defs><rect height="110.721" width="100" class="a"></rect><svg x="0" y="0" width="100"><svg x="0"><use xlink:href="#a"></use><text x="1.002" y="1.67" class="d">[1]</text><text x="5.01" y="1.67" class="d">&quot;ggplot2</text><text x="14.027999999999999" y="1.67" class="d">3.3.5</text><text x="20.04" y="1.67" class="d">[new][bld][dl]</text><text x="35.06999999999999" y="1.67" class="d">(3.06</text><text x="41.082" y="1.67" class="d">MB)&quot;</text><text x="1.002" y="3.8409999999999997" class="d">[2]</text><text x="5.01" y="3.8409999999999997" class="d">&quot;├─digest</text><text x="15.029999999999998" y="3.8409999999999997" class="d">0.6.29</text><text x="22.043999999999997" y="3.8409999999999997" class="d">[new][bld][cmp]&quot;</text><text x="1.002" y="6.012" class="d">[3]</text><text x="5.01" y="6.012" class="d">&quot;├─glue</text><text x="13.026" y="6.012" class="d">1.6.1</text><text x="19.037999999999997" y="6.012" class="d">[new][bld][cmp][dl]</text><text x="39.077999999999996" y="6.012" class="d">(110.72</text><text x="47.093999999999994" y="6.012" class="d">kB)&quot;</text><text x="1.002" y="8.183" class="d">[4]</text><text x="5.01" y="8.183" class="d">&quot;├─gtable</text><text x="15.029999999999998" y="8.183" class="d">0.3.0</text><text x="21.041999999999998" y="8.183" class="d">[new][bld][dl]</text><text x="36.071999999999996" y="8.183" class="d">(368.08</text><text x="44.087999999999994" y="8.183" class="d">kB)&quot;</text><text x="1.002" y="10.354" class="d">[5]</text><text x="5.01" y="10.354" class="d">&quot;├─isoband</text><text x="16.032" y="10.354" class="d">0.2.5</text><text x="22.043999999999997" y="10.354" class="d">[new][bld][cmp][dl]</text><text x="42.083999999999996" y="10.354" class="d">(1.67</text><text x="48.096" y="10.354" class="d">MB)&quot;</text><text x="1.002" y="12.525" class="d">[6]</text><text x="5.01" y="12.525" class="d">&quot;├─MASS</text><text x="13.026" y="12.525" class="d">7.3-54</text><text x="20.04" y="12.525" class="d">&lt;</text><text x="22.043999999999997" y="12.525" class="d">7.3-55</text><text x="29.058" y="12.525" class="d">[old]&quot;</text><text x="1.002" y="14.696" class="d">[7]</text><text x="5.01" y="14.696" class="d">&quot;├─mgcv</text><text x="13.026" y="14.696" class="d">1.8-38</text><text x="20.04" y="14.696" class="d">&quot;</text><text x="1.002" y="16.866999999999997" class="d">[8]</text><text x="5.01" y="16.866999999999997" class="d">&quot;│</text><text x="8.016" y="16.866999999999997" class="d">├─nlme</text><text x="15.029999999999998" y="16.866999999999997" class="d">3.1-153</text><text x="23.045999999999996" y="16.866999999999997" class="d">&lt;</text><text x="25.05" y="16.866999999999997" class="d">3.1-155</text><text x="33.065999999999995" y="16.866999999999997" class="d">[old]&quot;</text><text x="1.002" y="19.037999999999997" class="d">[9]</text><text x="5.01" y="19.037999999999997" class="d">&quot;│</text><text x="8.016" y="19.037999999999997" class="d">│</text><text x="10.02" y="19.037999999999997" class="d">└─lattice</text><text x="20.04" y="19.037999999999997" class="d">0.20-45</text><text x="28.055999999999997" y="19.037999999999997" class="d">&quot;</text><text x="0" y="21.209000000000003" class="d">[10]</text><text x="5.01" y="21.209000000000003" class="d">&quot;│</text><text x="8.016" y="21.209000000000003" class="d">└─Matrix</text><text x="17.034" y="21.209000000000003" class="d">1.3-4</text><text x="23.045999999999996" y="21.209000000000003" class="d">&lt;</text><text x="25.05" y="21.209000000000003" class="d">1.4-0</text><text x="31.061999999999998" y="21.209000000000003" class="d">[old]&quot;</text><text x="0" y="23.380000000000003" class="d">[11]</text><text x="5.01" y="23.380000000000003" class="d">&quot;│</text><text x="10.02" y="23.380000000000003" class="d">└─lattice&quot;</text><text x="0" y="25.550999999999995" class="d">[12]</text><text x="5.01" y="25.550999999999995" class="d">&quot;├─rlang</text><text x="14.027999999999999" y="25.550999999999995" class="d">1.0.1</text><text x="20.04" y="25.550999999999995" class="d">[new][bld][cmp][dl]</text><text x="40.08" y="25.550999999999995" class="d">(717.37</text><text x="48.096" y="25.550999999999995" class="d">kB)&quot;</text><text x="0" y="27.722" class="d">[13]</text><text x="5.01" y="27.722" class="d">&quot;├─scales</text><text x="15.029999999999998" y="27.722" class="d">1.1.1</text><text x="21.041999999999998" y="27.722" class="d">[new][bld][dl]</text><text x="36.071999999999996" y="27.722" class="d">(515.20</text><text x="44.087999999999994" y="27.722" class="d">kB)&quot;</text><text x="0" y="29.893" class="d">[14]</text><text x="5.01" y="29.893" class="d">&quot;│</text><text x="8.016" y="29.893" class="d">├─farver</text><text x="17.034" y="29.893" class="d">2.1.0</text><text x="23.045999999999996" y="29.893" class="d">[new][bld][cmp][dl]</text><text x="43.086" y="29.893" class="d">(1.28</text><text x="49.098" y="29.893" class="d">MB)&quot;</text><text x="0" y="32.064" class="d">[15]</text><text x="5.01" y="32.064" class="d">&quot;│</text><text x="8.016" y="32.064" class="d">├─labeling</text><text x="19.037999999999997" y="32.064" class="d">0.4.2</text><text x="25.05" y="32.064" class="d">[new][bld][dl]</text><text x="40.08" y="32.064" class="d">(10.16</text><text x="47.093999999999994" y="32.064" class="d">kB)&quot;</text><text x="0" y="34.235" class="d">[16]</text><text x="5.01" y="34.235" class="d">&quot;│</text><text x="8.016" y="34.235" class="d">├─lifecycle</text><text x="20.04" y="34.235" class="d">1.0.1</text><text x="26.052" y="34.235" class="d">[new][bld]&quot;</text><text x="0" y="36.406" class="d">[17]</text><text x="5.01" y="36.406" class="d">&quot;│</text><text x="8.016" y="36.406" class="d">│</text><text x="10.02" y="36.406" class="d">├─glue&quot;</text><text x="0" y="38.577000000000005" class="d">[18]</text><text x="5.01" y="38.577000000000005" class="d">&quot;│</text><text x="8.016" y="38.577000000000005" class="d">│</text><text x="10.02" y="38.577000000000005" class="d">└─rlang&quot;</text><text x="0" y="40.748000000000005" class="d">[19]</text><text x="5.01" y="40.748000000000005" class="d">&quot;│</text><text x="8.016" y="40.748000000000005" class="d">├─munsell</text><text x="18.035999999999998" y="40.748000000000005" class="d">0.5.0</text><text x="24.048" y="40.748000000000005" class="d">[new][bld][dl]</text><text x="39.077999999999996" y="40.748000000000005" class="d">(182.65</text><text x="47.093999999999994" y="40.748000000000005" class="d">kB)&quot;</text><text x="0" y="42.919" class="d">[20]</text><text x="5.01" y="42.919" class="d">&quot;│</text><text x="8.016" y="42.919" class="d">│</text><text x="10.02" y="42.919" class="d">└─colorspace</text><text x="23.045999999999996" y="42.919" class="d">2.0-2</text><text x="29.058" y="42.919" class="d">[new][bld][cmp][dl]</text><text x="49.098" y="42.919" class="d">(2.20</text><text x="55.10999999999999" y="42.919" class="d">MB)&quot;</text><text x="0" y="45.09" class="d">[21]</text><text x="5.01" y="45.09" class="d">&quot;│</text><text x="8.016" y="45.09" class="d">├─R6</text><text x="13.026" y="45.09" class="d">2.5.1</text><text x="19.037999999999997" y="45.09" class="d">[new][bld]&quot;</text><text x="0" y="47.261" class="d">[22]</text><text x="5.01" y="47.261" class="d">&quot;│</text><text x="8.016" y="47.261" class="d">├─RColorBrewer</text><text x="23.045999999999996" y="47.261" class="d">1.1-2</text><text x="29.058" y="47.261" class="d">[new][bld][dl]</text><text x="44.087999999999994" y="47.261" class="d">(11.53</text><text x="51.102" y="47.261" class="d">kB)&quot;</text><text x="0" y="49.431999999999995" class="d">[23]</text><text x="5.01" y="49.431999999999995" class="d">&quot;│</text><text x="8.016" y="49.431999999999995" class="d">└─viridisLite</text><text x="22.043999999999997" y="49.431999999999995" class="d">0.4.0</text><text x="28.055999999999997" y="49.431999999999995" class="d">[new][bld][dl]</text><text x="43.086" y="49.431999999999995" class="d">(1.27</text><text x="49.098" y="49.431999999999995" class="d">MB)&quot;</text><text x="0" y="51.603" class="d">[24]</text><text x="5.01" y="51.603" class="d">&quot;├─tibble</text><text x="15.029999999999998" y="51.603" class="d">3.1.6</text><text x="21.041999999999998" y="51.603" class="d">[new][bld][cmp]&quot;</text><text x="0" y="53.774" class="d">[25]</text><text x="5.01" y="53.774" class="d">&quot;│</text><text x="8.016" y="53.774" class="d">├─ellipsis</text><text x="19.037999999999997" y="53.774" class="d">0.3.2</text><text x="25.05" y="53.774" class="d">[new][bld][cmp]&quot;</text><text x="0" y="55.945" class="d">[26]</text><text x="5.01" y="55.945" class="d">&quot;│</text><text x="8.016" y="55.945" class="d">│</text><text x="10.02" y="55.945" class="d">└─rlang&quot;</text><text x="0" y="58.11600000000001" class="d">[27]</text><text x="5.01" y="58.11600000000001" class="d">&quot;│</text><text x="8.016" y="58.11600000000001" class="d">├─fansi</text><text x="16.032" y="58.11600000000001" class="d">1.0.2</text><text x="22.043999999999997" y="58.11600000000001" class="d">[new][bld][cmp][dl]</text><text x="42.083999999999996" y="58.11600000000001" class="d">(480.90</text><text x="50.1" y="58.11600000000001" class="d">kB)&quot;</text><text x="0" y="60.287" class="d">[28]</text><text x="5.01" y="60.287" class="d">&quot;│</text><text x="8.016" y="60.287" class="d">├─lifecycle&quot;</text><text x="0" y="62.458" class="d">[29]</text><text x="5.01" y="62.458" class="d">&quot;│</text><text x="8.016" y="62.458" class="d">├─magrittr</text><text x="19.037999999999997" y="62.458" class="d">2.0.2</text><text x="25.05" y="62.458" class="d">[new][bld][cmp]&quot;</text><text x="0" y="64.629" class="d">[30]</text><text x="5.01" y="64.629" class="d">&quot;│</text><text x="8.016" y="64.629" class="d">├─pillar</text><text x="17.034" y="64.629" class="d">1.7.0</text><text x="23.045999999999996" y="64.629" class="d">[new][bld]&quot;</text><text x="0" y="66.8" class="d">[31]</text><text x="5.01" y="66.8" class="d">&quot;│</text><text x="8.016" y="66.8" class="d">│</text><text x="10.02" y="66.8" class="d">├─cli</text><text x="16.032" y="66.8" class="d">3.2.0</text><text x="22.043999999999997" y="66.8" class="d">[new][bld][cmp][dl]</text><text x="42.083999999999996" y="66.8" class="d">(493.19</text><text x="50.1" y="66.8" class="d">kB)&quot;</text><text x="0" y="68.971" class="d">[32]</text><text x="5.01" y="68.971" class="d">&quot;│</text><text x="8.016" y="68.971" class="d">│</text><text x="10.02" y="68.971" class="d">│</text><text x="12.024" y="68.971" class="d">└─glue&quot;</text><text x="0" y="71.142" class="d">[33]</text><text x="5.01" y="71.142" class="d">&quot;│</text><text x="8.016" y="71.142" class="d">│</text><text x="10.02" y="71.142" class="d">├─crayon</text><text x="19.037999999999997" y="71.142" class="d">1.5.0</text><text x="25.05" y="71.142" class="d">[new][bld][dl]</text><text x="40.08" y="71.142" class="d">(40.10</text><text x="47.093999999999994" y="71.142" class="d">kB)&quot;</text><text x="0" y="73.313" class="d">[34]</text><text x="5.01" y="73.313" class="d">&quot;│</text><text x="8.016" y="73.313" class="d">│</text><text x="10.02" y="73.313" class="d">├─ellipsis&quot;</text><text x="0" y="75.48400000000001" class="d">[35]</text><text x="5.01" y="75.48400000000001" class="d">&quot;│</text><text x="8.016" y="75.48400000000001" class="d">│</text><text x="10.02" y="75.48400000000001" class="d">├─fansi&quot;</text><text x="0" y="77.655" class="d">[36]</text><text x="5.01" y="77.655" class="d">&quot;│</text><text x="8.016" y="77.655" class="d">│</text><text x="10.02" y="77.655" class="d">├─glue&quot;</text><text x="0" y="79.82600000000001" class="d">[37]</text><text x="5.01" y="79.82600000000001" class="d">&quot;│</text><text x="8.016" y="79.82600000000001" class="d">│</text><text x="10.02" y="79.82600000000001" class="d">├─lifecycle&quot;</text><text x="0" y="81.997" class="d">[38]</text><text x="5.01" y="81.997" class="d">&quot;│</text><text x="8.016" y="81.997" class="d">│</text><text x="10.02" y="81.997" class="d">├─rlang&quot;</text><text x="0" y="84.16799999999999" class="d">[39]</text><text x="5.01" y="84.16799999999999" class="d">&quot;│</text><text x="8.016" y="84.16799999999999" class="d">│</text><text x="10.02" y="84.16799999999999" class="d">├─utf8</text><text x="17.034" y="84.16799999999999" class="d">1.2.2</text><text x="23.045999999999996" y="84.16799999999999" class="d">[new][bld][cmp]&quot;</text><text x="0" y="86.339" class="d">[40]</text><text x="5.01" y="86.339" class="d">&quot;│</text><text x="8.016" y="86.339" class="d">│</text><text x="10.02" y="86.339" class="d">└─vctrs</text><text x="18.035999999999998" y="86.339" class="d">0.3.8</text><text x="24.048" y="86.339" class="d">[new][bld][cmp]&quot;</text><text x="0" y="88.51" class="d">[41]</text><text x="5.01" y="88.51" class="d">&quot;│</text><text x="8.016" y="88.51" class="d">│</text><text x="12.024" y="88.51" class="d">├─ellipsis&quot;</text><text x="0" y="90.681" class="d">[42]</text><text x="5.01" y="90.681" class="d">&quot;│</text><text x="8.016" y="90.681" class="d">│</text><text x="12.024" y="90.681" class="d">├─glue&quot;</text><text x="0" y="92.852" class="d">[43]</text><text x="5.01" y="92.852" class="d">&quot;│</text><text x="8.016" y="92.852" class="d">│</text><text x="12.024" y="92.852" class="d">└─rlang&quot;</text><text x="0" y="95.02300000000001" class="d">[44]</text><text x="5.01" y="95.02300000000001" class="d">&quot;│</text><text x="8.016" y="95.02300000000001" class="d">├─pkgconfig</text><text x="20.04" y="95.02300000000001" class="d">2.0.3</text><text x="26.052" y="95.02300000000001" class="d">[new][bld]&quot;</text><text x="0" y="97.19399999999999" class="d">[45]</text><text x="5.01" y="97.19399999999999" class="d">&quot;│</text><text x="8.016" y="97.19399999999999" class="d">├─rlang&quot;</text><text x="0" y="99.365" class="d">[46]</text><text x="5.01" y="99.365" class="d">&quot;│</text><text x="8.016" y="99.365" class="d">└─vctrs&quot;</text><text x="0" y="101.536" class="d">[47]</text><text x="5.01" y="101.536" class="d">&quot;└─withr</text><text x="14.027999999999999" y="101.536" class="d">2.4.3</text><text x="20.04" y="101.536" class="d">[new][bld]&quot;</text><text x="0" y="103.707" class="d">[48]</text><text x="5.01" y="103.707" class="d">&quot;&quot;</text><text x="0" y="105.878" class="d">[49]</text><text x="5.01" y="105.878" class="d">&quot;Key:</text><text x="12.024" y="105.878" class="d">[new]</text><text x="18.035999999999998" y="105.878" class="d">new</text><text x="22.043999999999997" y="105.878" class="d">|</text><text x="24.048" y="105.878" class="d">[old]</text><text x="30.059999999999995" y="105.878" class="d">outdated</text><text x="39.077999999999996" y="105.878" class="d">|</text><text x="41.082" y="105.878" class="d">[dl]</text><text x="46.09199999999999" y="105.878" class="d">download</text><text x="55.10999999999999" y="105.878" class="d">|</text><text x="57.114" y="105.878" class="d">[bld]</text><text x="63.12599999999999" y="105.878" class="d">build</text><text x="69.13799999999999" y="105.878" class="d">|</text><text x="71.142" y="105.878" class="d">[cmp]</text><text x="77.154" y="105.878" class="d">compile&quot;</text><text x="0" y="108.049" class="d">attr(,&quot;class&quot;)</text><text x="0" y="110.22" class="d">[1]</text><text x="4.008" y="110.22" class="d">&quot;tree&quot;</text><text x="16.032" y="110.22" class="d">&quot;character&quot;</text></svg></svg></g></svg></svg>