<svg xmlns="http://www.w3.org/2000/svg" xmlns:xlink="http://www.w3.org/1999/xlink" width="1040" height="300.52"><rect width="1040" height="300.52" rx="0" ry="0" class="a"></rect><svg height="260.52" viewBox="0 0 100 26.052" width="1000" x="20" xmlns="http://www.w3.org/2000/svg" xmlns:xlink="http://www.w3.org/1999/xlink" y="20"><style>.a{fill:rgb(40,45,53)}.b{font-family:'Fira Code',Monaco,Consolas,Menlo,'Bitstream Vera Sans Mono','Powerline Symbols',monospace}.c{fill:rgb(232,131,136);white-space:pre}.d{fill:rgb(185,192,203);white-space:pre}.e{fill:transparent}.f{fill:rgb(111,119,131);white-space:pre}.g{fill:rgb(111,119,131);font-style:italic;white-space:pre}</style><g font-family="&#x27;Fira Code&#x27;,Monaco,Consolas,Menlo,&#x27;Bitstream Vera Sans Mono&#x27;,&#x27;Powerline Symbols&#x27;,monospace" font-size="1.67" class="b"><defs><symbol id="1"><text x="0" y="1.67" class="c">✖</text><text x="2.004" y="1.67" class="d">Metadata</text><text x="11.021999999999998" y="1.67" class="d">update</text><text x="18.035999999999998" y="1.67" class="d">failed</text></symbol><symbol id="2"><text x="0" y="1.67" class="d">Error</text><text x="6.012" y="1.67" class="d">in</text><text x="9.017999999999999" y="1.67" class="d">stop(http_error(resp))</text><text x="32.064" y="1.67" class="d">:</text><text x="34.068" y="1.67" class="d">Not</text><text x="38.07599999999999" y="1.67" class="d">Found</text><text x="44.087999999999994" y="1.67" class="d">(HTTP</text><text x="50.1" y="1.67" class="d">404).</text></symbol><symbol id="a"><rect height="13" width="100" x="0" y="0" class="e"></rect></symbol></defs><rect height="26.052" width="100" class="a"></rect><svg x="0" y="0" width="100"><svg x="0"><use xlink:href="#a"></use><use xlink:href="#1" y="0"></use><use xlink:href="#2" y="2.171"></use><use xlink:href="#1" y="4.342"></use><use xlink:href="#2" y="6.513"></use><text x="0" y="10.354" class="d">Error</text><text x="6.012" y="10.354" class="d">in</text><text x="9.017999999999999" y="10.354" class="d">pkgplan_get_solution_download(self,</text><text x="45.089999999999996" y="10.354" class="d">private)</text><text x="54.108" y="10.354" class="d">:</text><text x="56.111999999999995" y="10.354" class="d">No</text><text x="59.117999999999995" y="10.354" class="d">downloads</text><text x="0" y="12.525" class="f">#</text><text x="2.004" y="12.525" class="f">A</text><text x="4.008" y="12.525" class="f">tibble:</text><text x="12.024" y="12.525" class="f">0</text><text x="14.027999999999999" y="12.525" class="f">x</text><text x="16.032" y="12.525" class="f">24</text><text x="0" y="14.696" class="f">#</text><text x="2.004" y="14.696" class="f">…</text><text x="4.008" y="14.696" class="f">with</text><text x="9.017999999999999" y="14.696" class="f">24</text><text x="12.024" y="14.696" class="f">variables:</text><text x="23.045999999999996" y="14.696" class="f">library</text><text x="31.061999999999998" y="14.696" class="g">&lt;chr&gt;</text><text x="36.071999999999996" y="14.696" class="f">,</text><text x="38.07599999999999" y="14.696" class="f">package</text><text x="46.09199999999999" y="14.696" class="g">&lt;chr&gt;</text><text x="51.102" y="14.696" class="f">,</text><text x="53.105999999999995" y="14.696" class="f">title</text><text x="59.117999999999995" y="14.696" class="g">&lt;chr&gt;</text><text x="64.128" y="14.696" class="f">,</text><text x="0" y="16.866999999999997" class="f">#</text><text x="4.008" y="16.866999999999997" class="f">version</text><text x="12.024" y="16.866999999999997" class="g">&lt;chr&gt;</text><text x="17.034" y="16.866999999999997" class="f">,</text><text x="19.037999999999997" y="16.866999999999997" class="f">depends</text><text x="27.054" y="16.866999999999997" class="g">&lt;chr&gt;</text><text x="32.064" y="16.866999999999997" class="f">,</text><text x="34.068" y="16.866999999999997" class="f">suggests</text><text x="43.086" y="16.866999999999997" class="g">&lt;chr&gt;</text><text x="48.096" y="16.866999999999997" class="f">,</text><text x="50.1" y="16.866999999999997" class="f">imports</text><text x="58.116" y="16.866999999999997" class="g">&lt;chr&gt;</text><text x="63.12599999999999" y="16.866999999999997" class="f">,</text><text x="0" y="19.037999999999997" class="f">#</text><text x="4.008" y="19.037999999999997" class="f">linkingto</text><text x="14.027999999999999" y="19.037999999999997" class="g">&lt;chr&gt;</text><text x="19.037999999999997" y="19.037999999999997" class="f">,</text><text x="21.041999999999998" y="19.037999999999997" class="f">enhances</text><text x="30.059999999999995" y="19.037999999999997" class="g">&lt;chr&gt;</text><text x="35.06999999999999" y="19.037999999999997" class="f">,</text><text x="37.074" y="19.037999999999997" class="f">built</text><text x="43.086" y="19.037999999999997" class="g">&lt;chr&gt;</text><text x="48.096" y="19.037999999999997" class="f">,</text><text x="50.1" y="19.037999999999997" class="f">md5sum</text><text x="57.114" y="19.037999999999997" class="g">&lt;chr&gt;</text><text x="62.123999999999995" y="19.037999999999997" class="f">,</text><text x="0" y="21.209000000000003" class="f">#</text><text x="4.008" y="21.209000000000003" class="f">needscompilation</text><text x="21.041999999999998" y="21.209000000000003" class="g">&lt;lgl&gt;</text><text x="26.052" y="21.209000000000003" class="f">,</text><text x="28.055999999999997" y="21.209000000000003" class="f">platform</text><text x="37.074" y="21.209000000000003" class="g">&lt;chr&gt;</text><text x="42.083999999999996" y="21.209000000000003" class="f">,</text><text x="44.087999999999994" y="21.209000000000003" class="f">license</text><text x="52.104" y="21.209000000000003" class="g">&lt;chr&gt;</text><text x="57.114" y="21.209000000000003" class="f">,</text><text x="59.117999999999995" y="21.209000000000003" class="f">priority</text><text x="68.136" y="21.209000000000003" class="g">&lt;chr&gt;</text><text x="73.146" y="21.209000000000003" class="f">,</text><text x="0" y="23.380000000000003" class="f">#</text><text x="4.008" y="23.380000000000003" class="f">repository</text><text x="15.029999999999998" y="23.380000000000003" class="g">&lt;chr&gt;</text><text x="20.04" y="23.380000000000003" class="f">,</text><text x="22.043999999999997" y="23.380000000000003" class="f">biocviews</text><text x="32.064" y="23.380000000000003" class="g">&lt;chr&gt;</text><text x="37.074" y="23.380000000000003" class="f">,</text><text x="39.077999999999996" y="23.380000000000003" class="f">ref</text><text x="43.086" y="23.380000000000003" class="g">&lt;chr&gt;</text><text x="48.096" y="23.380000000000003" class="f">,</text><text x="50.1" y="23.380000000000003" class="f">type</text><text x="55.10999999999999" y="23.380000000000003" class="g">&lt;chr&gt;</text><text x="60.11999999999999" y="23.380000000000003" class="f">,</text><text x="62.123999999999995" y="23.380000000000003" class="f">status</text><text x="69.13799999999999" y="23.380000000000003" class="g">&lt;chr&gt;</text><text x="74.148" y="23.380000000000003" class="f">,</text><text x="0" y="25.550999999999995" class="f">#</text><text x="4.008" y="25.550999999999995" class="f">rversion</text><text x="13.026" y="25.550999999999995" class="g">&lt;chr&gt;</text><text x="18.035999999999998" y="25.550999999999995" class="f">,</text><text x="20.04" y="25.550999999999995" class="f">sources</text><text x="28.055999999999997" y="25.550999999999995" class="g">&lt;list&gt;</text><text x="34.068" y="25.550999999999995" class="f">,</text><text x="36.071999999999996" y="25.550999999999995" class="f">repotype</text><text x="45.089999999999996" y="25.550999999999995" class="g">&lt;lgl&gt;</text><text x="50.1" y="25.550999999999995" class="f">,</text><text x="52.104" y="25.550999999999995" class="f">deps</text><text x="57.114" y="25.550999999999995" class="g">&lt;list&gt;</text></svg></svg></g></svg></svg>