<svg xmlns="http://www.w3.org/2000/svg" xmlns:xlink="http://www.w3.org/1999/xlink" width="1040" height="474.20000000000005"><rect width="1040" height="474.20000000000005" rx="0" ry="0" class="a"></rect><svg height="434.20000000000005" viewBox="0 0 100 43.42" width="1000" x="20" xmlns="http://www.w3.org/2000/svg" xmlns:xlink="http://www.w3.org/1999/xlink" y="20"><style>.a{fill:rgb(40,45,53)}.b{font-family:'Fira Code',Monaco,Consolas,Menlo,'Bitstream Vera Sans Mono','Powerline Symbols',monospace}.c{fill:transparent}.d{fill:rgb(219,171,121);white-space:pre}.e{fill:rgb(185,192,203);white-space:pre}.f{fill:rgb(185,191,202)}.g{white-space:pre}.h{fill:rgb(111,119,131);white-space:pre}.i{fill:rgb(111,119,131);font-style:italic;white-space:pre}</style><g font-family="&#x27;Fira Code&#x27;,Monaco,Consolas,Menlo,&#x27;Bitstream Vera Sans Mono&#x27;,&#x27;Powerline Symbols&#x27;,monospace" font-size="1.67" class="b"><defs><symbol id="a"><rect height="21" width="100" x="0" y="0" class="c"></rect></symbol></defs><rect height="43.42" width="100" class="a"></rect><svg x="0" y="0" width="100"><svg x="0"><use xlink:href="#a"></use><text x="0" y="1.67" class="d">!</text><text x="2.004" y="1.67" class="e">Using</text><text x="8.016" y="1.67" class="e">bundled</text><text x="16.032" y="1.67" class="e">GitHub</text><text x="23.045999999999996" y="1.67" class="e">PAT.</text><text x="28.055999999999997" y="1.67" class="e">Please</text><text x="35.06999999999999" y="1.67" class="e">add</text><text x="39.077999999999996" y="1.67" class="e">your</text><text x="44.087999999999994" y="1.67" class="e">own</text><text x="48.096" y="1.67" class="e">PAT</text><text x="52.104" y="1.67" class="e">using</text><rect height="2.171" width="26" x="58.116" y="0" class="f"></rect><text x="58.116" y="1.67" class="g">`gitcreds::gitcreds_set()`</text><text x="84.16799999999999" y="1.67" class="e">.</text><text x="0" y="3.8409999999999997" class="h">#</text><text x="2.004" y="3.8409999999999997" class="h">A</text><text x="4.008" y="3.8409999999999997" class="h">tibble:</text><text x="12.024" y="3.8409999999999997" class="h">32</text><text x="15.029999999999998" y="3.8409999999999997" class="h">x</text><text x="17.034" y="3.8409999999999997" class="h">30</text><text x="3.006" y="6.012" class="e">ref</text><text x="9.017999999999999" y="6.012" class="e">type</text><text x="15.029999999999998" y="6.012" class="e">direct</text><text x="22.043999999999997" y="6.012" class="e">directpkg</text><text x="32.064" y="6.012" class="e">status</text><text x="39.077999999999996" y="6.012" class="e">package</text><text x="47.093999999999994" y="6.012" class="e">version</text><text x="55.10999999999999" y="6.012" class="e">license</text><text x="63.12599999999999" y="6.012" class="e">needscompilation</text><text x="3.006" y="8.183" class="i">&lt;chr&gt;</text><text x="9.017999999999999" y="8.183" class="i">&lt;chr&gt;</text><text x="15.029999999999998" y="8.183" class="i">&lt;lgl&gt;</text><text x="22.043999999999997" y="8.183" class="i">&lt;lgl&gt;</text><text x="32.064" y="8.183" class="i">&lt;chr&gt;</text><text x="39.077999999999996" y="8.183" class="i">&lt;chr&gt;</text><text x="47.093999999999994" y="8.183" class="i">&lt;chr&gt;</text><text x="55.10999999999999" y="8.183" class="i">&lt;chr&gt;</text><text x="63.12599999999999" y="8.183" class="i">&lt;lgl&gt;</text><text x="1.002" y="10.354" class="h">1</text><text x="3.006" y="10.354" class="e">tidy…</text><text x="9.017999999999999" y="10.354" class="e">gith…</text><text x="15.029999999999998" y="10.354" class="e">TRUE</text><text x="22.043999999999997" y="10.354" class="e">TRUE</text><text x="32.064" y="10.354" class="e">OK</text><text x="39.077999999999996" y="10.354" class="e">ggplot2</text><text x="47.093999999999994" y="10.354" class="e">3.3.2.…</text><text x="55.10999999999999" y="10.354" class="e">GPL-2</text><text x="61.12199999999999" y="10.354" class="e">…</text><text x="63.12599999999999" y="10.354" class="e">TRUE</text><text x="1.002" y="12.525" class="h">2</text><text x="3.006" y="12.525" class="e">R6</text><text x="9.017999999999999" y="12.525" class="e">stan…</text><text x="15.029999999999998" y="12.525" class="e">FALSE</text><text x="22.043999999999997" y="12.525" class="e">FALSE</text><text x="32.064" y="12.525" class="e">OK</text><text x="39.077999999999996" y="12.525" class="e">R6</text><text x="47.093999999999994" y="12.525" class="e">2.5.0</text><text x="55.10999999999999" y="12.525" class="e">MIT</text><text x="59.117999999999995" y="12.525" class="e">+</text><text x="61.12199999999999" y="12.525" class="e">…</text><text x="63.12599999999999" y="12.525" class="e">FALSE</text><text x="1.002" y="14.696" class="h">3</text><text x="3.006" y="14.696" class="e">RCol…</text><text x="9.017999999999999" y="14.696" class="e">stan…</text><text x="15.029999999999998" y="14.696" class="e">FALSE</text><text x="22.043999999999997" y="14.696" class="e">FALSE</text><text x="32.064" y="14.696" class="e">OK</text><text x="39.077999999999996" y="14.696" class="e">RColor…</text><text x="47.093999999999994" y="14.696" class="e">1.1-2</text><text x="55.10999999999999" y="14.696" class="e">Apache…</text><text x="63.12599999999999" y="14.696" class="e">FALSE</text><text x="1.002" y="16.866999999999997" class="h">4</text><text x="3.006" y="16.866999999999997" class="e">asse…</text><text x="9.017999999999999" y="16.866999999999997" class="e">stan…</text><text x="15.029999999999998" y="16.866999999999997" class="e">FALSE</text><text x="22.043999999999997" y="16.866999999999997" class="e">FALSE</text><text x="32.064" y="16.866999999999997" class="e">OK</text><text x="39.077999999999996" y="16.866999999999997" class="e">assert…</text><text x="47.093999999999994" y="16.866999999999997" class="e">0.2.1</text><text x="55.10999999999999" y="16.866999999999997" class="e">GPL-3</text><text x="63.12599999999999" y="16.866999999999997" class="e">FALSE</text><text x="1.002" y="19.037999999999997" class="h">5</text><text x="3.006" y="19.037999999999997" class="e">cli</text><text x="9.017999999999999" y="19.037999999999997" class="e">stan…</text><text x="15.029999999999998" y="19.037999999999997" class="e">FALSE</text><text x="22.043999999999997" y="19.037999999999997" class="e">FALSE</text><text x="32.064" y="19.037999999999997" class="e">OK</text><text x="39.077999999999996" y="19.037999999999997" class="e">cli</text><text x="47.093999999999994" y="19.037999999999997" class="e">2.1.0</text><text x="55.10999999999999" y="19.037999999999997" class="e">MIT</text><text x="59.117999999999995" y="19.037999999999997" class="e">+</text><text x="61.12199999999999" y="19.037999999999997" class="e">…</text><text x="63.12599999999999" y="19.037999999999997" class="e">FALSE</text><text x="1.002" y="21.209000000000003" class="h">6</text><text x="3.006" y="21.209000000000003" class="e">colo…</text><text x="9.017999999999999" y="21.209000000000003" class="e">stan…</text><text x="15.029999999999998" y="21.209000000000003" class="e">FALSE</text><text x="22.043999999999997" y="21.209000000000003" class="e">FALSE</text><text x="32.064" y="21.209000000000003" class="e">OK</text><text x="39.077999999999996" y="21.209000000000003" class="e">colors…</text><text x="47.093999999999994" y="21.209000000000003" class="e">2.0-0</text><text x="55.10999999999999" y="21.209000000000003" class="e">BSD_3_…</text><text x="63.12599999999999" y="21.209000000000003" class="e">FALSE</text><text x="1.002" y="23.380000000000003" class="h">7</text><text x="3.006" y="23.380000000000003" class="e">cray…</text><text x="9.017999999999999" y="23.380000000000003" class="e">stan…</text><text x="15.029999999999998" y="23.380000000000003" class="e">FALSE</text><text x="22.043999999999997" y="23.380000000000003" class="e">FALSE</text><text x="32.064" y="23.380000000000003" class="e">OK</text><text x="39.077999999999996" y="23.380000000000003" class="e">crayon</text><text x="47.093999999999994" y="23.380000000000003" class="e">1.3.4</text><text x="55.10999999999999" y="23.380000000000003" class="e">MIT</text><text x="59.117999999999995" y="23.380000000000003" class="e">+</text><text x="61.12199999999999" y="23.380000000000003" class="e">…</text><text x="63.12599999999999" y="23.380000000000003" class="e">FALSE</text><text x="1.002" y="25.550999999999995" class="h">8</text><text x="3.006" y="25.550999999999995" class="e">dige…</text><text x="9.017999999999999" y="25.550999999999995" class="e">stan…</text><text x="15.029999999999998" y="25.550999999999995" class="e">FALSE</text><text x="22.043999999999997" y="25.550999999999995" class="e">FALSE</text><text x="32.064" y="25.550999999999995" class="e">OK</text><text x="39.077999999999996" y="25.550999999999995" class="e">digest</text><text x="47.093999999999994" y="25.550999999999995" class="e">0.6.27</text><text x="55.10999999999999" y="25.550999999999995" class="e">GPL</text><text x="59.117999999999995" y="25.550999999999995" class="e">(&gt;…</text><text x="63.12599999999999" y="25.550999999999995" class="e">FALSE</text><text x="1.002" y="27.722" class="h">9</text><text x="3.006" y="27.722" class="e">elli…</text><text x="9.017999999999999" y="27.722" class="e">stan…</text><text x="15.029999999999998" y="27.722" class="e">FALSE</text><text x="22.043999999999997" y="27.722" class="e">FALSE</text><text x="32.064" y="27.722" class="e">OK</text><text x="39.077999999999996" y="27.722" class="e">ellips…</text><text x="47.093999999999994" y="27.722" class="e">0.3.1</text><text x="55.10999999999999" y="27.722" class="e">GPL-3</text><text x="63.12599999999999" y="27.722" class="e">FALSE</text><text x="0" y="29.893" class="h">10</text><text x="3.006" y="29.893" class="e">fansi</text><text x="9.017999999999999" y="29.893" class="e">stan…</text><text x="15.029999999999998" y="29.893" class="e">FALSE</text><text x="22.043999999999997" y="29.893" class="e">FALSE</text><text x="32.064" y="29.893" class="e">OK</text><text x="39.077999999999996" y="29.893" class="e">fansi</text><text x="47.093999999999994" y="29.893" class="e">0.4.1</text><text x="55.10999999999999" y="29.893" class="e">GPL</text><text x="59.117999999999995" y="29.893" class="e">(&gt;…</text><text x="63.12599999999999" y="29.893" class="e">FALSE</text><text x="0" y="32.064" class="h">#</text><text x="2.004" y="32.064" class="h">…</text><text x="4.008" y="32.064" class="h">with</text><text x="9.017999999999999" y="32.064" class="h">22</text><text x="12.024" y="32.064" class="h">more</text><text x="17.034" y="32.064" class="h">rows,</text><text x="23.045999999999996" y="32.064" class="h">and</text><text x="27.054" y="32.064" class="h">21</text><text x="30.059999999999995" y="32.064" class="h">more</text><text x="35.06999999999999" y="32.064" class="h">variables:</text><text x="46.09199999999999" y="32.064" class="h">priority</text><text x="55.10999999999999" y="32.064" class="i">&lt;chr&gt;</text><text x="60.11999999999999" y="32.064" class="h">,</text><text x="62.123999999999995" y="32.064" class="h">md5sum</text><text x="69.13799999999999" y="32.064" class="i">&lt;chr&gt;</text><text x="74.148" y="32.064" class="h">,</text><text x="0" y="34.235" class="h">#</text><text x="4.008" y="34.235" class="h">sha256</text><text x="11.021999999999998" y="34.235" class="i">&lt;chr&gt;</text><text x="16.032" y="34.235" class="h">,</text><text x="18.035999999999998" y="34.235" class="h">filesize</text><text x="27.054" y="34.235" class="i">&lt;int&gt;</text><text x="32.064" y="34.235" class="h">,</text><text x="34.068" y="34.235" class="h">built</text><text x="40.08" y="34.235" class="i">&lt;chr&gt;</text><text x="45.089999999999996" y="34.235" class="h">,</text><text x="47.093999999999994" y="34.235" class="h">platform</text><text x="56.111999999999995" y="34.235" class="i">&lt;chr&gt;</text><text x="61.12199999999999" y="34.235" class="h">,</text><text x="63.12599999999999" y="34.235" class="h">rversion</text><text x="72.14399999999999" y="34.235" class="i">&lt;chr&gt;</text><text x="77.154" y="34.235" class="h">,</text><text x="0" y="36.406" class="h">#</text><text x="4.008" y="36.406" class="h">repodir</text><text x="12.024" y="36.406" class="i">&lt;chr&gt;</text><text x="17.034" y="36.406" class="h">,</text><text x="19.037999999999997" y="36.406" class="h">target</text><text x="26.052" y="36.406" class="i">&lt;glue&gt;</text><text x="32.064" y="36.406" class="h">,</text><text x="34.068" y="36.406" class="h">deps</text><text x="39.077999999999996" y="36.406" class="i">&lt;list&gt;</text><text x="45.089999999999996" y="36.406" class="h">,</text><text x="47.093999999999994" y="36.406" class="h">mirror</text><text x="54.108" y="36.406" class="i">&lt;chr&gt;</text><text x="59.117999999999995" y="36.406" class="h">,</text><text x="61.12199999999999" y="36.406" class="h">sources</text><text x="69.13799999999999" y="36.406" class="i">&lt;list&gt;</text><text x="75.14999999999999" y="36.406" class="h">,</text><text x="0" y="38.577000000000005" class="h">#</text><text x="4.008" y="38.577000000000005" class="h">remote</text><text x="11.021999999999998" y="38.577000000000005" class="i">&lt;list&gt;</text><text x="17.034" y="38.577000000000005" class="h">,</text><text x="19.037999999999997" y="38.577000000000005" class="h">error</text><text x="25.05" y="38.577000000000005" class="i">&lt;list&gt;</text><text x="31.061999999999998" y="38.577000000000005" class="h">,</text><text x="33.065999999999995" y="38.577000000000005" class="h">metadata</text><text x="42.083999999999996" y="38.577000000000005" class="i">&lt;list&gt;</text><text x="48.096" y="38.577000000000005" class="h">,</text><text x="50.1" y="38.577000000000005" class="h">extra</text><text x="56.111999999999995" y="38.577000000000005" class="i">&lt;list&gt;</text><text x="62.123999999999995" y="38.577000000000005" class="h">,</text><text x="0" y="40.748000000000005" class="h">#</text><text x="4.008" y="40.748000000000005" class="h">dep_types</text><text x="14.027999999999999" y="40.748000000000005" class="i">&lt;list&gt;</text><text x="20.04" y="40.748000000000005" class="h">,</text><text x="22.043999999999997" y="40.748000000000005" class="h">cache_status</text><text x="35.06999999999999" y="40.748000000000005" class="i">&lt;chr&gt;</text><text x="40.08" y="40.748000000000005" class="h">,</text><text x="42.083999999999996" y="40.748000000000005" class="h">lib_status</text><text x="53.105999999999995" y="40.748000000000005" class="i">&lt;chr&gt;</text><text x="58.116" y="40.748000000000005" class="h">,</text><text x="60.11999999999999" y="40.748000000000005" class="h">old_version</text><text x="72.14399999999999" y="40.748000000000005" class="i">&lt;chr&gt;</text><text x="77.154" y="40.748000000000005" class="h">,</text><text x="0" y="42.919" class="h">#</text><text x="4.008" y="42.919" class="h">new_version</text><text x="16.032" y="42.919" class="i">&lt;chr&gt;</text></svg></svg></g></svg></svg>