<svg xmlns="http://www.w3.org/2000/svg" xmlns:xlink="http://www.w3.org/1999/xlink" width="1040" height="452.48999999999995"><rect width="1040" height="452.48999999999995" rx="0" ry="0" class="a"></rect><svg height="412.48999999999995" viewBox="0 0 100 41.248999999999995" width="1000" x="20" xmlns="http://www.w3.org/2000/svg" xmlns:xlink="http://www.w3.org/1999/xlink" y="20"><style>.a{fill:rgb(40,45,53)}.b{font-family:'Fira Code',Monaco,Consolas,Menlo,'Bitstream Vera Sans Mono','Powerline Symbols',monospace}.c{fill:transparent}.d{fill:rgb(111,119,131);white-space:pre}.e{fill:rgb(185,192,203);white-space:pre}.f{fill:rgb(111,119,131);font-style:italic;white-space:pre}.g{fill:rgb(232,131,136);white-space:pre}</style><g font-family="&#x27;Fira Code&#x27;,Monaco,Consolas,Menlo,&#x27;Bitstream Vera Sans Mono&#x27;,&#x27;Powerline Symbols&#x27;,monospace" font-size="1.67" class="b"><defs><symbol id="a"><rect height="20" width="100" x="0" y="0" class="c"></rect></symbol></defs><rect height="41.248999999999995" width="100" class="a"></rect><svg x="0" y="0" width="100"><svg x="0"><use xlink:href="#a"></use><text x="0" y="1.67" class="d">#</text><text x="2.004" y="1.67" class="d">A</text><text x="4.008" y="1.67" class="d">tibble:</text><text x="12.024" y="1.67" class="d">35</text><text x="15.029999999999998" y="1.67" class="d">x</text><text x="17.034" y="1.67" class="d">30</text><text x="3.006" y="3.8409999999999997" class="e">ref</text><text x="9.017999999999999" y="3.8409999999999997" class="e">type</text><text x="15.029999999999998" y="3.8409999999999997" class="e">direct</text><text x="22.043999999999997" y="3.8409999999999997" class="e">directpkg</text><text x="32.064" y="3.8409999999999997" class="e">status</text><text x="39.077999999999996" y="3.8409999999999997" class="e">package</text><text x="47.093999999999994" y="3.8409999999999997" class="e">version</text><text x="55.10999999999999" y="3.8409999999999997" class="e">license</text><text x="63.12599999999999" y="3.8409999999999997" class="e">needscompilation</text><text x="3.006" y="6.012" class="f">&lt;chr&gt;</text><text x="9.017999999999999" y="6.012" class="f">&lt;chr&gt;</text><text x="15.029999999999998" y="6.012" class="f">&lt;lgl&gt;</text><text x="22.043999999999997" y="6.012" class="f">&lt;lgl&gt;</text><text x="32.064" y="6.012" class="f">&lt;chr&gt;</text><text x="39.077999999999996" y="6.012" class="f">&lt;chr&gt;</text><text x="47.093999999999994" y="6.012" class="f">&lt;chr&gt;</text><text x="55.10999999999999" y="6.012" class="f">&lt;chr&gt;</text><text x="63.12599999999999" y="6.012" class="f">&lt;lgl&gt;</text><text x="1.002" y="8.183" class="d">1</text><text x="3.006" y="8.183" class="e">loca…</text><text x="9.017999999999999" y="8.183" class="e">local</text><text x="15.029999999999998" y="8.183" class="e">TRUE</text><text x="22.043999999999997" y="8.183" class="e">TRUE</text><text x="32.064" y="8.183" class="e">OK</text><text x="39.077999999999996" y="8.183" class="e">pkgdep…</text><text x="47.093999999999994" y="8.183" class="e">0.0.0.…</text><text x="55.10999999999999" y="8.183" class="e">MIT</text><text x="59.117999999999995" y="8.183" class="e">+</text><text x="61.12199999999999" y="8.183" class="e">…</text><text x="63.12599999999999" y="8.183" class="g">NA</text><text x="1.002" y="10.354" class="d">2</text><text x="3.006" y="10.354" class="e">R6</text><text x="9.017999999999999" y="10.354" class="e">stan…</text><text x="15.029999999999998" y="10.354" class="e">FALSE</text><text x="22.043999999999997" y="10.354" class="e">FALSE</text><text x="32.064" y="10.354" class="e">OK</text><text x="39.077999999999996" y="10.354" class="e">R6</text><text x="47.093999999999994" y="10.354" class="e">2.4.1</text><text x="55.10999999999999" y="10.354" class="e">MIT</text><text x="59.117999999999995" y="10.354" class="e">+</text><text x="61.12199999999999" y="10.354" class="e">…</text><text x="63.12599999999999" y="10.354" class="e">FALSE</text><text x="1.002" y="12.525" class="d">3</text><text x="3.006" y="12.525" class="e">asse…</text><text x="9.017999999999999" y="12.525" class="e">stan…</text><text x="15.029999999999998" y="12.525" class="e">FALSE</text><text x="22.043999999999997" y="12.525" class="e">FALSE</text><text x="32.064" y="12.525" class="e">OK</text><text x="39.077999999999996" y="12.525" class="e">assert…</text><text x="47.093999999999994" y="12.525" class="e">0.2.1</text><text x="55.10999999999999" y="12.525" class="e">GPL-3</text><text x="63.12599999999999" y="12.525" class="e">FALSE</text><text x="1.002" y="14.696" class="d">4</text><text x="3.006" y="14.696" class="e">back…</text><text x="9.017999999999999" y="14.696" class="e">stan…</text><text x="15.029999999999998" y="14.696" class="e">FALSE</text><text x="22.043999999999997" y="14.696" class="e">FALSE</text><text x="32.064" y="14.696" class="e">OK</text><text x="39.077999999999996" y="14.696" class="e">backpo…</text><text x="47.093999999999994" y="14.696" class="e">1.1.9</text><text x="55.10999999999999" y="14.696" class="e">GPL-2</text><text x="61.12199999999999" y="14.696" class="e">…</text><text x="63.12599999999999" y="14.696" class="e">FALSE</text><text x="1.002" y="16.866999999999997" class="d">5</text><text x="3.006" y="16.866999999999997" class="e">callr</text><text x="9.017999999999999" y="16.866999999999997" class="e">stan…</text><text x="15.029999999999998" y="16.866999999999997" class="e">FALSE</text><text x="22.043999999999997" y="16.866999999999997" class="e">FALSE</text><text x="32.064" y="16.866999999999997" class="e">OK</text><text x="39.077999999999996" y="16.866999999999997" class="e">callr</text><text x="47.093999999999994" y="16.866999999999997" class="e">3.4.3</text><text x="55.10999999999999" y="16.866999999999997" class="e">MIT</text><text x="59.117999999999995" y="16.866999999999997" class="e">+</text><text x="61.12199999999999" y="16.866999999999997" class="e">…</text><text x="63.12599999999999" y="16.866999999999997" class="e">FALSE</text><text x="1.002" y="19.037999999999997" class="d">6</text><text x="3.006" y="19.037999999999997" class="e">cli</text><text x="9.017999999999999" y="19.037999999999997" class="e">stan…</text><text x="15.029999999999998" y="19.037999999999997" class="e">FALSE</text><text x="22.043999999999997" y="19.037999999999997" class="e">FALSE</text><text x="32.064" y="19.037999999999997" class="e">OK</text><text x="39.077999999999996" y="19.037999999999997" class="e">cli</text><text x="47.093999999999994" y="19.037999999999997" class="e">2.0.2</text><text x="55.10999999999999" y="19.037999999999997" class="e">MIT</text><text x="59.117999999999995" y="19.037999999999997" class="e">+</text><text x="61.12199999999999" y="19.037999999999997" class="e">…</text><text x="63.12599999999999" y="19.037999999999997" class="e">FALSE</text><text x="1.002" y="21.209000000000003" class="d">7</text><text x="3.006" y="21.209000000000003" class="e">cray…</text><text x="9.017999999999999" y="21.209000000000003" class="e">stan…</text><text x="15.029999999999998" y="21.209000000000003" class="e">FALSE</text><text x="22.043999999999997" y="21.209000000000003" class="e">FALSE</text><text x="32.064" y="21.209000000000003" class="e">OK</text><text x="39.077999999999996" y="21.209000000000003" class="e">crayon</text><text x="47.093999999999994" y="21.209000000000003" class="e">1.3.4</text><text x="55.10999999999999" y="21.209000000000003" class="e">MIT</text><text x="59.117999999999995" y="21.209000000000003" class="e">+</text><text x="61.12199999999999" y="21.209000000000003" class="e">…</text><text x="63.12599999999999" y="21.209000000000003" class="e">FALSE</text><text x="1.002" y="23.380000000000003" class="d">8</text><text x="3.006" y="23.380000000000003" class="e">curl</text><text x="9.017999999999999" y="23.380000000000003" class="e">stan…</text><text x="15.029999999999998" y="23.380000000000003" class="e">FALSE</text><text x="22.043999999999997" y="23.380000000000003" class="e">FALSE</text><text x="32.064" y="23.380000000000003" class="e">OK</text><text x="39.077999999999996" y="23.380000000000003" class="e">curl</text><text x="47.093999999999994" y="23.380000000000003" class="e">4.3</text><text x="55.10999999999999" y="23.380000000000003" class="e">MIT</text><text x="59.117999999999995" y="23.380000000000003" class="e">+</text><text x="61.12199999999999" y="23.380000000000003" class="e">…</text><text x="63.12599999999999" y="23.380000000000003" class="e">FALSE</text><text x="1.002" y="25.550999999999995" class="d">9</text><text x="3.006" y="25.550999999999995" class="e">desc</text><text x="9.017999999999999" y="25.550999999999995" class="e">stan…</text><text x="15.029999999999998" y="25.550999999999995" class="e">FALSE</text><text x="22.043999999999997" y="25.550999999999995" class="e">FALSE</text><text x="32.064" y="25.550999999999995" class="e">OK</text><text x="39.077999999999996" y="25.550999999999995" class="e">desc</text><text x="47.093999999999994" y="25.550999999999995" class="e">1.2.0</text><text x="55.10999999999999" y="25.550999999999995" class="e">MIT</text><text x="59.117999999999995" y="25.550999999999995" class="e">+</text><text x="61.12199999999999" y="25.550999999999995" class="e">…</text><text x="63.12599999999999" y="25.550999999999995" class="e">FALSE</text><text x="0" y="27.722" class="d">10</text><text x="3.006" y="27.722" class="e">dige…</text><text x="9.017999999999999" y="27.722" class="e">stan…</text><text x="15.029999999999998" y="27.722" class="e">FALSE</text><text x="22.043999999999997" y="27.722" class="e">FALSE</text><text x="32.064" y="27.722" class="e">OK</text><text x="39.077999999999996" y="27.722" class="e">digest</text><text x="47.093999999999994" y="27.722" class="e">0.6.25</text><text x="55.10999999999999" y="27.722" class="e">GPL</text><text x="59.117999999999995" y="27.722" class="e">(&gt;…</text><text x="63.12599999999999" y="27.722" class="e">FALSE</text><text x="0" y="29.893" class="d">#</text><text x="2.004" y="29.893" class="d">…</text><text x="4.008" y="29.893" class="d">with</text><text x="9.017999999999999" y="29.893" class="d">25</text><text x="12.024" y="29.893" class="d">more</text><text x="17.034" y="29.893" class="d">rows,</text><text x="23.045999999999996" y="29.893" class="d">and</text><text x="27.054" y="29.893" class="d">21</text><text x="30.059999999999995" y="29.893" class="d">more</text><text x="35.06999999999999" y="29.893" class="d">variables:</text><text x="46.09199999999999" y="29.893" class="d">priority</text><text x="55.10999999999999" y="29.893" class="f">&lt;chr&gt;</text><text x="60.11999999999999" y="29.893" class="d">,</text><text x="62.123999999999995" y="29.893" class="d">md5sum</text><text x="69.13799999999999" y="29.893" class="f">&lt;chr&gt;</text><text x="74.148" y="29.893" class="d">,</text><text x="0" y="32.064" class="d">#</text><text x="4.008" y="32.064" class="d">sha256</text><text x="11.021999999999998" y="32.064" class="f">&lt;chr&gt;</text><text x="16.032" y="32.064" class="d">,</text><text x="18.035999999999998" y="32.064" class="d">filesize</text><text x="27.054" y="32.064" class="f">&lt;int&gt;</text><text x="32.064" y="32.064" class="d">,</text><text x="34.068" y="32.064" class="d">built</text><text x="40.08" y="32.064" class="f">&lt;chr&gt;</text><text x="45.089999999999996" y="32.064" class="d">,</text><text x="47.093999999999994" y="32.064" class="d">platform</text><text x="56.111999999999995" y="32.064" class="f">&lt;chr&gt;</text><text x="61.12199999999999" y="32.064" class="d">,</text><text x="63.12599999999999" y="32.064" class="d">rversion</text><text x="72.14399999999999" y="32.064" class="f">&lt;chr&gt;</text><text x="77.154" y="32.064" class="d">,</text><text x="0" y="34.235" class="d">#</text><text x="4.008" y="34.235" class="d">repodir</text><text x="12.024" y="34.235" class="f">&lt;chr&gt;</text><text x="17.034" y="34.235" class="d">,</text><text x="19.037999999999997" y="34.235" class="d">target</text><text x="26.052" y="34.235" class="f">&lt;chr&gt;</text><text x="31.061999999999998" y="34.235" class="d">,</text><text x="33.065999999999995" y="34.235" class="d">deps</text><text x="38.07599999999999" y="34.235" class="f">&lt;list&gt;</text><text x="44.087999999999994" y="34.235" class="d">,</text><text x="46.09199999999999" y="34.235" class="d">mirror</text><text x="53.105999999999995" y="34.235" class="f">&lt;chr&gt;</text><text x="58.116" y="34.235" class="d">,</text><text x="60.11999999999999" y="34.235" class="d">sources</text><text x="68.136" y="34.235" class="f">&lt;list&gt;</text><text x="74.148" y="34.235" class="d">,</text><text x="0" y="36.406" class="d">#</text><text x="4.008" y="36.406" class="d">remote</text><text x="11.021999999999998" y="36.406" class="f">&lt;list&gt;</text><text x="17.034" y="36.406" class="d">,</text><text x="19.037999999999997" y="36.406" class="d">error</text><text x="25.05" y="36.406" class="f">&lt;list&gt;</text><text x="31.061999999999998" y="36.406" class="d">,</text><text x="33.065999999999995" y="36.406" class="d">metadata</text><text x="42.083999999999996" y="36.406" class="f">&lt;list&gt;</text><text x="48.096" y="36.406" class="d">,</text><text x="50.1" y="36.406" class="d">extra</text><text x="56.111999999999995" y="36.406" class="f">&lt;list&gt;</text><text x="62.123999999999995" y="36.406" class="d">,</text><text x="0" y="38.577000000000005" class="d">#</text><text x="4.008" y="38.577000000000005" class="d">dep_types</text><text x="14.027999999999999" y="38.577000000000005" class="f">&lt;list&gt;</text><text x="20.04" y="38.577000000000005" class="d">,</text><text x="22.043999999999997" y="38.577000000000005" class="d">cache_status</text><text x="35.06999999999999" y="38.577000000000005" class="f">&lt;chr&gt;</text><text x="40.08" y="38.577000000000005" class="d">,</text><text x="42.083999999999996" y="38.577000000000005" class="d">lib_status</text><text x="53.105999999999995" y="38.577000000000005" class="f">&lt;chr&gt;</text><text x="58.116" y="38.577000000000005" class="d">,</text><text x="60.11999999999999" y="38.577000000000005" class="d">old_version</text><text x="72.14399999999999" y="38.577000000000005" class="f">&lt;chr&gt;</text><text x="77.154" y="38.577000000000005" class="d">,</text><text x="0" y="40.748000000000005" class="d">#</text><text x="4.008" y="40.748000000000005" class="d">new_version</text><text x="16.032" y="40.748000000000005" class="f">&lt;chr&gt;</text></svg></svg></g></svg></svg>