<svg xmlns="http://www.w3.org/2000/svg" xmlns:xlink="http://www.w3.org/1999/xlink" width="1040" height="669.59"><rect width="1040" height="669.59" rx="0" ry="0" class="a"></rect><svg height="629.59" viewBox="0 0 100 62.959" width="1000" x="20" xmlns="http://www.w3.org/2000/svg" xmlns:xlink="http://www.w3.org/1999/xlink" y="20"><style>.a{fill:rgb(40,45,53)}.b{font-family:'Fira Code',Monaco,Consolas,Menlo,'Bitstream Vera Sans Mono','Powerline Symbols',monospace}.c{fill:transparent}.d{fill:rgb(185,192,203);white-space:pre}</style><g font-family="&#x27;Fira Code&#x27;,Monaco,Consolas,Menlo,&#x27;Bitstream Vera Sans Mono&#x27;,&#x27;Powerline Symbols&#x27;,monospace" font-size="1.67" class="b"><defs><symbol id="a"><rect height="30" width="100" x="0" y="0" class="c"></rect></symbol></defs><rect height="62.959" width="100" class="a"></rect><svg x="0" y="0" width="100"><svg x="0"><use xlink:href="#a"></use><text x="0" y="1.67" class="d">#</text><text x="2.004" y="1.67" class="d">A</text><text x="4.008" y="1.67" class="d">data</text><text x="9.017999999999999" y="1.67" class="d">frame:</text><text x="16.032" y="1.67" class="d">20</text><text x="19.037999999999997" y="1.67" class="d">×</text><text x="21.041999999999998" y="1.67" class="d">33</text><text x="3.006" y="3.8409999999999997" class="d">ref</text><text x="10.02" y="3.8409999999999997" class="d">type</text><text x="16.032" y="3.8409999999999997" class="d">direct</text><text x="23.045999999999996" y="3.8409999999999997" class="d">directpkg</text><text x="33.065999999999995" y="3.8409999999999997" class="d">status</text><text x="40.08" y="3.8409999999999997" class="d">package</text><text x="48.096" y="3.8409999999999997" class="d">version</text><text x="56.111999999999995" y="3.8409999999999997" class="d">license</text><text x="64.128" y="3.8409999999999997" class="d">needscompilation</text><text x="3.006" y="6.012" class="d">&lt;chr&gt;</text><text x="10.02" y="6.012" class="d">&lt;chr&gt;</text><text x="16.032" y="6.012" class="d">&lt;lgl&gt;</text><text x="23.045999999999996" y="6.012" class="d">&lt;lgl&gt;</text><text x="33.065999999999995" y="6.012" class="d">&lt;chr&gt;</text><text x="40.08" y="6.012" class="d">&lt;chr&gt;</text><text x="48.096" y="6.012" class="d">&lt;chr&gt;</text><text x="56.111999999999995" y="6.012" class="d">&lt;chr&gt;</text><text x="64.128" y="6.012" class="d">&lt;lgl&gt;</text><text x="1.002" y="8.183" class="d">1</text><text x="3.006" y="8.183" class="d">local…</text><text x="10.02" y="8.183" class="d">local</text><text x="16.032" y="8.183" class="d">TRUE</text><text x="23.045999999999996" y="8.183" class="d">TRUE</text><text x="33.065999999999995" y="8.183" class="d">OK</text><text x="40.08" y="8.183" class="d">pkgdep…</text><text x="48.096" y="8.183" class="d">0.3.0</text><text x="56.111999999999995" y="8.183" class="d">MIT</text><text x="60.11999999999999" y="8.183" class="d">+</text><text x="62.123999999999995" y="8.183" class="d">…</text><text x="64.128" y="8.183" class="d">NA</text><text x="1.002" y="10.354" class="d">2</text><text x="3.006" y="10.354" class="d">R6</text><text x="10.02" y="10.354" class="d">stan…</text><text x="16.032" y="10.354" class="d">FALSE</text><text x="23.045999999999996" y="10.354" class="d">FALSE</text><text x="33.065999999999995" y="10.354" class="d">OK</text><text x="40.08" y="10.354" class="d">R6</text><text x="48.096" y="10.354" class="d">2.5.1</text><text x="56.111999999999995" y="10.354" class="d">MIT</text><text x="60.11999999999999" y="10.354" class="d">+</text><text x="62.123999999999995" y="10.354" class="d">…</text><text x="64.128" y="10.354" class="d">FALSE</text><text x="1.002" y="12.525" class="d">3</text><text x="3.006" y="12.525" class="d">callr</text><text x="10.02" y="12.525" class="d">stan…</text><text x="16.032" y="12.525" class="d">FALSE</text><text x="23.045999999999996" y="12.525" class="d">FALSE</text><text x="33.065999999999995" y="12.525" class="d">OK</text><text x="40.08" y="12.525" class="d">callr</text><text x="48.096" y="12.525" class="d">3.7.0</text><text x="56.111999999999995" y="12.525" class="d">MIT</text><text x="60.11999999999999" y="12.525" class="d">+</text><text x="62.123999999999995" y="12.525" class="d">…</text><text x="64.128" y="12.525" class="d">FALSE</text><text x="1.002" y="14.696" class="d">4</text><text x="3.006" y="14.696" class="d">cli</text><text x="10.02" y="14.696" class="d">stan…</text><text x="16.032" y="14.696" class="d">FALSE</text><text x="23.045999999999996" y="14.696" class="d">FALSE</text><text x="33.065999999999995" y="14.696" class="d">OK</text><text x="40.08" y="14.696" class="d">cli</text><text x="48.096" y="14.696" class="d">3.2.0</text><text x="56.111999999999995" y="14.696" class="d">MIT</text><text x="60.11999999999999" y="14.696" class="d">+</text><text x="62.123999999999995" y="14.696" class="d">…</text><text x="64.128" y="14.696" class="d">TRUE</text><text x="1.002" y="16.866999999999997" class="d">5</text><text x="3.006" y="16.866999999999997" class="d">crayon</text><text x="10.02" y="16.866999999999997" class="d">stan…</text><text x="16.032" y="16.866999999999997" class="d">FALSE</text><text x="23.045999999999996" y="16.866999999999997" class="d">FALSE</text><text x="33.065999999999995" y="16.866999999999997" class="d">OK</text><text x="40.08" y="16.866999999999997" class="d">crayon</text><text x="48.096" y="16.866999999999997" class="d">1.5.0</text><text x="56.111999999999995" y="16.866999999999997" class="d">MIT</text><text x="60.11999999999999" y="16.866999999999997" class="d">+</text><text x="62.123999999999995" y="16.866999999999997" class="d">…</text><text x="64.128" y="16.866999999999997" class="d">FALSE</text><text x="1.002" y="19.037999999999997" class="d">6</text><text x="3.006" y="19.037999999999997" class="d">curl</text><text x="10.02" y="19.037999999999997" class="d">stan…</text><text x="16.032" y="19.037999999999997" class="d">FALSE</text><text x="23.045999999999996" y="19.037999999999997" class="d">FALSE</text><text x="33.065999999999995" y="19.037999999999997" class="d">OK</text><text x="40.08" y="19.037999999999997" class="d">curl</text><text x="48.096" y="19.037999999999997" class="d">4.3.2</text><text x="56.111999999999995" y="19.037999999999997" class="d">MIT</text><text x="60.11999999999999" y="19.037999999999997" class="d">+</text><text x="62.123999999999995" y="19.037999999999997" class="d">…</text><text x="64.128" y="19.037999999999997" class="d">TRUE</text><text x="1.002" y="21.209000000000003" class="d">7</text><text x="3.006" y="21.209000000000003" class="d">desc</text><text x="10.02" y="21.209000000000003" class="d">stan…</text><text x="16.032" y="21.209000000000003" class="d">FALSE</text><text x="23.045999999999996" y="21.209000000000003" class="d">FALSE</text><text x="33.065999999999995" y="21.209000000000003" class="d">OK</text><text x="40.08" y="21.209000000000003" class="d">desc</text><text x="48.096" y="21.209000000000003" class="d">1.4.0</text><text x="56.111999999999995" y="21.209000000000003" class="d">MIT</text><text x="60.11999999999999" y="21.209000000000003" class="d">+</text><text x="62.123999999999995" y="21.209000000000003" class="d">…</text><text x="64.128" y="21.209000000000003" class="d">FALSE</text><text x="1.002" y="23.380000000000003" class="d">8</text><text x="3.006" y="23.380000000000003" class="d">filel…</text><text x="10.02" y="23.380000000000003" class="d">stan…</text><text x="16.032" y="23.380000000000003" class="d">FALSE</text><text x="23.045999999999996" y="23.380000000000003" class="d">FALSE</text><text x="33.065999999999995" y="23.380000000000003" class="d">OK</text><text x="40.08" y="23.380000000000003" class="d">filelo…</text><text x="48.096" y="23.380000000000003" class="d">1.0.2</text><text x="56.111999999999995" y="23.380000000000003" class="d">MIT</text><text x="60.11999999999999" y="23.380000000000003" class="d">+</text><text x="62.123999999999995" y="23.380000000000003" class="d">…</text><text x="64.128" y="23.380000000000003" class="d">TRUE</text><text x="1.002" y="25.550999999999995" class="d">9</text><text x="3.006" y="25.550999999999995" class="d">glue</text><text x="10.02" y="25.550999999999995" class="d">stan…</text><text x="16.032" y="25.550999999999995" class="d">FALSE</text><text x="23.045999999999996" y="25.550999999999995" class="d">FALSE</text><text x="33.065999999999995" y="25.550999999999995" class="d">OK</text><text x="40.08" y="25.550999999999995" class="d">glue</text><text x="48.096" y="25.550999999999995" class="d">1.6.1</text><text x="56.111999999999995" y="25.550999999999995" class="d">MIT</text><text x="60.11999999999999" y="25.550999999999995" class="d">+</text><text x="62.123999999999995" y="25.550999999999995" class="d">…</text><text x="64.128" y="25.550999999999995" class="d">TRUE</text><text x="0" y="27.722" class="d">10</text><text x="3.006" y="27.722" class="d">jsonl…</text><text x="10.02" y="27.722" class="d">stan…</text><text x="16.032" y="27.722" class="d">FALSE</text><text x="23.045999999999996" y="27.722" class="d">FALSE</text><text x="33.065999999999995" y="27.722" class="d">OK</text><text x="40.08" y="27.722" class="d">jsonli…</text><text x="48.096" y="27.722" class="d">1.7.3</text><text x="56.111999999999995" y="27.722" class="d">MIT</text><text x="60.11999999999999" y="27.722" class="d">+</text><text x="62.123999999999995" y="27.722" class="d">…</text><text x="64.128" y="27.722" class="d">TRUE</text><text x="0" y="29.893" class="d">11</text><text x="3.006" y="29.893" class="d">lpSol…</text><text x="10.02" y="29.893" class="d">stan…</text><text x="16.032" y="29.893" class="d">FALSE</text><text x="23.045999999999996" y="29.893" class="d">FALSE</text><text x="33.065999999999995" y="29.893" class="d">OK</text><text x="40.08" y="29.893" class="d">lpSolve</text><text x="48.096" y="29.893" class="d">5.6.15</text><text x="56.111999999999995" y="29.893" class="d">LGPL-2</text><text x="64.128" y="29.893" class="d">TRUE</text><text x="0" y="32.064" class="d">12</text><text x="3.006" y="32.064" class="d">pkgbu…</text><text x="10.02" y="32.064" class="d">stan…</text><text x="16.032" y="32.064" class="d">FALSE</text><text x="23.045999999999996" y="32.064" class="d">FALSE</text><text x="33.065999999999995" y="32.064" class="d">OK</text><text x="40.08" y="32.064" class="d">pkgbui…</text><text x="48.096" y="32.064" class="d">1.3.1</text><text x="56.111999999999995" y="32.064" class="d">MIT</text><text x="60.11999999999999" y="32.064" class="d">+</text><text x="62.123999999999995" y="32.064" class="d">…</text><text x="64.128" y="32.064" class="d">FALSE</text><text x="0" y="34.235" class="d">13</text><text x="3.006" y="34.235" class="d">prett…</text><text x="10.02" y="34.235" class="d">stan…</text><text x="16.032" y="34.235" class="d">FALSE</text><text x="23.045999999999996" y="34.235" class="d">FALSE</text><text x="33.065999999999995" y="34.235" class="d">OK</text><text x="40.08" y="34.235" class="d">pretty…</text><text x="48.096" y="34.235" class="d">1.1.1</text><text x="56.111999999999995" y="34.235" class="d">MIT</text><text x="60.11999999999999" y="34.235" class="d">+</text><text x="62.123999999999995" y="34.235" class="d">…</text><text x="64.128" y="34.235" class="d">FALSE</text><text x="0" y="36.406" class="d">14</text><text x="3.006" y="36.406" class="d">proce…</text><text x="10.02" y="36.406" class="d">stan…</text><text x="16.032" y="36.406" class="d">FALSE</text><text x="23.045999999999996" y="36.406" class="d">FALSE</text><text x="33.065999999999995" y="36.406" class="d">OK</text><text x="40.08" y="36.406" class="d">proces…</text><text x="48.096" y="36.406" class="d">3.5.2</text><text x="56.111999999999995" y="36.406" class="d">MIT</text><text x="60.11999999999999" y="36.406" class="d">+</text><text x="62.123999999999995" y="36.406" class="d">…</text><text x="64.128" y="36.406" class="d">TRUE</text><text x="0" y="38.577000000000005" class="d">15</text><text x="3.006" y="38.577000000000005" class="d">ps</text><text x="10.02" y="38.577000000000005" class="d">stan…</text><text x="16.032" y="38.577000000000005" class="d">FALSE</text><text x="23.045999999999996" y="38.577000000000005" class="d">FALSE</text><text x="33.065999999999995" y="38.577000000000005" class="d">OK</text><text x="40.08" y="38.577000000000005" class="d">ps</text><text x="48.096" y="38.577000000000005" class="d">1.6.0</text><text x="56.111999999999995" y="38.577000000000005" class="d">MIT</text><text x="60.11999999999999" y="38.577000000000005" class="d">+</text><text x="62.123999999999995" y="38.577000000000005" class="d">…</text><text x="64.128" y="38.577000000000005" class="d">TRUE</text><text x="0" y="40.748000000000005" class="d">16</text><text x="3.006" y="40.748000000000005" class="d">rappd…</text><text x="10.02" y="40.748000000000005" class="d">stan…</text><text x="16.032" y="40.748000000000005" class="d">FALSE</text><text x="23.045999999999996" y="40.748000000000005" class="d">FALSE</text><text x="33.065999999999995" y="40.748000000000005" class="d">OK</text><text x="40.08" y="40.748000000000005" class="d">rappdi…</text><text x="48.096" y="40.748000000000005" class="d">0.3.3</text><text x="56.111999999999995" y="40.748000000000005" class="d">MIT</text><text x="60.11999999999999" y="40.748000000000005" class="d">+</text><text x="62.123999999999995" y="40.748000000000005" class="d">…</text><text x="64.128" y="40.748000000000005" class="d">TRUE</text><text x="0" y="42.919" class="d">17</text><text x="3.006" y="42.919" class="d">rproj…</text><text x="10.02" y="42.919" class="d">stan…</text><text x="16.032" y="42.919" class="d">FALSE</text><text x="23.045999999999996" y="42.919" class="d">FALSE</text><text x="33.065999999999995" y="42.919" class="d">OK</text><text x="40.08" y="42.919" class="d">rprojr…</text><text x="48.096" y="42.919" class="d">2.0.2</text><text x="56.111999999999995" y="42.919" class="d">MIT</text><text x="60.11999999999999" y="42.919" class="d">+</text><text x="62.123999999999995" y="42.919" class="d">…</text><text x="64.128" y="42.919" class="d">FALSE</text><text x="0" y="45.09" class="d">18</text><text x="3.006" y="45.09" class="d">withr</text><text x="10.02" y="45.09" class="d">stan…</text><text x="16.032" y="45.09" class="d">FALSE</text><text x="23.045999999999996" y="45.09" class="d">FALSE</text><text x="33.065999999999995" y="45.09" class="d">OK</text><text x="40.08" y="45.09" class="d">withr</text><text x="48.096" y="45.09" class="d">2.4.3</text><text x="56.111999999999995" y="45.09" class="d">MIT</text><text x="60.11999999999999" y="45.09" class="d">+</text><text x="62.123999999999995" y="45.09" class="d">…</text><text x="64.128" y="45.09" class="d">FALSE</text><text x="0" y="47.261" class="d">19</text><text x="3.006" y="47.261" class="d">zip</text><text x="10.02" y="47.261" class="d">stan…</text><text x="16.032" y="47.261" class="d">FALSE</text><text x="23.045999999999996" y="47.261" class="d">FALSE</text><text x="33.065999999999995" y="47.261" class="d">OK</text><text x="40.08" y="47.261" class="d">zip</text><text x="48.096" y="47.261" class="d">2.2.0</text><text x="56.111999999999995" y="47.261" class="d">MIT</text><text x="60.11999999999999" y="47.261" class="d">+</text><text x="62.123999999999995" y="47.261" class="d">…</text><text x="64.128" y="47.261" class="d">TRUE</text><text x="0" y="49.431999999999995" class="d">20</text><text x="3.006" y="49.431999999999995" class="d">pkgca…</text><text x="10.02" y="49.431999999999995" class="d">stan…</text><text x="16.032" y="49.431999999999995" class="d">FALSE</text><text x="23.045999999999996" y="49.431999999999995" class="d">FALSE</text><text x="33.065999999999995" y="49.431999999999995" class="d">OK</text><text x="40.08" y="49.431999999999995" class="d">pkgcac…</text><text x="48.096" y="49.431999999999995" class="d">2.0.0</text><text x="56.111999999999995" y="49.431999999999995" class="d">MIT</text><text x="60.11999999999999" y="49.431999999999995" class="d">+</text><text x="62.123999999999995" y="49.431999999999995" class="d">…</text><text x="64.128" y="49.431999999999995" class="d">TRUE</text><text x="0" y="51.603" class="d">#</text><text x="2.004" y="51.603" class="d">…</text><text x="4.008" y="51.603" class="d">with</text><text x="9.017999999999999" y="51.603" class="d">24</text><text x="12.024" y="51.603" class="d">more</text><text x="17.034" y="51.603" class="d">variables:</text><text x="28.055999999999997" y="51.603" class="d">priority</text><text x="37.074" y="51.603" class="d">&lt;chr&gt;,</text><text x="44.087999999999994" y="51.603" class="d">md5sum</text><text x="51.102" y="51.603" class="d">&lt;chr&gt;,</text><text x="58.116" y="51.603" class="d">sha256</text><text x="65.13" y="51.603" class="d">&lt;chr&gt;,</text><text x="0" y="53.774" class="d">#</text><text x="4.008" y="53.774" class="d">filesize</text><text x="13.026" y="53.774" class="d">&lt;int&gt;,</text><text x="20.04" y="53.774" class="d">built</text><text x="26.052" y="53.774" class="d">&lt;chr&gt;,</text><text x="33.065999999999995" y="53.774" class="d">platform</text><text x="42.083999999999996" y="53.774" class="d">&lt;chr&gt;,</text><text x="49.098" y="53.774" class="d">rversion</text><text x="58.116" y="53.774" class="d">&lt;chr&gt;,</text><text x="0" y="55.945" class="d">#</text><text x="4.008" y="55.945" class="d">repotype</text><text x="13.026" y="55.945" class="d">&lt;chr&gt;,</text><text x="20.04" y="55.945" class="d">repodir</text><text x="28.055999999999997" y="55.945" class="d">&lt;chr&gt;,</text><text x="35.06999999999999" y="55.945" class="d">target</text><text x="42.083999999999996" y="55.945" class="d">&lt;chr&gt;,</text><text x="49.098" y="55.945" class="d">deps</text><text x="54.108" y="55.945" class="d">&lt;list&gt;,</text><text x="62.123999999999995" y="55.945" class="d">mirror</text><text x="69.13799999999999" y="55.945" class="d">&lt;chr&gt;,</text><text x="0" y="58.11600000000001" class="d">#</text><text x="4.008" y="58.11600000000001" class="d">sources</text><text x="12.024" y="58.11600000000001" class="d">&lt;list&gt;,</text><text x="20.04" y="58.11600000000001" class="d">remote</text><text x="27.054" y="58.11600000000001" class="d">&lt;list&gt;,</text><text x="35.06999999999999" y="58.11600000000001" class="d">error</text><text x="41.082" y="58.11600000000001" class="d">&lt;list&gt;,</text><text x="49.098" y="58.11600000000001" class="d">metadata</text><text x="58.116" y="58.11600000000001" class="d">&lt;list&gt;,</text><text x="66.13199999999999" y="58.11600000000001" class="d">extra</text><text x="72.14399999999999" y="58.11600000000001" class="d">&lt;list&gt;,</text><text x="0" y="60.287" class="d">#</text><text x="4.008" y="60.287" class="d">dep_types</text><text x="14.027999999999999" y="60.287" class="d">&lt;list&gt;,</text><text x="22.043999999999997" y="60.287" class="d">params</text><text x="29.058" y="60.287" class="d">&lt;list&gt;,</text><text x="37.074" y="60.287" class="d">sysreqs</text><text x="45.089999999999996" y="60.287" class="d">&lt;chr&gt;,</text><text x="52.104" y="60.287" class="d">cache_status</text><text x="65.13" y="60.287" class="d">&lt;chr&gt;,</text><text x="0" y="62.458" class="d">#</text><text x="4.008" y="62.458" class="d">lib_status</text><text x="15.029999999999998" y="62.458" class="d">&lt;chr&gt;,</text><text x="22.043999999999997" y="62.458" class="d">old_version</text><text x="34.068" y="62.458" class="d">&lt;chr&gt;,</text><text x="41.082" y="62.458" class="d">new_version</text><text x="53.105999999999995" y="62.458" class="d">&lt;chr&gt;</text></svg></svg></g></svg></svg>