<svg xmlns="http://www.w3.org/2000/svg" xmlns:xlink="http://www.w3.org/1999/xlink" width="1040" height="1820.2199999999998"><rect width="1040" height="1820.2199999999998" rx="0" ry="0" class="a"></rect><svg height="1780.2199999999998" viewBox="0 0 100 178.022" width="1000" x="20" xmlns="http://www.w3.org/2000/svg" xmlns:xlink="http://www.w3.org/1999/xlink" y="20"><style>.a{fill:rgb(40,45,53)}.b{font-family:'Fira Code',Monaco,Consolas,Menlo,'Bitstream Vera Sans Mono','Powerline Symbols',monospace}.c{fill:rgb(185,192,203);white-space:pre}.d{fill:transparent}</style><g font-family="&#x27;Fira Code&#x27;,Monaco,Consolas,Menlo,&#x27;Bitstream Vera Sans Mono&#x27;,&#x27;Powerline Symbols&#x27;,monospace" font-size="1.67" class="b"><defs><symbol id="1"><text x="0" y="1.67" class="c">✔</text><text x="2.004" y="1.67" class="c">Got</text><text x="6.012" y="1.67" class="c">colorspace</text><text x="17.034" y="1.67" class="c">2.0-0</text><text x="23.045999999999996" y="1.67" class="c">(source)</text><text x="32.064" y="1.67" class="c">(2.62</text><text x="38.07599999999999" y="1.67" class="c">MB)</text></symbol><symbol id="2"><text x="0" y="1.67" class="c">✔</text><text x="2.004" y="1.67" class="c">Got</text><text x="6.012" y="1.67" class="c">RColorBrewer</text><text x="19.037999999999997" y="1.67" class="c">1.1-2</text><text x="25.05" y="1.67" class="c">(source)</text><text x="34.068" y="1.67" class="c">(11.53</text><text x="41.082" y="1.67" class="c">kB)</text></symbol><symbol id="3"><text x="0" y="1.67" class="c">✔</text><text x="2.004" y="1.67" class="c">Got</text><text x="6.012" y="1.67" class="c">lattice</text><text x="14.027999999999999" y="1.67" class="c">0.20-41</text><text x="22.043999999999997" y="1.67" class="c">(source)</text><text x="31.061999999999998" y="1.67" class="c">(389.63</text><text x="39.077999999999996" y="1.67" class="c">kB)</text></symbol><symbol id="4"><text x="0" y="1.67" class="c">✔</text><text x="2.004" y="1.67" class="c">Got</text><text x="6.012" y="1.67" class="c">nlme</text><text x="11.021999999999998" y="1.67" class="c">3.1-152</text><text x="19.037999999999997" y="1.67" class="c">(source)</text><text x="28.055999999999997" y="1.67" class="c">(805.57</text><text x="36.071999999999996" y="1.67" class="c">kB)</text></symbol><symbol id="5"><text x="0" y="1.67" class="c">✔</text><text x="2.004" y="1.67" class="c">Got</text><text x="6.012" y="1.67" class="c">mgcv</text><text x="11.021999999999998" y="1.67" class="c">1.8-34</text><text x="18.035999999999998" y="1.67" class="c">(source)</text><text x="27.054" y="1.67" class="c">(1.15</text><text x="33.065999999999995" y="1.67" class="c">MB)</text></symbol><symbol id="6"><text x="0" y="1.67" class="c">✔</text><text x="2.004" y="1.67" class="c">Got</text><text x="6.012" y="1.67" class="c">Matrix</text><text x="13.026" y="1.67" class="c">1.3-2</text><text x="19.037999999999997" y="1.67" class="c">(source)</text><text x="28.055999999999997" y="1.67" class="c">(535.15</text><text x="36.071999999999996" y="1.67" class="c">kB)</text></symbol><symbol id="7"><text x="0" y="1.67" class="c">✔</text><text x="2.004" y="1.67" class="c">Got</text><text x="6.012" y="1.67" class="c">isoband</text><text x="14.027999999999999" y="1.67" class="c">0.2.4</text><text x="20.04" y="1.67" class="c">(source)</text><text x="29.058" y="1.67" class="c">(6.62</text><text x="35.06999999999999" y="1.67" class="c">MB)</text></symbol><symbol id="a"><rect height="83" width="100" x="0" y="0" class="d"></rect></symbol></defs><rect height="178.022" width="100" class="a"></rect><svg x="0" y="0" width="100"><svg x="0"><use xlink:href="#a"></use><text x="0" y="1.67" class="c">✔</text><text x="2.004" y="1.67" class="c">Cached</text><text x="9.017999999999999" y="1.67" class="c">copy</text><text x="14.027999999999999" y="1.67" class="c">of</text><text x="17.034" y="1.67" class="c">assertthat</text><text x="28.055999999999997" y="1.67" class="c">0.2.1</text><text x="34.068" y="1.67" class="c">(source)</text><text x="43.086" y="1.67" class="c">is</text><text x="46.09199999999999" y="1.67" class="c">the</text><text x="50.1" y="1.67" class="c">latest</text><text x="57.114" y="1.67" class="c">build</text><text x="0" y="3.8409999999999997" class="c">✔</text><text x="2.004" y="3.8409999999999997" class="c">Cached</text><text x="9.017999999999999" y="3.8409999999999997" class="c">copy</text><text x="14.027999999999999" y="3.8409999999999997" class="c">of</text><text x="17.034" y="3.8409999999999997" class="c">cli</text><text x="21.041999999999998" y="3.8409999999999997" class="c">2.3.1</text><text x="27.054" y="3.8409999999999997" class="c">(source)</text><text x="36.071999999999996" y="3.8409999999999997" class="c">is</text><text x="39.077999999999996" y="3.8409999999999997" class="c">the</text><text x="43.086" y="3.8409999999999997" class="c">latest</text><text x="50.1" y="3.8409999999999997" class="c">build</text><text x="0" y="6.012" class="c">✔</text><text x="2.004" y="6.012" class="c">Cached</text><text x="9.017999999999999" y="6.012" class="c">copy</text><text x="14.027999999999999" y="6.012" class="c">of</text><text x="17.034" y="6.012" class="c">crayon</text><text x="24.048" y="6.012" class="c">1.4.1</text><text x="30.059999999999995" y="6.012" class="c">(source)</text><text x="39.077999999999996" y="6.012" class="c">is</text><text x="42.083999999999996" y="6.012" class="c">the</text><text x="46.09199999999999" y="6.012" class="c">latest</text><text x="53.105999999999995" y="6.012" class="c">build</text><text x="0" y="8.183" class="c">✔</text><text x="2.004" y="8.183" class="c">Cached</text><text x="9.017999999999999" y="8.183" class="c">copy</text><text x="14.027999999999999" y="8.183" class="c">of</text><text x="17.034" y="8.183" class="c">digest</text><text x="24.048" y="8.183" class="c">0.6.27</text><text x="31.061999999999998" y="8.183" class="c">(source)</text><text x="40.08" y="8.183" class="c">is</text><text x="43.086" y="8.183" class="c">the</text><text x="47.093999999999994" y="8.183" class="c">latest</text><text x="54.108" y="8.183" class="c">build</text><text x="0" y="10.354" class="c">✔</text><text x="2.004" y="10.354" class="c">Cached</text><text x="9.017999999999999" y="10.354" class="c">copy</text><text x="14.027999999999999" y="10.354" class="c">of</text><text x="17.034" y="10.354" class="c">ellipsis</text><text x="26.052" y="10.354" class="c">0.3.1</text><text x="32.064" y="10.354" class="c">(source)</text><text x="41.082" y="10.354" class="c">is</text><text x="44.087999999999994" y="10.354" class="c">the</text><text x="48.096" y="10.354" class="c">latest</text><text x="55.10999999999999" y="10.354" class="c">build</text><text x="0" y="12.525" class="c">✔</text><text x="2.004" y="12.525" class="c">Cached</text><text x="9.017999999999999" y="12.525" class="c">copy</text><text x="14.027999999999999" y="12.525" class="c">of</text><text x="17.034" y="12.525" class="c">fansi</text><text x="23.045999999999996" y="12.525" class="c">0.4.2</text><text x="29.058" y="12.525" class="c">(source)</text><text x="38.07599999999999" y="12.525" class="c">is</text><text x="41.082" y="12.525" class="c">the</text><text x="45.089999999999996" y="12.525" class="c">latest</text><text x="52.104" y="12.525" class="c">build</text><text x="0" y="14.696" class="c">✔</text><text x="2.004" y="14.696" class="c">Cached</text><text x="9.017999999999999" y="14.696" class="c">copy</text><text x="14.027999999999999" y="14.696" class="c">of</text><text x="17.034" y="14.696" class="c">glue</text><text x="22.043999999999997" y="14.696" class="c">1.4.2</text><text x="28.055999999999997" y="14.696" class="c">(source)</text><text x="37.074" y="14.696" class="c">is</text><text x="40.08" y="14.696" class="c">the</text><text x="44.087999999999994" y="14.696" class="c">latest</text><text x="51.102" y="14.696" class="c">build</text><text x="0" y="16.866999999999997" class="c">✔</text><text x="2.004" y="16.866999999999997" class="c">Cached</text><text x="9.017999999999999" y="16.866999999999997" class="c">copy</text><text x="14.027999999999999" y="16.866999999999997" class="c">of</text><text x="17.034" y="16.866999999999997" class="c">lifecycle</text><text x="27.054" y="16.866999999999997" class="c">1.0.0</text><text x="33.065999999999995" y="16.866999999999997" class="c">(source)</text><text x="42.083999999999996" y="16.866999999999997" class="c">is</text><text x="45.089999999999996" y="16.866999999999997" class="c">the</text><text x="49.098" y="16.866999999999997" class="c">latest</text><text x="56.111999999999995" y="16.866999999999997" class="c">build</text><text x="0" y="19.037999999999997" class="c">✔</text><text x="2.004" y="19.037999999999997" class="c">Cached</text><text x="9.017999999999999" y="19.037999999999997" class="c">copy</text><text x="14.027999999999999" y="19.037999999999997" class="c">of</text><text x="17.034" y="19.037999999999997" class="c">magrittr</text><text x="26.052" y="19.037999999999997" class="c">2.0.1</text><text x="32.064" y="19.037999999999997" class="c">(source)</text><text x="41.082" y="19.037999999999997" class="c">is</text><text x="44.087999999999994" y="19.037999999999997" class="c">the</text><text x="48.096" y="19.037999999999997" class="c">latest</text><text x="55.10999999999999" y="19.037999999999997" class="c">build</text><text x="0" y="21.209000000000003" class="c">✔</text><text x="2.004" y="21.209000000000003" class="c">Cached</text><text x="9.017999999999999" y="21.209000000000003" class="c">copy</text><text x="14.027999999999999" y="21.209000000000003" class="c">of</text><text x="17.034" y="21.209000000000003" class="c">pillar</text><text x="24.048" y="21.209000000000003" class="c">1.5.1</text><text x="30.059999999999995" y="21.209000000000003" class="c">(source)</text><text x="39.077999999999996" y="21.209000000000003" class="c">is</text><text x="42.083999999999996" y="21.209000000000003" class="c">the</text><text x="46.09199999999999" y="21.209000000000003" class="c">latest</text><text x="53.105999999999995" y="21.209000000000003" class="c">build</text><text x="0" y="23.380000000000003" class="c">✔</text><text x="2.004" y="23.380000000000003" class="c">Cached</text><text x="9.017999999999999" y="23.380000000000003" class="c">copy</text><text x="14.027999999999999" y="23.380000000000003" class="c">of</text><text x="17.034" y="23.380000000000003" class="c">pkgconfig</text><text x="27.054" y="23.380000000000003" class="c">2.0.3</text><text x="33.065999999999995" y="23.380000000000003" class="c">(source)</text><text x="42.083999999999996" y="23.380000000000003" class="c">is</text><text x="45.089999999999996" y="23.380000000000003" class="c">the</text><text x="49.098" y="23.380000000000003" class="c">latest</text><text x="56.111999999999995" y="23.380000000000003" class="c">build</text><text x="0" y="25.550999999999995" class="c">✔</text><text x="2.004" y="25.550999999999995" class="c">Cached</text><text x="9.017999999999999" y="25.550999999999995" class="c">copy</text><text x="14.027999999999999" y="25.550999999999995" class="c">of</text><text x="17.034" y="25.550999999999995" class="c">rlang</text><text x="23.045999999999996" y="25.550999999999995" class="c">0.4.10</text><text x="30.059999999999995" y="25.550999999999995" class="c">(source)</text><text x="39.077999999999996" y="25.550999999999995" class="c">is</text><text x="42.083999999999996" y="25.550999999999995" class="c">the</text><text x="46.09199999999999" y="25.550999999999995" class="c">latest</text><text x="53.105999999999995" y="25.550999999999995" class="c">build</text><text x="0" y="27.722" class="c">✔</text><text x="2.004" y="27.722" class="c">Cached</text><text x="9.017999999999999" y="27.722" class="c">copy</text><text x="14.027999999999999" y="27.722" class="c">of</text><text x="17.034" y="27.722" class="c">tibble</text><text x="24.048" y="27.722" class="c">3.1.0</text><text x="30.059999999999995" y="27.722" class="c">(source)</text><text x="39.077999999999996" y="27.722" class="c">is</text><text x="42.083999999999996" y="27.722" class="c">the</text><text x="46.09199999999999" y="27.722" class="c">latest</text><text x="53.105999999999995" y="27.722" class="c">build</text><text x="0" y="29.893" class="c">✔</text><text x="2.004" y="29.893" class="c">Cached</text><text x="9.017999999999999" y="29.893" class="c">copy</text><text x="14.027999999999999" y="29.893" class="c">of</text><text x="17.034" y="29.893" class="c">utf8</text><text x="22.043999999999997" y="29.893" class="c">1.1.4</text><text x="28.055999999999997" y="29.893" class="c">(source)</text><text x="37.074" y="29.893" class="c">is</text><text x="40.08" y="29.893" class="c">the</text><text x="44.087999999999994" y="29.893" class="c">latest</text><text x="51.102" y="29.893" class="c">build</text><text x="0" y="32.064" class="c">✔</text><text x="2.004" y="32.064" class="c">Cached</text><text x="9.017999999999999" y="32.064" class="c">copy</text><text x="14.027999999999999" y="32.064" class="c">of</text><text x="17.034" y="32.064" class="c">vctrs</text><text x="23.045999999999996" y="32.064" class="c">0.3.6</text><text x="29.058" y="32.064" class="c">(source)</text><text x="38.07599999999999" y="32.064" class="c">is</text><text x="41.082" y="32.064" class="c">the</text><text x="45.089999999999996" y="32.064" class="c">latest</text><text x="52.104" y="32.064" class="c">build</text><text x="0" y="34.235" class="c">✔</text><text x="2.004" y="34.235" class="c">Cached</text><text x="9.017999999999999" y="34.235" class="c">copy</text><text x="14.027999999999999" y="34.235" class="c">of</text><text x="17.034" y="34.235" class="c">withr</text><text x="23.045999999999996" y="34.235" class="c">2.4.1</text><text x="29.058" y="34.235" class="c">(source)</text><text x="38.07599999999999" y="34.235" class="c">is</text><text x="41.082" y="34.235" class="c">the</text><text x="45.089999999999996" y="34.235" class="c">latest</text><text x="52.104" y="34.235" class="c">build</text><text x="0" y="36.406" class="c">✔</text><text x="2.004" y="36.406" class="c">Got</text><text x="6.012" y="36.406" class="c">farver</text><text x="13.026" y="36.406" class="c">2.1.0</text><text x="19.037999999999997" y="36.406" class="c">(source)</text><text x="28.055999999999997" y="36.406" class="c">(1.28</text><text x="34.068" y="36.406" class="c">MB)</text><text x="0" y="38.577000000000005" class="c">✔</text><text x="2.004" y="38.577000000000005" class="c">Got</text><text x="6.012" y="38.577000000000005" class="c">gtable</text><text x="13.026" y="38.577000000000005" class="c">0.3.0</text><text x="19.037999999999997" y="38.577000000000005" class="c">(source)</text><text x="28.055999999999997" y="38.577000000000005" class="c">(368.08</text><text x="36.071999999999996" y="38.577000000000005" class="c">kB)</text><text x="0" y="40.748000000000005" class="c">✔</text><text x="2.004" y="40.748000000000005" class="c">Got</text><text x="6.012" y="40.748000000000005" class="c">labeling</text><text x="15.029999999999998" y="40.748000000000005" class="c">0.4.2</text><text x="21.041999999999998" y="40.748000000000005" class="c">(source)</text><text x="30.059999999999995" y="40.748000000000005" class="c">(10.16</text><text x="37.074" y="40.748000000000005" class="c">kB)</text><use xlink:href="#1" y="41.248999999999995"></use><text x="0" y="45.09" class="c">✔</text><text x="2.004" y="45.09" class="c">Got</text><text x="6.012" y="45.09" class="c">ggplot2</text><text x="14.027999999999999" y="45.09" class="c">3.3.3</text><text x="20.04" y="45.09" class="c">(source)</text><text x="29.058" y="45.09" class="c">(3.06</text><text x="35.06999999999999" y="45.09" class="c">MB)</text><use xlink:href="#2" y="45.591"></use><text x="0" y="49.431999999999995" class="c">✔</text><text x="2.004" y="49.431999999999995" class="c">Got</text><text x="6.012" y="49.431999999999995" class="c">munsell</text><text x="14.027999999999999" y="49.431999999999995" class="c">0.5.0</text><text x="20.04" y="49.431999999999995" class="c">(source)</text><text x="29.058" y="49.431999999999995" class="c">(182.65</text><text x="37.074" y="49.431999999999995" class="c">kB)</text><text x="0" y="51.603" class="c">✔</text><text x="2.004" y="51.603" class="c">Got</text><text x="6.012" y="51.603" class="c">MASS</text><text x="11.021999999999998" y="51.603" class="c">7.3-53.1</text><text x="20.04" y="51.603" class="c">(source)</text><text x="29.058" y="51.603" class="c">(1.51</text><text x="35.06999999999999" y="51.603" class="c">MB)</text><use xlink:href="#1" y="52.104"></use><use xlink:href="#3" y="54.275"></use><text x="0" y="58.11600000000001" class="c">✔</text><text x="2.004" y="58.11600000000001" class="c">Got</text><text x="6.012" y="58.11600000000001" class="c">MASS</text><text x="11.021999999999998" y="58.11600000000001" class="c">7.3-53.1</text><text x="20.04" y="58.11600000000001" class="c">(source)</text><text x="29.058" y="58.11600000000001" class="c">(507.58</text><text x="37.074" y="58.11600000000001" class="c">kB)</text><text x="0" y="60.287" class="c">✔</text><text x="2.004" y="60.287" class="c">Got</text><text x="6.012" y="60.287" class="c">Matrix</text><text x="13.026" y="60.287" class="c">1.3-2</text><text x="19.037999999999997" y="60.287" class="c">(source)</text><text x="28.055999999999997" y="60.287" class="c">(5.15</text><text x="34.068" y="60.287" class="c">MB)</text><use xlink:href="#2" y="60.788"></use><text x="0" y="64.629" class="c">✔</text><text x="2.004" y="64.629" class="c">Got</text><text x="6.012" y="64.629" class="c">viridisLite</text><text x="18.035999999999998" y="64.629" class="c">0.3.0</text><text x="24.048" y="64.629" class="c">(source)</text><text x="33.065999999999995" y="64.629" class="c">(44.02</text><text x="40.08" y="64.629" class="c">kB)</text><text x="0" y="66.8" class="c">✔</text><text x="2.004" y="66.8" class="c">Got</text><text x="6.012" y="66.8" class="c">gtable</text><text x="13.026" y="66.8" class="c">0.3.0</text><text x="19.037999999999997" y="66.8" class="c">(source)</text><text x="28.055999999999997" y="66.8" class="c">(430.03</text><text x="36.071999999999996" y="66.8" class="c">kB)</text><text x="0" y="68.971" class="c">✔</text><text x="2.004" y="68.971" class="c">Got</text><text x="6.012" y="68.971" class="c">farver</text><text x="13.026" y="68.971" class="c">2.1.0</text><text x="19.037999999999997" y="68.971" class="c">(source)</text><text x="28.055999999999997" y="68.971" class="c">(2.61</text><text x="34.068" y="68.971" class="c">MB)</text><text x="0" y="71.142" class="c">✔</text><text x="2.004" y="71.142" class="c">Got</text><text x="6.012" y="71.142" class="c">munsell</text><text x="14.027999999999999" y="71.142" class="c">0.5.0</text><text x="20.04" y="71.142" class="c">(source)</text><text x="29.058" y="71.142" class="c">(240.63</text><text x="37.074" y="71.142" class="c">kB)</text><text x="0" y="73.313" class="c">✔</text><text x="2.004" y="73.313" class="c">Got</text><text x="6.012" y="73.313" class="c">MASS</text><text x="11.021999999999998" y="73.313" class="c">7.3-53.1</text><text x="20.04" y="73.313" class="c">(source)</text><text x="29.058" y="73.313" class="c">(143.28</text><text x="37.074" y="73.313" class="c">kB)</text><text x="0" y="75.48400000000001" class="c">✔</text><text x="2.004" y="75.48400000000001" class="c">Got</text><text x="6.012" y="75.48400000000001" class="c">scales</text><text x="13.026" y="75.48400000000001" class="c">1.1.1</text><text x="19.037999999999997" y="75.48400000000001" class="c">(source)</text><text x="28.055999999999997" y="75.48400000000001" class="c">(515.20</text><text x="36.071999999999996" y="75.48400000000001" class="c">kB)</text><use xlink:href="#3" y="75.985"></use><text x="0" y="79.82600000000001" class="c">✔</text><text x="2.004" y="79.82600000000001" class="c">Got</text><text x="6.012" y="79.82600000000001" class="c">MASS</text><text x="11.021999999999998" y="79.82600000000001" class="c">7.3-53.1</text><text x="20.04" y="79.82600000000001" class="c">(source)</text><text x="29.058" y="79.82600000000001" class="c">(505.01</text><text x="37.074" y="79.82600000000001" class="c">kB)</text><use xlink:href="#4" y="80.327"></use><use xlink:href="#4" y="82.49799999999999"></use><use xlink:href="#5" y="84.669"></use><use xlink:href="#5" y="86.84"></use><use xlink:href="#6" y="89.011"></use><text x="0" y="92.852" class="c">✔</text><text x="2.004" y="92.852" class="c">Got</text><text x="6.012" y="92.852" class="c">viridisLite</text><text x="18.035999999999998" y="92.852" class="c">0.3.0</text><text x="24.048" y="92.852" class="c">(source)</text><text x="33.065999999999995" y="92.852" class="c">(56.95</text><text x="40.08" y="92.852" class="c">kB)</text><text x="0" y="95.02300000000001" class="c">✔</text><text x="2.004" y="95.02300000000001" class="c">Got</text><text x="6.012" y="95.02300000000001" class="c">Matrix</text><text x="13.026" y="95.02300000000001" class="c">1.3-2</text><text x="19.037999999999997" y="95.02300000000001" class="c">(source)</text><text x="28.055999999999997" y="95.02300000000001" class="c">(1.97</text><text x="34.068" y="95.02300000000001" class="c">MB)</text><use xlink:href="#6" y="95.52399999999999"></use><text x="0" y="99.365" class="c">✔</text><text x="2.004" y="99.365" class="c">Got</text><text x="6.012" y="99.365" class="c">labeling</text><text x="15.029999999999998" y="99.365" class="c">0.4.2</text><text x="21.041999999999998" y="99.365" class="c">(source)</text><text x="30.059999999999995" y="99.365" class="c">(58.75</text><text x="37.074" y="99.365" class="c">kB)</text><use xlink:href="#7" y="99.866"></use><use xlink:href="#7" y="102.03699999999999"></use><text x="0" y="105.878" class="c">✔</text><text x="2.004" y="105.878" class="c">Got</text><text x="6.012" y="105.878" class="c">scales</text><text x="13.026" y="105.878" class="c">1.1.1</text><text x="19.037999999999997" y="105.878" class="c">(source)</text><text x="28.055999999999997" y="105.878" class="c">(545.32</text><text x="36.071999999999996" y="105.878" class="c">kB)</text><text x="0" y="108.049" class="c">✔</text><text x="2.004" y="108.049" class="c">Got</text><text x="6.012" y="108.049" class="c">lattice</text><text x="14.027999999999999" y="108.049" class="c">0.20-41</text><text x="22.043999999999997" y="108.049" class="c">(source)</text><text x="31.061999999999998" y="108.049" class="c">(389.15</text><text x="39.077999999999996" y="108.049" class="c">kB)</text><text x="0" y="110.22" class="c">✔</text><text x="2.004" y="110.22" class="c">Got</text><text x="6.012" y="110.22" class="c">lattice</text><text x="14.027999999999999" y="110.22" class="c">0.20-41</text><text x="22.043999999999997" y="110.22" class="c">(source)</text><text x="31.061999999999998" y="110.22" class="c">(1.15</text><text x="37.074" y="110.22" class="c">MB)</text><use xlink:href="#5" y="110.721"></use><text x="0" y="114.56200000000001" class="c">✔</text><text x="2.004" y="114.56200000000001" class="c">Got</text><text x="6.012" y="114.56200000000001" class="c">nlme</text><text x="11.021999999999998" y="114.56200000000001" class="c">3.1-152</text><text x="19.037999999999997" y="114.56200000000001" class="c">(source)</text><text x="28.055999999999997" y="114.56200000000001" class="c">(806.18</text><text x="36.071999999999996" y="114.56200000000001" class="c">kB)</text><text x="0" y="116.73299999999999" class="c">✔</text><text x="2.004" y="116.73299999999999" class="c">Got</text><text x="6.012" y="116.73299999999999" class="c">ggplot2</text><text x="14.027999999999999" y="116.73299999999999" class="c">3.3.3</text><text x="20.04" y="116.73299999999999" class="c">(source)</text><text x="29.058" y="116.73299999999999" class="c">(4.06</text><text x="35.06999999999999" y="116.73299999999999" class="c">MB)</text><text x="0" y="118.904" class="c">✔</text><text x="2.004" y="118.904" class="c">Got</text><text x="6.012" y="118.904" class="c">nlme</text><text x="11.021999999999998" y="118.904" class="c">3.1-152</text><text x="19.037999999999997" y="118.904" class="c">(source)</text><text x="28.055999999999997" y="118.904" class="c">(2.39</text><text x="34.068" y="118.904" class="c">MB)</text><text x="0" y="121.075" class="c">✔</text><text x="2.004" y="121.075" class="c">Got</text><text x="6.012" y="121.075" class="c">mgcv</text><text x="11.021999999999998" y="121.075" class="c">1.8-34</text><text x="18.035999999999998" y="121.075" class="c">(source)</text><text x="27.054" y="121.075" class="c">(3.40</text><text x="33.065999999999995" y="121.075" class="c">MB)</text><text x="0" y="123.246" class="c">Warning</text><text x="8.016" y="123.246" class="c">message:</text><text x="0" y="125.417" class="c">In</text><text x="3.006" y="125.417" class="c">file.rename(tmp_destfile,</text><text x="29.058" y="125.417" class="c">destfile)</text><text x="39.077999999999996" y="125.417" class="c">:</text><text x="2.004" y="127.58800000000001" class="c">cannot</text><text x="9.017999999999999" y="127.58800000000001" class="c">rename</text><text x="16.032" y="127.58800000000001" class="c">file</text><text x="21.041999999999998" y="127.58800000000001" class="c">&#x27;/tmp/RtmpPI0SVh/file3c9a534934dc/src/contrib/isoband_0.2.4.tar.gz.tmp.1&#x27;</text><text x="95.19" y="127.58800000000001" class="c">to</text><text x="98.196" y="127.58800000000001" class="c">&#x27;/</text><text x="0" y="129.759" class="c">tmp/RtmpPI0SVh/file3c9a534934dc/src/contrib/isoband_0.2.4.tar.gz&#x27;,</text><text x="67.134" y="129.759" class="c">reason</text><text x="74.148" y="129.759" class="c">&#x27;No</text><text x="78.15599999999999" y="129.759" class="c">such</text><text x="83.16599999999998" y="129.759" class="c">file</text><text x="88.17599999999999" y="129.759" class="c">or</text><text x="91.182" y="129.759" class="c">directory</text><text x="0" y="131.92999999999998" class="c">&#x27;</text><text x="0" y="134.10099999999997" class="c">#</text><text x="2.004" y="134.10099999999997" class="c">A</text><text x="4.008" y="134.10099999999997" class="c">tibble:</text><text x="12.024" y="134.10099999999997" class="c">74</text><text x="15.029999999999998" y="134.10099999999997" class="c">x</text><text x="17.034" y="134.10099999999997" class="c">34</text><text x="3.006" y="136.272" class="c">ref</text><text x="10.02" y="136.272" class="c">type</text><text x="16.032" y="136.272" class="c">direct</text><text x="23.045999999999996" y="136.272" class="c">directpkg</text><text x="33.065999999999995" y="136.272" class="c">status</text><text x="40.08" y="136.272" class="c">package</text><text x="48.096" y="136.272" class="c">version</text><text x="56.111999999999995" y="136.272" class="c">license</text><text x="64.128" y="136.272" class="c">needscompilation</text><text x="3.006" y="138.44299999999998" class="c">&lt;chr&gt;</text><text x="10.02" y="138.44299999999998" class="c">&lt;chr&gt;</text><text x="16.032" y="138.44299999999998" class="c">&lt;lgl&gt;</text><text x="23.045999999999996" y="138.44299999999998" class="c">&lt;lgl&gt;</text><text x="33.065999999999995" y="138.44299999999998" class="c">&lt;chr&gt;</text><text x="40.08" y="138.44299999999998" class="c">&lt;chr&gt;</text><text x="48.096" y="138.44299999999998" class="c">&lt;chr&gt;</text><text x="56.111999999999995" y="138.44299999999998" class="c">&lt;chr&gt;</text><text x="64.128" y="138.44299999999998" class="c">&lt;lgl&gt;</text><text x="1.002" y="140.61399999999998" class="c">1</text><text x="3.006" y="140.61399999999998" class="c">MASS</text><text x="10.02" y="140.61399999999998" class="c">stan…</text><text x="16.032" y="140.61399999999998" class="c">FALSE</text><text x="23.045999999999996" y="140.61399999999998" class="c">FALSE</text><text x="33.065999999999995" y="140.61399999999998" class="c">OK</text><text x="40.08" y="140.61399999999998" class="c">MASS</text><text x="48.096" y="140.61399999999998" class="c">7.3-53…</text><text x="56.111999999999995" y="140.61399999999998" class="c">GPL-2</text><text x="62.123999999999995" y="140.61399999999998" class="c">…</text><text x="64.128" y="140.61399999999998" class="c">TRUE</text><text x="1.002" y="142.785" class="c">2</text><text x="3.006" y="142.785" class="c">MASS</text><text x="10.02" y="142.785" class="c">stan…</text><text x="16.032" y="142.785" class="c">FALSE</text><text x="23.045999999999996" y="142.785" class="c">FALSE</text><text x="33.065999999999995" y="142.785" class="c">OK</text><text x="40.08" y="142.785" class="c">MASS</text><text x="48.096" y="142.785" class="c">7.3-53…</text><text x="56.111999999999995" y="142.785" class="c">GPL-2</text><text x="62.123999999999995" y="142.785" class="c">…</text><text x="64.128" y="142.785" class="c">TRUE</text><text x="1.002" y="144.956" class="c">3</text><text x="3.006" y="144.956" class="c">Matrix</text><text x="10.02" y="144.956" class="c">stan…</text><text x="16.032" y="144.956" class="c">FALSE</text><text x="23.045999999999996" y="144.956" class="c">FALSE</text><text x="33.065999999999995" y="144.956" class="c">OK</text><text x="40.08" y="144.956" class="c">Matrix</text><text x="48.096" y="144.956" class="c">1.3-2</text><text x="56.111999999999995" y="144.956" class="c">GPL</text><text x="60.11999999999999" y="144.956" class="c">(&gt;…</text><text x="64.128" y="144.956" class="c">TRUE</text><text x="1.002" y="147.12699999999998" class="c">4</text><text x="3.006" y="147.12699999999998" class="c">Matrix</text><text x="10.02" y="147.12699999999998" class="c">stan…</text><text x="16.032" y="147.12699999999998" class="c">FALSE</text><text x="23.045999999999996" y="147.12699999999998" class="c">FALSE</text><text x="33.065999999999995" y="147.12699999999998" class="c">OK</text><text x="40.08" y="147.12699999999998" class="c">Matrix</text><text x="48.096" y="147.12699999999998" class="c">1.3-2</text><text x="56.111999999999995" y="147.12699999999998" class="c">GPL</text><text x="60.11999999999999" y="147.12699999999998" class="c">(&gt;…</text><text x="64.128" y="147.12699999999998" class="c">TRUE</text><text x="1.002" y="149.298" class="c">5</text><text x="3.006" y="149.298" class="c">R6</text><text x="10.02" y="149.298" class="c">stan…</text><text x="16.032" y="149.298" class="c">FALSE</text><text x="23.045999999999996" y="149.298" class="c">FALSE</text><text x="33.065999999999995" y="149.298" class="c">OK</text><text x="40.08" y="149.298" class="c">R6</text><text x="48.096" y="149.298" class="c">2.5.0</text><text x="56.111999999999995" y="149.298" class="c">MIT</text><text x="60.11999999999999" y="149.298" class="c">+</text><text x="62.123999999999995" y="149.298" class="c">…</text><text x="64.128" y="149.298" class="c">FALSE</text><text x="1.002" y="151.46899999999997" class="c">6</text><text x="3.006" y="151.46899999999997" class="c">RColo…</text><text x="10.02" y="151.46899999999997" class="c">stan…</text><text x="16.032" y="151.46899999999997" class="c">FALSE</text><text x="23.045999999999996" y="151.46899999999997" class="c">FALSE</text><text x="33.065999999999995" y="151.46899999999997" class="c">OK</text><text x="40.08" y="151.46899999999997" class="c">RColor…</text><text x="48.096" y="151.46899999999997" class="c">1.1-2</text><text x="56.111999999999995" y="151.46899999999997" class="c">Apache…</text><text x="64.128" y="151.46899999999997" class="c">FALSE</text><text x="1.002" y="153.64" class="c">7</text><text x="3.006" y="153.64" class="c">asser…</text><text x="10.02" y="153.64" class="c">stan…</text><text x="16.032" y="153.64" class="c">FALSE</text><text x="23.045999999999996" y="153.64" class="c">FALSE</text><text x="33.065999999999995" y="153.64" class="c">OK</text><text x="40.08" y="153.64" class="c">assert…</text><text x="48.096" y="153.64" class="c">0.2.1</text><text x="56.111999999999995" y="153.64" class="c">GPL-3</text><text x="64.128" y="153.64" class="c">FALSE</text><text x="1.002" y="155.81099999999998" class="c">8</text><text x="3.006" y="155.81099999999998" class="c">cli</text><text x="10.02" y="155.81099999999998" class="c">stan…</text><text x="16.032" y="155.81099999999998" class="c">FALSE</text><text x="23.045999999999996" y="155.81099999999998" class="c">FALSE</text><text x="33.065999999999995" y="155.81099999999998" class="c">OK</text><text x="40.08" y="155.81099999999998" class="c">cli</text><text x="48.096" y="155.81099999999998" class="c">2.3.1</text><text x="56.111999999999995" y="155.81099999999998" class="c">MIT</text><text x="60.11999999999999" y="155.81099999999998" class="c">+</text><text x="62.123999999999995" y="155.81099999999998" class="c">…</text><text x="64.128" y="155.81099999999998" class="c">FALSE</text><text x="1.002" y="157.982" class="c">9</text><text x="3.006" y="157.982" class="c">color…</text><text x="10.02" y="157.982" class="c">stan…</text><text x="16.032" y="157.982" class="c">FALSE</text><text x="23.045999999999996" y="157.982" class="c">FALSE</text><text x="33.065999999999995" y="157.982" class="c">OK</text><text x="40.08" y="157.982" class="c">colors…</text><text x="48.096" y="157.982" class="c">2.0-0</text><text x="56.111999999999995" y="157.982" class="c">BSD_3_…</text><text x="64.128" y="157.982" class="c">TRUE</text><text x="0" y="160.153" class="c">10</text><text x="3.006" y="160.153" class="c">crayon</text><text x="10.02" y="160.153" class="c">stan…</text><text x="16.032" y="160.153" class="c">FALSE</text><text x="23.045999999999996" y="160.153" class="c">FALSE</text><text x="33.065999999999995" y="160.153" class="c">OK</text><text x="40.08" y="160.153" class="c">crayon</text><text x="48.096" y="160.153" class="c">1.4.1</text><text x="56.111999999999995" y="160.153" class="c">MIT</text><text x="60.11999999999999" y="160.153" class="c">+</text><text x="62.123999999999995" y="160.153" class="c">…</text><text x="64.128" y="160.153" class="c">FALSE</text><text x="0" y="162.32399999999998" class="c">#</text><text x="2.004" y="162.32399999999998" class="c">…</text><text x="4.008" y="162.32399999999998" class="c">with</text><text x="9.017999999999999" y="162.32399999999998" class="c">64</text><text x="12.024" y="162.32399999999998" class="c">more</text><text x="17.034" y="162.32399999999998" class="c">rows,</text><text x="23.045999999999996" y="162.32399999999998" class="c">and</text><text x="27.054" y="162.32399999999998" class="c">25</text><text x="30.059999999999995" y="162.32399999999998" class="c">more</text><text x="35.06999999999999" y="162.32399999999998" class="c">variables:</text><text x="46.09199999999999" y="162.32399999999998" class="c">priority</text><text x="55.10999999999999" y="162.32399999999998" class="c">&lt;chr&gt;,</text><text x="62.123999999999995" y="162.32399999999998" class="c">md5sum</text><text x="69.13799999999999" y="162.32399999999998" class="c">&lt;chr&gt;,</text><text x="0" y="164.495" class="c">#</text><text x="4.008" y="164.495" class="c">sha256</text><text x="11.021999999999998" y="164.495" class="c">&lt;chr&gt;,</text><text x="18.035999999999998" y="164.495" class="c">filesize</text><text x="27.054" y="164.495" class="c">&lt;int&gt;,</text><text x="34.068" y="164.495" class="c">built</text><text x="40.08" y="164.495" class="c">&lt;chr&gt;,</text><text x="47.093999999999994" y="164.495" class="c">platform</text><text x="56.111999999999995" y="164.495" class="c">&lt;chr&gt;,</text><text x="63.12599999999999" y="164.495" class="c">rversion</text><text x="72.14399999999999" y="164.495" class="c">&lt;chr&gt;,</text><text x="0" y="166.66599999999997" class="c">#</text><text x="4.008" y="166.66599999999997" class="c">repotype</text><text x="13.026" y="166.66599999999997" class="c">&lt;chr&gt;,</text><text x="20.04" y="166.66599999999997" class="c">repodir</text><text x="28.055999999999997" y="166.66599999999997" class="c">&lt;chr&gt;,</text><text x="35.06999999999999" y="166.66599999999997" class="c">target</text><text x="42.083999999999996" y="166.66599999999997" class="c">&lt;chr&gt;,</text><text x="49.098" y="166.66599999999997" class="c">deps</text><text x="54.108" y="166.66599999999997" class="c">&lt;list&gt;,</text><text x="62.123999999999995" y="166.66599999999997" class="c">mirror</text><text x="69.13799999999999" y="166.66599999999997" class="c">&lt;chr&gt;,</text><text x="0" y="168.837" class="c">#</text><text x="4.008" y="168.837" class="c">sources</text><text x="12.024" y="168.837" class="c">&lt;list&gt;,</text><text x="20.04" y="168.837" class="c">remote</text><text x="27.054" y="168.837" class="c">&lt;list&gt;,</text><text x="35.06999999999999" y="168.837" class="c">error</text><text x="41.082" y="168.837" class="c">&lt;list&gt;,</text><text x="49.098" y="168.837" class="c">metadata</text><text x="58.116" y="168.837" class="c">&lt;list&gt;,</text><text x="66.13199999999999" y="168.837" class="c">extra</text><text x="72.14399999999999" y="168.837" class="c">&lt;list&gt;,</text><text x="0" y="171.00799999999998" class="c">#</text><text x="4.008" y="171.00799999999998" class="c">dep_types</text><text x="14.027999999999999" y="171.00799999999998" class="c">&lt;list&gt;,</text><text x="22.043999999999997" y="171.00799999999998" class="c">params</text><text x="29.058" y="171.00799999999998" class="c">&lt;list&gt;,</text><text x="37.074" y="171.00799999999998" class="c">cache_status</text><text x="50.1" y="171.00799999999998" class="c">&lt;chr&gt;,</text><text x="57.114" y="171.00799999999998" class="c">fulltarget</text><text x="68.136" y="171.00799999999998" class="c">&lt;chr&gt;,</text><text x="0" y="173.179" class="c">#</text><text x="4.008" y="173.179" class="c">fulltarget_tree</text><text x="20.04" y="173.179" class="c">&lt;chr&gt;,</text><text x="27.054" y="173.179" class="c">download_status</text><text x="43.086" y="173.179" class="c">&lt;chr&gt;,</text><text x="50.1" y="173.179" class="c">download_error</text><text x="65.13" y="173.179" class="c">&lt;list&gt;,</text><text x="0" y="175.35" class="c">#</text><text x="4.008" y="175.35" class="c">file_size</text><text x="14.027999999999999" y="175.35" class="c">&lt;dbl&gt;</text><text x="0" y="177.52099999999996" class="c">[1]</text><text x="4.008" y="177.52099999999996" class="c">&quot;src&quot;</text></svg></svg></g></svg></svg>