<svg xmlns="http://www.w3.org/2000/svg" xmlns:xlink="http://www.w3.org/1999/xlink" width="1040" height="365.65"><rect width="1040" height="365.65" rx="0" ry="0" class="a"></rect><svg height="325.65" viewBox="0 0 100 32.565" width="1000" x="20" xmlns="http://www.w3.org/2000/svg" xmlns:xlink="http://www.w3.org/1999/xlink" y="20"><style>.a{fill:rgb(40,45,53)}.b{font-family:'Fira Code',Monaco,Consolas,Menlo,'Bitstream Vera Sans Mono','Powerline Symbols',monospace}.c{fill:transparent}.d{fill:rgb(185,192,203);white-space:pre}.e{fill:rgb(111,119,131);white-space:pre}.f{fill:rgb(111,119,131);font-style:italic;white-space:pre}.g{fill:rgb(232,131,136);white-space:pre}</style><g font-family="&#x27;Fira Code&#x27;,Monaco,Consolas,Menlo,&#x27;Bitstream Vera Sans Mono&#x27;,&#x27;Powerline Symbols&#x27;,monospace" font-size="1.67" class="b"><defs><symbol id="a"><rect height="16" width="100" x="0" y="0" class="c"></rect></symbol></defs><rect height="32.565" width="100" class="a"></rect><svg x="0" y="0" width="100"><svg x="0"><use xlink:href="#a"></use><text x="0" y="1.67" class="d">ℹ</text><text x="2.004" y="1.67" class="d">Getting</text><text x="10.02" y="1.67" class="d">1</text><text x="12.024" y="1.67" class="d">pkg</text><text x="16.032" y="1.67" class="d">(17.63</text><text x="23.045999999999996" y="1.67" class="d">kB)</text><text x="0" y="3.8409999999999997" class="d">✔</text><text x="2.004" y="3.8409999999999997" class="d">Cached</text><text x="9.017999999999999" y="3.8409999999999997" class="d">copy</text><text x="14.027999999999999" y="3.8409999999999997" class="d">of</text><text x="17.034" y="3.8409999999999997" class="d">pkgconfig</text><text x="27.054" y="3.8409999999999997" class="d">2.0.3</text><text x="33.065999999999995" y="3.8409999999999997" class="d">(macos)</text><text x="41.082" y="3.8409999999999997" class="d">is</text><text x="44.087999999999994" y="3.8409999999999997" class="d">the</text><text x="48.096" y="3.8409999999999997" class="d">latest</text><text x="55.10999999999999" y="3.8409999999999997" class="d">build</text><text x="0" y="6.012" class="d">✔</text><text x="2.004" y="6.012" class="d">No</text><text x="5.01" y="6.012" class="d">downloads</text><text x="15.029999999999998" y="6.012" class="d">needed,</text><text x="23.045999999999996" y="6.012" class="d">all</text><text x="27.054" y="6.012" class="d">packages</text><text x="36.071999999999996" y="6.012" class="d">are</text><text x="40.08" y="6.012" class="d">cached</text><text x="0" y="8.183" class="d">✔</text><text x="2.004" y="8.183" class="d">Installed</text><text x="12.024" y="8.183" class="d">pkgconfig</text><text x="22.043999999999997" y="8.183" class="d">2.0.3</text><text x="29.058" y="8.183" class="d">(34ms)</text><text x="0" y="10.354" class="d">✔</text><text x="2.004" y="10.354" class="d">Summary:</text><text x="12.024" y="10.354" class="d">🚀</text><text x="15.029999999999998" y="10.354" class="d">1</text><text x="17.034" y="10.354" class="d">updated</text><text x="26.052" y="10.354" class="d">in</text><text x="29.058" y="10.354" class="d">34ms</text><text x="0" y="12.525" class="e">#</text><text x="2.004" y="12.525" class="e">A</text><text x="4.008" y="12.525" class="e">tibble:</text><text x="12.024" y="12.525" class="e">1</text><text x="14.027999999999999" y="12.525" class="e">x</text><text x="16.032" y="12.525" class="e">30</text><text x="2.004" y="14.696" class="d">library</text><text x="10.02" y="14.696" class="d">package</text><text x="18.035999999999998" y="14.696" class="d">title</text><text x="24.048" y="14.696" class="d">version</text><text x="32.064" y="14.696" class="d">depends</text><text x="40.08" y="14.696" class="d">suggests</text><text x="49.098" y="14.696" class="d">imports</text><text x="57.114" y="14.696" class="d">linkingto</text><text x="67.134" y="14.696" class="d">enhances</text><text x="2.004" y="16.866999999999997" class="f">&lt;chr&gt;</text><text x="10.02" y="16.866999999999997" class="f">&lt;chr&gt;</text><text x="18.035999999999998" y="16.866999999999997" class="f">&lt;chr&gt;</text><text x="24.048" y="16.866999999999997" class="f">&lt;chr&gt;</text><text x="32.064" y="16.866999999999997" class="f">&lt;chr&gt;</text><text x="40.08" y="16.866999999999997" class="f">&lt;chr&gt;</text><text x="49.098" y="16.866999999999997" class="f">&lt;chr&gt;</text><text x="57.114" y="16.866999999999997" class="f">&lt;chr&gt;</text><text x="67.134" y="16.866999999999997" class="f">&lt;chr&gt;</text><text x="0" y="19.037999999999997" class="e">1</text><text x="2.004" y="19.037999999999997" class="d">/var/f…</text><text x="10.02" y="19.037999999999997" class="d">pkgcon…</text><text x="18.035999999999998" y="19.037999999999997" class="d">Priv…</text><text x="24.048" y="19.037999999999997" class="d">2.0.3</text><text x="32.064" y="19.037999999999997" class="g">NA</text><text x="40.08" y="19.037999999999997" class="d">covr,</text><text x="46.09199999999999" y="19.037999999999997" class="d">t…</text><text x="49.098" y="19.037999999999997" class="d">utils</text><text x="57.114" y="19.037999999999997" class="g">NA</text><text x="67.134" y="19.037999999999997" class="g">NA</text><text x="0" y="21.209000000000003" class="e">#</text><text x="2.004" y="21.209000000000003" class="e">…</text><text x="4.008" y="21.209000000000003" class="e">with</text><text x="9.017999999999999" y="21.209000000000003" class="e">21</text><text x="12.024" y="21.209000000000003" class="e">more</text><text x="17.034" y="21.209000000000003" class="e">variables:</text><text x="28.055999999999997" y="21.209000000000003" class="e">built</text><text x="34.068" y="21.209000000000003" class="f">&lt;chr&gt;</text><text x="39.077999999999996" y="21.209000000000003" class="e">,</text><text x="41.082" y="21.209000000000003" class="e">md5sum</text><text x="48.096" y="21.209000000000003" class="f">&lt;chr&gt;</text><text x="53.105999999999995" y="21.209000000000003" class="e">,</text><text x="55.10999999999999" y="21.209000000000003" class="e">needscompilation</text><text x="72.14399999999999" y="21.209000000000003" class="f">&lt;lgl&gt;</text><text x="77.154" y="21.209000000000003" class="e">,</text><text x="0" y="23.380000000000003" class="e">#</text><text x="4.008" y="23.380000000000003" class="e">platform</text><text x="13.026" y="23.380000000000003" class="f">&lt;chr&gt;</text><text x="18.035999999999998" y="23.380000000000003" class="e">,</text><text x="20.04" y="23.380000000000003" class="e">license</text><text x="28.055999999999997" y="23.380000000000003" class="f">&lt;chr&gt;</text><text x="33.065999999999995" y="23.380000000000003" class="e">,</text><text x="35.06999999999999" y="23.380000000000003" class="e">priority</text><text x="44.087999999999994" y="23.380000000000003" class="f">&lt;chr&gt;</text><text x="49.098" y="23.380000000000003" class="e">,</text><text x="51.102" y="23.380000000000003" class="e">repository</text><text x="62.123999999999995" y="23.380000000000003" class="f">&lt;chr&gt;</text><text x="67.134" y="23.380000000000003" class="e">,</text><text x="0" y="25.550999999999995" class="e">#</text><text x="4.008" y="25.550999999999995" class="e">biocviews</text><text x="14.027999999999999" y="25.550999999999995" class="f">&lt;chr&gt;</text><text x="19.037999999999997" y="25.550999999999995" class="e">,</text><text x="21.041999999999998" y="25.550999999999995" class="e">remotetype</text><text x="32.064" y="25.550999999999995" class="f">&lt;chr&gt;</text><text x="37.074" y="25.550999999999995" class="e">,</text><text x="39.077999999999996" y="25.550999999999995" class="e">remotepkgref</text><text x="52.104" y="25.550999999999995" class="f">&lt;chr&gt;</text><text x="57.114" y="25.550999999999995" class="e">,</text><text x="59.117999999999995" y="25.550999999999995" class="e">remoteref</text><text x="69.13799999999999" y="25.550999999999995" class="f">&lt;chr&gt;</text><text x="74.148" y="25.550999999999995" class="e">,</text><text x="0" y="27.722" class="e">#</text><text x="4.008" y="27.722" class="e">remoterepos</text><text x="16.032" y="27.722" class="f">&lt;chr&gt;</text><text x="21.041999999999998" y="27.722" class="e">,</text><text x="23.045999999999996" y="27.722" class="e">remotepkgtype</text><text x="37.074" y="27.722" class="f">&lt;chr&gt;</text><text x="42.083999999999996" y="27.722" class="e">,</text><text x="44.087999999999994" y="27.722" class="e">remotesha</text><text x="54.108" y="27.722" class="f">&lt;chr&gt;</text><text x="59.117999999999995" y="27.722" class="e">,</text><text x="61.12199999999999" y="27.722" class="e">ref</text><text x="65.13" y="27.722" class="f">&lt;chr&gt;</text><text x="70.13999999999999" y="27.722" class="e">,</text><text x="0" y="29.893" class="e">#</text><text x="4.008" y="29.893" class="e">type</text><text x="9.017999999999999" y="29.893" class="f">&lt;chr&gt;</text><text x="14.027999999999999" y="29.893" class="e">,</text><text x="16.032" y="29.893" class="e">status</text><text x="23.045999999999996" y="29.893" class="f">&lt;chr&gt;</text><text x="28.055999999999997" y="29.893" class="e">,</text><text x="30.059999999999995" y="29.893" class="e">rversion</text><text x="39.077999999999996" y="29.893" class="f">&lt;chr&gt;</text><text x="44.087999999999994" y="29.893" class="e">,</text><text x="46.09199999999999" y="29.893" class="e">sources</text><text x="54.108" y="29.893" class="f">&lt;list&gt;</text><text x="60.11999999999999" y="29.893" class="e">,</text><text x="62.123999999999995" y="29.893" class="e">repotype</text><text x="71.142" y="29.893" class="f">&lt;chr&gt;</text><text x="76.15199999999999" y="29.893" class="e">,</text><text x="0" y="32.064" class="e">#</text><text x="4.008" y="32.064" class="e">deps</text><text x="9.017999999999999" y="32.064" class="f">&lt;list&gt;</text></svg></svg></g></svg></svg>