<svg xmlns="http://www.w3.org/2000/svg" xmlns:xlink="http://www.w3.org/1999/xlink" width="1040" height="1168.92"><rect width="1040" height="1168.92" rx="0" ry="0" class="a"></rect><svg height="1128.92" viewBox="0 0 100 112.89200000000001" width="1000" x="20" xmlns="http://www.w3.org/2000/svg" xmlns:xlink="http://www.w3.org/1999/xlink" y="20"><style>.a{fill:rgb(40,45,53)}.b{font-family:'Fira Code',Monaco,Consolas,Menlo,'Bitstream Vera Sans Mono','Powerline Symbols',monospace}.c{fill:rgb(185,192,203);white-space:pre}.d{fill:transparent}.e{fill:rgb(102,194,205);font-style:italic;font-weight:bold;white-space:pre}.f{fill:rgb(111,119,131);font-style:italic;font-weight:bold;white-space:pre}.g{fill:rgb(168,204,140);white-space:pre}.h{fill:rgb(111,119,131);white-space:pre}</style><g font-family="&#x27;Fira Code&#x27;,Monaco,Consolas,Menlo,&#x27;Bitstream Vera Sans Mono&#x27;,&#x27;Powerline Symbols&#x27;,monospace" font-size="1.67" class="b"><defs><symbol id="1"><text x="0" y="1.67" class="c">│</text><text x="2.004" y="1.67" class="c">│</text><text x="4.008" y="1.67" class="c">└─rlang</text></symbol><symbol id="a"><rect height="53" width="100" x="0" y="0" class="d"></rect></symbol></defs><rect height="112.89200000000001" width="100" class="a"></rect><svg x="0" y="0" width="100"><svg x="0"><use xlink:href="#a"></use><text x="0" y="1.67" class="e">ggplot2</text><text x="8.016" y="1.67" class="f">3.3.3</text><text x="14.027999999999999" y="1.67" class="g">✨</text><text x="16.032" y="1.67" class="g">⬇</text><text x="18.035999999999998" y="1.67" class="h">(4.07</text><text x="24.048" y="1.67" class="h">MB)</text><text x="0" y="3.8409999999999997" class="c">├─digest</text><text x="9.017999999999999" y="3.8409999999999997" class="h">0.6.27</text><text x="16.032" y="3.8409999999999997" class="g">✨</text><text x="0" y="6.012" class="c">├─glue</text><text x="7.013999999999999" y="6.012" class="h">1.4.2</text><text x="13.026" y="6.012" class="g">✨</text><text x="0" y="8.183" class="c">├─gtable</text><text x="9.017999999999999" y="8.183" class="h">0.3.0</text><text x="15.029999999999998" y="8.183" class="g">✨</text><text x="17.034" y="8.183" class="g">⬇</text><text x="19.037999999999997" y="8.183" class="h">(430.26</text><text x="27.054" y="8.183" class="h">kB)</text><text x="0" y="10.354" class="c">├─isoband</text><text x="10.02" y="10.354" class="h">0.2.3</text><text x="16.032" y="10.354" class="g">✨</text><text x="18.035999999999998" y="10.354" class="g">⬇</text><text x="20.04" y="10.354" class="h">(3.68</text><text x="26.052" y="10.354" class="h">MB)</text><text x="0" y="12.525" class="c">├─MASS</text><text x="7.013999999999999" y="12.525" class="h">7.3-53</text><text x="0" y="14.696" class="c">├─mgcv</text><text x="7.013999999999999" y="14.696" class="h">1.8-33</text><text x="0" y="16.866999999999997" class="c">│</text><text x="2.004" y="16.866999999999997" class="c">├─nlme</text><text x="9.017999999999999" y="16.866999999999997" class="g">3.1-149</text><text x="17.034" y="16.866999999999997" class="g">&lt;</text><text x="19.037999999999997" y="16.866999999999997" class="g">3.1-151</text><text x="27.054" y="16.866999999999997" class="g">✋</text><text x="0" y="19.037999999999997" class="c">│</text><text x="2.004" y="19.037999999999997" class="c">│</text><text x="4.008" y="19.037999999999997" class="c">└─lattice</text><text x="14.027999999999999" y="19.037999999999997" class="h">0.20-41</text><text x="0" y="21.209000000000003" class="c">│</text><text x="2.004" y="21.209000000000003" class="c">└─Matrix</text><text x="11.021999999999998" y="21.209000000000003" class="g">1.2-18</text><text x="18.035999999999998" y="21.209000000000003" class="g">&lt;</text><text x="20.04" y="21.209000000000003" class="g">1.3-2</text><text x="26.052" y="21.209000000000003" class="g">✋</text><text x="0" y="23.380000000000003" class="c">│</text><text x="4.008" y="23.380000000000003" class="c">└─lattice</text><text x="0" y="25.550999999999995" class="c">├─rlang</text><text x="8.016" y="25.550999999999995" class="h">0.4.10</text><text x="15.029999999999998" y="25.550999999999995" class="g">✨</text><text x="0" y="27.722" class="c">├─scales</text><text x="9.017999999999999" y="27.722" class="h">1.1.1</text><text x="15.029999999999998" y="27.722" class="g">✨</text><text x="17.034" y="27.722" class="g">⬇</text><text x="19.037999999999997" y="27.722" class="h">(551.02</text><text x="27.054" y="27.722" class="h">kB)</text><text x="0" y="29.893" class="c">│</text><text x="2.004" y="29.893" class="c">├─farver</text><text x="11.021999999999998" y="29.893" class="h">2.0.3</text><text x="17.034" y="29.893" class="g">✨</text><text x="19.037999999999997" y="29.893" class="g">⬇</text><text x="21.041999999999998" y="29.893" class="h">(1.83</text><text x="27.054" y="29.893" class="h">MB)</text><text x="0" y="32.064" class="c">│</text><text x="2.004" y="32.064" class="c">├─labeling</text><text x="13.026" y="32.064" class="h">0.4.2</text><text x="19.037999999999997" y="32.064" class="g">✨</text><text x="21.041999999999998" y="32.064" class="g">⬇</text><text x="23.045999999999996" y="32.064" class="h">(60.30</text><text x="30.059999999999995" y="32.064" class="h">kB)</text><text x="0" y="34.235" class="c">│</text><text x="2.004" y="34.235" class="c">├─lifecycle</text><text x="14.027999999999999" y="34.235" class="h">0.2.0</text><text x="20.04" y="34.235" class="g">✨</text><text x="22.043999999999997" y="34.235" class="g">⬇</text><text x="24.048" y="34.235" class="h">(91.64</text><text x="31.061999999999998" y="34.235" class="h">kB)</text><text x="0" y="36.406" class="c">│</text><text x="2.004" y="36.406" class="c">│</text><text x="4.008" y="36.406" class="c">├─glue</text><use xlink:href="#1" y="36.907000000000004"></use><text x="0" y="40.748000000000005" class="c">│</text><text x="2.004" y="40.748000000000005" class="c">├─munsell</text><text x="12.024" y="40.748000000000005" class="h">0.5.0</text><text x="18.035999999999998" y="40.748000000000005" class="g">✨</text><text x="20.04" y="40.748000000000005" class="g">⬇</text><text x="22.043999999999997" y="40.748000000000005" class="h">(241.93</text><text x="30.059999999999995" y="40.748000000000005" class="h">kB)</text><text x="0" y="42.919" class="c">│</text><text x="2.004" y="42.919" class="c">│</text><text x="4.008" y="42.919" class="c">└─colorspace</text><text x="17.034" y="42.919" class="h">2.0-0</text><text x="23.045999999999996" y="42.919" class="g">✨</text><text x="25.05" y="42.919" class="g">⬇</text><text x="27.054" y="42.919" class="h">(2.62</text><text x="33.065999999999995" y="42.919" class="h">MB)</text><text x="0" y="45.09" class="c">│</text><text x="2.004" y="45.09" class="c">├─R6</text><text x="7.013999999999999" y="45.09" class="h">2.5.0</text><text x="13.026" y="45.09" class="g">✨</text><text x="0" y="47.261" class="c">│</text><text x="2.004" y="47.261" class="c">├─RColorBrewer</text><text x="17.034" y="47.261" class="h">1.1-2</text><text x="23.045999999999996" y="47.261" class="g">✨</text><text x="25.05" y="47.261" class="g">⬇</text><text x="27.054" y="47.261" class="h">(52.88</text><text x="34.068" y="47.261" class="h">kB)</text><text x="0" y="49.431999999999995" class="c">│</text><text x="2.004" y="49.431999999999995" class="c">└─viridisLite</text><text x="16.032" y="49.431999999999995" class="h">0.3.0</text><text x="22.043999999999997" y="49.431999999999995" class="g">✨</text><text x="24.048" y="49.431999999999995" class="g">⬇</text><text x="26.052" y="49.431999999999995" class="h">(56.99</text><text x="33.065999999999995" y="49.431999999999995" class="h">kB)</text><text x="0" y="51.603" class="c">├─tibble</text><text x="9.017999999999999" y="51.603" class="h">3.0.6</text><text x="15.029999999999998" y="51.603" class="g">✨</text><text x="0" y="53.774" class="c">│</text><text x="2.004" y="53.774" class="c">├─cli</text><text x="8.016" y="53.774" class="h">2.3.0</text><text x="14.027999999999999" y="53.774" class="g">✨</text><text x="16.032" y="53.774" class="g">⬇</text><text x="18.035999999999998" y="53.774" class="h">(unknown</text><text x="27.054" y="53.774" class="h">size)</text><text x="0" y="55.945" class="c">│</text><text x="2.004" y="55.945" class="c">│</text><text x="4.008" y="55.945" class="c">├─assertthat</text><text x="17.034" y="55.945" class="h">0.2.1</text><text x="23.045999999999996" y="55.945" class="g">✨</text><text x="25.05" y="55.945" class="g">⬇</text><text x="27.054" y="55.945" class="h">(52.47</text><text x="34.068" y="55.945" class="h">kB)</text><text x="0" y="58.11600000000001" class="c">│</text><text x="2.004" y="58.11600000000001" class="c">│</text><text x="4.008" y="58.11600000000001" class="c">└─glue</text><text x="0" y="60.287" class="c">│</text><text x="2.004" y="60.287" class="c">├─crayon</text><text x="11.021999999999998" y="60.287" class="h">1.4.0</text><text x="17.034" y="60.287" class="g">✨</text><text x="0" y="62.458" class="c">│</text><text x="2.004" y="62.458" class="c">├─ellipsis</text><text x="13.026" y="62.458" class="h">0.3.1</text><text x="19.037999999999997" y="62.458" class="g">✨</text><text x="21.041999999999998" y="62.458" class="g">⬇</text><text x="23.045999999999996" y="62.458" class="h">(33.48</text><text x="30.059999999999995" y="62.458" class="h">kB)</text><use xlink:href="#1" y="62.959"></use><text x="0" y="66.8" class="c">│</text><text x="2.004" y="66.8" class="c">├─fansi</text><text x="10.02" y="66.8" class="h">0.4.2</text><text x="16.032" y="66.8" class="g">✨</text><text x="0" y="68.971" class="c">│</text><text x="2.004" y="68.971" class="c">├─lifecycle</text><text x="0" y="71.142" class="c">│</text><text x="2.004" y="71.142" class="c">├─magrittr</text><text x="13.026" y="71.142" class="h">2.0.1</text><text x="19.037999999999997" y="71.142" class="g">✨</text><text x="0" y="73.313" class="c">│</text><text x="2.004" y="73.313" class="c">├─pillar</text><text x="11.021999999999998" y="73.313" class="h">1.4.7</text><text x="17.034" y="73.313" class="g">✨</text><text x="0" y="75.48400000000001" class="c">│</text><text x="2.004" y="75.48400000000001" class="c">│</text><text x="4.008" y="75.48400000000001" class="c">├─cli</text><text x="0" y="77.655" class="c">│</text><text x="2.004" y="77.655" class="c">│</text><text x="4.008" y="77.655" class="c">├─crayon</text><text x="0" y="79.82600000000001" class="c">│</text><text x="2.004" y="79.82600000000001" class="c">│</text><text x="4.008" y="79.82600000000001" class="c">├─ellipsis</text><text x="0" y="81.997" class="c">│</text><text x="2.004" y="81.997" class="c">│</text><text x="4.008" y="81.997" class="c">├─fansi</text><text x="0" y="84.16799999999999" class="c">│</text><text x="2.004" y="84.16799999999999" class="c">│</text><text x="4.008" y="84.16799999999999" class="c">├─lifecycle</text><text x="0" y="86.339" class="c">│</text><text x="2.004" y="86.339" class="c">│</text><text x="4.008" y="86.339" class="c">├─rlang</text><text x="0" y="88.51" class="c">│</text><text x="2.004" y="88.51" class="c">│</text><text x="4.008" y="88.51" class="c">├─utf8</text><text x="11.021999999999998" y="88.51" class="h">1.1.4</text><text x="17.034" y="88.51" class="g">✨</text><text x="19.037999999999997" y="88.51" class="g">⬇</text><text x="21.041999999999998" y="88.51" class="h">(195.28</text><text x="29.058" y="88.51" class="h">kB)</text><text x="0" y="90.681" class="c">│</text><text x="2.004" y="90.681" class="c">│</text><text x="4.008" y="90.681" class="c">└─vctrs</text><text x="12.024" y="90.681" class="h">0.3.6</text><text x="18.035999999999998" y="90.681" class="g">✨</text><text x="0" y="92.852" class="c">│</text><text x="2.004" y="92.852" class="c">│</text><text x="6.012" y="92.852" class="c">├─ellipsis</text><text x="0" y="95.02300000000001" class="c">│</text><text x="2.004" y="95.02300000000001" class="c">│</text><text x="6.012" y="95.02300000000001" class="c">├─digest</text><text x="0" y="97.19399999999999" class="c">│</text><text x="2.004" y="97.19399999999999" class="c">│</text><text x="6.012" y="97.19399999999999" class="c">├─glue</text><text x="0" y="99.365" class="c">│</text><text x="2.004" y="99.365" class="c">│</text><text x="6.012" y="99.365" class="c">└─rlang</text><text x="0" y="101.536" class="c">│</text><text x="2.004" y="101.536" class="c">├─pkgconfig</text><text x="14.027999999999999" y="101.536" class="h">2.0.3</text><text x="20.04" y="101.536" class="g">✨</text><text x="22.043999999999997" y="101.536" class="g">⬇</text><text x="24.048" y="101.536" class="h">(17.63</text><text x="31.061999999999998" y="101.536" class="h">kB)</text><text x="0" y="103.707" class="c">│</text><text x="2.004" y="103.707" class="c">├─rlang</text><text x="0" y="105.878" class="c">│</text><text x="2.004" y="105.878" class="c">└─vctrs</text><text x="0" y="108.049" class="c">└─withr</text><text x="8.016" y="108.049" class="h">2.4.1</text><text x="14.027999999999999" y="108.049" class="g">✨</text><text x="0" y="112.391" class="c">Key:</text><text x="6.012" y="112.391" class="g">✨</text><text x="8.016" y="112.391" class="c">new</text><text x="12.024" y="112.391" class="c">|</text><text x="14.027999999999999" y="112.391" class="g">✋</text><text x="16.032" y="112.391" class="c">outdated</text><text x="25.05" y="112.391" class="c">|</text><text x="28.055999999999997" y="112.391" class="g">⬇</text><text x="30.059999999999995" y="112.391" class="c">download</text></svg></svg></g></svg></svg>