<svg xmlns="http://www.w3.org/2000/svg" xmlns:xlink="http://www.w3.org/1999/xlink" width="1040" height="126.83999999999999"><rect width="1040" height="126.83999999999999" rx="0" ry="0" class="a"></rect><svg height="86.83999999999999" viewBox="0 0 100 8.684" width="1000" x="20" xmlns="http://www.w3.org/2000/svg" xmlns:xlink="http://www.w3.org/1999/xlink" y="20"><style>.a{fill:rgb(40,45,53)}.b{font-family:'Fira Code',Monaco,Consolas,Menlo,'Bitstream Vera Sans Mono','Powerline Symbols',monospace}.c{fill:transparent}.d{fill:rgb(232,131,136);white-space:pre}.e{fill:rgb(185,192,203);white-space:pre}</style><g font-family="&#x27;Fira Code&#x27;,Monaco,Consolas,Menlo,&#x27;Bitstream Vera Sans Mono&#x27;,&#x27;Powerline Symbols&#x27;,monospace" font-size="1.67" class="b"><defs><symbol id="a"><rect height="5" width="100" x="0" y="0" class="c"></rect></symbol></defs><rect height="8.684" width="100" class="a"></rect><svg x="0" y="0" width="100"><svg x="0"><use xlink:href="#a"></use><text x="0" y="1.67" class="d">✖</text><text x="2.004" y="1.67" class="e">Metadata</text><text x="11.021999999999998" y="1.67" class="e">update</text><text x="18.035999999999998" y="1.67" class="e">failed</text><text x="0" y="3.8409999999999997" class="e">Error</text><text x="6.012" y="3.8409999999999997" class="e">in</text><text x="9.017999999999999" y="3.8409999999999997" class="e">stop(http_error(resp))</text><text x="32.064" y="3.8409999999999997" class="e">:</text><text x="34.068" y="3.8409999999999997" class="e">Not</text><text x="38.07599999999999" y="3.8409999999999997" class="e">Found</text><text x="44.087999999999994" y="3.8409999999999997" class="e">(HTTP</text><text x="50.1" y="3.8409999999999997" class="e">404).</text><text x="0" y="6.012" class="e">Error</text><text x="6.012" y="6.012" class="e">in</text><text x="9.017999999999999" y="6.012" class="e">pkgplan_get_solution(self,</text><text x="36.071999999999996" y="6.012" class="e">private)</text><text x="45.089999999999996" y="6.012" class="e">:</text><text x="2.004" y="8.183" class="e">No</text><text x="5.01" y="8.183" class="e">solution</text><text x="14.027999999999999" y="8.183" class="e">found,</text><text x="21.041999999999998" y="8.183" class="e">need</text><text x="26.052" y="8.183" class="e">to</text><text x="29.058" y="8.183" class="e">call</text><text x="34.068" y="8.183" class="e">$solve()</text></svg></svg></g></svg></svg>