<svg xmlns="http://www.w3.org/2000/svg" xmlns:xlink="http://www.w3.org/1999/xlink" width="1040" height="1972.19"><rect width="1040" height="1972.19" rx="0" ry="0" class="a"></rect><svg height="1932.19" viewBox="0 0 100 193.219" width="1000" x="20" xmlns="http://www.w3.org/2000/svg" xmlns:xlink="http://www.w3.org/1999/xlink" y="20"><style>.a{fill:rgb(40,45,53)}.b{font-family:'Fira Code',Monaco,Consolas,Menlo,'Bitstream Vera Sans Mono','Powerline Symbols',monospace}.c{fill:rgb(168,204,140);white-space:pre}.d{fill:rgb(185,192,203);white-space:pre}.e{fill:rgb(113,190,242);white-space:pre}.f{fill:transparent}.g{fill:rgb(102,194,205);white-space:pre}.h{fill:rgb(111,119,131);white-space:pre}.i{fill:rgb(111,119,131);font-style:italic;white-space:pre}</style><g font-family="&#x27;Fira Code&#x27;,Monaco,Consolas,Menlo,&#x27;Bitstream Vera Sans Mono&#x27;,&#x27;Powerline Symbols&#x27;,monospace" font-size="1.67" class="b"><defs><symbol id="1"><text x="0" y="1.67" class="c">✔</text><text x="2.004" y="1.67" class="d">Got</text><text x="6.012" y="1.67" class="e">lattice</text><text x="14.027999999999999" y="1.67" class="d">0.20-41</text><text x="22.043999999999997" y="1.67" class="d">(source)</text><text x="31.061999999999998" y="1.67" class="d">(389.63</text><text x="39.077999999999996" y="1.67" class="d">kB)</text></symbol><symbol id="2"><text x="0" y="1.67" class="c">✔</text><text x="2.004" y="1.67" class="d">Got</text><text x="6.012" y="1.67" class="e">MASS</text><text x="11.021999999999998" y="1.67" class="d">7.3-51.6</text><text x="20.04" y="1.67" class="d">(source)</text><text x="29.058" y="1.67" class="d">(494.13</text><text x="37.074" y="1.67" class="d">kB)</text></symbol><symbol id="3"><text x="0" y="1.67" class="c">✔</text><text x="2.004" y="1.67" class="d">Got</text><text x="6.012" y="1.67" class="e">nlme</text><text x="11.021999999999998" y="1.67" class="d">3.1-148</text><text x="19.037999999999997" y="1.67" class="d">(source)</text><text x="28.055999999999997" y="1.67" class="d">(792.81</text><text x="36.071999999999996" y="1.67" class="d">kB)</text></symbol><symbol id="4"><text x="0" y="1.67" class="c">✔</text><text x="2.004" y="1.67" class="d">Got</text><text x="6.012" y="1.67" class="e">mgcv</text><text x="11.021999999999998" y="1.67" class="d">1.8-31</text><text x="18.035999999999998" y="1.67" class="d">(source)</text><text x="27.054" y="1.67" class="d">(936.34</text><text x="35.06999999999999" y="1.67" class="d">kB)</text></symbol><symbol id="5"><text x="0" y="1.67" class="c">✔</text><text x="2.004" y="1.67" class="d">Got</text><text x="6.012" y="1.67" class="e">Matrix</text><text x="13.026" y="1.67" class="d">1.2-18</text><text x="20.04" y="1.67" class="d">(source)</text><text x="29.058" y="1.67" class="d">(1.87</text><text x="35.06999999999999" y="1.67" class="d">MB)</text></symbol><symbol id="a"><rect height="90" width="100" x="0" y="0" class="f"></rect></symbol></defs><rect height="193.219" width="100" class="a"></rect><svg x="0" y="0" width="100"><svg x="0"><use xlink:href="#a"></use><text x="0" y="1.67" class="g">ℹ</text><text x="2.004" y="1.67" class="d">Getting</text><text x="10.02" y="1.67" class="d">65</text><text x="13.026" y="1.67" class="d">pkgs</text><text x="18.035999999999998" y="1.67" class="d">(54.01</text><text x="25.05" y="1.67" class="d">MB)</text><text x="29.058" y="1.67" class="d">and</text><text x="33.065999999999995" y="1.67" class="d">1</text><text x="35.06999999999999" y="1.67" class="d">pkg</text><text x="39.077999999999996" y="1.67" class="d">with</text><text x="44.087999999999994" y="1.67" class="d">unknown</text><text x="52.104" y="1.67" class="d">size,</text><text x="58.116" y="1.67" class="d">29</text><text x="61.12199999999999" y="1.67" class="d">(6.16</text><text x="67.134" y="1.67" class="d">MB)</text><text x="71.142" y="1.67" class="d">cached</text><text x="0" y="3.8409999999999997" class="c">✔</text><text x="2.004" y="3.8409999999999997" class="d">Cached</text><text x="9.017999999999999" y="3.8409999999999997" class="d">copy</text><text x="14.027999999999999" y="3.8409999999999997" class="d">of</text><text x="17.034" y="3.8409999999999997" class="e">R6</text><text x="20.04" y="3.8409999999999997" class="d">2.4.1</text><text x="26.052" y="3.8409999999999997" class="d">(macos)</text><text x="34.068" y="3.8409999999999997" class="d">is</text><text x="37.074" y="3.8409999999999997" class="d">the</text><text x="41.082" y="3.8409999999999997" class="d">latest</text><text x="48.096" y="3.8409999999999997" class="d">build</text><text x="0" y="6.012" class="c">✔</text><text x="2.004" y="6.012" class="d">Cached</text><text x="9.017999999999999" y="6.012" class="d">copy</text><text x="14.027999999999999" y="6.012" class="d">of</text><text x="17.034" y="6.012" class="e">assertthat</text><text x="28.055999999999997" y="6.012" class="d">0.2.1</text><text x="34.068" y="6.012" class="d">(macos)</text><text x="42.083999999999996" y="6.012" class="d">is</text><text x="45.089999999999996" y="6.012" class="d">the</text><text x="49.098" y="6.012" class="d">latest</text><text x="56.111999999999995" y="6.012" class="d">build</text><text x="0" y="8.183" class="c">✔</text><text x="2.004" y="8.183" class="d">Cached</text><text x="9.017999999999999" y="8.183" class="d">copy</text><text x="14.027999999999999" y="8.183" class="d">of</text><text x="17.034" y="8.183" class="e">callr</text><text x="23.045999999999996" y="8.183" class="d">3.4.3</text><text x="29.058" y="8.183" class="d">(macos)</text><text x="37.074" y="8.183" class="d">is</text><text x="40.08" y="8.183" class="d">the</text><text x="44.087999999999994" y="8.183" class="d">latest</text><text x="51.102" y="8.183" class="d">build</text><text x="0" y="10.354" class="c">✔</text><text x="2.004" y="10.354" class="d">Cached</text><text x="9.017999999999999" y="10.354" class="d">copy</text><text x="14.027999999999999" y="10.354" class="d">of</text><text x="17.034" y="10.354" class="e">cli</text><text x="21.041999999999998" y="10.354" class="d">2.0.2</text><text x="27.054" y="10.354" class="d">(macos)</text><text x="35.06999999999999" y="10.354" class="d">is</text><text x="38.07599999999999" y="10.354" class="d">the</text><text x="42.083999999999996" y="10.354" class="d">latest</text><text x="49.098" y="10.354" class="d">build</text><text x="0" y="12.525" class="c">✔</text><text x="2.004" y="12.525" class="d">Cached</text><text x="9.017999999999999" y="12.525" class="d">copy</text><text x="14.027999999999999" y="12.525" class="d">of</text><text x="17.034" y="12.525" class="e">crayon</text><text x="24.048" y="12.525" class="d">1.3.4</text><text x="30.059999999999995" y="12.525" class="d">(macos)</text><text x="38.07599999999999" y="12.525" class="d">is</text><text x="41.082" y="12.525" class="d">the</text><text x="45.089999999999996" y="12.525" class="d">latest</text><text x="52.104" y="12.525" class="d">build</text><text x="0" y="14.696" class="c">✔</text><text x="2.004" y="14.696" class="d">Cached</text><text x="9.017999999999999" y="14.696" class="d">copy</text><text x="14.027999999999999" y="14.696" class="d">of</text><text x="17.034" y="14.696" class="e">desc</text><text x="22.043999999999997" y="14.696" class="d">1.2.0</text><text x="28.055999999999997" y="14.696" class="d">(macos)</text><text x="36.071999999999996" y="14.696" class="d">is</text><text x="39.077999999999996" y="14.696" class="d">the</text><text x="43.086" y="14.696" class="d">latest</text><text x="50.1" y="14.696" class="d">build</text><text x="0" y="16.866999999999997" class="c">✔</text><text x="2.004" y="16.866999999999997" class="d">Cached</text><text x="9.017999999999999" y="16.866999999999997" class="d">copy</text><text x="14.027999999999999" y="16.866999999999997" class="d">of</text><text x="17.034" y="16.866999999999997" class="e">digest</text><text x="24.048" y="16.866999999999997" class="d">0.6.25</text><text x="31.061999999999998" y="16.866999999999997" class="d">(macos)</text><text x="39.077999999999996" y="16.866999999999997" class="d">is</text><text x="42.083999999999996" y="16.866999999999997" class="d">the</text><text x="46.09199999999999" y="16.866999999999997" class="d">latest</text><text x="53.105999999999995" y="16.866999999999997" class="d">build</text><text x="0" y="19.037999999999997" class="c">✔</text><text x="2.004" y="19.037999999999997" class="d">Cached</text><text x="9.017999999999999" y="19.037999999999997" class="d">copy</text><text x="14.027999999999999" y="19.037999999999997" class="d">of</text><text x="17.034" y="19.037999999999997" class="e">ellipsis</text><text x="26.052" y="19.037999999999997" class="d">0.3.1</text><text x="32.064" y="19.037999999999997" class="d">(macos)</text><text x="40.08" y="19.037999999999997" class="d">is</text><text x="43.086" y="19.037999999999997" class="d">the</text><text x="47.093999999999994" y="19.037999999999997" class="d">latest</text><text x="54.108" y="19.037999999999997" class="d">build</text><text x="0" y="21.209000000000003" class="c">✔</text><text x="2.004" y="21.209000000000003" class="d">Cached</text><text x="9.017999999999999" y="21.209000000000003" class="d">copy</text><text x="14.027999999999999" y="21.209000000000003" class="d">of</text><text x="17.034" y="21.209000000000003" class="e">fansi</text><text x="23.045999999999996" y="21.209000000000003" class="d">0.4.1</text><text x="29.058" y="21.209000000000003" class="d">(macos)</text><text x="37.074" y="21.209000000000003" class="d">is</text><text x="40.08" y="21.209000000000003" class="d">the</text><text x="44.087999999999994" y="21.209000000000003" class="d">latest</text><text x="51.102" y="21.209000000000003" class="d">build</text><text x="0" y="23.380000000000003" class="c">✔</text><text x="2.004" y="23.380000000000003" class="d">Cached</text><text x="9.017999999999999" y="23.380000000000003" class="d">copy</text><text x="14.027999999999999" y="23.380000000000003" class="d">of</text><text x="17.034" y="23.380000000000003" class="e">glue</text><text x="22.043999999999997" y="23.380000000000003" class="d">1.4.1</text><text x="28.055999999999997" y="23.380000000000003" class="d">(macos)</text><text x="36.071999999999996" y="23.380000000000003" class="d">is</text><text x="39.077999999999996" y="23.380000000000003" class="d">the</text><text x="43.086" y="23.380000000000003" class="d">latest</text><text x="50.1" y="23.380000000000003" class="d">build</text><text x="0" y="25.550999999999995" class="c">✔</text><text x="2.004" y="25.550999999999995" class="d">Cached</text><text x="9.017999999999999" y="25.550999999999995" class="d">copy</text><text x="14.027999999999999" y="25.550999999999995" class="d">of</text><text x="17.034" y="25.550999999999995" class="e">lifecycle</text><text x="27.054" y="25.550999999999995" class="d">0.2.0</text><text x="33.065999999999995" y="25.550999999999995" class="d">(macos)</text><text x="41.082" y="25.550999999999995" class="d">is</text><text x="44.087999999999994" y="25.550999999999995" class="d">the</text><text x="48.096" y="25.550999999999995" class="d">latest</text><text x="55.10999999999999" y="25.550999999999995" class="d">build</text><text x="0" y="27.722" class="c">✔</text><text x="2.004" y="27.722" class="d">Cached</text><text x="9.017999999999999" y="27.722" class="d">copy</text><text x="14.027999999999999" y="27.722" class="d">of</text><text x="17.034" y="27.722" class="e">magrittr</text><text x="26.052" y="27.722" class="d">1.5</text><text x="30.059999999999995" y="27.722" class="d">(macos)</text><text x="38.07599999999999" y="27.722" class="d">is</text><text x="41.082" y="27.722" class="d">the</text><text x="45.089999999999996" y="27.722" class="d">latest</text><text x="52.104" y="27.722" class="d">build</text><text x="0" y="29.893" class="c">✔</text><text x="2.004" y="29.893" class="d">Cached</text><text x="9.017999999999999" y="29.893" class="d">copy</text><text x="14.027999999999999" y="29.893" class="d">of</text><text x="17.034" y="29.893" class="e">pillar</text><text x="24.048" y="29.893" class="d">1.4.4</text><text x="30.059999999999995" y="29.893" class="d">(macos)</text><text x="38.07599999999999" y="29.893" class="d">is</text><text x="41.082" y="29.893" class="d">the</text><text x="45.089999999999996" y="29.893" class="d">latest</text><text x="52.104" y="29.893" class="d">build</text><text x="0" y="32.064" class="c">✔</text><text x="2.004" y="32.064" class="d">Cached</text><text x="9.017999999999999" y="32.064" class="d">copy</text><text x="14.027999999999999" y="32.064" class="d">of</text><text x="17.034" y="32.064" class="e">pkgbuild</text><text x="26.052" y="32.064" class="d">1.0.8</text><text x="32.064" y="32.064" class="d">(macos)</text><text x="40.08" y="32.064" class="d">is</text><text x="43.086" y="32.064" class="d">the</text><text x="47.093999999999994" y="32.064" class="d">latest</text><text x="54.108" y="32.064" class="d">build</text><text x="0" y="34.235" class="c">✔</text><text x="2.004" y="34.235" class="d">Cached</text><text x="9.017999999999999" y="34.235" class="d">copy</text><text x="14.027999999999999" y="34.235" class="d">of</text><text x="17.034" y="34.235" class="e">pkgconfig</text><text x="27.054" y="34.235" class="d">2.0.3</text><text x="33.065999999999995" y="34.235" class="d">(macos)</text><text x="41.082" y="34.235" class="d">is</text><text x="44.087999999999994" y="34.235" class="d">the</text><text x="48.096" y="34.235" class="d">latest</text><text x="55.10999999999999" y="34.235" class="d">build</text><text x="0" y="36.406" class="c">✔</text><text x="2.004" y="36.406" class="d">Cached</text><text x="9.017999999999999" y="36.406" class="d">copy</text><text x="14.027999999999999" y="36.406" class="d">of</text><text x="17.034" y="36.406" class="e">prettyunits</text><text x="29.058" y="36.406" class="d">1.1.1</text><text x="35.06999999999999" y="36.406" class="d">(macos)</text><text x="43.086" y="36.406" class="d">is</text><text x="46.09199999999999" y="36.406" class="d">the</text><text x="50.1" y="36.406" class="d">latest</text><text x="57.114" y="36.406" class="d">build</text><text x="0" y="38.577000000000005" class="c">✔</text><text x="2.004" y="38.577000000000005" class="d">Cached</text><text x="9.017999999999999" y="38.577000000000005" class="d">copy</text><text x="14.027999999999999" y="38.577000000000005" class="d">of</text><text x="17.034" y="38.577000000000005" class="e">processx</text><text x="26.052" y="38.577000000000005" class="d">3.4.2</text><text x="32.064" y="38.577000000000005" class="d">(macos)</text><text x="40.08" y="38.577000000000005" class="d">is</text><text x="43.086" y="38.577000000000005" class="d">the</text><text x="47.093999999999994" y="38.577000000000005" class="d">latest</text><text x="54.108" y="38.577000000000005" class="d">build</text><text x="0" y="40.748000000000005" class="c">✔</text><text x="2.004" y="40.748000000000005" class="d">Cached</text><text x="9.017999999999999" y="40.748000000000005" class="d">copy</text><text x="14.027999999999999" y="40.748000000000005" class="d">of</text><text x="17.034" y="40.748000000000005" class="e">ps</text><text x="20.04" y="40.748000000000005" class="d">1.3.3</text><text x="26.052" y="40.748000000000005" class="d">(macos)</text><text x="34.068" y="40.748000000000005" class="d">is</text><text x="37.074" y="40.748000000000005" class="d">the</text><text x="41.082" y="40.748000000000005" class="d">latest</text><text x="48.096" y="40.748000000000005" class="d">build</text><text x="0" y="42.919" class="c">✔</text><text x="2.004" y="42.919" class="d">Cached</text><text x="9.017999999999999" y="42.919" class="d">copy</text><text x="14.027999999999999" y="42.919" class="d">of</text><text x="17.034" y="42.919" class="e">rlang</text><text x="23.045999999999996" y="42.919" class="d">0.4.6</text><text x="29.058" y="42.919" class="d">(macos)</text><text x="37.074" y="42.919" class="d">is</text><text x="40.08" y="42.919" class="d">the</text><text x="44.087999999999994" y="42.919" class="d">latest</text><text x="51.102" y="42.919" class="d">build</text><text x="0" y="45.09" class="c">✔</text><text x="2.004" y="45.09" class="d">Cached</text><text x="9.017999999999999" y="45.09" class="d">copy</text><text x="14.027999999999999" y="45.09" class="d">of</text><text x="17.034" y="45.09" class="e">rprojroot</text><text x="27.054" y="45.09" class="d">1.3-2</text><text x="33.065999999999995" y="45.09" class="d">(macos)</text><text x="41.082" y="45.09" class="d">is</text><text x="44.087999999999994" y="45.09" class="d">the</text><text x="48.096" y="45.09" class="d">latest</text><text x="55.10999999999999" y="45.09" class="d">build</text><text x="0" y="47.261" class="c">✔</text><text x="2.004" y="47.261" class="d">Cached</text><text x="9.017999999999999" y="47.261" class="d">copy</text><text x="14.027999999999999" y="47.261" class="d">of</text><text x="17.034" y="47.261" class="e">rstudioapi</text><text x="28.055999999999997" y="47.261" class="d">0.11</text><text x="33.065999999999995" y="47.261" class="d">(macos)</text><text x="41.082" y="47.261" class="d">is</text><text x="44.087999999999994" y="47.261" class="d">the</text><text x="48.096" y="47.261" class="d">latest</text><text x="55.10999999999999" y="47.261" class="d">build</text><text x="0" y="49.431999999999995" class="c">✔</text><text x="2.004" y="49.431999999999995" class="d">Cached</text><text x="9.017999999999999" y="49.431999999999995" class="d">copy</text><text x="14.027999999999999" y="49.431999999999995" class="d">of</text><text x="17.034" y="49.431999999999995" class="e">tibble</text><text x="24.048" y="49.431999999999995" class="d">3.0.1</text><text x="30.059999999999995" y="49.431999999999995" class="d">(macos)</text><text x="38.07599999999999" y="49.431999999999995" class="d">is</text><text x="41.082" y="49.431999999999995" class="d">the</text><text x="45.089999999999996" y="49.431999999999995" class="d">latest</text><text x="52.104" y="49.431999999999995" class="d">build</text><text x="0" y="51.603" class="c">✔</text><text x="2.004" y="51.603" class="d">Cached</text><text x="9.017999999999999" y="51.603" class="d">copy</text><text x="14.027999999999999" y="51.603" class="d">of</text><text x="17.034" y="51.603" class="e">utf8</text><text x="22.043999999999997" y="51.603" class="d">1.1.4</text><text x="28.055999999999997" y="51.603" class="d">(macos)</text><text x="36.071999999999996" y="51.603" class="d">is</text><text x="39.077999999999996" y="51.603" class="d">the</text><text x="43.086" y="51.603" class="d">latest</text><text x="50.1" y="51.603" class="d">build</text><text x="0" y="53.774" class="c">✔</text><text x="2.004" y="53.774" class="d">Cached</text><text x="9.017999999999999" y="53.774" class="d">copy</text><text x="14.027999999999999" y="53.774" class="d">of</text><text x="17.034" y="53.774" class="e">withr</text><text x="23.045999999999996" y="53.774" class="d">2.2.0</text><text x="29.058" y="53.774" class="d">(macos)</text><text x="37.074" y="53.774" class="d">is</text><text x="40.08" y="53.774" class="d">the</text><text x="44.087999999999994" y="53.774" class="d">latest</text><text x="51.102" y="53.774" class="d">build</text><text x="0" y="55.945" class="c">✔</text><text x="2.004" y="55.945" class="d">Cached</text><text x="9.017999999999999" y="55.945" class="d">copy</text><text x="14.027999999999999" y="55.945" class="d">of</text><text x="17.034" y="55.945" class="e">tibble</text><text x="24.048" y="55.945" class="d">3.0.2</text><text x="30.059999999999995" y="55.945" class="d">(source)</text><text x="39.077999999999996" y="55.945" class="d">is</text><text x="42.083999999999996" y="55.945" class="d">the</text><text x="46.09199999999999" y="55.945" class="d">latest</text><text x="53.105999999999995" y="55.945" class="d">build</text><text x="0" y="58.11600000000001" class="c">✔</text><text x="2.004" y="58.11600000000001" class="d">Got</text><text x="6.012" y="58.11600000000001" class="e">MASS</text><text x="11.021999999999998" y="58.11600000000001" class="d">7.3-51.6</text><text x="20.04" y="58.11600000000001" class="d">(macos)</text><text x="28.055999999999997" y="58.11600000000001" class="d">(1.16</text><text x="34.068" y="58.11600000000001" class="d">MB)</text><text x="0" y="60.287" class="c">✔</text><text x="2.004" y="60.287" class="d">Got</text><text x="6.012" y="60.287" class="e">Matrix</text><text x="13.026" y="60.287" class="d">1.2-18</text><text x="20.04" y="60.287" class="d">(macos)</text><text x="28.055999999999997" y="60.287" class="d">(4.73</text><text x="34.068" y="60.287" class="d">MB)</text><text x="0" y="62.458" class="c">✔</text><text x="2.004" y="62.458" class="d">Got</text><text x="6.012" y="62.458" class="e">RColorBrewer</text><text x="19.037999999999997" y="62.458" class="d">1.1-2</text><text x="25.05" y="62.458" class="d">(macos)</text><text x="33.065999999999995" y="62.458" class="d">(52.88</text><text x="40.08" y="62.458" class="d">kB)</text><text x="0" y="64.629" class="c">✔</text><text x="2.004" y="64.629" class="d">Got</text><text x="6.012" y="64.629" class="e">evaluate</text><text x="15.029999999999998" y="64.629" class="d">0.14</text><text x="20.04" y="64.629" class="d">(macos)</text><text x="28.055999999999997" y="64.629" class="d">(74.17</text><text x="35.06999999999999" y="64.629" class="d">kB)</text><text x="0" y="66.8" class="c">✔</text><text x="2.004" y="66.8" class="d">Got</text><text x="6.012" y="66.8" class="e">colorspace</text><text x="17.034" y="66.8" class="d">1.4-1</text><text x="23.045999999999996" y="66.8" class="d">(macos)</text><text x="31.061999999999998" y="66.8" class="d">(2.57</text><text x="37.074" y="66.8" class="d">MB)</text><text x="0" y="68.971" class="c">✔</text><text x="2.004" y="68.971" class="d">Got</text><text x="6.012" y="68.971" class="e">labeling</text><text x="15.029999999999998" y="68.971" class="d">0.3</text><text x="19.037999999999997" y="68.971" class="d">(macos)</text><text x="27.054" y="68.971" class="d">(60.01</text><text x="34.068" y="68.971" class="d">kB)</text><text x="0" y="71.142" class="c">✔</text><text x="2.004" y="71.142" class="d">Got</text><text x="6.012" y="71.142" class="e">viridisLite</text><text x="18.035999999999998" y="71.142" class="d">0.3.0</text><text x="24.048" y="71.142" class="d">(macos)</text><text x="32.064" y="71.142" class="d">(56.99</text><text x="39.077999999999996" y="71.142" class="d">kB)</text><text x="0" y="73.313" class="c">✔</text><text x="2.004" y="73.313" class="d">Got</text><text x="6.012" y="73.313" class="e">praise</text><text x="13.026" y="73.313" class="d">1.0.0</text><text x="19.037999999999997" y="73.313" class="d">(macos)</text><text x="27.054" y="73.313" class="d">(16.13</text><text x="34.068" y="73.313" class="d">kB)</text><text x="0" y="75.48400000000001" class="c">✔</text><text x="2.004" y="75.48400000000001" class="d">Got</text><text x="6.012" y="75.48400000000001" class="e">evaluate</text><text x="15.029999999999998" y="75.48400000000001" class="d">0.14</text><text x="20.04" y="75.48400000000001" class="d">(source)</text><text x="29.058" y="75.48400000000001" class="d">(24.21</text><text x="36.071999999999996" y="75.48400000000001" class="d">kB)</text><text x="0" y="77.655" class="c">✔</text><text x="2.004" y="77.655" class="d">Got</text><text x="6.012" y="77.655" class="e">labeling</text><text x="15.029999999999998" y="77.655" class="d">0.3</text><text x="19.037999999999997" y="77.655" class="d">(source)</text><text x="28.055999999999997" y="77.655" class="d">(10.72</text><text x="35.06999999999999" y="77.655" class="d">kB)</text><text x="0" y="79.82600000000001" class="c">✔</text><text x="2.004" y="79.82600000000001" class="d">Got</text><text x="6.012" y="79.82600000000001" class="e">praise</text><text x="13.026" y="79.82600000000001" class="d">1.0.0</text><text x="19.037999999999997" y="79.82600000000001" class="d">(source)</text><text x="28.055999999999997" y="79.82600000000001" class="d">(6.10</text><text x="34.068" y="79.82600000000001" class="d">kB)</text><text x="0" y="81.997" class="c">✔</text><text x="2.004" y="81.997" class="d">Got</text><text x="6.012" y="81.997" class="e">RColorBrewer</text><text x="19.037999999999997" y="81.997" class="d">1.1-2</text><text x="25.05" y="81.997" class="d">(source)</text><text x="34.068" y="81.997" class="d">(11.53</text><text x="41.082" y="81.997" class="d">kB)</text><text x="0" y="84.16799999999999" class="c">✔</text><text x="2.004" y="84.16799999999999" class="d">Got</text><text x="6.012" y="84.16799999999999" class="e">viridisLite</text><text x="18.035999999999998" y="84.16799999999999" class="d">0.3.0</text><text x="24.048" y="84.16799999999999" class="d">(source)</text><text x="33.065999999999995" y="84.16799999999999" class="d">(44.02</text><text x="40.08" y="84.16799999999999" class="d">kB)</text><text x="0" y="86.339" class="c">✔</text><text x="2.004" y="86.339" class="d">Got</text><text x="6.012" y="86.339" class="e">munsell</text><text x="14.027999999999999" y="86.339" class="d">0.5.0</text><text x="20.04" y="86.339" class="d">(source)</text><text x="29.058" y="86.339" class="d">(182.65</text><text x="37.074" y="86.339" class="d">kB)</text><text x="0" y="88.51" class="c">✔</text><text x="2.004" y="88.51" class="d">Got</text><text x="6.012" y="88.51" class="e">munsell</text><text x="14.027999999999999" y="88.51" class="d">0.5.0</text><text x="20.04" y="88.51" class="d">(macos)</text><text x="28.055999999999997" y="88.51" class="d">(240.85</text><text x="36.071999999999996" y="88.51" class="d">kB)</text><text x="0" y="90.681" class="c">✔</text><text x="2.004" y="90.681" class="d">Got</text><text x="6.012" y="90.681" class="e">gtable</text><text x="13.026" y="90.681" class="d">0.3.0</text><text x="19.037999999999997" y="90.681" class="d">(macos)</text><text x="27.054" y="90.681" class="d">(431.37</text><text x="35.06999999999999" y="90.681" class="d">kB)</text><text x="0" y="92.852" class="c">✔</text><text x="2.004" y="92.852" class="d">Got</text><text x="6.012" y="92.852" class="e">testthat</text><text x="15.029999999999998" y="92.852" class="d">2.3.2</text><text x="21.041999999999998" y="92.852" class="d">(source)</text><text x="30.059999999999995" y="92.852" class="d">(249.66</text><text x="38.07599999999999" y="92.852" class="d">kB)</text><text x="0" y="95.02300000000001" class="c">✔</text><text x="2.004" y="95.02300000000001" class="d">Got</text><text x="6.012" y="95.02300000000001" class="e">gtable</text><text x="13.026" y="95.02300000000001" class="d">0.3.0</text><text x="19.037999999999997" y="95.02300000000001" class="d">(source)</text><text x="28.055999999999997" y="95.02300000000001" class="d">(368.08</text><text x="36.071999999999996" y="95.02300000000001" class="d">kB)</text><use xlink:href="#1" y="95.52399999999999"></use><use xlink:href="#1" y="97.695"></use><text x="0" y="101.536" class="c">✔</text><text x="2.004" y="101.536" class="d">Got</text><text x="6.012" y="101.536" class="e">farver</text><text x="13.026" y="101.536" class="d">2.0.3</text><text x="19.037999999999997" y="101.536" class="d">(macos)</text><text x="27.054" y="101.536" class="d">(1.83</text><text x="33.065999999999995" y="101.536" class="d">MB)</text><use xlink:href="#2" y="102.03699999999999"></use><text x="0" y="105.878" class="c">✔</text><text x="2.004" y="105.878" class="d">Got</text><text x="6.012" y="105.878" class="e">scales</text><text x="13.026" y="105.878" class="d">1.1.1</text><text x="19.037999999999997" y="105.878" class="d">(source)</text><text x="28.055999999999997" y="105.878" class="d">(515.20</text><text x="36.071999999999996" y="105.878" class="d">kB)</text><use xlink:href="#2" y="106.379"></use><text x="0" y="110.22" class="c">✔</text><text x="2.004" y="110.22" class="d">Got</text><text x="6.012" y="110.22" class="e">scales</text><text x="13.026" y="110.22" class="d">1.1.1</text><text x="19.037999999999997" y="110.22" class="d">(macos)</text><text x="27.054" y="110.22" class="d">(551.02</text><text x="35.06999999999999" y="110.22" class="d">kB)</text><use xlink:href="#3" y="110.721"></use><use xlink:href="#3" y="112.89200000000001"></use><use xlink:href="#4" y="115.06299999999999"></use><use xlink:href="#4" y="117.234"></use><text x="0" y="121.075" class="c">✔</text><text x="2.004" y="121.075" class="d">Got</text><text x="6.012" y="121.075" class="e">lattice</text><text x="14.027999999999999" y="121.075" class="d">0.20-41</text><text x="22.043999999999997" y="121.075" class="d">(macos)</text><text x="30.059999999999995" y="121.075" class="d">(1.15</text><text x="36.071999999999996" y="121.075" class="d">MB)</text><text x="0" y="123.246" class="c">✔</text><text x="2.004" y="123.246" class="d">Got</text><text x="6.012" y="123.246" class="e">farver</text><text x="13.026" y="123.246" class="d">2.0.3</text><text x="19.037999999999997" y="123.246" class="d">(source)</text><text x="28.055999999999997" y="123.246" class="d">(1.28</text><text x="34.068" y="123.246" class="d">MB)</text><use xlink:href="#5" y="123.747"></use><use xlink:href="#5" y="125.918"></use><text x="0" y="129.759" class="c">✔</text><text x="2.004" y="129.759" class="d">Got</text><text x="6.012" y="129.759" class="e">colorspace</text><text x="17.034" y="129.759" class="d">1.4-1</text><text x="23.045999999999996" y="129.759" class="d">(source)</text><text x="32.064" y="129.759" class="d">(2.15</text><text x="38.07599999999999" y="129.759" class="d">MB)</text><text x="0" y="131.92999999999998" class="c">✔</text><text x="2.004" y="131.92999999999998" class="d">Got</text><text x="6.012" y="131.92999999999998" class="e">isoband</text><text x="14.027999999999999" y="131.92999999999998" class="d">0.2.2</text><text x="20.04" y="131.92999999999998" class="d">(source)</text><text x="29.058" y="131.92999999999998" class="d">(2.30</text><text x="35.06999999999999" y="131.92999999999998" class="d">MB)</text><text x="0" y="134.10099999999997" class="c">✔</text><text x="2.004" y="134.10099999999997" class="d">Got</text><text x="6.012" y="134.10099999999997" class="e">testthat</text><text x="15.029999999999998" y="134.10099999999997" class="d">2.3.2</text><text x="21.041999999999998" y="134.10099999999997" class="d">(macos)</text><text x="29.058" y="134.10099999999997" class="d">(2.37</text><text x="35.06999999999999" y="134.10099999999997" class="d">MB)</text><text x="0" y="136.272" class="c">✔</text><text x="2.004" y="136.272" class="d">Got</text><text x="6.012" y="136.272" class="e">nlme</text><text x="11.021999999999998" y="136.272" class="d">3.1-148</text><text x="19.037999999999997" y="136.272" class="d">(macos)</text><text x="27.054" y="136.272" class="d">(2.38</text><text x="33.065999999999995" y="136.272" class="d">MB)</text><text x="0" y="138.44299999999998" class="c">✔</text><text x="2.004" y="138.44299999999998" class="d">Got</text><text x="6.012" y="138.44299999999998" class="e">ggplot2</text><text x="14.027999999999999" y="138.44299999999998" class="d">3.3.2</text><text x="20.04" y="138.44299999999998" class="d">(macos)</text><text x="28.055999999999997" y="138.44299999999998" class="d">(4.06</text><text x="34.068" y="138.44299999999998" class="d">MB)</text><text x="0" y="140.61399999999998" class="c">✔</text><text x="2.004" y="140.61399999999998" class="d">Got</text><text x="6.012" y="140.61399999999998" class="e">mgcv</text><text x="11.021999999999998" y="140.61399999999998" class="d">1.8-31</text><text x="18.035999999999998" y="140.61399999999998" class="d">(macos)</text><text x="26.052" y="140.61399999999998" class="d">(3.18</text><text x="32.064" y="140.61399999999998" class="d">MB)</text><text x="0" y="142.785" class="c">✔</text><text x="2.004" y="142.785" class="d">Got</text><text x="6.012" y="142.785" class="e">isoband</text><text x="14.027999999999999" y="142.785" class="d">0.2.2</text><text x="20.04" y="142.785" class="d">(macos)</text><text x="28.055999999999997" y="142.785" class="d">(4.02</text><text x="34.068" y="142.785" class="d">MB)</text><text x="0" y="144.956" class="c">✔</text><text x="2.004" y="144.956" class="d">Got</text><text x="6.012" y="144.956" class="e">ggplot2</text><text x="14.027999999999999" y="144.956" class="d">3.3.2</text><text x="20.04" y="144.956" class="d">(source)</text><text x="29.058" y="144.956" class="d">(3.05</text><text x="35.06999999999999" y="144.956" class="d">MB)</text><text x="0" y="147.12699999999998" class="c">✔</text><text x="2.004" y="147.12699999999998" class="d">Downloaded</text><text x="13.026" y="147.12699999999998" class="d">41</text><text x="16.032" y="147.12699999999998" class="d">packages</text><text x="25.05" y="147.12699999999998" class="d">(48.08</text><text x="32.064" y="147.12699999999998" class="d">MB)</text><text x="36.071999999999996" y="147.12699999999998" class="d">in</text><text x="39.077999999999996" y="147.12699999999998" class="d">36.6s</text><text x="0" y="149.298" class="h">#</text><text x="2.004" y="149.298" class="h">A</text><text x="4.008" y="149.298" class="h">tibble:</text><text x="12.024" y="149.298" class="h">95</text><text x="15.029999999999998" y="149.298" class="h">x</text><text x="17.034" y="149.298" class="h">32</text><text x="3.006" y="151.46899999999997" class="d">ref</text><text x="9.017999999999999" y="151.46899999999997" class="d">type</text><text x="15.029999999999998" y="151.46899999999997" class="d">direct</text><text x="22.043999999999997" y="151.46899999999997" class="d">directpkg</text><text x="32.064" y="151.46899999999997" class="d">status</text><text x="39.077999999999996" y="151.46899999999997" class="d">package</text><text x="47.093999999999994" y="151.46899999999997" class="d">version</text><text x="55.10999999999999" y="151.46899999999997" class="d">license</text><text x="63.12599999999999" y="151.46899999999997" class="d">needscompilation</text><text x="3.006" y="153.64" class="i">&lt;chr&gt;</text><text x="9.017999999999999" y="153.64" class="i">&lt;chr&gt;</text><text x="15.029999999999998" y="153.64" class="i">&lt;lgl&gt;</text><text x="22.043999999999997" y="153.64" class="i">&lt;lgl&gt;</text><text x="32.064" y="153.64" class="i">&lt;chr&gt;</text><text x="39.077999999999996" y="153.64" class="i">&lt;chr&gt;</text><text x="47.093999999999994" y="153.64" class="i">&lt;chr&gt;</text><text x="55.10999999999999" y="153.64" class="i">&lt;chr&gt;</text><text x="63.12599999999999" y="153.64" class="i">&lt;lgl&gt;</text><text x="1.002" y="155.81099999999998" class="h">1</text><text x="3.006" y="155.81099999999998" class="d">MASS</text><text x="9.017999999999999" y="155.81099999999998" class="d">stan…</text><text x="15.029999999999998" y="155.81099999999998" class="d">FALSE</text><text x="22.043999999999997" y="155.81099999999998" class="d">FALSE</text><text x="32.064" y="155.81099999999998" class="d">OK</text><text x="39.077999999999996" y="155.81099999999998" class="d">MASS</text><text x="47.093999999999994" y="155.81099999999998" class="d">7.3-51…</text><text x="55.10999999999999" y="155.81099999999998" class="d">GPL-2</text><text x="61.12199999999999" y="155.81099999999998" class="d">…</text><text x="63.12599999999999" y="155.81099999999998" class="d">FALSE</text><text x="1.002" y="157.982" class="h">2</text><text x="3.006" y="157.982" class="d">Matr…</text><text x="9.017999999999999" y="157.982" class="d">stan…</text><text x="15.029999999999998" y="157.982" class="d">FALSE</text><text x="22.043999999999997" y="157.982" class="d">FALSE</text><text x="32.064" y="157.982" class="d">OK</text><text x="39.077999999999996" y="157.982" class="d">Matrix</text><text x="47.093999999999994" y="157.982" class="d">1.2-18</text><text x="55.10999999999999" y="157.982" class="d">GPL</text><text x="59.117999999999995" y="157.982" class="d">(&gt;…</text><text x="63.12599999999999" y="157.982" class="d">FALSE</text><text x="1.002" y="160.153" class="h">3</text><text x="3.006" y="160.153" class="d">R6</text><text x="9.017999999999999" y="160.153" class="d">stan…</text><text x="15.029999999999998" y="160.153" class="d">FALSE</text><text x="22.043999999999997" y="160.153" class="d">FALSE</text><text x="32.064" y="160.153" class="d">OK</text><text x="39.077999999999996" y="160.153" class="d">R6</text><text x="47.093999999999994" y="160.153" class="d">2.4.1</text><text x="55.10999999999999" y="160.153" class="d">MIT</text><text x="59.117999999999995" y="160.153" class="d">+</text><text x="61.12199999999999" y="160.153" class="d">…</text><text x="63.12599999999999" y="160.153" class="d">FALSE</text><text x="1.002" y="162.32399999999998" class="h">4</text><text x="3.006" y="162.32399999999998" class="d">RCol…</text><text x="9.017999999999999" y="162.32399999999998" class="d">stan…</text><text x="15.029999999999998" y="162.32399999999998" class="d">FALSE</text><text x="22.043999999999997" y="162.32399999999998" class="d">FALSE</text><text x="32.064" y="162.32399999999998" class="d">OK</text><text x="39.077999999999996" y="162.32399999999998" class="d">RColor…</text><text x="47.093999999999994" y="162.32399999999998" class="d">1.1-2</text><text x="55.10999999999999" y="162.32399999999998" class="d">Apache…</text><text x="63.12599999999999" y="162.32399999999998" class="d">FALSE</text><text x="1.002" y="164.495" class="h">5</text><text x="3.006" y="164.495" class="d">asse…</text><text x="9.017999999999999" y="164.495" class="d">stan…</text><text x="15.029999999999998" y="164.495" class="d">FALSE</text><text x="22.043999999999997" y="164.495" class="d">FALSE</text><text x="32.064" y="164.495" class="d">OK</text><text x="39.077999999999996" y="164.495" class="d">assert…</text><text x="47.093999999999994" y="164.495" class="d">0.2.1</text><text x="55.10999999999999" y="164.495" class="d">GPL-3</text><text x="63.12599999999999" y="164.495" class="d">FALSE</text><text x="1.002" y="166.66599999999997" class="h">6</text><text x="3.006" y="166.66599999999997" class="d">back…</text><text x="9.017999999999999" y="166.66599999999997" class="d">stan…</text><text x="15.029999999999998" y="166.66599999999997" class="d">FALSE</text><text x="22.043999999999997" y="166.66599999999997" class="d">FALSE</text><text x="32.064" y="166.66599999999997" class="d">OK</text><text x="39.077999999999996" y="166.66599999999997" class="d">backpo…</text><text x="47.093999999999994" y="166.66599999999997" class="d">1.1.8</text><text x="55.10999999999999" y="166.66599999999997" class="d">GPL-2</text><text x="61.12199999999999" y="166.66599999999997" class="d">…</text><text x="63.12599999999999" y="166.66599999999997" class="d">FALSE</text><text x="1.002" y="168.837" class="h">7</text><text x="3.006" y="168.837" class="d">callr</text><text x="9.017999999999999" y="168.837" class="d">stan…</text><text x="15.029999999999998" y="168.837" class="d">FALSE</text><text x="22.043999999999997" y="168.837" class="d">FALSE</text><text x="32.064" y="168.837" class="d">OK</text><text x="39.077999999999996" y="168.837" class="d">callr</text><text x="47.093999999999994" y="168.837" class="d">3.4.3</text><text x="55.10999999999999" y="168.837" class="d">MIT</text><text x="59.117999999999995" y="168.837" class="d">+</text><text x="61.12199999999999" y="168.837" class="d">…</text><text x="63.12599999999999" y="168.837" class="d">FALSE</text><text x="1.002" y="171.00799999999998" class="h">8</text><text x="3.006" y="171.00799999999998" class="d">cli</text><text x="9.017999999999999" y="171.00799999999998" class="d">stan…</text><text x="15.029999999999998" y="171.00799999999998" class="d">FALSE</text><text x="22.043999999999997" y="171.00799999999998" class="d">FALSE</text><text x="32.064" y="171.00799999999998" class="d">OK</text><text x="39.077999999999996" y="171.00799999999998" class="d">cli</text><text x="47.093999999999994" y="171.00799999999998" class="d">2.0.2</text><text x="55.10999999999999" y="171.00799999999998" class="d">MIT</text><text x="59.117999999999995" y="171.00799999999998" class="d">+</text><text x="61.12199999999999" y="171.00799999999998" class="d">…</text><text x="63.12599999999999" y="171.00799999999998" class="d">FALSE</text><text x="1.002" y="173.179" class="h">9</text><text x="3.006" y="173.179" class="d">colo…</text><text x="9.017999999999999" y="173.179" class="d">stan…</text><text x="15.029999999999998" y="173.179" class="d">FALSE</text><text x="22.043999999999997" y="173.179" class="d">FALSE</text><text x="32.064" y="173.179" class="d">OK</text><text x="39.077999999999996" y="173.179" class="d">colors…</text><text x="47.093999999999994" y="173.179" class="d">1.4-1</text><text x="55.10999999999999" y="173.179" class="d">BSD_3_…</text><text x="63.12599999999999" y="173.179" class="d">FALSE</text><text x="0" y="175.35" class="h">10</text><text x="3.006" y="175.35" class="d">cray…</text><text x="9.017999999999999" y="175.35" class="d">stan…</text><text x="15.029999999999998" y="175.35" class="d">FALSE</text><text x="22.043999999999997" y="175.35" class="d">FALSE</text><text x="32.064" y="175.35" class="d">OK</text><text x="39.077999999999996" y="175.35" class="d">crayon</text><text x="47.093999999999994" y="175.35" class="d">1.3.4</text><text x="55.10999999999999" y="175.35" class="d">MIT</text><text x="59.117999999999995" y="175.35" class="d">+</text><text x="61.12199999999999" y="175.35" class="d">…</text><text x="63.12599999999999" y="175.35" class="d">FALSE</text><text x="0" y="177.52099999999996" class="h">#</text><text x="2.004" y="177.52099999999996" class="h">…</text><text x="4.008" y="177.52099999999996" class="h">with</text><text x="9.017999999999999" y="177.52099999999996" class="h">85</text><text x="12.024" y="177.52099999999996" class="h">more</text><text x="17.034" y="177.52099999999996" class="h">rows,</text><text x="23.045999999999996" y="177.52099999999996" class="h">and</text><text x="27.054" y="177.52099999999996" class="h">23</text><text x="30.059999999999995" y="177.52099999999996" class="h">more</text><text x="35.06999999999999" y="177.52099999999996" class="h">variables:</text><text x="46.09199999999999" y="177.52099999999996" class="h">priority</text><text x="55.10999999999999" y="177.52099999999996" class="i">&lt;chr&gt;</text><text x="60.11999999999999" y="177.52099999999996" class="h">,</text><text x="62.123999999999995" y="177.52099999999996" class="h">md5sum</text><text x="69.13799999999999" y="177.52099999999996" class="i">&lt;chr&gt;</text><text x="74.148" y="177.52099999999996" class="h">,</text><text x="0" y="179.69199999999998" class="h">#</text><text x="4.008" y="179.69199999999998" class="h">sha256</text><text x="11.021999999999998" y="179.69199999999998" class="i">&lt;chr&gt;</text><text x="16.032" y="179.69199999999998" class="h">,</text><text x="18.035999999999998" y="179.69199999999998" class="h">filesize</text><text x="27.054" y="179.69199999999998" class="i">&lt;int&gt;</text><text x="32.064" y="179.69199999999998" class="h">,</text><text x="34.068" y="179.69199999999998" class="h">built</text><text x="40.08" y="179.69199999999998" class="i">&lt;chr&gt;</text><text x="45.089999999999996" y="179.69199999999998" class="h">,</text><text x="47.093999999999994" y="179.69199999999998" class="h">platform</text><text x="56.111999999999995" y="179.69199999999998" class="i">&lt;chr&gt;</text><text x="61.12199999999999" y="179.69199999999998" class="h">,</text><text x="63.12599999999999" y="179.69199999999998" class="h">rversion</text><text x="72.14399999999999" y="179.69199999999998" class="i">&lt;chr&gt;</text><text x="77.154" y="179.69199999999998" class="h">,</text><text x="0" y="181.86299999999997" class="h">#</text><text x="4.008" y="181.86299999999997" class="h">repodir</text><text x="12.024" y="181.86299999999997" class="i">&lt;chr&gt;</text><text x="17.034" y="181.86299999999997" class="h">,</text><text x="19.037999999999997" y="181.86299999999997" class="h">target</text><text x="26.052" y="181.86299999999997" class="i">&lt;chr&gt;</text><text x="31.061999999999998" y="181.86299999999997" class="h">,</text><text x="33.065999999999995" y="181.86299999999997" class="h">deps</text><text x="38.07599999999999" y="181.86299999999997" class="i">&lt;list&gt;</text><text x="44.087999999999994" y="181.86299999999997" class="h">,</text><text x="46.09199999999999" y="181.86299999999997" class="h">mirror</text><text x="53.105999999999995" y="181.86299999999997" class="i">&lt;chr&gt;</text><text x="58.116" y="181.86299999999997" class="h">,</text><text x="60.11999999999999" y="181.86299999999997" class="h">sources</text><text x="68.136" y="181.86299999999997" class="i">&lt;list&gt;</text><text x="74.148" y="181.86299999999997" class="h">,</text><text x="0" y="184.034" class="h">#</text><text x="4.008" y="184.034" class="h">remote</text><text x="11.021999999999998" y="184.034" class="i">&lt;list&gt;</text><text x="17.034" y="184.034" class="h">,</text><text x="19.037999999999997" y="184.034" class="h">error</text><text x="25.05" y="184.034" class="i">&lt;list&gt;</text><text x="31.061999999999998" y="184.034" class="h">,</text><text x="33.065999999999995" y="184.034" class="h">metadata</text><text x="42.083999999999996" y="184.034" class="i">&lt;list&gt;</text><text x="48.096" y="184.034" class="h">,</text><text x="50.1" y="184.034" class="h">extra</text><text x="56.111999999999995" y="184.034" class="i">&lt;list&gt;</text><text x="62.123999999999995" y="184.034" class="h">,</text><text x="0" y="186.20499999999998" class="h">#</text><text x="4.008" y="186.20499999999998" class="h">dep_types</text><text x="14.027999999999999" y="186.20499999999998" class="i">&lt;list&gt;</text><text x="20.04" y="186.20499999999998" class="h">,</text><text x="22.043999999999997" y="186.20499999999998" class="h">cache_status</text><text x="35.06999999999999" y="186.20499999999998" class="i">&lt;chr&gt;</text><text x="40.08" y="186.20499999999998" class="h">,</text><text x="42.083999999999996" y="186.20499999999998" class="h">fulltarget</text><text x="53.105999999999995" y="186.20499999999998" class="i">&lt;chr&gt;</text><text x="58.116" y="186.20499999999998" class="h">,</text><text x="0" y="188.376" class="h">#</text><text x="4.008" y="188.376" class="h">fulltarget_tree</text><text x="20.04" y="188.376" class="i">&lt;chr&gt;</text><text x="25.05" y="188.376" class="h">,</text><text x="27.054" y="188.376" class="h">download_status</text><text x="43.086" y="188.376" class="i">&lt;chr&gt;</text><text x="48.096" y="188.376" class="h">,</text><text x="50.1" y="188.376" class="h">download_error</text><text x="65.13" y="188.376" class="i">&lt;list&gt;</text><text x="71.142" y="188.376" class="h">,</text><text x="0" y="190.547" class="h">#</text><text x="4.008" y="190.547" class="h">file_size</text><text x="14.027999999999999" y="190.547" class="i">&lt;dbl&gt;</text><text x="0" y="192.71799999999996" class="d">[1]</text><text x="4.008" y="192.71799999999996" class="d">&quot;bin&quot;</text><text x="10.02" y="192.71799999999996" class="d">&quot;src&quot;</text></svg></svg></g></svg></svg>