<svg xmlns="http://www.w3.org/2000/svg" xmlns:xlink="http://www.w3.org/1999/xlink" width="1040" height="2232.71"><rect width="1040" height="2232.71" rx="0" ry="0" class="a"></rect><svg height="2192.71" viewBox="0 0 100 219.271" width="1000" x="20" xmlns="http://www.w3.org/2000/svg" xmlns:xlink="http://www.w3.org/1999/xlink" y="20"><style>.a{fill:rgb(40,45,53)}.b{font-family:'Fira Code',Monaco,Consolas,Menlo,'Bitstream Vera Sans Mono','Powerline Symbols',monospace}.c{fill:rgb(185,192,203);white-space:pre}.d{fill:transparent}</style><g font-family="&#x27;Fira Code&#x27;,Monaco,Consolas,Menlo,&#x27;Bitstream Vera Sans Mono&#x27;,&#x27;Powerline Symbols&#x27;,monospace" font-size="1.67" class="b"><defs><symbol id="1"><text x="0" y="1.67" class="c">✔</text><text x="2.004" y="1.67" class="c">Got</text><text x="6.012" y="1.67" class="c">digest</text><text x="13.026" y="1.67" class="c">0.6.27</text><text x="20.04" y="1.67" class="c">(source)</text><text x="29.058" y="1.67" class="c">(357.34</text><text x="37.074" y="1.67" class="c">kB)</text></symbol><symbol id="2"><text x="0" y="1.67" class="c">✔</text><text x="2.004" y="1.67" class="c">Got</text><text x="6.012" y="1.67" class="c">ellipsis</text><text x="15.029999999999998" y="1.67" class="c">0.3.1</text><text x="21.041999999999998" y="1.67" class="c">(source)</text><text x="30.059999999999995" y="1.67" class="c">(37.50</text><text x="37.074" y="1.67" class="c">kB)</text></symbol><symbol id="3"><text x="0" y="1.67" class="c">✔</text><text x="2.004" y="1.67" class="c">Got</text><text x="6.012" y="1.67" class="c">magrittr</text><text x="15.029999999999998" y="1.67" class="c">2.0.1</text><text x="21.041999999999998" y="1.67" class="c">(source)</text><text x="30.059999999999995" y="1.67" class="c">(232.44</text><text x="38.07599999999999" y="1.67" class="c">kB)</text></symbol><symbol id="4"><text x="0" y="1.67" class="c">✔</text><text x="2.004" y="1.67" class="c">Got</text><text x="6.012" y="1.67" class="c">scales</text><text x="13.026" y="1.67" class="c">1.1.1</text><text x="19.037999999999997" y="1.67" class="c">(source)</text><text x="28.055999999999997" y="1.67" class="c">(207.75</text><text x="36.071999999999996" y="1.67" class="c">kB)</text></symbol><symbol id="5"><text x="0" y="1.67" class="c">✔</text><text x="2.004" y="1.67" class="c">Got</text><text x="6.012" y="1.67" class="c">mgcv</text><text x="11.021999999999998" y="1.67" class="c">1.8-34</text><text x="18.035999999999998" y="1.67" class="c">(source)</text><text x="27.054" y="1.67" class="c">(1.15</text><text x="33.065999999999995" y="1.67" class="c">MB)</text></symbol><symbol id="6"><text x="0" y="1.67" class="c">✔</text><text x="2.004" y="1.67" class="c">Got</text><text x="6.012" y="1.67" class="c">withr</text><text x="12.024" y="1.67" class="c">2.4.1</text><text x="18.035999999999998" y="1.67" class="c">(source)</text><text x="27.054" y="1.67" class="c">(202.17</text><text x="35.06999999999999" y="1.67" class="c">kB)</text></symbol><symbol id="7"><text x="0" y="1.67" class="c">✔</text><text x="2.004" y="1.67" class="c">Got</text><text x="6.012" y="1.67" class="c">munsell</text><text x="14.027999999999999" y="1.67" class="c">0.5.0</text><text x="20.04" y="1.67" class="c">(source)</text><text x="29.058" y="1.67" class="c">(423.29</text><text x="37.074" y="1.67" class="c">kB)</text></symbol><symbol id="8"><text x="0" y="1.67" class="c">✔</text><text x="2.004" y="1.67" class="c">Got</text><text x="6.012" y="1.67" class="c">lattice</text><text x="14.027999999999999" y="1.67" class="c">0.20-41</text><text x="22.043999999999997" y="1.67" class="c">(source)</text><text x="31.061999999999998" y="1.67" class="c">(1.54</text><text x="37.074" y="1.67" class="c">MB)</text></symbol><symbol id="9"><text x="0" y="1.67" class="c">✔</text><text x="2.004" y="1.67" class="c">Got</text><text x="6.012" y="1.67" class="c">mgcv</text><text x="11.021999999999998" y="1.67" class="c">1.8-34</text><text x="18.035999999999998" y="1.67" class="c">(source)</text><text x="27.054" y="1.67" class="c">(379.54</text><text x="35.06999999999999" y="1.67" class="c">kB)</text></symbol><symbol id="10"><text x="0" y="1.67" class="c">✔</text><text x="2.004" y="1.67" class="c">Got</text><text x="6.012" y="1.67" class="c">isoband</text><text x="14.027999999999999" y="1.67" class="c">0.2.4</text><text x="20.04" y="1.67" class="c">(source)</text><text x="29.058" y="1.67" class="c">(1.56</text><text x="35.06999999999999" y="1.67" class="c">MB)</text></symbol><symbol id="11"><text x="0" y="1.67" class="c">✔</text><text x="2.004" y="1.67" class="c">Got</text><text x="6.012" y="1.67" class="c">Matrix</text><text x="13.026" y="1.67" class="c">1.3-2</text><text x="19.037999999999997" y="1.67" class="c">(source)</text><text x="28.055999999999997" y="1.67" class="c">(1.97</text><text x="34.068" y="1.67" class="c">MB)</text></symbol><symbol id="a"><rect height="102" width="100" x="0" y="0" class="d"></rect></symbol></defs><rect height="219.271" width="100" class="a"></rect><svg x="0" y="0" width="100"><svg x="0"><use xlink:href="#a"></use><use xlink:href="#1" y="0"></use><text x="0" y="3.8409999999999997" class="c">✔</text><text x="2.004" y="3.8409999999999997" class="c">Got</text><text x="6.012" y="3.8409999999999997" class="c">colorspace</text><text x="17.034" y="3.8409999999999997" class="c">2.0-0</text><text x="23.045999999999996" y="3.8409999999999997" class="c">(source)</text><text x="32.064" y="3.8409999999999997" class="c">(2.20</text><text x="38.07599999999999" y="3.8409999999999997" class="c">MB)</text><use xlink:href="#2" y="4.342"></use><text x="0" y="8.183" class="c">✔</text><text x="2.004" y="8.183" class="c">Got</text><text x="6.012" y="8.183" class="c">glue</text><text x="11.021999999999998" y="8.183" class="c">1.4.2</text><text x="17.034" y="8.183" class="c">(source)</text><text x="26.052" y="8.183" class="c">(99.05</text><text x="33.065999999999995" y="8.183" class="c">kB)</text><text x="0" y="10.354" class="c">✔</text><text x="2.004" y="10.354" class="c">Got</text><text x="6.012" y="10.354" class="c">labeling</text><text x="15.029999999999998" y="10.354" class="c">0.4.2</text><text x="21.041999999999998" y="10.354" class="c">(source)</text><text x="30.059999999999995" y="10.354" class="c">(10.16</text><text x="37.074" y="10.354" class="c">kB)</text><text x="0" y="12.525" class="c">✔</text><text x="2.004" y="12.525" class="c">Got</text><text x="6.012" y="12.525" class="c">farver</text><text x="13.026" y="12.525" class="c">2.1.0</text><text x="19.037999999999997" y="12.525" class="c">(source)</text><text x="28.055999999999997" y="12.525" class="c">(1.28</text><text x="34.068" y="12.525" class="c">MB)</text><text x="0" y="14.696" class="c">✔</text><text x="2.004" y="14.696" class="c">Got</text><text x="6.012" y="14.696" class="c">fansi</text><text x="12.024" y="14.696" class="c">0.4.2</text><text x="18.035999999999998" y="14.696" class="c">(source)</text><text x="27.054" y="14.696" class="c">(271.44</text><text x="35.06999999999999" y="14.696" class="c">kB)</text><text x="0" y="16.866999999999997" class="c">✔</text><text x="2.004" y="16.866999999999997" class="c">Got</text><text x="6.012" y="16.866999999999997" class="c">R6</text><text x="9.017999999999999" y="16.866999999999997" class="c">2.5.0</text><text x="15.029999999999998" y="16.866999999999997" class="c">(source)</text><text x="24.048" y="16.866999999999997" class="c">(82.06</text><text x="31.061999999999998" y="16.866999999999997" class="c">kB)</text><text x="0" y="19.037999999999997" class="c">✔</text><text x="2.004" y="19.037999999999997" class="c">Got</text><text x="6.012" y="19.037999999999997" class="c">rlang</text><text x="12.024" y="19.037999999999997" class="c">0.4.10</text><text x="19.037999999999997" y="19.037999999999997" class="c">(source)</text><text x="28.055999999999997" y="19.037999999999997" class="c">(915.68</text><text x="36.071999999999996" y="19.037999999999997" class="c">kB)</text><use xlink:href="#1" y="19.539"></use><text x="0" y="23.380000000000003" class="c">✔</text><text x="2.004" y="23.380000000000003" class="c">Got</text><text x="6.012" y="23.380000000000003" class="c">MASS</text><text x="11.021999999999998" y="23.380000000000003" class="c">7.3-53.1</text><text x="20.04" y="23.380000000000003" class="c">(source)</text><text x="29.058" y="23.380000000000003" class="c">(1.16</text><text x="35.06999999999999" y="23.380000000000003" class="c">MB)</text><text x="0" y="25.550999999999995" class="c">✔</text><text x="2.004" y="25.550999999999995" class="c">Got</text><text x="6.012" y="25.550999999999995" class="c">lifecycle</text><text x="16.032" y="25.550999999999995" class="c">1.0.0</text><text x="22.043999999999997" y="25.550999999999995" class="c">(source)</text><text x="31.061999999999998" y="25.550999999999995" class="c">(83.39</text><text x="38.07599999999999" y="25.550999999999995" class="c">kB)</text><text x="0" y="27.722" class="c">✔</text><text x="2.004" y="27.722" class="c">Got</text><text x="6.012" y="27.722" class="c">Matrix</text><text x="13.026" y="27.722" class="c">1.3-2</text><text x="19.037999999999997" y="27.722" class="c">(source)</text><text x="28.055999999999997" y="27.722" class="c">(5.15</text><text x="34.068" y="27.722" class="c">MB)</text><text x="0" y="29.893" class="c">✔</text><text x="2.004" y="29.893" class="c">Got</text><text x="6.012" y="29.893" class="c">assertthat</text><text x="17.034" y="29.893" class="c">0.2.1</text><text x="23.045999999999996" y="29.893" class="c">(source)</text><text x="32.064" y="29.893" class="c">(52.14</text><text x="39.077999999999996" y="29.893" class="c">kB)</text><text x="0" y="32.064" class="c">✔</text><text x="2.004" y="32.064" class="c">Got</text><text x="6.012" y="32.064" class="c">vctrs</text><text x="12.024" y="32.064" class="c">0.3.6</text><text x="18.035999999999998" y="32.064" class="c">(source)</text><text x="27.054" y="32.064" class="c">(1.60</text><text x="33.065999999999995" y="32.064" class="c">MB)</text><text x="0" y="34.235" class="c">✔</text><text x="2.004" y="34.235" class="c">Got</text><text x="6.012" y="34.235" class="c">MASS</text><text x="11.021999999999998" y="34.235" class="c">7.3-53.1</text><text x="20.04" y="34.235" class="c">(source)</text><text x="29.058" y="34.235" class="c">(507.58</text><text x="37.074" y="34.235" class="c">kB)</text><text x="0" y="36.406" class="c">✔</text><text x="2.004" y="36.406" class="c">Got</text><text x="6.012" y="36.406" class="c">utf8</text><text x="11.021999999999998" y="36.406" class="c">1.1.4</text><text x="17.034" y="36.406" class="c">(source)</text><text x="26.052" y="36.406" class="c">(218.88</text><text x="34.068" y="36.406" class="c">kB)</text><text x="0" y="38.577000000000005" class="c">✔</text><text x="2.004" y="38.577000000000005" class="c">Got</text><text x="6.012" y="38.577000000000005" class="c">cli</text><text x="10.02" y="38.577000000000005" class="c">2.3.1</text><text x="16.032" y="38.577000000000005" class="c">(source)</text><text x="25.05" y="38.577000000000005" class="c">(463.62</text><text x="33.065999999999995" y="38.577000000000005" class="c">kB)</text><text x="0" y="40.748000000000005" class="c">✔</text><text x="2.004" y="40.748000000000005" class="c">Got</text><text x="6.012" y="40.748000000000005" class="c">RColorBrewer</text><text x="19.037999999999997" y="40.748000000000005" class="c">1.1-2</text><text x="25.05" y="40.748000000000005" class="c">(source)</text><text x="34.068" y="40.748000000000005" class="c">(52.76</text><text x="41.082" y="40.748000000000005" class="c">kB)</text><use xlink:href="#2" y="41.248999999999995"></use><text x="0" y="45.09" class="c">✔</text><text x="2.004" y="45.09" class="c">Got</text><text x="6.012" y="45.09" class="c">crayon</text><text x="13.026" y="45.09" class="c">1.4.1</text><text x="19.037999999999997" y="45.09" class="c">(source)</text><text x="28.055999999999997" y="45.09" class="c">(138.30</text><text x="36.071999999999996" y="45.09" class="c">kB)</text><text x="0" y="47.261" class="c">✔</text><text x="2.004" y="47.261" class="c">Got</text><text x="6.012" y="47.261" class="c">gtable</text><text x="13.026" y="47.261" class="c">0.3.0</text><text x="19.037999999999997" y="47.261" class="c">(source)</text><text x="28.055999999999997" y="47.261" class="c">(444.18</text><text x="36.071999999999996" y="47.261" class="c">kB)</text><use xlink:href="#3" y="47.76199999999999"></use><text x="0" y="51.603" class="c">✔</text><text x="2.004" y="51.603" class="c">Got</text><text x="6.012" y="51.603" class="c">lattice</text><text x="14.027999999999999" y="51.603" class="c">0.20-41</text><text x="22.043999999999997" y="51.603" class="c">(source)</text><text x="31.061999999999998" y="51.603" class="c">(389.63</text><text x="39.077999999999996" y="51.603" class="c">kB)</text><text x="0" y="53.774" class="c">✔</text><text x="2.004" y="53.774" class="c">Got</text><text x="6.012" y="53.774" class="c">nlme</text><text x="11.021999999999998" y="53.774" class="c">3.1-152</text><text x="19.037999999999997" y="53.774" class="c">(source)</text><text x="28.055999999999997" y="53.774" class="c">(2.39</text><text x="34.068" y="53.774" class="c">MB)</text><text x="0" y="55.945" class="c">✔</text><text x="2.004" y="55.945" class="c">Got</text><text x="6.012" y="55.945" class="c">pillar</text><text x="13.026" y="55.945" class="c">1.5.1</text><text x="19.037999999999997" y="55.945" class="c">(source)</text><text x="28.055999999999997" y="55.945" class="c">(1.07</text><text x="34.068" y="55.945" class="c">MB)</text><text x="0" y="58.11600000000001" class="c">✔</text><text x="2.004" y="58.11600000000001" class="c">Got</text><text x="6.012" y="58.11600000000001" class="c">viridisLite</text><text x="18.035999999999998" y="58.11600000000001" class="c">0.3.0</text><text x="24.048" y="58.11600000000001" class="c">(source)</text><text x="33.065999999999995" y="58.11600000000001" class="c">(56.95</text><text x="40.08" y="58.11600000000001" class="c">kB)</text><text x="0" y="60.287" class="c">✔</text><text x="2.004" y="60.287" class="c">Got</text><text x="6.012" y="60.287" class="c">pkgconfig</text><text x="16.032" y="60.287" class="c">2.0.3</text><text x="22.043999999999997" y="60.287" class="c">(source)</text><text x="31.061999999999998" y="60.287" class="c">(6.08</text><text x="37.074" y="60.287" class="c">kB)</text><text x="0" y="62.458" class="c">✔</text><text x="2.004" y="62.458" class="c">Got</text><text x="6.012" y="62.458" class="c">Matrix</text><text x="13.026" y="62.458" class="c">1.3-2</text><text x="19.037999999999997" y="62.458" class="c">(source)</text><text x="28.055999999999997" y="62.458" class="c">(1.98</text><text x="34.068" y="62.458" class="c">MB)</text><text x="0" y="64.629" class="c">✔</text><text x="2.004" y="64.629" class="c">Got</text><text x="6.012" y="64.629" class="c">R6</text><text x="9.017999999999999" y="64.629" class="c">2.5.0</text><text x="15.029999999999998" y="64.629" class="c">(source)</text><text x="24.048" y="64.629" class="c">(63.36</text><text x="31.061999999999998" y="64.629" class="c">kB)</text><text x="0" y="66.8" class="c">✔</text><text x="2.004" y="66.8" class="c">Got</text><text x="6.012" y="66.8" class="c">RColorBrewer</text><text x="19.037999999999997" y="66.8" class="c">1.1-2</text><text x="25.05" y="66.8" class="c">(source)</text><text x="34.068" y="66.8" class="c">(11.53</text><text x="41.082" y="66.8" class="c">kB)</text><text x="0" y="68.971" class="c">✔</text><text x="2.004" y="68.971" class="c">Got</text><text x="6.012" y="68.971" class="c">farver</text><text x="13.026" y="68.971" class="c">2.1.0</text><text x="19.037999999999997" y="68.971" class="c">(source)</text><text x="28.055999999999997" y="68.971" class="c">(2.61</text><text x="34.068" y="68.971" class="c">MB)</text><use xlink:href="#3" y="69.472"></use><text x="0" y="73.313" class="c">✔</text><text x="2.004" y="73.313" class="c">Got</text><text x="6.012" y="73.313" class="c">tibble</text><text x="13.026" y="73.313" class="c">3.1.0</text><text x="19.037999999999997" y="73.313" class="c">(source)</text><text x="28.055999999999997" y="73.313" class="c">(686.46</text><text x="36.071999999999996" y="73.313" class="c">kB)</text><text x="0" y="75.48400000000001" class="c">✔</text><text x="2.004" y="75.48400000000001" class="c">Got</text><text x="6.012" y="75.48400000000001" class="c">ggplot2</text><text x="14.027999999999999" y="75.48400000000001" class="c">3.3.3</text><text x="20.04" y="75.48400000000001" class="c">(source)</text><text x="29.058" y="75.48400000000001" class="c">(3.95</text><text x="35.06999999999999" y="75.48400000000001" class="c">MB)</text><text x="0" y="77.655" class="c">✔</text><text x="2.004" y="77.655" class="c">Got</text><text x="6.012" y="77.655" class="c">lifecycle</text><text x="16.032" y="77.655" class="c">1.0.0</text><text x="22.043999999999997" y="77.655" class="c">(source)</text><text x="31.061999999999998" y="77.655" class="c">(93.21</text><text x="38.07599999999999" y="77.655" class="c">kB)</text><use xlink:href="#4" y="78.156"></use><text x="0" y="81.997" class="c">✔</text><text x="2.004" y="81.997" class="c">Got</text><text x="6.012" y="81.997" class="c">colorspace</text><text x="17.034" y="81.997" class="c">2.0-0</text><text x="23.045999999999996" y="81.997" class="c">(source)</text><text x="32.064" y="81.997" class="c">(2.62</text><text x="38.07599999999999" y="81.997" class="c">MB)</text><use xlink:href="#4" y="82.49799999999999"></use><use xlink:href="#5" y="84.669"></use><text x="0" y="88.51" class="c">✔</text><text x="2.004" y="88.51" class="c">Got</text><text x="6.012" y="88.51" class="c">vctrs</text><text x="12.024" y="88.51" class="c">0.3.6</text><text x="18.035999999999998" y="88.51" class="c">(source)</text><text x="27.054" y="88.51" class="c">(778.02</text><text x="35.06999999999999" y="88.51" class="c">kB)</text><text x="0" y="90.681" class="c">✔</text><text x="2.004" y="90.681" class="c">Got</text><text x="6.012" y="90.681" class="c">glue</text><text x="11.021999999999998" y="90.681" class="c">1.4.2</text><text x="17.034" y="90.681" class="c">(source)</text><text x="26.052" y="90.681" class="c">(144.33</text><text x="34.068" y="90.681" class="c">kB)</text><text x="0" y="92.852" class="c">✔</text><text x="2.004" y="92.852" class="c">Got</text><text x="6.012" y="92.852" class="c">labeling</text><text x="15.029999999999998" y="92.852" class="c">0.4.2</text><text x="21.041999999999998" y="92.852" class="c">(source)</text><text x="30.059999999999995" y="92.852" class="c">(58.75</text><text x="37.074" y="92.852" class="c">kB)</text><text x="0" y="95.02300000000001" class="c">✔</text><text x="2.004" y="95.02300000000001" class="c">Got</text><text x="6.012" y="95.02300000000001" class="c">fansi</text><text x="12.024" y="95.02300000000001" class="c">0.4.2</text><text x="18.035999999999998" y="95.02300000000001" class="c">(source)</text><text x="27.054" y="95.02300000000001" class="c">(253.82</text><text x="35.06999999999999" y="95.02300000000001" class="c">kB)</text><text x="0" y="97.19399999999999" class="c">✔</text><text x="2.004" y="97.19399999999999" class="c">Got</text><text x="6.012" y="97.19399999999999" class="c">pkgconfig</text><text x="16.032" y="97.19399999999999" class="c">2.0.3</text><text x="22.043999999999997" y="97.19399999999999" class="c">(source)</text><text x="31.061999999999998" y="97.19399999999999" class="c">(17.40</text><text x="38.07599999999999" y="97.19399999999999" class="c">kB)</text><use xlink:href="#6" y="97.695"></use><text x="0" y="101.536" class="c">✔</text><text x="2.004" y="101.536" class="c">Got</text><text x="6.012" y="101.536" class="c">utf8</text><text x="11.021999999999998" y="101.536" class="c">1.1.4</text><text x="17.034" y="101.536" class="c">(source)</text><text x="26.052" y="101.536" class="c">(234.66</text><text x="34.068" y="101.536" class="c">kB)</text><text x="0" y="103.707" class="c">✔</text><text x="2.004" y="103.707" class="c">Got</text><text x="6.012" y="103.707" class="c">viridisLite</text><text x="18.035999999999998" y="103.707" class="c">0.3.0</text><text x="24.048" y="103.707" class="c">(source)</text><text x="33.065999999999995" y="103.707" class="c">(44.02</text><text x="40.08" y="103.707" class="c">kB)</text><use xlink:href="#6" y="104.208"></use><use xlink:href="#7" y="106.379"></use><use xlink:href="#7" y="108.55"></use><text x="0" y="112.391" class="c">✔</text><text x="2.004" y="112.391" class="c">Got</text><text x="6.012" y="112.391" class="c">lattice</text><text x="14.027999999999999" y="112.391" class="c">0.20-41</text><text x="22.043999999999997" y="112.391" class="c">(source)</text><text x="31.061999999999998" y="112.391" class="c">(389.15</text><text x="39.077999999999996" y="112.391" class="c">kB)</text><text x="0" y="114.56200000000001" class="c">✔</text><text x="2.004" y="114.56200000000001" class="c">Got</text><text x="6.012" y="114.56200000000001" class="c">nlme</text><text x="11.021999999999998" y="114.56200000000001" class="c">3.1-152</text><text x="19.037999999999997" y="114.56200000000001" class="c">(source)</text><text x="28.055999999999997" y="114.56200000000001" class="c">(907.21</text><text x="36.071999999999996" y="114.56200000000001" class="c">kB)</text><text x="0" y="116.73299999999999" class="c">✔</text><text x="2.004" y="116.73299999999999" class="c">Got</text><text x="6.012" y="116.73299999999999" class="c">gtable</text><text x="13.026" y="116.73299999999999" class="c">0.3.0</text><text x="19.037999999999997" y="116.73299999999999" class="c">(source)</text><text x="28.055999999999997" y="116.73299999999999" class="c">(353.94</text><text x="36.071999999999996" y="116.73299999999999" class="c">kB)</text><use xlink:href="#8" y="117.234"></use><text x="0" y="121.075" class="c">✔</text><text x="2.004" y="121.075" class="c">Got</text><text x="6.012" y="121.075" class="c">pillar</text><text x="13.026" y="121.075" class="c">1.5.1</text><text x="19.037999999999997" y="121.075" class="c">(source)</text><text x="28.055999999999997" y="121.075" class="c">(955.16</text><text x="36.071999999999996" y="121.075" class="c">kB)</text><text x="0" y="123.246" class="c">✔</text><text x="2.004" y="123.246" class="c">Got</text><text x="6.012" y="123.246" class="c">tibble</text><text x="13.026" y="123.246" class="c">3.1.0</text><text x="19.037999999999997" y="123.246" class="c">(source)</text><text x="28.055999999999997" y="123.246" class="c">(809.94</text><text x="36.071999999999996" y="123.246" class="c">kB)</text><use xlink:href="#8" y="123.747"></use><use xlink:href="#5" y="125.918"></use><text x="0" y="129.759" class="c">✔</text><text x="2.004" y="129.759" class="c">Got</text><text x="6.012" y="129.759" class="c">ggplot2</text><text x="14.027999999999999" y="129.759" class="c">3.3.3</text><text x="20.04" y="129.759" class="c">(source)</text><text x="29.058" y="129.759" class="c">(3.17</text><text x="35.06999999999999" y="129.759" class="c">MB)</text><text x="0" y="131.92999999999998" class="c">✔</text><text x="2.004" y="131.92999999999998" class="c">Got</text><text x="6.012" y="131.92999999999998" class="c">rlang</text><text x="12.024" y="131.92999999999998" class="c">0.4.10</text><text x="19.037999999999997" y="131.92999999999998" class="c">(source)</text><text x="28.055999999999997" y="131.92999999999998" class="c">(1.39</text><text x="34.068" y="131.92999999999998" class="c">MB)</text><use xlink:href="#9" y="132.43099999999998"></use><use xlink:href="#10" y="134.602"></use><text x="0" y="138.44299999999998" class="c">✔</text><text x="2.004" y="138.44299999999998" class="c">Got</text><text x="6.012" y="138.44299999999998" class="c">MASS</text><text x="11.021999999999998" y="138.44299999999998" class="c">7.3-53.1</text><text x="20.04" y="138.44299999999998" class="c">(source)</text><text x="29.058" y="138.44299999999998" class="c">(490.86</text><text x="37.074" y="138.44299999999998" class="c">kB)</text><text x="0" y="140.61399999999998" class="c">✔</text><text x="2.004" y="140.61399999999998" class="c">Got</text><text x="6.012" y="140.61399999999998" class="c">nlme</text><text x="11.021999999999998" y="140.61399999999998" class="c">3.1-152</text><text x="19.037999999999997" y="140.61399999999998" class="c">(source)</text><text x="28.055999999999997" y="140.61399999999998" class="c">(805.57</text><text x="36.071999999999996" y="140.61399999999998" class="c">kB)</text><text x="0" y="142.785" class="c">✔</text><text x="2.004" y="142.785" class="c">Got</text><text x="6.012" y="142.785" class="c">MASS</text><text x="11.021999999999998" y="142.785" class="c">7.3-53.1</text><text x="20.04" y="142.785" class="c">(source)</text><text x="29.058" y="142.785" class="c">(505.01</text><text x="37.074" y="142.785" class="c">kB)</text><use xlink:href="#9" y="143.286"></use><use xlink:href="#11" y="145.457"></use><text x="0" y="149.298" class="c">✔</text><text x="2.004" y="149.298" class="c">Got</text><text x="6.012" y="149.298" class="c">nlme</text><text x="11.021999999999998" y="149.298" class="c">3.1-152</text><text x="19.037999999999997" y="149.298" class="c">(source)</text><text x="28.055999999999997" y="149.298" class="c">(704.54</text><text x="36.071999999999996" y="149.298" class="c">kB)</text><use xlink:href="#10" y="149.79899999999998"></use><use xlink:href="#11" y="151.97"></use><text x="0" y="155.81099999999998" class="c">Warning</text><text x="8.016" y="155.81099999999998" class="c">messages:</text><text x="0" y="157.982" class="c">1:</text><text x="3.006" y="157.982" class="c">In</text><text x="6.012" y="157.982" class="c">file.rename(tmp_destfile,</text><text x="32.064" y="157.982" class="c">destfile)</text><text x="42.083999999999996" y="157.982" class="c">:</text><text x="2.004" y="160.153" class="c">cannot</text><text x="9.017999999999999" y="160.153" class="c">rename</text><text x="16.032" y="160.153" class="c">file</text><text x="21.041999999999998" y="160.153" class="c">&#x27;/tmp/Rtmpt9ndPx/file36fc501ae7e4/src/contrib/munsell_0.5.0.tar.gz.tmp.1&#x27;</text><text x="95.19" y="160.153" class="c">to</text><text x="98.196" y="160.153" class="c">&#x27;/</text><text x="0" y="162.32399999999998" class="c">tmp/Rtmpt9ndPx/file36fc501ae7e4/src/contrib/munsell_0.5.0.tar.gz&#x27;,</text><text x="67.134" y="162.32399999999998" class="c">reason</text><text x="74.148" y="162.32399999999998" class="c">&#x27;No</text><text x="78.15599999999999" y="162.32399999999998" class="c">such</text><text x="83.16599999999998" y="162.32399999999998" class="c">file</text><text x="88.17599999999999" y="162.32399999999998" class="c">or</text><text x="91.182" y="162.32399999999998" class="c">directory</text><text x="0" y="164.495" class="c">&#x27;</text><text x="0" y="166.66599999999997" class="c">2:</text><text x="3.006" y="166.66599999999997" class="c">In</text><text x="6.012" y="166.66599999999997" class="c">file.rename(tmp_destfile,</text><text x="32.064" y="166.66599999999997" class="c">destfile)</text><text x="42.083999999999996" y="166.66599999999997" class="c">:</text><text x="2.004" y="168.837" class="c">cannot</text><text x="9.017999999999999" y="168.837" class="c">rename</text><text x="16.032" y="168.837" class="c">file</text><text x="21.041999999999998" y="168.837" class="c">&#x27;/tmp/Rtmpt9ndPx/file36fc501ae7e4/src/contrib/lattice_0.20-41.tar.gz.tmp.1&#x27;</text><text x="97.19399999999999" y="168.837" class="c">to</text><text x="0" y="171.00799999999998" class="c">&#x27;/tmp/Rtmpt9ndPx/file36fc501ae7e4/src/contrib/lattice_0.20-41.tar.gz&#x27;,</text><text x="71.142" y="171.00799999999998" class="c">reason</text><text x="78.15599999999999" y="171.00799999999998" class="c">&#x27;No</text><text x="82.164" y="171.00799999999998" class="c">such</text><text x="87.17399999999999" y="171.00799999999998" class="c">file</text><text x="92.18399999999998" y="171.00799999999998" class="c">or</text><text x="95.19" y="171.00799999999998" class="c">direc</text><text x="0" y="173.179" class="c">tory&#x27;</text><text x="0" y="175.35" class="c">#</text><text x="2.004" y="175.35" class="c">A</text><text x="4.008" y="175.35" class="c">tibble:</text><text x="12.024" y="175.35" class="c">74</text><text x="15.029999999999998" y="175.35" class="c">x</text><text x="17.034" y="175.35" class="c">34</text><text x="3.006" y="177.52099999999996" class="c">ref</text><text x="10.02" y="177.52099999999996" class="c">type</text><text x="16.032" y="177.52099999999996" class="c">direct</text><text x="23.045999999999996" y="177.52099999999996" class="c">directpkg</text><text x="33.065999999999995" y="177.52099999999996" class="c">status</text><text x="40.08" y="177.52099999999996" class="c">package</text><text x="48.096" y="177.52099999999996" class="c">version</text><text x="56.111999999999995" y="177.52099999999996" class="c">license</text><text x="64.128" y="177.52099999999996" class="c">needscompilation</text><text x="3.006" y="179.69199999999998" class="c">&lt;chr&gt;</text><text x="10.02" y="179.69199999999998" class="c">&lt;chr&gt;</text><text x="16.032" y="179.69199999999998" class="c">&lt;lgl&gt;</text><text x="23.045999999999996" y="179.69199999999998" class="c">&lt;lgl&gt;</text><text x="33.065999999999995" y="179.69199999999998" class="c">&lt;chr&gt;</text><text x="40.08" y="179.69199999999998" class="c">&lt;chr&gt;</text><text x="48.096" y="179.69199999999998" class="c">&lt;chr&gt;</text><text x="56.111999999999995" y="179.69199999999998" class="c">&lt;chr&gt;</text><text x="64.128" y="179.69199999999998" class="c">&lt;lgl&gt;</text><text x="1.002" y="181.86299999999997" class="c">1</text><text x="3.006" y="181.86299999999997" class="c">MASS</text><text x="10.02" y="181.86299999999997" class="c">stan…</text><text x="16.032" y="181.86299999999997" class="c">FALSE</text><text x="23.045999999999996" y="181.86299999999997" class="c">FALSE</text><text x="33.065999999999995" y="181.86299999999997" class="c">OK</text><text x="40.08" y="181.86299999999997" class="c">MASS</text><text x="48.096" y="181.86299999999997" class="c">7.3-53…</text><text x="56.111999999999995" y="181.86299999999997" class="c">GPL-2</text><text x="62.123999999999995" y="181.86299999999997" class="c">…</text><text x="64.128" y="181.86299999999997" class="c">TRUE</text><text x="1.002" y="184.034" class="c">2</text><text x="3.006" y="184.034" class="c">MASS</text><text x="10.02" y="184.034" class="c">stan…</text><text x="16.032" y="184.034" class="c">FALSE</text><text x="23.045999999999996" y="184.034" class="c">FALSE</text><text x="33.065999999999995" y="184.034" class="c">OK</text><text x="40.08" y="184.034" class="c">MASS</text><text x="48.096" y="184.034" class="c">7.3-53…</text><text x="56.111999999999995" y="184.034" class="c">GPL-2</text><text x="62.123999999999995" y="184.034" class="c">…</text><text x="64.128" y="184.034" class="c">TRUE</text><text x="1.002" y="186.20499999999998" class="c">3</text><text x="3.006" y="186.20499999999998" class="c">Matrix</text><text x="10.02" y="186.20499999999998" class="c">stan…</text><text x="16.032" y="186.20499999999998" class="c">FALSE</text><text x="23.045999999999996" y="186.20499999999998" class="c">FALSE</text><text x="33.065999999999995" y="186.20499999999998" class="c">OK</text><text x="40.08" y="186.20499999999998" class="c">Matrix</text><text x="48.096" y="186.20499999999998" class="c">1.3-2</text><text x="56.111999999999995" y="186.20499999999998" class="c">GPL</text><text x="60.11999999999999" y="186.20499999999998" class="c">(&gt;…</text><text x="64.128" y="186.20499999999998" class="c">TRUE</text><text x="1.002" y="188.376" class="c">4</text><text x="3.006" y="188.376" class="c">Matrix</text><text x="10.02" y="188.376" class="c">stan…</text><text x="16.032" y="188.376" class="c">FALSE</text><text x="23.045999999999996" y="188.376" class="c">FALSE</text><text x="33.065999999999995" y="188.376" class="c">OK</text><text x="40.08" y="188.376" class="c">Matrix</text><text x="48.096" y="188.376" class="c">1.3-2</text><text x="56.111999999999995" y="188.376" class="c">GPL</text><text x="60.11999999999999" y="188.376" class="c">(&gt;…</text><text x="64.128" y="188.376" class="c">TRUE</text><text x="1.002" y="190.547" class="c">5</text><text x="3.006" y="190.547" class="c">R6</text><text x="10.02" y="190.547" class="c">stan…</text><text x="16.032" y="190.547" class="c">FALSE</text><text x="23.045999999999996" y="190.547" class="c">FALSE</text><text x="33.065999999999995" y="190.547" class="c">OK</text><text x="40.08" y="190.547" class="c">R6</text><text x="48.096" y="190.547" class="c">2.5.0</text><text x="56.111999999999995" y="190.547" class="c">MIT</text><text x="60.11999999999999" y="190.547" class="c">+</text><text x="62.123999999999995" y="190.547" class="c">…</text><text x="64.128" y="190.547" class="c">FALSE</text><text x="1.002" y="192.71799999999996" class="c">6</text><text x="3.006" y="192.71799999999996" class="c">RColo…</text><text x="10.02" y="192.71799999999996" class="c">stan…</text><text x="16.032" y="192.71799999999996" class="c">FALSE</text><text x="23.045999999999996" y="192.71799999999996" class="c">FALSE</text><text x="33.065999999999995" y="192.71799999999996" class="c">OK</text><text x="40.08" y="192.71799999999996" class="c">RColor…</text><text x="48.096" y="192.71799999999996" class="c">1.1-2</text><text x="56.111999999999995" y="192.71799999999996" class="c">Apache…</text><text x="64.128" y="192.71799999999996" class="c">FALSE</text><text x="1.002" y="194.88899999999998" class="c">7</text><text x="3.006" y="194.88899999999998" class="c">asser…</text><text x="10.02" y="194.88899999999998" class="c">stan…</text><text x="16.032" y="194.88899999999998" class="c">FALSE</text><text x="23.045999999999996" y="194.88899999999998" class="c">FALSE</text><text x="33.065999999999995" y="194.88899999999998" class="c">OK</text><text x="40.08" y="194.88899999999998" class="c">assert…</text><text x="48.096" y="194.88899999999998" class="c">0.2.1</text><text x="56.111999999999995" y="194.88899999999998" class="c">GPL-3</text><text x="64.128" y="194.88899999999998" class="c">FALSE</text><text x="1.002" y="197.05999999999997" class="c">8</text><text x="3.006" y="197.05999999999997" class="c">cli</text><text x="10.02" y="197.05999999999997" class="c">stan…</text><text x="16.032" y="197.05999999999997" class="c">FALSE</text><text x="23.045999999999996" y="197.05999999999997" class="c">FALSE</text><text x="33.065999999999995" y="197.05999999999997" class="c">OK</text><text x="40.08" y="197.05999999999997" class="c">cli</text><text x="48.096" y="197.05999999999997" class="c">2.3.1</text><text x="56.111999999999995" y="197.05999999999997" class="c">MIT</text><text x="60.11999999999999" y="197.05999999999997" class="c">+</text><text x="62.123999999999995" y="197.05999999999997" class="c">…</text><text x="64.128" y="197.05999999999997" class="c">FALSE</text><text x="1.002" y="199.231" class="c">9</text><text x="3.006" y="199.231" class="c">color…</text><text x="10.02" y="199.231" class="c">stan…</text><text x="16.032" y="199.231" class="c">FALSE</text><text x="23.045999999999996" y="199.231" class="c">FALSE</text><text x="33.065999999999995" y="199.231" class="c">OK</text><text x="40.08" y="199.231" class="c">colors…</text><text x="48.096" y="199.231" class="c">2.0-0</text><text x="56.111999999999995" y="199.231" class="c">BSD_3_…</text><text x="64.128" y="199.231" class="c">TRUE</text><text x="0" y="201.402" class="c">10</text><text x="3.006" y="201.402" class="c">crayon</text><text x="10.02" y="201.402" class="c">stan…</text><text x="16.032" y="201.402" class="c">FALSE</text><text x="23.045999999999996" y="201.402" class="c">FALSE</text><text x="33.065999999999995" y="201.402" class="c">OK</text><text x="40.08" y="201.402" class="c">crayon</text><text x="48.096" y="201.402" class="c">1.4.1</text><text x="56.111999999999995" y="201.402" class="c">MIT</text><text x="60.11999999999999" y="201.402" class="c">+</text><text x="62.123999999999995" y="201.402" class="c">…</text><text x="64.128" y="201.402" class="c">FALSE</text><text x="0" y="203.573" class="c">#</text><text x="2.004" y="203.573" class="c">…</text><text x="4.008" y="203.573" class="c">with</text><text x="9.017999999999999" y="203.573" class="c">64</text><text x="12.024" y="203.573" class="c">more</text><text x="17.034" y="203.573" class="c">rows,</text><text x="23.045999999999996" y="203.573" class="c">and</text><text x="27.054" y="203.573" class="c">25</text><text x="30.059999999999995" y="203.573" class="c">more</text><text x="35.06999999999999" y="203.573" class="c">variables:</text><text x="46.09199999999999" y="203.573" class="c">priority</text><text x="55.10999999999999" y="203.573" class="c">&lt;chr&gt;,</text><text x="62.123999999999995" y="203.573" class="c">md5sum</text><text x="69.13799999999999" y="203.573" class="c">&lt;chr&gt;,</text><text x="0" y="205.74399999999997" class="c">#</text><text x="4.008" y="205.74399999999997" class="c">sha256</text><text x="11.021999999999998" y="205.74399999999997" class="c">&lt;chr&gt;,</text><text x="18.035999999999998" y="205.74399999999997" class="c">filesize</text><text x="27.054" y="205.74399999999997" class="c">&lt;int&gt;,</text><text x="34.068" y="205.74399999999997" class="c">built</text><text x="40.08" y="205.74399999999997" class="c">&lt;chr&gt;,</text><text x="47.093999999999994" y="205.74399999999997" class="c">platform</text><text x="56.111999999999995" y="205.74399999999997" class="c">&lt;chr&gt;,</text><text x="63.12599999999999" y="205.74399999999997" class="c">rversion</text><text x="72.14399999999999" y="205.74399999999997" class="c">&lt;chr&gt;,</text><text x="0" y="207.915" class="c">#</text><text x="4.008" y="207.915" class="c">repotype</text><text x="13.026" y="207.915" class="c">&lt;chr&gt;,</text><text x="20.04" y="207.915" class="c">repodir</text><text x="28.055999999999997" y="207.915" class="c">&lt;chr&gt;,</text><text x="35.06999999999999" y="207.915" class="c">target</text><text x="42.083999999999996" y="207.915" class="c">&lt;chr&gt;,</text><text x="49.098" y="207.915" class="c">deps</text><text x="54.108" y="207.915" class="c">&lt;list&gt;,</text><text x="62.123999999999995" y="207.915" class="c">mirror</text><text x="69.13799999999999" y="207.915" class="c">&lt;chr&gt;,</text><text x="0" y="210.08599999999998" class="c">#</text><text x="4.008" y="210.08599999999998" class="c">sources</text><text x="12.024" y="210.08599999999998" class="c">&lt;list&gt;,</text><text x="20.04" y="210.08599999999998" class="c">remote</text><text x="27.054" y="210.08599999999998" class="c">&lt;list&gt;,</text><text x="35.06999999999999" y="210.08599999999998" class="c">error</text><text x="41.082" y="210.08599999999998" class="c">&lt;list&gt;,</text><text x="49.098" y="210.08599999999998" class="c">metadata</text><text x="58.116" y="210.08599999999998" class="c">&lt;list&gt;,</text><text x="66.13199999999999" y="210.08599999999998" class="c">extra</text><text x="72.14399999999999" y="210.08599999999998" class="c">&lt;list&gt;,</text><text x="0" y="212.25699999999998" class="c">#</text><text x="4.008" y="212.25699999999998" class="c">dep_types</text><text x="14.027999999999999" y="212.25699999999998" class="c">&lt;list&gt;,</text><text x="22.043999999999997" y="212.25699999999998" class="c">params</text><text x="29.058" y="212.25699999999998" class="c">&lt;list&gt;,</text><text x="37.074" y="212.25699999999998" class="c">cache_status</text><text x="50.1" y="212.25699999999998" class="c">&lt;chr&gt;,</text><text x="57.114" y="212.25699999999998" class="c">fulltarget</text><text x="68.136" y="212.25699999999998" class="c">&lt;chr&gt;,</text><text x="0" y="214.428" class="c">#</text><text x="4.008" y="214.428" class="c">fulltarget_tree</text><text x="20.04" y="214.428" class="c">&lt;chr&gt;,</text><text x="27.054" y="214.428" class="c">download_status</text><text x="43.086" y="214.428" class="c">&lt;chr&gt;,</text><text x="50.1" y="214.428" class="c">download_error</text><text x="65.13" y="214.428" class="c">&lt;list&gt;,</text><text x="0" y="216.59899999999996" class="c">#</text><text x="4.008" y="216.59899999999996" class="c">file_size</text><text x="14.027999999999999" y="216.59899999999996" class="c">&lt;dbl&gt;</text><text x="0" y="218.76999999999998" class="c">[1]</text><text x="4.008" y="218.76999999999998" class="c">&quot;src&quot;</text></svg></svg></g></svg></svg>