<svg xmlns="http://www.w3.org/2000/svg" xmlns:xlink="http://www.w3.org/1999/xlink" width="1040" height="365.65"><rect width="1040" height="365.65" rx="0" ry="0" class="a"></rect><svg height="325.65" viewBox="0 0 100 32.565" width="1000" x="20" xmlns="http://www.w3.org/2000/svg" xmlns:xlink="http://www.w3.org/1999/xlink" y="20"><style>.a{fill:rgb(40,45,53)}.b{font-family:'Fira Code',Monaco,Consolas,Menlo,'Bitstream Vera Sans Mono','Powerline Symbols',monospace}.c{fill:transparent}.d{fill:rgb(102,194,205);white-space:pre}.e{fill:rgb(185,192,203);white-space:pre}.f{fill:rgb(113,190,242);white-space:pre}.g{fill:rgb(168,204,140);white-space:pre}.h{fill:rgb(158,158,158);white-space:pre}.i{fill:rgb(148,148,148);white-space:pre}.j{fill:rgb(148,148,148);font-style:italic;white-space:pre}.k{fill:rgb(188,188,188);white-space:pre}</style><g font-family="&#x27;Fira Code&#x27;,Monaco,Consolas,Menlo,&#x27;Bitstream Vera Sans Mono&#x27;,&#x27;Powerline Symbols&#x27;,monospace" font-size="1.67" class="b"><defs><symbol id="a"><rect height="16" width="100" x="0" y="0" class="c"></rect></symbol></defs><rect height="32.565" width="100" class="a"></rect><svg x="0" y="0" width="100"><svg x="0"><use xlink:href="#a"></use><text x="0" y="1.67" class="d">ℹ</text><text x="2.004" y="1.67" class="e">No</text><text x="5.01" y="1.67" class="e">downloads</text><text x="15.029999999999998" y="1.67" class="e">are</text><text x="19.037999999999997" y="1.67" class="e">needed,</text><text x="27.054" y="1.67" class="e">1</text><text x="29.058" y="1.67" class="e">pkg</text><text x="33.065999999999995" y="1.67" class="e">(6.08</text><text x="39.077999999999996" y="1.67" class="e">kB)</text><text x="43.086" y="1.67" class="e">is</text><text x="46.09199999999999" y="1.67" class="e">cached</text><text x="0" y="3.8409999999999997" class="d">ℹ</text><text x="2.004" y="3.8409999999999997" class="e">Building</text><text x="11.021999999999998" y="3.8409999999999997" class="f">pkgconfig</text><text x="21.041999999999998" y="3.8409999999999997" class="e">2.0.3</text><text x="0" y="6.012" class="g">✔</text><text x="2.004" y="6.012" class="e">Built</text><text x="8.016" y="6.012" class="f">pkgconfig</text><text x="18.035999999999998" y="6.012" class="e">2.0.3</text><text x="24.048" y="6.012" class="h">(776ms)</text><text x="0" y="8.183" class="g">✔</text><text x="2.004" y="8.183" class="e">Installed</text><text x="12.024" y="8.183" class="f">pkgconfig</text><text x="22.043999999999997" y="8.183" class="e">2.0.3</text><text x="29.058" y="8.183" class="h">(18ms)</text><text x="0" y="10.354" class="g">✔</text><text x="2.004" y="10.354" class="e">Summary:</text><text x="13.026" y="10.354" class="e">1</text><text x="15.029999999999998" y="10.354" class="e">updated</text><text x="24.048" y="10.354" class="e">in</text><text x="27.054" y="10.354" class="e">794ms</text><text x="0" y="12.525" class="i">#</text><text x="2.004" y="12.525" class="i">A</text><text x="4.008" y="12.525" class="i">data</text><text x="9.017999999999999" y="12.525" class="i">frame:</text><text x="16.032" y="12.525" class="i">1</text><text x="18.035999999999998" y="12.525" class="i">×</text><text x="20.04" y="12.525" class="i">31</text><text x="2.004" y="14.696" class="e">library</text><text x="17.034" y="14.696" class="e">package</text><text x="25.05" y="14.696" class="e">title</text><text x="31.061999999999998" y="14.696" class="e">version</text><text x="39.077999999999996" y="14.696" class="e">license</text><text x="47.093999999999994" y="14.696" class="e">imports</text><text x="55.10999999999999" y="14.696" class="e">suggests</text><text x="64.128" y="14.696" class="e">needscompilation</text><text x="2.004" y="16.866999999999997" class="j">&lt;chr&gt;</text><text x="17.034" y="16.866999999999997" class="j">&lt;chr&gt;</text><text x="25.05" y="16.866999999999997" class="j">&lt;chr&gt;</text><text x="31.061999999999998" y="16.866999999999997" class="j">&lt;chr&gt;</text><text x="39.077999999999996" y="16.866999999999997" class="j">&lt;chr&gt;</text><text x="47.093999999999994" y="16.866999999999997" class="j">&lt;chr&gt;</text><text x="55.10999999999999" y="16.866999999999997" class="j">&lt;chr&gt;</text><text x="64.128" y="16.866999999999997" class="j">&lt;lgl&gt;</text><text x="0" y="19.037999999999997" class="k">1</text><text x="2.004" y="19.037999999999997" class="e">/tmp/RtmprebB…</text><text x="17.034" y="19.037999999999997" class="e">pkgcon…</text><text x="25.05" y="19.037999999999997" class="e">Priv…</text><text x="31.061999999999998" y="19.037999999999997" class="e">2.0.3</text><text x="39.077999999999996" y="19.037999999999997" class="e">MIT</text><text x="43.086" y="19.037999999999997" class="e">+</text><text x="45.089999999999996" y="19.037999999999997" class="e">…</text><text x="47.093999999999994" y="19.037999999999997" class="e">utils</text><text x="55.10999999999999" y="19.037999999999997" class="e">covr,</text><text x="61.12199999999999" y="19.037999999999997" class="e">t…</text><text x="64.128" y="19.037999999999997" class="e">FALSE</text><text x="0" y="21.209000000000003" class="i">#</text><text x="2.004" y="21.209000000000003" class="i">…</text><text x="4.008" y="21.209000000000003" class="i">with</text><text x="9.017999999999999" y="21.209000000000003" class="i">23</text><text x="12.024" y="21.209000000000003" class="i">more</text><text x="17.034" y="21.209000000000003" class="i">variables:</text><text x="28.055999999999997" y="21.209000000000003" class="i">repository</text><text x="39.077999999999996" y="21.209000000000003" class="i">&lt;chr&gt;,</text><text x="46.09199999999999" y="21.209000000000003" class="i">built</text><text x="52.104" y="21.209000000000003" class="i">&lt;chr&gt;,</text><text x="59.117999999999995" y="21.209000000000003" class="i">remotetype</text><text x="70.13999999999999" y="21.209000000000003" class="i">&lt;chr&gt;,</text><text x="0" y="23.380000000000003" class="i">#</text><text x="4.008" y="23.380000000000003" class="i">remotepkgref</text><text x="17.034" y="23.380000000000003" class="i">&lt;chr&gt;,</text><text x="24.048" y="23.380000000000003" class="i">remoteref</text><text x="34.068" y="23.380000000000003" class="i">&lt;chr&gt;,</text><text x="41.082" y="23.380000000000003" class="i">remoterepos</text><text x="53.105999999999995" y="23.380000000000003" class="i">&lt;chr&gt;,</text><text x="0" y="25.550999999999995" class="i">#</text><text x="4.008" y="25.550999999999995" class="i">remotepkgplatform</text><text x="22.043999999999997" y="25.550999999999995" class="i">&lt;chr&gt;,</text><text x="29.058" y="25.550999999999995" class="i">remotesha</text><text x="39.077999999999996" y="25.550999999999995" class="i">&lt;chr&gt;,</text><text x="46.09199999999999" y="25.550999999999995" class="i">depends</text><text x="54.108" y="25.550999999999995" class="i">&lt;chr&gt;,</text><text x="61.12199999999999" y="25.550999999999995" class="i">linkingto</text><text x="71.142" y="25.550999999999995" class="i">&lt;chr&gt;,</text><text x="0" y="27.722" class="i">#</text><text x="4.008" y="27.722" class="i">enhances</text><text x="13.026" y="27.722" class="i">&lt;chr&gt;,</text><text x="20.04" y="27.722" class="i">md5sum</text><text x="27.054" y="27.722" class="i">&lt;chr&gt;,</text><text x="34.068" y="27.722" class="i">platform</text><text x="43.086" y="27.722" class="i">&lt;chr&gt;,</text><text x="50.1" y="27.722" class="i">priority</text><text x="59.117999999999995" y="27.722" class="i">&lt;chr&gt;,</text><text x="0" y="29.893" class="i">#</text><text x="4.008" y="29.893" class="i">biocviews</text><text x="14.027999999999999" y="29.893" class="i">&lt;chr&gt;,</text><text x="21.041999999999998" y="29.893" class="i">sysreqs</text><text x="29.058" y="29.893" class="i">&lt;chr&gt;,</text><text x="36.071999999999996" y="29.893" class="i">ref</text><text x="40.08" y="29.893" class="i">&lt;chr&gt;,</text><text x="47.093999999999994" y="29.893" class="i">type</text><text x="52.104" y="29.893" class="i">&lt;chr&gt;,</text><text x="59.117999999999995" y="29.893" class="i">status</text><text x="66.13199999999999" y="29.893" class="i">&lt;chr&gt;,</text><text x="0" y="32.064" class="i">#</text><text x="4.008" y="32.064" class="i">rversion</text><text x="13.026" y="32.064" class="i">&lt;chr&gt;,</text><text x="20.04" y="32.064" class="i">sources</text><text x="28.055999999999997" y="32.064" class="i">&lt;list&gt;,</text><text x="36.071999999999996" y="32.064" class="i">repotype</text><text x="45.089999999999996" y="32.064" class="i">&lt;chr&gt;,</text><text x="52.104" y="32.064" class="i">deps</text><text x="57.114" y="32.064" class="i">&lt;list&gt;</text></svg></svg></g></svg></svg>