<svg xmlns="http://www.w3.org/2000/svg" xmlns:xlink="http://www.w3.org/1999/xlink" width="1040" height="495.91"><rect width="1040" height="495.91" rx="0" ry="0" class="a"></rect><svg height="455.91" viewBox="0 0 100 45.591" width="1000" x="20" xmlns="http://www.w3.org/2000/svg" xmlns:xlink="http://www.w3.org/1999/xlink" y="20"><style>.a{fill:rgb(40,45,53)}.b{font-family:'Fira Code',Monaco,Consolas,Menlo,'Bitstream Vera Sans Mono','Powerline Symbols',monospace}.c{fill:transparent}.d{fill:rgb(168,204,140);white-space:pre}.e{fill:rgb(185,192,203);white-space:pre}.f{fill:rgb(219,171,121);white-space:pre}.g{fill:rgb(185,191,202)}.h{white-space:pre}.i{fill:rgb(111,119,131);white-space:pre}.j{fill:rgb(111,119,131);font-style:italic;white-space:pre}</style><g font-family="&#x27;Fira Code&#x27;,Monaco,Consolas,Menlo,&#x27;Bitstream Vera Sans Mono&#x27;,&#x27;Powerline Symbols&#x27;,monospace" font-size="1.67" class="b"><defs><symbol id="a"><rect height="22" width="100" x="0" y="0" class="c"></rect></symbol></defs><rect height="45.591" width="100" class="a"></rect><svg x="0" y="0" width="100"><svg x="0"><use xlink:href="#a"></use><text x="0" y="1.67" class="d">✔</text><text x="2.004" y="1.67" class="e">Updated</text><text x="10.02" y="1.67" class="e">metadata:</text><text x="20.04" y="1.67" class="e">0</text><text x="22.043999999999997" y="1.67" class="e">B</text><text x="24.048" y="1.67" class="e">in</text><text x="27.054" y="1.67" class="e">2</text><text x="29.058" y="1.67" class="e">files.</text><text x="0" y="3.8409999999999997" class="f">!</text><text x="2.004" y="3.8409999999999997" class="e">Using</text><text x="8.016" y="3.8409999999999997" class="e">bundled</text><text x="16.032" y="3.8409999999999997" class="e">GitHub</text><text x="23.045999999999996" y="3.8409999999999997" class="e">PAT.</text><text x="28.055999999999997" y="3.8409999999999997" class="e">Please</text><text x="35.06999999999999" y="3.8409999999999997" class="e">add</text><text x="39.077999999999996" y="3.8409999999999997" class="e">your</text><text x="44.087999999999994" y="3.8409999999999997" class="e">own</text><text x="48.096" y="3.8409999999999997" class="e">PAT</text><text x="52.104" y="3.8409999999999997" class="e">to</text><text x="55.10999999999999" y="3.8409999999999997" class="e">the</text><text x="59.117999999999995" y="3.8409999999999997" class="e">env</text><text x="63.12599999999999" y="3.8409999999999997" class="e">var</text><rect height="2.171" width="12" x="67.134" y="2.171" class="g"></rect><text x="67.134" y="3.8409999999999997" class="h">`GITHUB_PAT`</text><text x="0" y="6.012" class="i">#</text><text x="2.004" y="6.012" class="i">A</text><text x="4.008" y="6.012" class="i">tibble:</text><text x="12.024" y="6.012" class="i">32</text><text x="15.029999999999998" y="6.012" class="i">x</text><text x="17.034" y="6.012" class="i">30</text><text x="3.006" y="8.183" class="e">ref</text><text x="9.017999999999999" y="8.183" class="e">type</text><text x="15.029999999999998" y="8.183" class="e">direct</text><text x="22.043999999999997" y="8.183" class="e">directpkg</text><text x="32.064" y="8.183" class="e">status</text><text x="39.077999999999996" y="8.183" class="e">package</text><text x="47.093999999999994" y="8.183" class="e">version</text><text x="55.10999999999999" y="8.183" class="e">license</text><text x="63.12599999999999" y="8.183" class="e">needscompilation</text><text x="3.006" y="10.354" class="j">&lt;chr&gt;</text><text x="9.017999999999999" y="10.354" class="j">&lt;chr&gt;</text><text x="15.029999999999998" y="10.354" class="j">&lt;lgl&gt;</text><text x="22.043999999999997" y="10.354" class="j">&lt;lgl&gt;</text><text x="32.064" y="10.354" class="j">&lt;chr&gt;</text><text x="39.077999999999996" y="10.354" class="j">&lt;chr&gt;</text><text x="47.093999999999994" y="10.354" class="j">&lt;chr&gt;</text><text x="55.10999999999999" y="10.354" class="j">&lt;chr&gt;</text><text x="63.12599999999999" y="10.354" class="j">&lt;lgl&gt;</text><text x="1.002" y="12.525" class="i">1</text><text x="3.006" y="12.525" class="e">tidy…</text><text x="9.017999999999999" y="12.525" class="e">gith…</text><text x="15.029999999999998" y="12.525" class="e">TRUE</text><text x="22.043999999999997" y="12.525" class="e">TRUE</text><text x="32.064" y="12.525" class="e">OK</text><text x="39.077999999999996" y="12.525" class="e">ggplot2</text><text x="47.093999999999994" y="12.525" class="e">3.3.2.…</text><text x="55.10999999999999" y="12.525" class="e">GPL-2</text><text x="61.12199999999999" y="12.525" class="e">…</text><text x="63.12599999999999" y="12.525" class="e">TRUE</text><text x="1.002" y="14.696" class="i">2</text><text x="3.006" y="14.696" class="e">MASS</text><text x="9.017999999999999" y="14.696" class="e">stan…</text><text x="15.029999999999998" y="14.696" class="e">FALSE</text><text x="22.043999999999997" y="14.696" class="e">FALSE</text><text x="32.064" y="14.696" class="e">OK</text><text x="39.077999999999996" y="14.696" class="e">MASS</text><text x="47.093999999999994" y="14.696" class="e">7.3-53</text><text x="55.10999999999999" y="14.696" class="e">GPL-2</text><text x="61.12199999999999" y="14.696" class="e">…</text><text x="63.12599999999999" y="14.696" class="e">FALSE</text><text x="1.002" y="16.866999999999997" class="i">3</text><text x="3.006" y="16.866999999999997" class="e">Matr…</text><text x="9.017999999999999" y="16.866999999999997" class="e">stan…</text><text x="15.029999999999998" y="16.866999999999997" class="e">FALSE</text><text x="22.043999999999997" y="16.866999999999997" class="e">FALSE</text><text x="32.064" y="16.866999999999997" class="e">OK</text><text x="39.077999999999996" y="16.866999999999997" class="e">Matrix</text><text x="47.093999999999994" y="16.866999999999997" class="e">1.2-18</text><text x="55.10999999999999" y="16.866999999999997" class="e">GPL</text><text x="59.117999999999995" y="16.866999999999997" class="e">(&gt;…</text><text x="63.12599999999999" y="16.866999999999997" class="e">FALSE</text><text x="1.002" y="19.037999999999997" class="i">4</text><text x="3.006" y="19.037999999999997" class="e">R6</text><text x="9.017999999999999" y="19.037999999999997" class="e">stan…</text><text x="15.029999999999998" y="19.037999999999997" class="e">FALSE</text><text x="22.043999999999997" y="19.037999999999997" class="e">FALSE</text><text x="32.064" y="19.037999999999997" class="e">OK</text><text x="39.077999999999996" y="19.037999999999997" class="e">R6</text><text x="47.093999999999994" y="19.037999999999997" class="e">2.4.1</text><text x="55.10999999999999" y="19.037999999999997" class="e">MIT</text><text x="59.117999999999995" y="19.037999999999997" class="e">+</text><text x="61.12199999999999" y="19.037999999999997" class="e">…</text><text x="63.12599999999999" y="19.037999999999997" class="e">FALSE</text><text x="1.002" y="21.209000000000003" class="i">5</text><text x="3.006" y="21.209000000000003" class="e">RCol…</text><text x="9.017999999999999" y="21.209000000000003" class="e">stan…</text><text x="15.029999999999998" y="21.209000000000003" class="e">FALSE</text><text x="22.043999999999997" y="21.209000000000003" class="e">FALSE</text><text x="32.064" y="21.209000000000003" class="e">OK</text><text x="39.077999999999996" y="21.209000000000003" class="e">RColor…</text><text x="47.093999999999994" y="21.209000000000003" class="e">1.1-2</text><text x="55.10999999999999" y="21.209000000000003" class="e">Apache…</text><text x="63.12599999999999" y="21.209000000000003" class="e">FALSE</text><text x="1.002" y="23.380000000000003" class="i">6</text><text x="3.006" y="23.380000000000003" class="e">asse…</text><text x="9.017999999999999" y="23.380000000000003" class="e">stan…</text><text x="15.029999999999998" y="23.380000000000003" class="e">FALSE</text><text x="22.043999999999997" y="23.380000000000003" class="e">FALSE</text><text x="32.064" y="23.380000000000003" class="e">OK</text><text x="39.077999999999996" y="23.380000000000003" class="e">assert…</text><text x="47.093999999999994" y="23.380000000000003" class="e">0.2.1</text><text x="55.10999999999999" y="23.380000000000003" class="e">GPL-3</text><text x="63.12599999999999" y="23.380000000000003" class="e">FALSE</text><text x="1.002" y="25.550999999999995" class="i">7</text><text x="3.006" y="25.550999999999995" class="e">cli</text><text x="9.017999999999999" y="25.550999999999995" class="e">stan…</text><text x="15.029999999999998" y="25.550999999999995" class="e">FALSE</text><text x="22.043999999999997" y="25.550999999999995" class="e">FALSE</text><text x="32.064" y="25.550999999999995" class="e">OK</text><text x="39.077999999999996" y="25.550999999999995" class="e">cli</text><text x="47.093999999999994" y="25.550999999999995" class="e">2.1.0</text><text x="55.10999999999999" y="25.550999999999995" class="e">MIT</text><text x="59.117999999999995" y="25.550999999999995" class="e">+</text><text x="61.12199999999999" y="25.550999999999995" class="e">…</text><text x="63.12599999999999" y="25.550999999999995" class="e">FALSE</text><text x="1.002" y="27.722" class="i">8</text><text x="3.006" y="27.722" class="e">colo…</text><text x="9.017999999999999" y="27.722" class="e">stan…</text><text x="15.029999999999998" y="27.722" class="e">FALSE</text><text x="22.043999999999997" y="27.722" class="e">FALSE</text><text x="32.064" y="27.722" class="e">OK</text><text x="39.077999999999996" y="27.722" class="e">colors…</text><text x="47.093999999999994" y="27.722" class="e">1.4-1</text><text x="55.10999999999999" y="27.722" class="e">BSD_3_…</text><text x="63.12599999999999" y="27.722" class="e">FALSE</text><text x="1.002" y="29.893" class="i">9</text><text x="3.006" y="29.893" class="e">cray…</text><text x="9.017999999999999" y="29.893" class="e">stan…</text><text x="15.029999999999998" y="29.893" class="e">FALSE</text><text x="22.043999999999997" y="29.893" class="e">FALSE</text><text x="32.064" y="29.893" class="e">OK</text><text x="39.077999999999996" y="29.893" class="e">crayon</text><text x="47.093999999999994" y="29.893" class="e">1.3.4</text><text x="55.10999999999999" y="29.893" class="e">MIT</text><text x="59.117999999999995" y="29.893" class="e">+</text><text x="61.12199999999999" y="29.893" class="e">…</text><text x="63.12599999999999" y="29.893" class="e">FALSE</text><text x="0" y="32.064" class="i">10</text><text x="3.006" y="32.064" class="e">dige…</text><text x="9.017999999999999" y="32.064" class="e">stan…</text><text x="15.029999999999998" y="32.064" class="e">FALSE</text><text x="22.043999999999997" y="32.064" class="e">FALSE</text><text x="32.064" y="32.064" class="e">OK</text><text x="39.077999999999996" y="32.064" class="e">digest</text><text x="47.093999999999994" y="32.064" class="e">0.6.26</text><text x="55.10999999999999" y="32.064" class="e">GPL</text><text x="59.117999999999995" y="32.064" class="e">(&gt;…</text><text x="63.12599999999999" y="32.064" class="e">FALSE</text><text x="0" y="34.235" class="i">#</text><text x="2.004" y="34.235" class="i">…</text><text x="4.008" y="34.235" class="i">with</text><text x="9.017999999999999" y="34.235" class="i">22</text><text x="12.024" y="34.235" class="i">more</text><text x="17.034" y="34.235" class="i">rows,</text><text x="23.045999999999996" y="34.235" class="i">and</text><text x="27.054" y="34.235" class="i">21</text><text x="30.059999999999995" y="34.235" class="i">more</text><text x="35.06999999999999" y="34.235" class="i">variables:</text><text x="46.09199999999999" y="34.235" class="i">priority</text><text x="55.10999999999999" y="34.235" class="j">&lt;chr&gt;</text><text x="60.11999999999999" y="34.235" class="i">,</text><text x="62.123999999999995" y="34.235" class="i">md5sum</text><text x="69.13799999999999" y="34.235" class="j">&lt;chr&gt;</text><text x="74.148" y="34.235" class="i">,</text><text x="0" y="36.406" class="i">#</text><text x="4.008" y="36.406" class="i">sha256</text><text x="11.021999999999998" y="36.406" class="j">&lt;chr&gt;</text><text x="16.032" y="36.406" class="i">,</text><text x="18.035999999999998" y="36.406" class="i">filesize</text><text x="27.054" y="36.406" class="j">&lt;int&gt;</text><text x="32.064" y="36.406" class="i">,</text><text x="34.068" y="36.406" class="i">built</text><text x="40.08" y="36.406" class="j">&lt;chr&gt;</text><text x="45.089999999999996" y="36.406" class="i">,</text><text x="47.093999999999994" y="36.406" class="i">platform</text><text x="56.111999999999995" y="36.406" class="j">&lt;chr&gt;</text><text x="61.12199999999999" y="36.406" class="i">,</text><text x="63.12599999999999" y="36.406" class="i">rversion</text><text x="72.14399999999999" y="36.406" class="j">&lt;chr&gt;</text><text x="77.154" y="36.406" class="i">,</text><text x="0" y="38.577000000000005" class="i">#</text><text x="4.008" y="38.577000000000005" class="i">repodir</text><text x="12.024" y="38.577000000000005" class="j">&lt;chr&gt;</text><text x="17.034" y="38.577000000000005" class="i">,</text><text x="19.037999999999997" y="38.577000000000005" class="i">target</text><text x="26.052" y="38.577000000000005" class="j">&lt;glue&gt;</text><text x="32.064" y="38.577000000000005" class="i">,</text><text x="34.068" y="38.577000000000005" class="i">deps</text><text x="39.077999999999996" y="38.577000000000005" class="j">&lt;list&gt;</text><text x="45.089999999999996" y="38.577000000000005" class="i">,</text><text x="47.093999999999994" y="38.577000000000005" class="i">mirror</text><text x="54.108" y="38.577000000000005" class="j">&lt;chr&gt;</text><text x="59.117999999999995" y="38.577000000000005" class="i">,</text><text x="61.12199999999999" y="38.577000000000005" class="i">sources</text><text x="69.13799999999999" y="38.577000000000005" class="j">&lt;list&gt;</text><text x="75.14999999999999" y="38.577000000000005" class="i">,</text><text x="0" y="40.748000000000005" class="i">#</text><text x="4.008" y="40.748000000000005" class="i">remote</text><text x="11.021999999999998" y="40.748000000000005" class="j">&lt;list&gt;</text><text x="17.034" y="40.748000000000005" class="i">,</text><text x="19.037999999999997" y="40.748000000000005" class="i">error</text><text x="25.05" y="40.748000000000005" class="j">&lt;list&gt;</text><text x="31.061999999999998" y="40.748000000000005" class="i">,</text><text x="33.065999999999995" y="40.748000000000005" class="i">metadata</text><text x="42.083999999999996" y="40.748000000000005" class="j">&lt;list&gt;</text><text x="48.096" y="40.748000000000005" class="i">,</text><text x="50.1" y="40.748000000000005" class="i">extra</text><text x="56.111999999999995" y="40.748000000000005" class="j">&lt;list&gt;</text><text x="62.123999999999995" y="40.748000000000005" class="i">,</text><text x="0" y="42.919" class="i">#</text><text x="4.008" y="42.919" class="i">dep_types</text><text x="14.027999999999999" y="42.919" class="j">&lt;list&gt;</text><text x="20.04" y="42.919" class="i">,</text><text x="22.043999999999997" y="42.919" class="i">cache_status</text><text x="35.06999999999999" y="42.919" class="j">&lt;chr&gt;</text><text x="40.08" y="42.919" class="i">,</text><text x="42.083999999999996" y="42.919" class="i">lib_status</text><text x="53.105999999999995" y="42.919" class="j">&lt;chr&gt;</text><text x="58.116" y="42.919" class="i">,</text><text x="60.11999999999999" y="42.919" class="i">old_version</text><text x="72.14399999999999" y="42.919" class="j">&lt;chr&gt;</text><text x="77.154" y="42.919" class="i">,</text><text x="0" y="45.09" class="i">#</text><text x="4.008" y="45.09" class="i">new_version</text><text x="16.032" y="45.09" class="j">&lt;chr&gt;</text></svg></svg></g></svg></svg>