<svg xmlns="http://www.w3.org/2000/svg" xmlns:xlink="http://www.w3.org/1999/xlink" width="1040" height="257.1"><rect width="1040" height="257.1" rx="0" ry="0" class="a"></rect><svg height="217.10000000000002" viewBox="0 0 100 21.71" width="1000" x="20" xmlns="http://www.w3.org/2000/svg" xmlns:xlink="http://www.w3.org/1999/xlink" y="20"><style>.a{fill:rgb(40,45,53)}.b{font-family:'Fira Code',Monaco,Consolas,Menlo,'Bitstream Vera Sans Mono','Powerline Symbols',monospace}.c{fill:transparent}.d{fill:rgb(185,192,203);white-space:pre}</style><g font-family="&#x27;Fira Code&#x27;,Monaco,Consolas,Menlo,&#x27;Bitstream Vera Sans Mono&#x27;,&#x27;Powerline Symbols&#x27;,monospace" font-size="1.67" class="b"><defs><symbol id="a"><rect height="11" width="100" x="0" y="0" class="c"></rect></symbol></defs><rect height="21.71" width="100" class="a"></rect><svg x="0" y="0" width="100"><svg x="0"><use xlink:href="#a"></use><text x="0" y="1.67" class="d">ℹ</text><text x="2.004" y="1.67" class="d">No</text><text x="5.01" y="1.67" class="d">downloads</text><text x="15.029999999999998" y="1.67" class="d">are</text><text x="19.037999999999997" y="1.67" class="d">needed</text><text x="0" y="3.8409999999999997" class="d">Error</text><text x="6.012" y="3.8409999999999997" class="d">in</text><text x="9.017999999999999" y="3.8409999999999997" class="d">data.frame(stringsAsFactors</text><text x="37.074" y="3.8409999999999997" class="d">=</text><text x="39.077999999999996" y="3.8409999999999997" class="d">FALSE,</text><text x="46.09199999999999" y="3.8409999999999997" class="d">row.names</text><text x="56.111999999999995" y="3.8409999999999997" class="d">=</text><text x="58.116" y="3.8409999999999997" class="d">NULL,</text><text x="64.128" y="3.8409999999999997" class="d">package_done</text><text x="77.154" y="3.8409999999999997" class="d">=</text><text x="79.158" y="3.8409999999999997" class="d">plan$packaged,</text><text x="95.19" y="3.8409999999999997" class="d">:</text><text x="2.004" y="6.012" class="d">arguments</text><text x="12.024" y="6.012" class="d">imply</text><text x="18.035999999999998" y="6.012" class="d">differing</text><text x="28.055999999999997" y="6.012" class="d">number</text><text x="35.06999999999999" y="6.012" class="d">of</text><text x="38.07599999999999" y="6.012" class="d">rows:</text><text x="44.087999999999994" y="6.012" class="d">0,</text><text x="47.093999999999994" y="6.012" class="d">1</text><text x="0" y="8.183" class="d">#</text><text x="2.004" y="8.183" class="d">A</text><text x="4.008" y="8.183" class="d">tibble:</text><text x="12.024" y="8.183" class="d">0</text><text x="14.027999999999999" y="8.183" class="d">x</text><text x="16.032" y="8.183" class="d">24</text><text x="0" y="10.354" class="d">#</text><text x="2.004" y="10.354" class="d">…</text><text x="4.008" y="10.354" class="d">with</text><text x="9.017999999999999" y="10.354" class="d">24</text><text x="12.024" y="10.354" class="d">variables:</text><text x="23.045999999999996" y="10.354" class="d">library</text><text x="31.061999999999998" y="10.354" class="d">&lt;chr&gt;,</text><text x="38.07599999999999" y="10.354" class="d">package</text><text x="46.09199999999999" y="10.354" class="d">&lt;chr&gt;,</text><text x="53.105999999999995" y="10.354" class="d">title</text><text x="59.117999999999995" y="10.354" class="d">&lt;chr&gt;,</text><text x="0" y="12.525" class="d">#</text><text x="4.008" y="12.525" class="d">version</text><text x="12.024" y="12.525" class="d">&lt;chr&gt;,</text><text x="19.037999999999997" y="12.525" class="d">depends</text><text x="27.054" y="12.525" class="d">&lt;chr&gt;,</text><text x="34.068" y="12.525" class="d">suggests</text><text x="43.086" y="12.525" class="d">&lt;chr&gt;,</text><text x="50.1" y="12.525" class="d">imports</text><text x="58.116" y="12.525" class="d">&lt;chr&gt;,</text><text x="0" y="14.696" class="d">#</text><text x="4.008" y="14.696" class="d">linkingto</text><text x="14.027999999999999" y="14.696" class="d">&lt;chr&gt;,</text><text x="21.041999999999998" y="14.696" class="d">enhances</text><text x="30.059999999999995" y="14.696" class="d">&lt;chr&gt;,</text><text x="37.074" y="14.696" class="d">built</text><text x="43.086" y="14.696" class="d">&lt;chr&gt;,</text><text x="50.1" y="14.696" class="d">md5sum</text><text x="57.114" y="14.696" class="d">&lt;chr&gt;,</text><text x="0" y="16.866999999999997" class="d">#</text><text x="4.008" y="16.866999999999997" class="d">needscompilation</text><text x="21.041999999999998" y="16.866999999999997" class="d">&lt;lgl&gt;,</text><text x="28.055999999999997" y="16.866999999999997" class="d">platform</text><text x="37.074" y="16.866999999999997" class="d">&lt;chr&gt;,</text><text x="44.087999999999994" y="16.866999999999997" class="d">license</text><text x="52.104" y="16.866999999999997" class="d">&lt;chr&gt;,</text><text x="59.117999999999995" y="16.866999999999997" class="d">priority</text><text x="68.136" y="16.866999999999997" class="d">&lt;chr&gt;,</text><text x="0" y="19.037999999999997" class="d">#</text><text x="4.008" y="19.037999999999997" class="d">repository</text><text x="15.029999999999998" y="19.037999999999997" class="d">&lt;chr&gt;,</text><text x="22.043999999999997" y="19.037999999999997" class="d">biocviews</text><text x="32.064" y="19.037999999999997" class="d">&lt;chr&gt;,</text><text x="39.077999999999996" y="19.037999999999997" class="d">ref</text><text x="43.086" y="19.037999999999997" class="d">&lt;chr&gt;,</text><text x="50.1" y="19.037999999999997" class="d">type</text><text x="55.10999999999999" y="19.037999999999997" class="d">&lt;chr&gt;,</text><text x="62.123999999999995" y="19.037999999999997" class="d">status</text><text x="69.13799999999999" y="19.037999999999997" class="d">&lt;chr&gt;,</text><text x="0" y="21.209000000000003" class="d">#</text><text x="4.008" y="21.209000000000003" class="d">rversion</text><text x="13.026" y="21.209000000000003" class="d">&lt;chr&gt;,</text><text x="20.04" y="21.209000000000003" class="d">sources</text><text x="28.055999999999997" y="21.209000000000003" class="d">&lt;list&gt;,</text><text x="36.071999999999996" y="21.209000000000003" class="d">repotype</text><text x="45.089999999999996" y="21.209000000000003" class="d">&lt;lgl&gt;,</text><text x="52.104" y="21.209000000000003" class="d">deps</text><text x="57.114" y="21.209000000000003" class="d">&lt;list&gt;</text></svg></svg></g></svg></svg>