<svg xmlns="http://www.w3.org/2000/svg" xmlns:xlink="http://www.w3.org/1999/xlink" width="1040" height="409.07000000000005"><rect width="1040" height="409.07000000000005" rx="0" ry="0" class="a"></rect><svg height="369.07000000000005" viewBox="0 0 100 36.907000000000004" width="1000" x="20" xmlns="http://www.w3.org/2000/svg" xmlns:xlink="http://www.w3.org/1999/xlink" y="20"><style>.a{fill:rgb(40,45,53)}.b{font-family:'Fira Code',Monaco,Consolas,Menlo,'Bitstream Vera Sans Mono','Powerline Symbols',monospace}.c{fill:transparent}.d{fill:rgb(185,192,203);white-space:pre}</style><g font-family="&#x27;Fira Code&#x27;,Monaco,Consolas,Menlo,&#x27;Bitstream Vera Sans Mono&#x27;,&#x27;Powerline Symbols&#x27;,monospace" font-size="1.67" class="b"><defs><symbol id="a"><rect height="18" width="100" x="0" y="0" class="c"></rect></symbol></defs><rect height="36.907000000000004" width="100" class="a"></rect><svg x="0" y="0" width="100"><svg x="0"><use xlink:href="#a"></use><text x="0" y="1.67" class="d">✖</text><text x="2.004" y="1.67" class="d">Failed</text><text x="9.017999999999999" y="1.67" class="d">to</text><text x="12.024" y="1.67" class="d">download</text><text x="21.041999999999998" y="1.67" class="d">pkgconfig</text><text x="31.061999999999998" y="1.67" class="d">2.0.3</text><text x="37.074" y="1.67" class="d">(macos)</text><text x="0" y="3.8409999999999997" class="d">✖</text><text x="2.004" y="3.8409999999999997" class="d">Failed</text><text x="9.017999999999999" y="3.8409999999999997" class="d">to</text><text x="12.024" y="3.8409999999999997" class="d">download</text><text x="21.041999999999998" y="3.8409999999999997" class="d">1</text><text x="23.045999999999996" y="3.8409999999999997" class="d">package.</text><text x="0" y="6.012" class="d">Error</text><text x="6.012" y="6.012" class="d">in</text><text x="9.017999999999999" y="6.012" class="d">file(con,</text><text x="19.037999999999997" y="6.012" class="d">&quot;rb&quot;)</text><text x="25.05" y="6.012" class="d">:</text><text x="27.054" y="6.012" class="d">cannot</text><text x="34.068" y="6.012" class="d">open</text><text x="39.077999999999996" y="6.012" class="d">the</text><text x="43.086" y="6.012" class="d">connection</text><text x="0" y="8.183" class="d">In</text><text x="3.006" y="8.183" class="d">addition:</text><text x="13.026" y="8.183" class="d">Warning</text><text x="21.041999999999998" y="8.183" class="d">message:</text><text x="0" y="10.354" class="d">In</text><text x="3.006" y="10.354" class="d">file(con,</text><text x="13.026" y="10.354" class="d">&quot;rb&quot;)</text><text x="19.037999999999997" y="10.354" class="d">:</text><text x="2.004" y="12.525" class="d">cannot</text><text x="9.017999999999999" y="12.525" class="d">open</text><text x="14.027999999999999" y="12.525" class="d">file</text><text x="19.037999999999997" y="12.525" class="d">&#x27;/var/folders/24/8k48jl6d249_n_qfxwsl6xvm0000gn/T//Rtmp8vGMf0/filea5d75995866/bin</text><text x="0" y="14.696" class="d">/macosx/contrib/4.0/pkgconfig_2.0.3.tgz&#x27;:</text><text x="42.083999999999996" y="14.696" class="d">No</text><text x="45.089999999999996" y="14.696" class="d">such</text><text x="50.1" y="14.696" class="d">file</text><text x="55.10999999999999" y="14.696" class="d">or</text><text x="58.116" y="14.696" class="d">directory</text><text x="0" y="16.866999999999997" class="d">#</text><text x="2.004" y="16.866999999999997" class="d">A</text><text x="4.008" y="16.866999999999997" class="d">tibble:</text><text x="12.024" y="16.866999999999997" class="d">1</text><text x="14.027999999999999" y="16.866999999999997" class="d">x</text><text x="16.032" y="16.866999999999997" class="d">31</text><text x="2.004" y="19.037999999999997" class="d">library</text><text x="10.02" y="19.037999999999997" class="d">package</text><text x="18.035999999999998" y="19.037999999999997" class="d">title</text><text x="24.048" y="19.037999999999997" class="d">version</text><text x="32.064" y="19.037999999999997" class="d">depends</text><text x="40.08" y="19.037999999999997" class="d">suggests</text><text x="49.098" y="19.037999999999997" class="d">imports</text><text x="57.114" y="19.037999999999997" class="d">linkingto</text><text x="67.134" y="19.037999999999997" class="d">enhances</text><text x="2.004" y="21.209000000000003" class="d">&lt;chr&gt;</text><text x="10.02" y="21.209000000000003" class="d">&lt;chr&gt;</text><text x="18.035999999999998" y="21.209000000000003" class="d">&lt;chr&gt;</text><text x="24.048" y="21.209000000000003" class="d">&lt;chr&gt;</text><text x="32.064" y="21.209000000000003" class="d">&lt;chr&gt;</text><text x="40.08" y="21.209000000000003" class="d">&lt;chr&gt;</text><text x="49.098" y="21.209000000000003" class="d">&lt;chr&gt;</text><text x="57.114" y="21.209000000000003" class="d">&lt;chr&gt;</text><text x="67.134" y="21.209000000000003" class="d">&lt;chr&gt;</text><text x="0" y="23.380000000000003" class="d">1</text><text x="2.004" y="23.380000000000003" class="d">/var/f…</text><text x="10.02" y="23.380000000000003" class="d">pkgcon…</text><text x="18.035999999999998" y="23.380000000000003" class="d">Priv…</text><text x="24.048" y="23.380000000000003" class="d">2.0.2</text><text x="32.064" y="23.380000000000003" class="d">&lt;NA&gt;</text><text x="40.08" y="23.380000000000003" class="d">covr,</text><text x="46.09199999999999" y="23.380000000000003" class="d">t…</text><text x="49.098" y="23.380000000000003" class="d">utils</text><text x="57.114" y="23.380000000000003" class="d">&lt;NA&gt;</text><text x="67.134" y="23.380000000000003" class="d">&lt;NA&gt;</text><text x="0" y="25.550999999999995" class="d">#</text><text x="2.004" y="25.550999999999995" class="d">…</text><text x="4.008" y="25.550999999999995" class="d">with</text><text x="9.017999999999999" y="25.550999999999995" class="d">22</text><text x="12.024" y="25.550999999999995" class="d">more</text><text x="17.034" y="25.550999999999995" class="d">variables:</text><text x="28.055999999999997" y="25.550999999999995" class="d">built</text><text x="34.068" y="25.550999999999995" class="d">&lt;chr&gt;,</text><text x="41.082" y="25.550999999999995" class="d">md5sum</text><text x="48.096" y="25.550999999999995" class="d">&lt;chr&gt;,</text><text x="55.10999999999999" y="25.550999999999995" class="d">needscompilation</text><text x="72.14399999999999" y="25.550999999999995" class="d">&lt;lgl&gt;,</text><text x="0" y="27.722" class="d">#</text><text x="4.008" y="27.722" class="d">platform</text><text x="13.026" y="27.722" class="d">&lt;chr&gt;,</text><text x="20.04" y="27.722" class="d">license</text><text x="28.055999999999997" y="27.722" class="d">&lt;chr&gt;,</text><text x="35.06999999999999" y="27.722" class="d">priority</text><text x="44.087999999999994" y="27.722" class="d">&lt;chr&gt;,</text><text x="51.102" y="27.722" class="d">repository</text><text x="62.123999999999995" y="27.722" class="d">&lt;chr&gt;,</text><text x="0" y="29.893" class="d">#</text><text x="4.008" y="29.893" class="d">biocviews</text><text x="14.027999999999999" y="29.893" class="d">&lt;chr&gt;,</text><text x="21.041999999999998" y="29.893" class="d">remotetype</text><text x="32.064" y="29.893" class="d">&lt;chr&gt;,</text><text x="39.077999999999996" y="29.893" class="d">remotehost</text><text x="50.1" y="29.893" class="d">&lt;chr&gt;,</text><text x="57.114" y="29.893" class="d">remoterepo</text><text x="68.136" y="29.893" class="d">&lt;chr&gt;,</text><text x="0" y="32.064" class="d">#</text><text x="4.008" y="32.064" class="d">remoteusername</text><text x="19.037999999999997" y="32.064" class="d">&lt;chr&gt;,</text><text x="26.052" y="32.064" class="d">remotepkgref</text><text x="39.077999999999996" y="32.064" class="d">&lt;chr&gt;,</text><text x="46.09199999999999" y="32.064" class="d">remoteref</text><text x="56.111999999999995" y="32.064" class="d">&lt;chr&gt;,</text><text x="63.12599999999999" y="32.064" class="d">remotesha</text><text x="73.146" y="32.064" class="d">&lt;chr&gt;,</text><text x="0" y="34.235" class="d">#</text><text x="4.008" y="34.235" class="d">ref</text><text x="8.016" y="34.235" class="d">&lt;chr&gt;,</text><text x="15.029999999999998" y="34.235" class="d">type</text><text x="20.04" y="34.235" class="d">&lt;chr&gt;,</text><text x="27.054" y="34.235" class="d">status</text><text x="34.068" y="34.235" class="d">&lt;chr&gt;,</text><text x="41.082" y="34.235" class="d">rversion</text><text x="50.1" y="34.235" class="d">&lt;chr&gt;,</text><text x="57.114" y="34.235" class="d">sources</text><text x="65.13" y="34.235" class="d">&lt;list&gt;,</text><text x="0" y="36.406" class="d">#</text><text x="4.008" y="36.406" class="d">repotype</text><text x="13.026" y="36.406" class="d">&lt;chr&gt;,</text><text x="20.04" y="36.406" class="d">deps</text><text x="25.05" y="36.406" class="d">&lt;list&gt;</text></svg></svg></g></svg></svg>