<svg xmlns="http://www.w3.org/2000/svg" xmlns:xlink="http://www.w3.org/1999/xlink" width="1040" height="452.48999999999995"><rect width="1040" height="452.48999999999995" rx="0" ry="0" class="a"></rect><svg height="412.48999999999995" viewBox="0 0 100 41.248999999999995" width="1000" x="20" xmlns="http://www.w3.org/2000/svg" xmlns:xlink="http://www.w3.org/1999/xlink" y="20"><style>.a{fill:rgb(40,45,53)}.b{font-family:'Fira Code',Monaco,Consolas,Menlo,'Bitstream Vera Sans Mono','Powerline Symbols',monospace}.c{fill:transparent}.d{fill:rgb(185,192,203);white-space:pre}</style><g font-family="&#x27;Fira Code&#x27;,Monaco,Consolas,Menlo,&#x27;Bitstream Vera Sans Mono&#x27;,&#x27;Powerline Symbols&#x27;,monospace" font-size="1.67" class="b"><defs><symbol id="a"><rect height="20" width="100" x="0" y="0" class="c"></rect></symbol></defs><rect height="41.248999999999995" width="100" class="a"></rect><svg x="0" y="0" width="100"><svg x="0"><use xlink:href="#a"></use><text x="0" y="1.67" class="d">#</text><text x="2.004" y="1.67" class="d">A</text><text x="4.008" y="1.67" class="d">tibble:</text><text x="12.024" y="1.67" class="d">31</text><text x="15.029999999999998" y="1.67" class="d">x</text><text x="17.034" y="1.67" class="d">32</text><text x="3.006" y="3.8409999999999997" class="d">ref</text><text x="10.02" y="3.8409999999999997" class="d">type</text><text x="16.032" y="3.8409999999999997" class="d">direct</text><text x="23.045999999999996" y="3.8409999999999997" class="d">directpkg</text><text x="33.065999999999995" y="3.8409999999999997" class="d">status</text><text x="40.08" y="3.8409999999999997" class="d">package</text><text x="48.096" y="3.8409999999999997" class="d">version</text><text x="56.111999999999995" y="3.8409999999999997" class="d">license</text><text x="64.128" y="3.8409999999999997" class="d">needscompilation</text><text x="3.006" y="6.012" class="d">&lt;chr&gt;</text><text x="10.02" y="6.012" class="d">&lt;chr&gt;</text><text x="16.032" y="6.012" class="d">&lt;lgl&gt;</text><text x="23.045999999999996" y="6.012" class="d">&lt;lgl&gt;</text><text x="33.065999999999995" y="6.012" class="d">&lt;chr&gt;</text><text x="40.08" y="6.012" class="d">&lt;chr&gt;</text><text x="48.096" y="6.012" class="d">&lt;chr&gt;</text><text x="56.111999999999995" y="6.012" class="d">&lt;chr&gt;</text><text x="64.128" y="6.012" class="d">&lt;lgl&gt;</text><text x="1.002" y="8.183" class="d">1</text><text x="3.006" y="8.183" class="d">tidyv…</text><text x="10.02" y="8.183" class="d">gith…</text><text x="16.032" y="8.183" class="d">TRUE</text><text x="23.045999999999996" y="8.183" class="d">TRUE</text><text x="33.065999999999995" y="8.183" class="d">OK</text><text x="40.08" y="8.183" class="d">ggplot2</text><text x="48.096" y="8.183" class="d">3.3.5.…</text><text x="56.111999999999995" y="8.183" class="d">MIT</text><text x="60.11999999999999" y="8.183" class="d">+</text><text x="62.123999999999995" y="8.183" class="d">…</text><text x="64.128" y="8.183" class="d">TRUE</text><text x="1.002" y="10.354" class="d">2</text><text x="3.006" y="10.354" class="d">R6</text><text x="10.02" y="10.354" class="d">stan…</text><text x="16.032" y="10.354" class="d">FALSE</text><text x="23.045999999999996" y="10.354" class="d">FALSE</text><text x="33.065999999999995" y="10.354" class="d">OK</text><text x="40.08" y="10.354" class="d">R6</text><text x="48.096" y="10.354" class="d">2.5.0</text><text x="56.111999999999995" y="10.354" class="d">MIT</text><text x="60.11999999999999" y="10.354" class="d">+</text><text x="62.123999999999995" y="10.354" class="d">…</text><text x="64.128" y="10.354" class="d">FALSE</text><text x="1.002" y="12.525" class="d">3</text><text x="3.006" y="12.525" class="d">RColo…</text><text x="10.02" y="12.525" class="d">stan…</text><text x="16.032" y="12.525" class="d">FALSE</text><text x="23.045999999999996" y="12.525" class="d">FALSE</text><text x="33.065999999999995" y="12.525" class="d">OK</text><text x="40.08" y="12.525" class="d">RColor…</text><text x="48.096" y="12.525" class="d">1.1-2</text><text x="56.111999999999995" y="12.525" class="d">Apache…</text><text x="64.128" y="12.525" class="d">FALSE</text><text x="1.002" y="14.696" class="d">4</text><text x="3.006" y="14.696" class="d">cli</text><text x="10.02" y="14.696" class="d">stan…</text><text x="16.032" y="14.696" class="d">FALSE</text><text x="23.045999999999996" y="14.696" class="d">FALSE</text><text x="33.065999999999995" y="14.696" class="d">OK</text><text x="40.08" y="14.696" class="d">cli</text><text x="48.096" y="14.696" class="d">2.5.0</text><text x="56.111999999999995" y="14.696" class="d">MIT</text><text x="60.11999999999999" y="14.696" class="d">+</text><text x="62.123999999999995" y="14.696" class="d">…</text><text x="64.128" y="14.696" class="d">FALSE</text><text x="1.002" y="16.866999999999997" class="d">5</text><text x="3.006" y="16.866999999999997" class="d">color…</text><text x="10.02" y="16.866999999999997" class="d">stan…</text><text x="16.032" y="16.866999999999997" class="d">FALSE</text><text x="23.045999999999996" y="16.866999999999997" class="d">FALSE</text><text x="33.065999999999995" y="16.866999999999997" class="d">OK</text><text x="40.08" y="16.866999999999997" class="d">colors…</text><text x="48.096" y="16.866999999999997" class="d">2.0-2</text><text x="56.111999999999995" y="16.866999999999997" class="d">BSD_3_…</text><text x="64.128" y="16.866999999999997" class="d">TRUE</text><text x="1.002" y="19.037999999999997" class="d">6</text><text x="3.006" y="19.037999999999997" class="d">crayon</text><text x="10.02" y="19.037999999999997" class="d">stan…</text><text x="16.032" y="19.037999999999997" class="d">FALSE</text><text x="23.045999999999996" y="19.037999999999997" class="d">FALSE</text><text x="33.065999999999995" y="19.037999999999997" class="d">OK</text><text x="40.08" y="19.037999999999997" class="d">crayon</text><text x="48.096" y="19.037999999999997" class="d">1.4.1</text><text x="56.111999999999995" y="19.037999999999997" class="d">MIT</text><text x="60.11999999999999" y="19.037999999999997" class="d">+</text><text x="62.123999999999995" y="19.037999999999997" class="d">…</text><text x="64.128" y="19.037999999999997" class="d">FALSE</text><text x="1.002" y="21.209000000000003" class="d">7</text><text x="3.006" y="21.209000000000003" class="d">digest</text><text x="10.02" y="21.209000000000003" class="d">stan…</text><text x="16.032" y="21.209000000000003" class="d">FALSE</text><text x="23.045999999999996" y="21.209000000000003" class="d">FALSE</text><text x="33.065999999999995" y="21.209000000000003" class="d">OK</text><text x="40.08" y="21.209000000000003" class="d">digest</text><text x="48.096" y="21.209000000000003" class="d">0.6.27</text><text x="56.111999999999995" y="21.209000000000003" class="d">GPL</text><text x="60.11999999999999" y="21.209000000000003" class="d">(&gt;…</text><text x="64.128" y="21.209000000000003" class="d">TRUE</text><text x="1.002" y="23.380000000000003" class="d">8</text><text x="3.006" y="23.380000000000003" class="d">ellip…</text><text x="10.02" y="23.380000000000003" class="d">stan…</text><text x="16.032" y="23.380000000000003" class="d">FALSE</text><text x="23.045999999999996" y="23.380000000000003" class="d">FALSE</text><text x="33.065999999999995" y="23.380000000000003" class="d">OK</text><text x="40.08" y="23.380000000000003" class="d">ellips…</text><text x="48.096" y="23.380000000000003" class="d">0.3.2</text><text x="56.111999999999995" y="23.380000000000003" class="d">MIT</text><text x="60.11999999999999" y="23.380000000000003" class="d">+</text><text x="62.123999999999995" y="23.380000000000003" class="d">…</text><text x="64.128" y="23.380000000000003" class="d">TRUE</text><text x="1.002" y="25.550999999999995" class="d">9</text><text x="3.006" y="25.550999999999995" class="d">fansi</text><text x="10.02" y="25.550999999999995" class="d">stan…</text><text x="16.032" y="25.550999999999995" class="d">FALSE</text><text x="23.045999999999996" y="25.550999999999995" class="d">FALSE</text><text x="33.065999999999995" y="25.550999999999995" class="d">OK</text><text x="40.08" y="25.550999999999995" class="d">fansi</text><text x="48.096" y="25.550999999999995" class="d">0.5.0</text><text x="56.111999999999995" y="25.550999999999995" class="d">GPL</text><text x="60.11999999999999" y="25.550999999999995" class="d">(&gt;…</text><text x="64.128" y="25.550999999999995" class="d">TRUE</text><text x="0" y="27.722" class="d">10</text><text x="3.006" y="27.722" class="d">farver</text><text x="10.02" y="27.722" class="d">stan…</text><text x="16.032" y="27.722" class="d">FALSE</text><text x="23.045999999999996" y="27.722" class="d">FALSE</text><text x="33.065999999999995" y="27.722" class="d">OK</text><text x="40.08" y="27.722" class="d">farver</text><text x="48.096" y="27.722" class="d">2.1.0</text><text x="56.111999999999995" y="27.722" class="d">MIT</text><text x="60.11999999999999" y="27.722" class="d">+</text><text x="62.123999999999995" y="27.722" class="d">…</text><text x="64.128" y="27.722" class="d">TRUE</text><text x="0" y="29.893" class="d">#</text><text x="2.004" y="29.893" class="d">…</text><text x="4.008" y="29.893" class="d">with</text><text x="9.017999999999999" y="29.893" class="d">21</text><text x="12.024" y="29.893" class="d">more</text><text x="17.034" y="29.893" class="d">rows,</text><text x="23.045999999999996" y="29.893" class="d">and</text><text x="27.054" y="29.893" class="d">23</text><text x="30.059999999999995" y="29.893" class="d">more</text><text x="35.06999999999999" y="29.893" class="d">variables:</text><text x="46.09199999999999" y="29.893" class="d">priority</text><text x="55.10999999999999" y="29.893" class="d">&lt;chr&gt;,</text><text x="62.123999999999995" y="29.893" class="d">md5sum</text><text x="69.13799999999999" y="29.893" class="d">&lt;chr&gt;,</text><text x="0" y="32.064" class="d">#</text><text x="4.008" y="32.064" class="d">sha256</text><text x="11.021999999999998" y="32.064" class="d">&lt;chr&gt;,</text><text x="18.035999999999998" y="32.064" class="d">filesize</text><text x="27.054" y="32.064" class="d">&lt;int&gt;,</text><text x="34.068" y="32.064" class="d">built</text><text x="40.08" y="32.064" class="d">&lt;chr&gt;,</text><text x="47.093999999999994" y="32.064" class="d">platform</text><text x="56.111999999999995" y="32.064" class="d">&lt;chr&gt;,</text><text x="63.12599999999999" y="32.064" class="d">rversion</text><text x="72.14399999999999" y="32.064" class="d">&lt;chr&gt;,</text><text x="0" y="34.235" class="d">#</text><text x="4.008" y="34.235" class="d">repotype</text><text x="13.026" y="34.235" class="d">&lt;chr&gt;,</text><text x="20.04" y="34.235" class="d">repodir</text><text x="28.055999999999997" y="34.235" class="d">&lt;chr&gt;,</text><text x="35.06999999999999" y="34.235" class="d">target</text><text x="42.083999999999996" y="34.235" class="d">&lt;glue&gt;,</text><text x="50.1" y="34.235" class="d">deps</text><text x="55.10999999999999" y="34.235" class="d">&lt;list&gt;,</text><text x="63.12599999999999" y="34.235" class="d">mirror</text><text x="70.13999999999999" y="34.235" class="d">&lt;chr&gt;,</text><text x="0" y="36.406" class="d">#</text><text x="4.008" y="36.406" class="d">sources</text><text x="12.024" y="36.406" class="d">&lt;list&gt;,</text><text x="20.04" y="36.406" class="d">remote</text><text x="27.054" y="36.406" class="d">&lt;list&gt;,</text><text x="35.06999999999999" y="36.406" class="d">error</text><text x="41.082" y="36.406" class="d">&lt;list&gt;,</text><text x="49.098" y="36.406" class="d">metadata</text><text x="58.116" y="36.406" class="d">&lt;list&gt;,</text><text x="66.13199999999999" y="36.406" class="d">extra</text><text x="72.14399999999999" y="36.406" class="d">&lt;list&gt;,</text><text x="0" y="38.577000000000005" class="d">#</text><text x="4.008" y="38.577000000000005" class="d">dep_types</text><text x="14.027999999999999" y="38.577000000000005" class="d">&lt;list&gt;,</text><text x="22.043999999999997" y="38.577000000000005" class="d">params</text><text x="29.058" y="38.577000000000005" class="d">&lt;list&gt;,</text><text x="37.074" y="38.577000000000005" class="d">cache_status</text><text x="50.1" y="38.577000000000005" class="d">&lt;chr&gt;,</text><text x="57.114" y="38.577000000000005" class="d">lib_status</text><text x="68.136" y="38.577000000000005" class="d">&lt;chr&gt;,</text><text x="0" y="40.748000000000005" class="d">#</text><text x="4.008" y="40.748000000000005" class="d">old_version</text><text x="16.032" y="40.748000000000005" class="d">&lt;chr&gt;,</text><text x="23.045999999999996" y="40.748000000000005" class="d">new_version</text><text x="35.06999999999999" y="40.748000000000005" class="d">&lt;chr&gt;</text></svg></svg></g></svg></svg>