<svg xmlns="http://www.w3.org/2000/svg" xmlns:xlink="http://www.w3.org/1999/xlink" width="1040" height="2449.8100000000004"><rect width="1040" height="2449.8100000000004" rx="0" ry="0" class="a"></rect><svg height="2409.8100000000004" viewBox="0 0 100 240.98100000000002" width="1000" x="20" xmlns="http://www.w3.org/2000/svg" xmlns:xlink="http://www.w3.org/1999/xlink" y="20"><style>.a{fill:rgb(40,45,53)}.b{font-family:'Fira Code',Monaco,Consolas,Menlo,'Bitstream Vera Sans Mono','Powerline Symbols',monospace}.c{fill:rgb(185,192,203);white-space:pre}.d{fill:transparent}</style><g font-family="&#x27;Fira Code&#x27;,Monaco,Consolas,Menlo,&#x27;Bitstream Vera Sans Mono&#x27;,&#x27;Powerline Symbols&#x27;,monospace" font-size="1.67" class="b"><defs><symbol id="1"><text x="0" y="1.67" class="c">✔</text><text x="2.004" y="1.67" class="c">Got</text><text x="6.012" y="1.67" class="c">fansi</text><text x="12.024" y="1.67" class="c">0.4.2</text><text x="18.035999999999998" y="1.67" class="c">(source)</text><text x="27.054" y="1.67" class="c">(253.82</text><text x="35.06999999999999" y="1.67" class="c">kB)</text></symbol><symbol id="2"><text x="0" y="1.67" class="c">✔</text><text x="2.004" y="1.67" class="c">Got</text><text x="6.012" y="1.67" class="c">labeling</text><text x="15.029999999999998" y="1.67" class="c">0.4.2</text><text x="21.041999999999998" y="1.67" class="c">(source)</text><text x="30.059999999999995" y="1.67" class="c">(58.75</text><text x="37.074" y="1.67" class="c">kB)</text></symbol><symbol id="3"><text x="0" y="1.67" class="c">✔</text><text x="2.004" y="1.67" class="c">Got</text><text x="6.012" y="1.67" class="c">lifecycle</text><text x="16.032" y="1.67" class="c">1.0.0</text><text x="22.043999999999997" y="1.67" class="c">(source)</text><text x="31.061999999999998" y="1.67" class="c">(83.39</text><text x="38.07599999999999" y="1.67" class="c">kB)</text></symbol><symbol id="4"><text x="0" y="1.67" class="c">✔</text><text x="2.004" y="1.67" class="c">Got</text><text x="6.012" y="1.67" class="c">R6</text><text x="9.017999999999999" y="1.67" class="c">2.5.0</text><text x="15.029999999999998" y="1.67" class="c">(source)</text><text x="24.048" y="1.67" class="c">(63.36</text><text x="31.061999999999998" y="1.67" class="c">kB)</text></symbol><symbol id="5"><text x="0" y="1.67" class="c">✔</text><text x="2.004" y="1.67" class="c">Got</text><text x="6.012" y="1.67" class="c">glue</text><text x="11.021999999999998" y="1.67" class="c">1.4.2</text><text x="17.034" y="1.67" class="c">(source)</text><text x="26.052" y="1.67" class="c">(144.33</text><text x="34.068" y="1.67" class="c">kB)</text></symbol><symbol id="6"><text x="0" y="1.67" class="c">✔</text><text x="2.004" y="1.67" class="c">Got</text><text x="6.012" y="1.67" class="c">munsell</text><text x="14.027999999999999" y="1.67" class="c">0.5.0</text><text x="20.04" y="1.67" class="c">(source)</text><text x="29.058" y="1.67" class="c">(423.29</text><text x="37.074" y="1.67" class="c">kB)</text></symbol><symbol id="7"><text x="0" y="1.67" class="c">✔</text><text x="2.004" y="1.67" class="c">Got</text><text x="6.012" y="1.67" class="c">RColorBrewer</text><text x="19.037999999999997" y="1.67" class="c">1.1-2</text><text x="25.05" y="1.67" class="c">(source)</text><text x="34.068" y="1.67" class="c">(52.76</text><text x="41.082" y="1.67" class="c">kB)</text></symbol><symbol id="8"><text x="0" y="1.67" class="c">✔</text><text x="2.004" y="1.67" class="c">Got</text><text x="6.012" y="1.67" class="c">utf8</text><text x="11.021999999999998" y="1.67" class="c">1.1.4</text><text x="17.034" y="1.67" class="c">(source)</text><text x="26.052" y="1.67" class="c">(218.88</text><text x="34.068" y="1.67" class="c">kB)</text></symbol><symbol id="9"><text x="0" y="1.67" class="c">✔</text><text x="2.004" y="1.67" class="c">Got</text><text x="6.012" y="1.67" class="c">withr</text><text x="12.024" y="1.67" class="c">2.4.1</text><text x="18.035999999999998" y="1.67" class="c">(source)</text><text x="27.054" y="1.67" class="c">(294.07</text><text x="35.06999999999999" y="1.67" class="c">kB)</text></symbol><symbol id="10"><text x="0" y="1.67" class="c">✔</text><text x="2.004" y="1.67" class="c">Got</text><text x="6.012" y="1.67" class="c">scales</text><text x="13.026" y="1.67" class="c">1.1.1</text><text x="19.037999999999997" y="1.67" class="c">(source)</text><text x="28.055999999999997" y="1.67" class="c">(253.06</text><text x="36.071999999999996" y="1.67" class="c">kB)</text></symbol><symbol id="11"><text x="0" y="1.67" class="c">✔</text><text x="2.004" y="1.67" class="c">Got</text><text x="6.012" y="1.67" class="c">viridisLite</text><text x="18.035999999999998" y="1.67" class="c">0.3.0</text><text x="24.048" y="1.67" class="c">(source)</text><text x="33.065999999999995" y="1.67" class="c">(56.95</text><text x="40.08" y="1.67" class="c">kB)</text></symbol><symbol id="12"><text x="0" y="1.67" class="c">✔</text><text x="2.004" y="1.67" class="c">Got</text><text x="6.012" y="1.67" class="c">pillar</text><text x="13.026" y="1.67" class="c">1.5.1</text><text x="19.037999999999997" y="1.67" class="c">(source)</text><text x="28.055999999999997" y="1.67" class="c">(808.63</text><text x="36.071999999999996" y="1.67" class="c">kB)</text></symbol><symbol id="13"><text x="0" y="1.67" class="c">✔</text><text x="2.004" y="1.67" class="c">Got</text><text x="6.012" y="1.67" class="c">lattice</text><text x="14.027999999999999" y="1.67" class="c">0.20-41</text><text x="22.043999999999997" y="1.67" class="c">(source)</text><text x="31.061999999999998" y="1.67" class="c">(626.14</text><text x="39.077999999999996" y="1.67" class="c">kB)</text></symbol><symbol id="14"><text x="0" y="1.67" class="c">✔</text><text x="2.004" y="1.67" class="c">Got</text><text x="6.012" y="1.67" class="c">tibble</text><text x="13.026" y="1.67" class="c">3.1.0</text><text x="19.037999999999997" y="1.67" class="c">(source)</text><text x="28.055999999999997" y="1.67" class="c">(1.50</text><text x="34.068" y="1.67" class="c">MB)</text></symbol><symbol id="15"><text x="0" y="1.67" class="c">✔</text><text x="2.004" y="1.67" class="c">Got</text><text x="6.012" y="1.67" class="c">nlme</text><text x="11.021999999999998" y="1.67" class="c">3.1-152</text><text x="19.037999999999997" y="1.67" class="c">(source)</text><text x="28.055999999999997" y="1.67" class="c">(1.61</text><text x="34.068" y="1.67" class="c">MB)</text></symbol><symbol id="16"><text x="0" y="1.67" class="c">✔</text><text x="2.004" y="1.67" class="c">Got</text><text x="6.012" y="1.67" class="c">rlang</text><text x="12.024" y="1.67" class="c">0.4.10</text><text x="19.037999999999997" y="1.67" class="c">(source)</text><text x="28.055999999999997" y="1.67" class="c">(2.31</text><text x="34.068" y="1.67" class="c">MB)</text></symbol><symbol id="17"><text x="0" y="1.67" class="c">✔</text><text x="2.004" y="1.67" class="c">Got</text><text x="6.012" y="1.67" class="c">nlme</text><text x="11.021999999999998" y="1.67" class="c">3.1-152</text><text x="19.037999999999997" y="1.67" class="c">(source)</text><text x="28.055999999999997" y="1.67" class="c">(955.64</text><text x="36.071999999999996" y="1.67" class="c">kB)</text></symbol><symbol id="18"><text x="0" y="1.67" class="c">✔</text><text x="2.004" y="1.67" class="c">Got</text><text x="6.012" y="1.67" class="c">mgcv</text><text x="11.021999999999998" y="1.67" class="c">1.8-34</text><text x="18.035999999999998" y="1.67" class="c">(source)</text><text x="27.054" y="1.67" class="c">(1.06</text><text x="33.065999999999995" y="1.67" class="c">MB)</text></symbol><symbol id="19"><text x="0" y="1.67" class="c">✔</text><text x="2.004" y="1.67" class="c">Got</text><text x="6.012" y="1.67" class="c">mgcv</text><text x="11.021999999999998" y="1.67" class="c">1.8-34</text><text x="18.035999999999998" y="1.67" class="c">(source)</text><text x="27.054" y="1.67" class="c">(2.30</text><text x="33.065999999999995" y="1.67" class="c">MB)</text></symbol><symbol id="20"><text x="0" y="1.67" class="c">✔</text><text x="2.004" y="1.67" class="c">Got</text><text x="6.012" y="1.67" class="c">isoband</text><text x="14.027999999999999" y="1.67" class="c">0.2.4</text><text x="20.04" y="1.67" class="c">(source)</text><text x="29.058" y="1.67" class="c">(1.58</text><text x="35.06999999999999" y="1.67" class="c">MB)</text></symbol><symbol id="a"><rect height="112" width="100" x="0" y="0" class="d"></rect></symbol></defs><rect height="240.98100000000002" width="100" class="a"></rect><svg x="0" y="0" width="100"><svg x="0"><use xlink:href="#a"></use><use xlink:href="#1" y="0"></use><use xlink:href="#2" y="2.171"></use><text x="0" y="6.012" class="c">✔</text><text x="2.004" y="6.012" class="c">Got</text><text x="6.012" y="6.012" class="c">digest</text><text x="13.026" y="6.012" class="c">0.6.27</text><text x="20.04" y="6.012" class="c">(source)</text><text x="29.058" y="6.012" class="c">(357.34</text><text x="37.074" y="6.012" class="c">kB)</text><text x="0" y="8.183" class="c">✔</text><text x="2.004" y="8.183" class="c">Got</text><text x="6.012" y="8.183" class="c">farver</text><text x="13.026" y="8.183" class="c">2.1.0</text><text x="19.037999999999997" y="8.183" class="c">(source)</text><text x="28.055999999999997" y="8.183" class="c">(2.87</text><text x="34.068" y="8.183" class="c">MB)</text><text x="0" y="10.354" class="c">✔</text><text x="2.004" y="10.354" class="c">Got</text><text x="6.012" y="10.354" class="c">ggplot2</text><text x="14.027999999999999" y="10.354" class="c">3.3.3</text><text x="20.04" y="10.354" class="c">(source)</text><text x="29.058" y="10.354" class="c">(4.54</text><text x="35.06999999999999" y="10.354" class="c">MB)</text><use xlink:href="#3" y="10.855"></use><use xlink:href="#4" y="13.026"></use><text x="0" y="16.866999999999997" class="c">✔</text><text x="2.004" y="16.866999999999997" class="c">Got</text><text x="6.012" y="16.866999999999997" class="c">crayon</text><text x="13.026" y="16.866999999999997" class="c">1.4.1</text><text x="19.037999999999997" y="16.866999999999997" class="c">(source)</text><text x="28.055999999999997" y="16.866999999999997" class="c">(138.30</text><text x="36.071999999999996" y="16.866999999999997" class="c">kB)</text><text x="0" y="19.037999999999997" class="c">✔</text><text x="2.004" y="19.037999999999997" class="c">Got</text><text x="6.012" y="19.037999999999997" class="c">cli</text><text x="10.02" y="19.037999999999997" class="c">2.3.1</text><text x="16.032" y="19.037999999999997" class="c">(source)</text><text x="25.05" y="19.037999999999997" class="c">(463.62</text><text x="33.065999999999995" y="19.037999999999997" class="c">kB)</text><text x="0" y="21.209000000000003" class="c">✔</text><text x="2.004" y="21.209000000000003" class="c">Got</text><text x="6.012" y="21.209000000000003" class="c">MASS</text><text x="11.021999999999998" y="21.209000000000003" class="c">7.3-53.1</text><text x="20.04" y="21.209000000000003" class="c">(source)</text><text x="29.058" y="21.209000000000003" class="c">(507.58</text><text x="37.074" y="21.209000000000003" class="c">kB)</text><text x="0" y="23.380000000000003" class="c">✔</text><text x="2.004" y="23.380000000000003" class="c">Got</text><text x="6.012" y="23.380000000000003" class="c">vctrs</text><text x="12.024" y="23.380000000000003" class="c">0.3.6</text><text x="18.035999999999998" y="23.380000000000003" class="c">(source)</text><text x="27.054" y="23.380000000000003" class="c">(1.60</text><text x="33.065999999999995" y="23.380000000000003" class="c">MB)</text><use xlink:href="#3" y="23.880999999999997"></use><text x="0" y="27.722" class="c">✔</text><text x="2.004" y="27.722" class="c">Got</text><text x="6.012" y="27.722" class="c">magrittr</text><text x="15.029999999999998" y="27.722" class="c">2.0.1</text><text x="21.041999999999998" y="27.722" class="c">(source)</text><text x="30.059999999999995" y="27.722" class="c">(232.44</text><text x="38.07599999999999" y="27.722" class="c">kB)</text><use xlink:href="#5" y="28.223000000000003"></use><text x="0" y="32.064" class="c">✔</text><text x="2.004" y="32.064" class="c">Got</text><text x="6.012" y="32.064" class="c">Matrix</text><text x="13.026" y="32.064" class="c">1.3-2</text><text x="19.037999999999997" y="32.064" class="c">(source)</text><text x="28.055999999999997" y="32.064" class="c">(5.41</text><text x="34.068" y="32.064" class="c">MB)</text><use xlink:href="#1" y="32.565"></use><text x="0" y="36.406" class="c">✔</text><text x="2.004" y="36.406" class="c">Got</text><text x="6.012" y="36.406" class="c">MASS</text><text x="11.021999999999998" y="36.406" class="c">7.3-53.1</text><text x="20.04" y="36.406" class="c">(source)</text><text x="29.058" y="36.406" class="c">(1.41</text><text x="35.06999999999999" y="36.406" class="c">MB)</text><text x="0" y="38.577000000000005" class="c">✔</text><text x="2.004" y="38.577000000000005" class="c">Got</text><text x="6.012" y="38.577000000000005" class="c">lattice</text><text x="14.027999999999999" y="38.577000000000005" class="c">0.20-41</text><text x="22.043999999999997" y="38.577000000000005" class="c">(source)</text><text x="31.061999999999998" y="38.577000000000005" class="c">(389.15</text><text x="39.077999999999996" y="38.577000000000005" class="c">kB)</text><use xlink:href="#2" y="39.078"></use><use xlink:href="#6" y="41.248999999999995"></use><use xlink:href="#6" y="43.42"></use><use xlink:href="#5" y="45.591"></use><text x="0" y="49.431999999999995" class="c">✔</text><text x="2.004" y="49.431999999999995" class="c">Got</text><text x="6.012" y="49.431999999999995" class="c">pkgconfig</text><text x="16.032" y="49.431999999999995" class="c">2.0.3</text><text x="22.043999999999997" y="49.431999999999995" class="c">(source)</text><text x="31.061999999999998" y="49.431999999999995" class="c">(6.08</text><text x="37.074" y="49.431999999999995" class="c">kB)</text><use xlink:href="#7" y="49.933"></use><use xlink:href="#4" y="52.104"></use><use xlink:href="#7" y="54.275"></use><text x="0" y="58.11600000000001" class="c">✔</text><text x="2.004" y="58.11600000000001" class="c">Got</text><text x="6.012" y="58.11600000000001" class="c">ellipsis</text><text x="15.029999999999998" y="58.11600000000001" class="c">0.3.1</text><text x="21.041999999999998" y="58.11600000000001" class="c">(source)</text><text x="30.059999999999995" y="58.11600000000001" class="c">(37.50</text><text x="37.074" y="58.11600000000001" class="c">kB)</text><use xlink:href="#8" y="58.617"></use><use xlink:href="#9" y="60.788"></use><text x="0" y="64.629" class="c">✔</text><text x="2.004" y="64.629" class="c">Got</text><text x="6.012" y="64.629" class="c">Matrix</text><text x="13.026" y="64.629" class="c">1.3-2</text><text x="19.037999999999997" y="64.629" class="c">(source)</text><text x="28.055999999999997" y="64.629" class="c">(1.98</text><text x="34.068" y="64.629" class="c">MB)</text><use xlink:href="#10" y="65.13"></use><use xlink:href="#9" y="67.301"></use><use xlink:href="#11" y="69.472"></use><use xlink:href="#8" y="71.643"></use><use xlink:href="#11" y="73.81400000000001"></use><use xlink:href="#12" y="75.985"></use><text x="0" y="79.82600000000001" class="c">✔</text><text x="2.004" y="79.82600000000001" class="c">Got</text><text x="6.012" y="79.82600000000001" class="c">pkgconfig</text><text x="16.032" y="79.82600000000001" class="c">2.0.3</text><text x="22.043999999999997" y="79.82600000000001" class="c">(source)</text><text x="31.061999999999998" y="79.82600000000001" class="c">(17.40</text><text x="38.07599999999999" y="79.82600000000001" class="c">kB)</text><text x="0" y="81.997" class="c">✔</text><text x="2.004" y="81.997" class="c">Got</text><text x="6.012" y="81.997" class="c">MASS</text><text x="11.021999999999998" y="81.997" class="c">7.3-53.1</text><text x="20.04" y="81.997" class="c">(source)</text><text x="29.058" y="81.997" class="c">(244.19</text><text x="37.074" y="81.997" class="c">kB)</text><use xlink:href="#13" y="82.49799999999999"></use><use xlink:href="#10" y="84.669"></use><text x="0" y="88.51" class="c">✔</text><text x="2.004" y="88.51" class="c">Got</text><text x="6.012" y="88.51" class="c">magrittr</text><text x="15.029999999999998" y="88.51" class="c">2.0.1</text><text x="21.041999999999998" y="88.51" class="c">(source)</text><text x="30.059999999999995" y="88.51" class="c">(265.58</text><text x="38.07599999999999" y="88.51" class="c">kB)</text><text x="0" y="90.681" class="c">✔</text><text x="2.004" y="90.681" class="c">Got</text><text x="6.012" y="90.681" class="c">lattice</text><text x="14.027999999999999" y="90.681" class="c">0.20-41</text><text x="22.043999999999997" y="90.681" class="c">(source)</text><text x="31.061999999999998" y="90.681" class="c">(389.63</text><text x="39.077999999999996" y="90.681" class="c">kB)</text><text x="0" y="92.852" class="c">✔</text><text x="2.004" y="92.852" class="c">Got</text><text x="6.012" y="92.852" class="c">MASS</text><text x="11.021999999999998" y="92.852" class="c">7.3-53.1</text><text x="20.04" y="92.852" class="c">(source)</text><text x="29.058" y="92.852" class="c">(505.01</text><text x="37.074" y="92.852" class="c">kB)</text><use xlink:href="#14" y="93.35300000000001"></use><text x="0" y="97.19399999999999" class="c">✔</text><text x="2.004" y="97.19399999999999" class="c">Got</text><text x="6.012" y="97.19399999999999" class="c">vctrs</text><text x="12.024" y="97.19399999999999" class="c">0.3.6</text><text x="18.035999999999998" y="97.19399999999999" class="c">(source)</text><text x="27.054" y="97.19399999999999" class="c">(778.02</text><text x="35.06999999999999" y="97.19399999999999" class="c">kB)</text><use xlink:href="#15" y="97.695"></use><use xlink:href="#14" y="99.866"></use><use xlink:href="#16" y="102.03699999999999"></use><use xlink:href="#17" y="104.208"></use><use xlink:href="#16" y="106.379"></use><use xlink:href="#15" y="108.55"></use><use xlink:href="#13" y="110.721"></use><text x="0" y="114.56200000000001" class="c">✔</text><text x="2.004" y="114.56200000000001" class="c">Got</text><text x="6.012" y="114.56200000000001" class="c">farver</text><text x="13.026" y="114.56200000000001" class="c">2.1.0</text><text x="19.037999999999997" y="114.56200000000001" class="c">(source)</text><text x="28.055999999999997" y="114.56200000000001" class="c">(1.02</text><text x="34.068" y="114.56200000000001" class="c">MB)</text><use xlink:href="#18" y="115.06299999999999"></use><use xlink:href="#12" y="117.234"></use><use xlink:href="#19" y="119.405"></use><use xlink:href="#19" y="121.576"></use><text x="0" y="125.417" class="c">✔</text><text x="2.004" y="125.417" class="c">Got</text><text x="6.012" y="125.417" class="c">Matrix</text><text x="13.026" y="125.417" class="c">1.3-2</text><text x="19.037999999999997" y="125.417" class="c">(source)</text><text x="28.055999999999997" y="125.417" class="c">(1.71</text><text x="34.068" y="125.417" class="c">MB)</text><text x="0" y="127.58800000000001" class="c">✔</text><text x="2.004" y="127.58800000000001" class="c">Got</text><text x="6.012" y="127.58800000000001" class="c">Matrix</text><text x="13.026" y="127.58800000000001" class="c">1.3-2</text><text x="19.037999999999997" y="127.58800000000001" class="c">(source)</text><text x="28.055999999999997" y="127.58800000000001" class="c">(1.97</text><text x="34.068" y="127.58800000000001" class="c">MB)</text><use xlink:href="#20" y="128.089"></use><use xlink:href="#17" y="130.26"></use><text x="0" y="134.10099999999997" class="c">✔</text><text x="2.004" y="134.10099999999997" class="c">Got</text><text x="6.012" y="134.10099999999997" class="c">ggplot2</text><text x="14.027999999999999" y="134.10099999999997" class="c">3.3.3</text><text x="20.04" y="134.10099999999997" class="c">(source)</text><text x="29.058" y="134.10099999999997" class="c">(2.58</text><text x="35.06999999999999" y="134.10099999999997" class="c">MB)</text><text x="0" y="136.272" class="c">✔</text><text x="2.004" y="136.272" class="c">Got</text><text x="6.012" y="136.272" class="c">colorspace</text><text x="17.034" y="136.272" class="c">2.0-0</text><text x="23.045999999999996" y="136.272" class="c">(source)</text><text x="32.064" y="136.272" class="c">(2.62</text><text x="38.07599999999999" y="136.272" class="c">MB)</text><use xlink:href="#18" y="136.773"></use><use xlink:href="#20" y="138.944"></use><text x="0" y="142.785" class="c">Warning</text><text x="8.016" y="142.785" class="c">messages:</text><text x="0" y="144.956" class="c">1:</text><text x="3.006" y="144.956" class="c">In</text><text x="6.012" y="144.956" class="c">file.rename(tmp_destfile,</text><text x="32.064" y="144.956" class="c">destfile)</text><text x="42.083999999999996" y="144.956" class="c">:</text><text x="2.004" y="147.12699999999998" class="c">cannot</text><text x="9.017999999999999" y="147.12699999999998" class="c">rename</text><text x="16.032" y="147.12699999999998" class="c">file</text><text x="21.041999999999998" y="147.12699999999998" class="c">&#x27;/tmp/RtmpyrRauQ/file36d82c67ba5e/src/contrib/gtable_0.3.0.tar.gz.tmp.1&#x27;</text><text x="94.18799999999999" y="147.12699999999998" class="c">to</text><text x="97.19399999999999" y="147.12699999999998" class="c">&#x27;/t</text><text x="0" y="149.298" class="c">mp/RtmpyrRauQ/file36d82c67ba5e/src/contrib/gtable_0.3.0.tar.gz&#x27;,</text><text x="65.13" y="149.298" class="c">reason</text><text x="72.14399999999999" y="149.298" class="c">&#x27;No</text><text x="76.15199999999999" y="149.298" class="c">such</text><text x="81.16199999999999" y="149.298" class="c">file</text><text x="86.172" y="149.298" class="c">or</text><text x="89.178" y="149.298" class="c">directory&#x27;</text><text x="0" y="151.46899999999997" class="c">2:</text><text x="3.006" y="151.46899999999997" class="c">In</text><text x="6.012" y="151.46899999999997" class="c">file.rename(tmp_destfile,</text><text x="32.064" y="151.46899999999997" class="c">destfile)</text><text x="42.083999999999996" y="151.46899999999997" class="c">:</text><text x="2.004" y="153.64" class="c">cannot</text><text x="9.017999999999999" y="153.64" class="c">rename</text><text x="16.032" y="153.64" class="c">file</text><text x="21.041999999999998" y="153.64" class="c">&#x27;/tmp/RtmpyrRauQ/file36d82c67ba5e/src/contrib/munsell_0.5.0.tar.gz.tmp.1&#x27;</text><text x="95.19" y="153.64" class="c">to</text><text x="98.196" y="153.64" class="c">&#x27;/</text><text x="0" y="155.81099999999998" class="c">tmp/RtmpyrRauQ/file36d82c67ba5e/src/contrib/munsell_0.5.0.tar.gz&#x27;,</text><text x="67.134" y="155.81099999999998" class="c">reason</text><text x="74.148" y="155.81099999999998" class="c">&#x27;No</text><text x="78.15599999999999" y="155.81099999999998" class="c">such</text><text x="83.16599999999998" y="155.81099999999998" class="c">file</text><text x="88.17599999999999" y="155.81099999999998" class="c">or</text><text x="91.182" y="155.81099999999998" class="c">directory</text><text x="0" y="157.982" class="c">&#x27;</text><text x="0" y="160.153" class="c">3:</text><text x="3.006" y="160.153" class="c">In</text><text x="6.012" y="160.153" class="c">file.rename(tmp_destfile,</text><text x="32.064" y="160.153" class="c">destfile)</text><text x="42.083999999999996" y="160.153" class="c">:</text><text x="2.004" y="162.32399999999998" class="c">cannot</text><text x="9.017999999999999" y="162.32399999999998" class="c">rename</text><text x="16.032" y="162.32399999999998" class="c">file</text><text x="21.041999999999998" y="162.32399999999998" class="c">&#x27;/tmp/RtmpyrRauQ/file36d82c67ba5e/src/contrib/withr_2.4.1.tar.gz.tmp.1&#x27;</text><text x="93.18599999999999" y="162.32399999999998" class="c">to</text><text x="96.192" y="162.32399999999998" class="c">&#x27;/tm</text><text x="0" y="164.495" class="c">p/RtmpyrRauQ/file36d82c67ba5e/src/contrib/withr_2.4.1.tar.gz&#x27;,</text><text x="63.12599999999999" y="164.495" class="c">reason</text><text x="70.13999999999999" y="164.495" class="c">&#x27;No</text><text x="74.148" y="164.495" class="c">such</text><text x="79.158" y="164.495" class="c">file</text><text x="84.16799999999999" y="164.495" class="c">or</text><text x="87.17399999999999" y="164.495" class="c">directory&#x27;</text><text x="0" y="166.66599999999997" class="c">4:</text><text x="3.006" y="166.66599999999997" class="c">In</text><text x="6.012" y="166.66599999999997" class="c">file.rename(tmp_destfile,</text><text x="32.064" y="166.66599999999997" class="c">destfile)</text><text x="42.083999999999996" y="166.66599999999997" class="c">:</text><text x="2.004" y="168.837" class="c">cannot</text><text x="9.017999999999999" y="168.837" class="c">rename</text><text x="16.032" y="168.837" class="c">file</text><text x="21.041999999999998" y="168.837" class="c">&#x27;/tmp/RtmpyrRauQ/file36d82c67ba5e/src/contrib/tibble_3.1.0.tar.gz.tmp.1&#x27;</text><text x="94.18799999999999" y="168.837" class="c">to</text><text x="97.19399999999999" y="168.837" class="c">&#x27;/t</text><text x="0" y="171.00799999999998" class="c">mp/RtmpyrRauQ/file36d82c67ba5e/src/contrib/tibble_3.1.0.tar.gz&#x27;,</text><text x="65.13" y="171.00799999999998" class="c">reason</text><text x="72.14399999999999" y="171.00799999999998" class="c">&#x27;No</text><text x="76.15199999999999" y="171.00799999999998" class="c">such</text><text x="81.16199999999999" y="171.00799999999998" class="c">file</text><text x="86.172" y="171.00799999999998" class="c">or</text><text x="89.178" y="171.00799999999998" class="c">directory&#x27;</text><text x="0" y="173.179" class="c">5:</text><text x="3.006" y="173.179" class="c">In</text><text x="6.012" y="173.179" class="c">file.rename(tmp_destfile,</text><text x="32.064" y="173.179" class="c">destfile)</text><text x="42.083999999999996" y="173.179" class="c">:</text><text x="2.004" y="175.35" class="c">cannot</text><text x="9.017999999999999" y="175.35" class="c">rename</text><text x="16.032" y="175.35" class="c">file</text><text x="21.041999999999998" y="175.35" class="c">&#x27;/tmp/RtmpyrRauQ/file36d82c67ba5e/src/contrib/rlang_0.4.10.tar.gz.tmp.1&#x27;</text><text x="94.18799999999999" y="175.35" class="c">to</text><text x="97.19399999999999" y="175.35" class="c">&#x27;/t</text><text x="0" y="177.52099999999996" class="c">mp/RtmpyrRauQ/file36d82c67ba5e/src/contrib/rlang_0.4.10.tar.gz&#x27;,</text><text x="65.13" y="177.52099999999996" class="c">reason</text><text x="72.14399999999999" y="177.52099999999996" class="c">&#x27;No</text><text x="76.15199999999999" y="177.52099999999996" class="c">such</text><text x="81.16199999999999" y="177.52099999999996" class="c">file</text><text x="86.172" y="177.52099999999996" class="c">or</text><text x="89.178" y="177.52099999999996" class="c">directory&#x27;</text><text x="0" y="179.69199999999998" class="c">6:</text><text x="3.006" y="179.69199999999998" class="c">In</text><text x="6.012" y="179.69199999999998" class="c">file.rename(tmp_destfile,</text><text x="32.064" y="179.69199999999998" class="c">destfile)</text><text x="42.083999999999996" y="179.69199999999998" class="c">:</text><text x="2.004" y="181.86299999999997" class="c">cannot</text><text x="9.017999999999999" y="181.86299999999997" class="c">rename</text><text x="16.032" y="181.86299999999997" class="c">file</text><text x="21.041999999999998" y="181.86299999999997" class="c">&#x27;/tmp/RtmpyrRauQ/file36d82c67ba5e/src/contrib/4.1.0/Recommended/nlme_3.1-152.ta</text><text x="0" y="184.034" class="c">r.gz.tmp.1&#x27;</text><text x="12.024" y="184.034" class="c">to</text><text x="15.029999999999998" y="184.034" class="c">&#x27;/tmp/RtmpyrRauQ/file36d82c67ba5e/src/contrib/4.1.0/Recommended/nlme_3.1-152.tar.gz&#x27;,</text><text x="1.002" y="186.20499999999998" class="c">reason</text><text x="8.016" y="186.20499999999998" class="c">&#x27;No</text><text x="12.024" y="186.20499999999998" class="c">such</text><text x="17.034" y="186.20499999999998" class="c">file</text><text x="22.043999999999997" y="186.20499999999998" class="c">or</text><text x="25.05" y="186.20499999999998" class="c">directory&#x27;</text><text x="0" y="188.376" class="c">7:</text><text x="3.006" y="188.376" class="c">In</text><text x="6.012" y="188.376" class="c">file.rename(tmp_destfile,</text><text x="32.064" y="188.376" class="c">destfile)</text><text x="42.083999999999996" y="188.376" class="c">:</text><text x="2.004" y="190.547" class="c">cannot</text><text x="9.017999999999999" y="190.547" class="c">rename</text><text x="16.032" y="190.547" class="c">file</text><text x="21.041999999999998" y="190.547" class="c">&#x27;/tmp/RtmpyrRauQ/file36d82c67ba5e/src/contrib/4.1.0/Recommended/mgcv_1.8-34.tar</text><text x="0" y="192.71799999999996" class="c">.gz.tmp.1&#x27;</text><text x="11.021999999999998" y="192.71799999999996" class="c">to</text><text x="14.027999999999999" y="192.71799999999996" class="c">&#x27;/tmp/RtmpyrRauQ/file36d82c67ba5e/src/contrib/4.1.0/Recommended/mgcv_1.8-34.tar.gz&#x27;,</text><text x="99.198" y="192.71799999999996" class="c">r</text><text x="0" y="194.88899999999998" class="c">eason</text><text x="6.012" y="194.88899999999998" class="c">&#x27;No</text><text x="10.02" y="194.88899999999998" class="c">such</text><text x="15.029999999999998" y="194.88899999999998" class="c">file</text><text x="20.04" y="194.88899999999998" class="c">or</text><text x="23.045999999999996" y="194.88899999999998" class="c">directory&#x27;</text><text x="0" y="197.05999999999997" class="c">#</text><text x="2.004" y="197.05999999999997" class="c">A</text><text x="4.008" y="197.05999999999997" class="c">tibble:</text><text x="12.024" y="197.05999999999997" class="c">74</text><text x="15.029999999999998" y="197.05999999999997" class="c">x</text><text x="17.034" y="197.05999999999997" class="c">34</text><text x="3.006" y="199.231" class="c">ref</text><text x="10.02" y="199.231" class="c">type</text><text x="16.032" y="199.231" class="c">direct</text><text x="23.045999999999996" y="199.231" class="c">directpkg</text><text x="33.065999999999995" y="199.231" class="c">status</text><text x="40.08" y="199.231" class="c">package</text><text x="48.096" y="199.231" class="c">version</text><text x="56.111999999999995" y="199.231" class="c">license</text><text x="64.128" y="199.231" class="c">needscompilation</text><text x="3.006" y="201.402" class="c">&lt;chr&gt;</text><text x="10.02" y="201.402" class="c">&lt;chr&gt;</text><text x="16.032" y="201.402" class="c">&lt;lgl&gt;</text><text x="23.045999999999996" y="201.402" class="c">&lt;lgl&gt;</text><text x="33.065999999999995" y="201.402" class="c">&lt;chr&gt;</text><text x="40.08" y="201.402" class="c">&lt;chr&gt;</text><text x="48.096" y="201.402" class="c">&lt;chr&gt;</text><text x="56.111999999999995" y="201.402" class="c">&lt;chr&gt;</text><text x="64.128" y="201.402" class="c">&lt;lgl&gt;</text><text x="1.002" y="203.573" class="c">1</text><text x="3.006" y="203.573" class="c">MASS</text><text x="10.02" y="203.573" class="c">stan…</text><text x="16.032" y="203.573" class="c">FALSE</text><text x="23.045999999999996" y="203.573" class="c">FALSE</text><text x="33.065999999999995" y="203.573" class="c">OK</text><text x="40.08" y="203.573" class="c">MASS</text><text x="48.096" y="203.573" class="c">7.3-53…</text><text x="56.111999999999995" y="203.573" class="c">GPL-2</text><text x="62.123999999999995" y="203.573" class="c">…</text><text x="64.128" y="203.573" class="c">TRUE</text><text x="1.002" y="205.74399999999997" class="c">2</text><text x="3.006" y="205.74399999999997" class="c">MASS</text><text x="10.02" y="205.74399999999997" class="c">stan…</text><text x="16.032" y="205.74399999999997" class="c">FALSE</text><text x="23.045999999999996" y="205.74399999999997" class="c">FALSE</text><text x="33.065999999999995" y="205.74399999999997" class="c">OK</text><text x="40.08" y="205.74399999999997" class="c">MASS</text><text x="48.096" y="205.74399999999997" class="c">7.3-53…</text><text x="56.111999999999995" y="205.74399999999997" class="c">GPL-2</text><text x="62.123999999999995" y="205.74399999999997" class="c">…</text><text x="64.128" y="205.74399999999997" class="c">TRUE</text><text x="1.002" y="207.915" class="c">3</text><text x="3.006" y="207.915" class="c">Matrix</text><text x="10.02" y="207.915" class="c">stan…</text><text x="16.032" y="207.915" class="c">FALSE</text><text x="23.045999999999996" y="207.915" class="c">FALSE</text><text x="33.065999999999995" y="207.915" class="c">OK</text><text x="40.08" y="207.915" class="c">Matrix</text><text x="48.096" y="207.915" class="c">1.3-2</text><text x="56.111999999999995" y="207.915" class="c">GPL</text><text x="60.11999999999999" y="207.915" class="c">(&gt;…</text><text x="64.128" y="207.915" class="c">TRUE</text><text x="1.002" y="210.08599999999998" class="c">4</text><text x="3.006" y="210.08599999999998" class="c">Matrix</text><text x="10.02" y="210.08599999999998" class="c">stan…</text><text x="16.032" y="210.08599999999998" class="c">FALSE</text><text x="23.045999999999996" y="210.08599999999998" class="c">FALSE</text><text x="33.065999999999995" y="210.08599999999998" class="c">OK</text><text x="40.08" y="210.08599999999998" class="c">Matrix</text><text x="48.096" y="210.08599999999998" class="c">1.3-2</text><text x="56.111999999999995" y="210.08599999999998" class="c">GPL</text><text x="60.11999999999999" y="210.08599999999998" class="c">(&gt;…</text><text x="64.128" y="210.08599999999998" class="c">TRUE</text><text x="1.002" y="212.25699999999998" class="c">5</text><text x="3.006" y="212.25699999999998" class="c">R6</text><text x="10.02" y="212.25699999999998" class="c">stan…</text><text x="16.032" y="212.25699999999998" class="c">FALSE</text><text x="23.045999999999996" y="212.25699999999998" class="c">FALSE</text><text x="33.065999999999995" y="212.25699999999998" class="c">OK</text><text x="40.08" y="212.25699999999998" class="c">R6</text><text x="48.096" y="212.25699999999998" class="c">2.5.0</text><text x="56.111999999999995" y="212.25699999999998" class="c">MIT</text><text x="60.11999999999999" y="212.25699999999998" class="c">+</text><text x="62.123999999999995" y="212.25699999999998" class="c">…</text><text x="64.128" y="212.25699999999998" class="c">FALSE</text><text x="1.002" y="214.428" class="c">6</text><text x="3.006" y="214.428" class="c">RColo…</text><text x="10.02" y="214.428" class="c">stan…</text><text x="16.032" y="214.428" class="c">FALSE</text><text x="23.045999999999996" y="214.428" class="c">FALSE</text><text x="33.065999999999995" y="214.428" class="c">OK</text><text x="40.08" y="214.428" class="c">RColor…</text><text x="48.096" y="214.428" class="c">1.1-2</text><text x="56.111999999999995" y="214.428" class="c">Apache…</text><text x="64.128" y="214.428" class="c">FALSE</text><text x="1.002" y="216.59899999999996" class="c">7</text><text x="3.006" y="216.59899999999996" class="c">asser…</text><text x="10.02" y="216.59899999999996" class="c">stan…</text><text x="16.032" y="216.59899999999996" class="c">FALSE</text><text x="23.045999999999996" y="216.59899999999996" class="c">FALSE</text><text x="33.065999999999995" y="216.59899999999996" class="c">OK</text><text x="40.08" y="216.59899999999996" class="c">assert…</text><text x="48.096" y="216.59899999999996" class="c">0.2.1</text><text x="56.111999999999995" y="216.59899999999996" class="c">GPL-3</text><text x="64.128" y="216.59899999999996" class="c">FALSE</text><text x="1.002" y="218.76999999999998" class="c">8</text><text x="3.006" y="218.76999999999998" class="c">cli</text><text x="10.02" y="218.76999999999998" class="c">stan…</text><text x="16.032" y="218.76999999999998" class="c">FALSE</text><text x="23.045999999999996" y="218.76999999999998" class="c">FALSE</text><text x="33.065999999999995" y="218.76999999999998" class="c">OK</text><text x="40.08" y="218.76999999999998" class="c">cli</text><text x="48.096" y="218.76999999999998" class="c">2.3.1</text><text x="56.111999999999995" y="218.76999999999998" class="c">MIT</text><text x="60.11999999999999" y="218.76999999999998" class="c">+</text><text x="62.123999999999995" y="218.76999999999998" class="c">…</text><text x="64.128" y="218.76999999999998" class="c">FALSE</text><text x="1.002" y="220.94099999999997" class="c">9</text><text x="3.006" y="220.94099999999997" class="c">color…</text><text x="10.02" y="220.94099999999997" class="c">stan…</text><text x="16.032" y="220.94099999999997" class="c">FALSE</text><text x="23.045999999999996" y="220.94099999999997" class="c">FALSE</text><text x="33.065999999999995" y="220.94099999999997" class="c">OK</text><text x="40.08" y="220.94099999999997" class="c">colors…</text><text x="48.096" y="220.94099999999997" class="c">2.0-0</text><text x="56.111999999999995" y="220.94099999999997" class="c">BSD_3_…</text><text x="64.128" y="220.94099999999997" class="c">TRUE</text><text x="0" y="223.112" class="c">10</text><text x="3.006" y="223.112" class="c">crayon</text><text x="10.02" y="223.112" class="c">stan…</text><text x="16.032" y="223.112" class="c">FALSE</text><text x="23.045999999999996" y="223.112" class="c">FALSE</text><text x="33.065999999999995" y="223.112" class="c">OK</text><text x="40.08" y="223.112" class="c">crayon</text><text x="48.096" y="223.112" class="c">1.4.1</text><text x="56.111999999999995" y="223.112" class="c">MIT</text><text x="60.11999999999999" y="223.112" class="c">+</text><text x="62.123999999999995" y="223.112" class="c">…</text><text x="64.128" y="223.112" class="c">FALSE</text><text x="0" y="225.283" class="c">#</text><text x="2.004" y="225.283" class="c">…</text><text x="4.008" y="225.283" class="c">with</text><text x="9.017999999999999" y="225.283" class="c">64</text><text x="12.024" y="225.283" class="c">more</text><text x="17.034" y="225.283" class="c">rows,</text><text x="23.045999999999996" y="225.283" class="c">and</text><text x="27.054" y="225.283" class="c">25</text><text x="30.059999999999995" y="225.283" class="c">more</text><text x="35.06999999999999" y="225.283" class="c">variables:</text><text x="46.09199999999999" y="225.283" class="c">priority</text><text x="55.10999999999999" y="225.283" class="c">&lt;chr&gt;,</text><text x="62.123999999999995" y="225.283" class="c">md5sum</text><text x="69.13799999999999" y="225.283" class="c">&lt;chr&gt;,</text><text x="0" y="227.454" class="c">#</text><text x="4.008" y="227.454" class="c">sha256</text><text x="11.021999999999998" y="227.454" class="c">&lt;chr&gt;,</text><text x="18.035999999999998" y="227.454" class="c">filesize</text><text x="27.054" y="227.454" class="c">&lt;int&gt;,</text><text x="34.068" y="227.454" class="c">built</text><text x="40.08" y="227.454" class="c">&lt;chr&gt;,</text><text x="47.093999999999994" y="227.454" class="c">platform</text><text x="56.111999999999995" y="227.454" class="c">&lt;chr&gt;,</text><text x="63.12599999999999" y="227.454" class="c">rversion</text><text x="72.14399999999999" y="227.454" class="c">&lt;chr&gt;,</text><text x="0" y="229.625" class="c">#</text><text x="4.008" y="229.625" class="c">repotype</text><text x="13.026" y="229.625" class="c">&lt;chr&gt;,</text><text x="20.04" y="229.625" class="c">repodir</text><text x="28.055999999999997" y="229.625" class="c">&lt;chr&gt;,</text><text x="35.06999999999999" y="229.625" class="c">target</text><text x="42.083999999999996" y="229.625" class="c">&lt;chr&gt;,</text><text x="49.098" y="229.625" class="c">deps</text><text x="54.108" y="229.625" class="c">&lt;list&gt;,</text><text x="62.123999999999995" y="229.625" class="c">mirror</text><text x="69.13799999999999" y="229.625" class="c">&lt;chr&gt;,</text><text x="0" y="231.79599999999996" class="c">#</text><text x="4.008" y="231.79599999999996" class="c">sources</text><text x="12.024" y="231.79599999999996" class="c">&lt;list&gt;,</text><text x="20.04" y="231.79599999999996" class="c">remote</text><text x="27.054" y="231.79599999999996" class="c">&lt;list&gt;,</text><text x="35.06999999999999" y="231.79599999999996" class="c">error</text><text x="41.082" y="231.79599999999996" class="c">&lt;list&gt;,</text><text x="49.098" y="231.79599999999996" class="c">metadata</text><text x="58.116" y="231.79599999999996" class="c">&lt;list&gt;,</text><text x="66.13199999999999" y="231.79599999999996" class="c">extra</text><text x="72.14399999999999" y="231.79599999999996" class="c">&lt;list&gt;,</text><text x="0" y="233.96699999999998" class="c">#</text><text x="4.008" y="233.96699999999998" class="c">dep_types</text><text x="14.027999999999999" y="233.96699999999998" class="c">&lt;list&gt;,</text><text x="22.043999999999997" y="233.96699999999998" class="c">params</text><text x="29.058" y="233.96699999999998" class="c">&lt;list&gt;,</text><text x="37.074" y="233.96699999999998" class="c">cache_status</text><text x="50.1" y="233.96699999999998" class="c">&lt;chr&gt;,</text><text x="57.114" y="233.96699999999998" class="c">fulltarget</text><text x="68.136" y="233.96699999999998" class="c">&lt;chr&gt;,</text><text x="0" y="236.13799999999998" class="c">#</text><text x="4.008" y="236.13799999999998" class="c">fulltarget_tree</text><text x="20.04" y="236.13799999999998" class="c">&lt;chr&gt;,</text><text x="27.054" y="236.13799999999998" class="c">download_status</text><text x="43.086" y="236.13799999999998" class="c">&lt;chr&gt;,</text><text x="50.1" y="236.13799999999998" class="c">download_error</text><text x="65.13" y="236.13799999999998" class="c">&lt;list&gt;,</text><text x="0" y="238.309" class="c">#</text><text x="4.008" y="238.309" class="c">file_size</text><text x="14.027999999999999" y="238.309" class="c">&lt;dbl&gt;</text><text x="0" y="240.48" class="c">[1]</text><text x="4.008" y="240.48" class="c">&quot;src&quot;</text></svg></svg></g></svg></svg>