<svg xmlns="http://www.w3.org/2000/svg" xmlns:xlink="http://www.w3.org/1999/xlink" width="1040" height="2276.13"><rect width="1040" height="2276.13" rx="0" ry="0" class="a"></rect><svg height="2236.13" viewBox="0 0 100 223.613" width="1000" x="20" xmlns="http://www.w3.org/2000/svg" xmlns:xlink="http://www.w3.org/1999/xlink" y="20"><style>.a{fill:rgb(40,45,53)}.b{font-family:'Fira Code',Monaco,Consolas,Menlo,'Bitstream Vera Sans Mono','Powerline Symbols',monospace}.c{fill:rgb(185,192,203);white-space:pre}.d{fill:transparent}</style><g font-family="&#x27;Fira Code&#x27;,Monaco,Consolas,Menlo,&#x27;Bitstream Vera Sans Mono&#x27;,&#x27;Powerline Symbols&#x27;,monospace" font-size="1.67" class="b"><defs><symbol id="1"><text x="0" y="1.67" class="c">✔</text><text x="2.004" y="1.67" class="c">Got</text><text x="6.012" y="1.67" class="c">fansi</text><text x="12.024" y="1.67" class="c">0.4.2</text><text x="18.035999999999998" y="1.67" class="c">(source)</text><text x="27.054" y="1.67" class="c">(253.82</text><text x="35.06999999999999" y="1.67" class="c">kB)</text></symbol><symbol id="2"><text x="0" y="1.67" class="c">✔</text><text x="2.004" y="1.67" class="c">Got</text><text x="6.012" y="1.67" class="c">R6</text><text x="9.017999999999999" y="1.67" class="c">2.5.0</text><text x="15.029999999999998" y="1.67" class="c">(source)</text><text x="24.048" y="1.67" class="c">(63.36</text><text x="31.061999999999998" y="1.67" class="c">kB)</text></symbol><symbol id="3"><text x="0" y="1.67" class="c">✔</text><text x="2.004" y="1.67" class="c">Got</text><text x="6.012" y="1.67" class="c">pkgconfig</text><text x="16.032" y="1.67" class="c">2.0.3</text><text x="22.043999999999997" y="1.67" class="c">(source)</text><text x="31.061999999999998" y="1.67" class="c">(6.08</text><text x="37.074" y="1.67" class="c">kB)</text></symbol><symbol id="4"><text x="0" y="1.67" class="c">✔</text><text x="2.004" y="1.67" class="c">Got</text><text x="6.012" y="1.67" class="c">labeling</text><text x="15.029999999999998" y="1.67" class="c">0.4.2</text><text x="21.041999999999998" y="1.67" class="c">(source)</text><text x="30.059999999999995" y="1.67" class="c">(58.75</text><text x="37.074" y="1.67" class="c">kB)</text></symbol><symbol id="5"><text x="0" y="1.67" class="c">✔</text><text x="2.004" y="1.67" class="c">Got</text><text x="6.012" y="1.67" class="c">viridisLite</text><text x="18.035999999999998" y="1.67" class="c">0.3.0</text><text x="24.048" y="1.67" class="c">(source)</text><text x="33.065999999999995" y="1.67" class="c">(44.02</text><text x="40.08" y="1.67" class="c">kB)</text></symbol><symbol id="6"><text x="0" y="1.67" class="c">✔</text><text x="2.004" y="1.67" class="c">Got</text><text x="6.012" y="1.67" class="c">mgcv</text><text x="11.021999999999998" y="1.67" class="c">1.8-34</text><text x="18.035999999999998" y="1.67" class="c">(source)</text><text x="27.054" y="1.67" class="c">(1.15</text><text x="33.065999999999995" y="1.67" class="c">MB)</text></symbol><symbol id="7"><text x="0" y="1.67" class="c">✔</text><text x="2.004" y="1.67" class="c">Got</text><text x="6.012" y="1.67" class="c">withr</text><text x="12.024" y="1.67" class="c">2.4.1</text><text x="18.035999999999998" y="1.67" class="c">(source)</text><text x="27.054" y="1.67" class="c">(91.90</text><text x="34.068" y="1.67" class="c">kB)</text></symbol><symbol id="8"><text x="0" y="1.67" class="c">✔</text><text x="2.004" y="1.67" class="c">Got</text><text x="6.012" y="1.67" class="c">munsell</text><text x="14.027999999999999" y="1.67" class="c">0.5.0</text><text x="20.04" y="1.67" class="c">(source)</text><text x="29.058" y="1.67" class="c">(240.63</text><text x="37.074" y="1.67" class="c">kB)</text></symbol><symbol id="9"><text x="0" y="1.67" class="c">✔</text><text x="2.004" y="1.67" class="c">Got</text><text x="6.012" y="1.67" class="c">utf8</text><text x="11.021999999999998" y="1.67" class="c">1.1.4</text><text x="17.034" y="1.67" class="c">(source)</text><text x="26.052" y="1.67" class="c">(234.66</text><text x="34.068" y="1.67" class="c">kB)</text></symbol><symbol id="10"><text x="0" y="1.67" class="c">✔</text><text x="2.004" y="1.67" class="c">Got</text><text x="6.012" y="1.67" class="c">lattice</text><text x="14.027999999999999" y="1.67" class="c">0.20-41</text><text x="22.043999999999997" y="1.67" class="c">(source)</text><text x="31.061999999999998" y="1.67" class="c">(127.49</text><text x="39.077999999999996" y="1.67" class="c">kB)</text></symbol><symbol id="11"><text x="0" y="1.67" class="c">✔</text><text x="2.004" y="1.67" class="c">Got</text><text x="6.012" y="1.67" class="c">gtable</text><text x="13.026" y="1.67" class="c">0.3.0</text><text x="19.037999999999997" y="1.67" class="c">(source)</text><text x="28.055999999999997" y="1.67" class="c">(105.94</text><text x="36.071999999999996" y="1.67" class="c">kB)</text></symbol><symbol id="12"><text x="0" y="1.67" class="c">✔</text><text x="2.004" y="1.67" class="c">Got</text><text x="6.012" y="1.67" class="c">MASS</text><text x="11.021999999999998" y="1.67" class="c">7.3-53.1</text><text x="20.04" y="1.67" class="c">(source)</text><text x="29.058" y="1.67" class="c">(505.01</text><text x="37.074" y="1.67" class="c">kB)</text></symbol><symbol id="13"><text x="0" y="1.67" class="c">✔</text><text x="2.004" y="1.67" class="c">Got</text><text x="6.012" y="1.67" class="c">vctrs</text><text x="12.024" y="1.67" class="c">0.3.6</text><text x="18.035999999999998" y="1.67" class="c">(source)</text><text x="27.054" y="1.67" class="c">(29.51</text><text x="34.068" y="1.67" class="c">kB)</text></symbol><symbol id="14"><text x="0" y="1.67" class="c">✔</text><text x="2.004" y="1.67" class="c">Got</text><text x="6.012" y="1.67" class="c">nlme</text><text x="11.021999999999998" y="1.67" class="c">3.1-152</text><text x="19.037999999999997" y="1.67" class="c">(source)</text><text x="28.055999999999997" y="1.67" class="c">(1.61</text><text x="34.068" y="1.67" class="c">MB)</text></symbol><symbol id="15"><text x="0" y="1.67" class="c">✔</text><text x="2.004" y="1.67" class="c">Got</text><text x="6.012" y="1.67" class="c">rlang</text><text x="12.024" y="1.67" class="c">0.4.10</text><text x="19.037999999999997" y="1.67" class="c">(source)</text><text x="28.055999999999997" y="1.67" class="c">(2.31</text><text x="34.068" y="1.67" class="c">MB)</text></symbol><symbol id="16"><text x="0" y="1.67" class="c">✔</text><text x="2.004" y="1.67" class="c">Got</text><text x="6.012" y="1.67" class="c">farver</text><text x="13.026" y="1.67" class="c">2.1.0</text><text x="19.037999999999997" y="1.67" class="c">(source)</text><text x="28.055999999999997" y="1.67" class="c">(1.03</text><text x="34.068" y="1.67" class="c">MB)</text></symbol><symbol id="17"><text x="0" y="1.67" class="c">✔</text><text x="2.004" y="1.67" class="c">Got</text><text x="6.012" y="1.67" class="c">nlme</text><text x="11.021999999999998" y="1.67" class="c">3.1-152</text><text x="19.037999999999997" y="1.67" class="c">(source)</text><text x="28.055999999999997" y="1.67" class="c">(922.71</text><text x="36.071999999999996" y="1.67" class="c">kB)</text></symbol><symbol id="18"><text x="0" y="1.67" class="c">✔</text><text x="2.004" y="1.67" class="c">Got</text><text x="6.012" y="1.67" class="c">mgcv</text><text x="11.021999999999998" y="1.67" class="c">1.8-34</text><text x="18.035999999999998" y="1.67" class="c">(source)</text><text x="27.054" y="1.67" class="c">(1.83</text><text x="33.065999999999995" y="1.67" class="c">MB)</text></symbol><symbol id="19"><text x="0" y="1.67" class="c">✔</text><text x="2.004" y="1.67" class="c">Got</text><text x="6.012" y="1.67" class="c">isoband</text><text x="14.027999999999999" y="1.67" class="c">0.2.4</text><text x="20.04" y="1.67" class="c">(source)</text><text x="29.058" y="1.67" class="c">(6.62</text><text x="35.06999999999999" y="1.67" class="c">MB)</text></symbol><symbol id="a"><rect height="104" width="100" x="0" y="0" class="d"></rect></symbol></defs><rect height="223.613" width="100" class="a"></rect><svg x="0" y="0" width="100"><svg x="0"><use xlink:href="#a"></use><text x="0" y="1.67" class="c">✔</text><text x="2.004" y="1.67" class="c">Got</text><text x="6.012" y="1.67" class="c">colorspace</text><text x="17.034" y="1.67" class="c">2.0-0</text><text x="23.045999999999996" y="1.67" class="c">(source)</text><text x="32.064" y="1.67" class="c">(2.20</text><text x="38.07599999999999" y="1.67" class="c">MB)</text><text x="0" y="3.8409999999999997" class="c">✔</text><text x="2.004" y="3.8409999999999997" class="c">Got</text><text x="6.012" y="3.8409999999999997" class="c">digest</text><text x="13.026" y="3.8409999999999997" class="c">0.6.27</text><text x="20.04" y="3.8409999999999997" class="c">(source)</text><text x="29.058" y="3.8409999999999997" class="c">(164.37</text><text x="37.074" y="3.8409999999999997" class="c">kB)</text><use xlink:href="#1" y="4.342"></use><text x="0" y="8.183" class="c">✔</text><text x="2.004" y="8.183" class="c">Got</text><text x="6.012" y="8.183" class="c">glue</text><text x="11.021999999999998" y="8.183" class="c">1.4.2</text><text x="17.034" y="8.183" class="c">(source)</text><text x="26.052" y="8.183" class="c">(99.05</text><text x="33.065999999999995" y="8.183" class="c">kB)</text><text x="0" y="10.354" class="c">✔</text><text x="2.004" y="10.354" class="c">Got</text><text x="6.012" y="10.354" class="c">RColorBrewer</text><text x="19.037999999999997" y="10.354" class="c">1.1-2</text><text x="25.05" y="10.354" class="c">(source)</text><text x="34.068" y="10.354" class="c">(52.76</text><text x="41.082" y="10.354" class="c">kB)</text><use xlink:href="#2" y="10.855"></use><text x="0" y="14.696" class="c">✔</text><text x="2.004" y="14.696" class="c">Got</text><text x="6.012" y="14.696" class="c">MASS</text><text x="11.021999999999998" y="14.696" class="c">7.3-53.1</text><text x="20.04" y="14.696" class="c">(source)</text><text x="29.058" y="14.696" class="c">(1.15</text><text x="35.06999999999999" y="14.696" class="c">MB)</text><use xlink:href="#1" y="15.197"></use><text x="0" y="19.037999999999997" class="c">✔</text><text x="2.004" y="19.037999999999997" class="c">Got</text><text x="6.012" y="19.037999999999997" class="c">ggplot2</text><text x="14.027999999999999" y="19.037999999999997" class="c">3.3.3</text><text x="20.04" y="19.037999999999997" class="c">(source)</text><text x="29.058" y="19.037999999999997" class="c">(4.44</text><text x="35.06999999999999" y="19.037999999999997" class="c">MB)</text><use xlink:href="#3" y="19.539"></use><text x="0" y="23.380000000000003" class="c">✔</text><text x="2.004" y="23.380000000000003" class="c">Got</text><text x="6.012" y="23.380000000000003" class="c">pillar</text><text x="13.026" y="23.380000000000003" class="c">1.5.1</text><text x="19.037999999999997" y="23.380000000000003" class="c">(source)</text><text x="28.055999999999997" y="23.380000000000003" class="c">(955.16</text><text x="36.071999999999996" y="23.380000000000003" class="c">kB)</text><use xlink:href="#4" y="23.880999999999997"></use><text x="0" y="27.722" class="c">✔</text><text x="2.004" y="27.722" class="c">Got</text><text x="6.012" y="27.722" class="c">assertthat</text><text x="17.034" y="27.722" class="c">0.2.1</text><text x="23.045999999999996" y="27.722" class="c">(source)</text><text x="32.064" y="27.722" class="c">(52.14</text><text x="39.077999999999996" y="27.722" class="c">kB)</text><text x="0" y="29.893" class="c">✔</text><text x="2.004" y="29.893" class="c">Got</text><text x="6.012" y="29.893" class="c">magrittr</text><text x="15.029999999999998" y="29.893" class="c">2.0.1</text><text x="21.041999999999998" y="29.893" class="c">(source)</text><text x="30.059999999999995" y="29.893" class="c">(297.09</text><text x="38.07599999999999" y="29.893" class="c">kB)</text><text x="0" y="32.064" class="c">✔</text><text x="2.004" y="32.064" class="c">Got</text><text x="6.012" y="32.064" class="c">lifecycle</text><text x="16.032" y="32.064" class="c">1.0.0</text><text x="22.043999999999997" y="32.064" class="c">(source)</text><text x="31.061999999999998" y="32.064" class="c">(83.39</text><text x="38.07599999999999" y="32.064" class="c">kB)</text><text x="0" y="34.235" class="c">✔</text><text x="2.004" y="34.235" class="c">Got</text><text x="6.012" y="34.235" class="c">ellipsis</text><text x="15.029999999999998" y="34.235" class="c">0.3.1</text><text x="21.041999999999998" y="34.235" class="c">(source)</text><text x="30.059999999999995" y="34.235" class="c">(37.50</text><text x="37.074" y="34.235" class="c">kB)</text><use xlink:href="#5" y="34.736"></use><use xlink:href="#6" y="36.907000000000004"></use><text x="0" y="40.748000000000005" class="c">✔</text><text x="2.004" y="40.748000000000005" class="c">Got</text><text x="6.012" y="40.748000000000005" class="c">Matrix</text><text x="13.026" y="40.748000000000005" class="c">1.3-2</text><text x="19.037999999999997" y="40.748000000000005" class="c">(source)</text><text x="28.055999999999997" y="40.748000000000005" class="c">(5.41</text><text x="34.068" y="40.748000000000005" class="c">MB)</text><text x="0" y="42.919" class="c">✔</text><text x="2.004" y="42.919" class="c">Got</text><text x="6.012" y="42.919" class="c">MASS</text><text x="11.021999999999998" y="42.919" class="c">7.3-53.1</text><text x="20.04" y="42.919" class="c">(source)</text><text x="29.058" y="42.919" class="c">(507.58</text><text x="37.074" y="42.919" class="c">kB)</text><use xlink:href="#7" y="43.42"></use><use xlink:href="#8" y="45.591"></use><text x="0" y="49.431999999999995" class="c">✔</text><text x="2.004" y="49.431999999999995" class="c">Got</text><text x="6.012" y="49.431999999999995" class="c">Matrix</text><text x="13.026" y="49.431999999999995" class="c">1.3-2</text><text x="19.037999999999997" y="49.431999999999995" class="c">(source)</text><text x="28.055999999999997" y="49.431999999999995" class="c">(1.98</text><text x="34.068" y="49.431999999999995" class="c">MB)</text><use xlink:href="#4" y="49.933"></use><text x="0" y="53.774" class="c">✔</text><text x="2.004" y="53.774" class="c">Got</text><text x="6.012" y="53.774" class="c">tibble</text><text x="13.026" y="53.774" class="c">3.1.0</text><text x="19.037999999999997" y="53.774" class="c">(source)</text><text x="28.055999999999997" y="53.774" class="c">(809.94</text><text x="36.071999999999996" y="53.774" class="c">kB)</text><use xlink:href="#3" y="54.275"></use><text x="0" y="58.11600000000001" class="c">✔</text><text x="2.004" y="58.11600000000001" class="c">Got</text><text x="6.012" y="58.11600000000001" class="c">crayon</text><text x="13.026" y="58.11600000000001" class="c">1.4.1</text><text x="19.037999999999997" y="58.11600000000001" class="c">(source)</text><text x="28.055999999999997" y="58.11600000000001" class="c">(138.30</text><text x="36.071999999999996" y="58.11600000000001" class="c">kB)</text><text x="0" y="60.287" class="c">✔</text><text x="2.004" y="60.287" class="c">Got</text><text x="6.012" y="60.287" class="c">scales</text><text x="13.026" y="60.287" class="c">1.1.1</text><text x="19.037999999999997" y="60.287" class="c">(source)</text><text x="28.055999999999997" y="60.287" class="c">(545.32</text><text x="36.071999999999996" y="60.287" class="c">kB)</text><use xlink:href="#2" y="60.788"></use><text x="0" y="64.629" class="c">✔</text><text x="2.004" y="64.629" class="c">Got</text><text x="6.012" y="64.629" class="c">RColorBrewer</text><text x="19.037999999999997" y="64.629" class="c">1.1-2</text><text x="25.05" y="64.629" class="c">(source)</text><text x="34.068" y="64.629" class="c">(11.53</text><text x="41.082" y="64.629" class="c">kB)</text><use xlink:href="#9" y="65.13"></use><use xlink:href="#5" y="67.301"></use><use xlink:href="#7" y="69.472"></use><use xlink:href="#10" y="71.643"></use><use xlink:href="#8" y="73.81400000000001"></use><use xlink:href="#9" y="75.985"></use><text x="0" y="79.82600000000001" class="c">✔</text><text x="2.004" y="79.82600000000001" class="c">Got</text><text x="6.012" y="79.82600000000001" class="c">glue</text><text x="11.021999999999998" y="79.82600000000001" class="c">1.4.2</text><text x="17.034" y="79.82600000000001" class="c">(source)</text><text x="26.052" y="79.82600000000001" class="c">(144.33</text><text x="34.068" y="79.82600000000001" class="c">kB)</text><use xlink:href="#11" y="80.327"></use><text x="0" y="84.16799999999999" class="c">✔</text><text x="2.004" y="84.16799999999999" class="c">Got</text><text x="6.012" y="84.16799999999999" class="c">cli</text><text x="10.02" y="84.16799999999999" class="c">2.3.1</text><text x="16.032" y="84.16799999999999" class="c">(source)</text><text x="25.05" y="84.16799999999999" class="c">(463.62</text><text x="33.065999999999995" y="84.16799999999999" class="c">kB)</text><use xlink:href="#10" y="84.669"></use><use xlink:href="#11" y="86.84"></use><text x="0" y="90.681" class="c">✔</text><text x="2.004" y="90.681" class="c">Got</text><text x="6.012" y="90.681" class="c">lifecycle</text><text x="16.032" y="90.681" class="c">1.0.0</text><text x="22.043999999999997" y="90.681" class="c">(source)</text><text x="31.061999999999998" y="90.681" class="c">(93.21</text><text x="38.07599999999999" y="90.681" class="c">kB)</text><use xlink:href="#10" y="91.182"></use><text x="0" y="95.02300000000001" class="c">✔</text><text x="2.004" y="95.02300000000001" class="c">Got</text><text x="6.012" y="95.02300000000001" class="c">magrittr</text><text x="15.029999999999998" y="95.02300000000001" class="c">2.0.1</text><text x="21.041999999999998" y="95.02300000000001" class="c">(source)</text><text x="30.059999999999995" y="95.02300000000001" class="c">(200.93</text><text x="38.07599999999999" y="95.02300000000001" class="c">kB)</text><use xlink:href="#12" y="95.52399999999999"></use><text x="0" y="99.365" class="c">✔</text><text x="2.004" y="99.365" class="c">Got</text><text x="6.012" y="99.365" class="c">digest</text><text x="13.026" y="99.365" class="c">0.6.27</text><text x="20.04" y="99.365" class="c">(source)</text><text x="29.058" y="99.365" class="c">(357.34</text><text x="37.074" y="99.365" class="c">kB)</text><text x="0" y="101.536" class="c">✔</text><text x="2.004" y="101.536" class="c">Got</text><text x="6.012" y="101.536" class="c">scales</text><text x="13.026" y="101.536" class="c">1.1.1</text><text x="19.037999999999997" y="101.536" class="c">(source)</text><text x="28.055999999999997" y="101.536" class="c">(515.20</text><text x="36.071999999999996" y="101.536" class="c">kB)</text><use xlink:href="#10" y="102.03699999999999"></use><use xlink:href="#12" y="104.208"></use><use xlink:href="#13" y="106.379"></use><text x="0" y="110.22" class="c">✔</text><text x="2.004" y="110.22" class="c">Got</text><text x="6.012" y="110.22" class="c">tibble</text><text x="13.026" y="110.22" class="c">3.1.0</text><text x="19.037999999999997" y="110.22" class="c">(source)</text><text x="28.055999999999997" y="110.22" class="c">(686.46</text><text x="36.071999999999996" y="110.22" class="c">kB)</text><use xlink:href="#14" y="110.721"></use><use xlink:href="#15" y="112.89200000000001"></use><use xlink:href="#16" y="115.06299999999999"></use><use xlink:href="#17" y="117.234"></use><use xlink:href="#15" y="119.405"></use><use xlink:href="#14" y="121.576"></use><use xlink:href="#18" y="123.747"></use><text x="0" y="127.58800000000001" class="c">✔</text><text x="2.004" y="127.58800000000001" class="c">Got</text><text x="6.012" y="127.58800000000001" class="c">pillar</text><text x="13.026" y="127.58800000000001" class="c">1.5.1</text><text x="19.037999999999997" y="127.58800000000001" class="c">(source)</text><text x="28.055999999999997" y="127.58800000000001" class="c">(1.07</text><text x="34.068" y="127.58800000000001" class="c">MB)</text><use xlink:href="#6" y="128.089"></use><use xlink:href="#19" y="130.26"></use><text x="0" y="134.10099999999997" class="c">✔</text><text x="2.004" y="134.10099999999997" class="c">Got</text><text x="6.012" y="134.10099999999997" class="c">Matrix</text><text x="13.026" y="134.10099999999997" class="c">1.3-2</text><text x="19.037999999999997" y="134.10099999999997" class="c">(source)</text><text x="28.055999999999997" y="134.10099999999997" class="c">(1.97</text><text x="34.068" y="134.10099999999997" class="c">MB)</text><use xlink:href="#13" y="134.602"></use><use xlink:href="#19" y="136.773"></use><text x="0" y="140.61399999999998" class="c">✔</text><text x="2.004" y="140.61399999999998" class="c">Got</text><text x="6.012" y="140.61399999999998" class="c">Matrix</text><text x="13.026" y="140.61399999999998" class="c">1.3-2</text><text x="19.037999999999997" y="140.61399999999998" class="c">(source)</text><text x="28.055999999999997" y="140.61399999999998" class="c">(1.71</text><text x="34.068" y="140.61399999999998" class="c">MB)</text><text x="0" y="142.785" class="c">✔</text><text x="2.004" y="142.785" class="c">Got</text><text x="6.012" y="142.785" class="c">ggplot2</text><text x="14.027999999999999" y="142.785" class="c">3.3.3</text><text x="20.04" y="142.785" class="c">(source)</text><text x="29.058" y="142.785" class="c">(2.67</text><text x="35.06999999999999" y="142.785" class="c">MB)</text><use xlink:href="#16" y="143.286"></use><text x="0" y="147.12699999999998" class="c">✔</text><text x="2.004" y="147.12699999999998" class="c">Got</text><text x="6.012" y="147.12699999999998" class="c">colorspace</text><text x="17.034" y="147.12699999999998" class="c">2.0-0</text><text x="23.045999999999996" y="147.12699999999998" class="c">(source)</text><text x="32.064" y="147.12699999999998" class="c">(2.62</text><text x="38.07599999999999" y="147.12699999999998" class="c">MB)</text><use xlink:href="#17" y="147.62800000000001"></use><use xlink:href="#18" y="149.79899999999998"></use><text x="0" y="153.64" class="c">Warning</text><text x="8.016" y="153.64" class="c">messages:</text><text x="0" y="155.81099999999998" class="c">1:</text><text x="3.006" y="155.81099999999998" class="c">In</text><text x="6.012" y="155.81099999999998" class="c">file.rename(tmp_destfile,</text><text x="32.064" y="155.81099999999998" class="c">destfile)</text><text x="42.083999999999996" y="155.81099999999998" class="c">:</text><text x="2.004" y="157.982" class="c">cannot</text><text x="9.017999999999999" y="157.982" class="c">rename</text><text x="16.032" y="157.982" class="c">file</text><text x="21.041999999999998" y="157.982" class="c">&#x27;/tmp/RtmpXQ2Ad0/file36c07c537fc1/src/contrib/rlang_0.4.10.tar.gz.tmp.1&#x27;</text><text x="94.18799999999999" y="157.982" class="c">to</text><text x="97.19399999999999" y="157.982" class="c">&#x27;/t</text><text x="0" y="160.153" class="c">mp/RtmpXQ2Ad0/file36c07c537fc1/src/contrib/rlang_0.4.10.tar.gz&#x27;,</text><text x="65.13" y="160.153" class="c">reason</text><text x="72.14399999999999" y="160.153" class="c">&#x27;No</text><text x="76.15199999999999" y="160.153" class="c">such</text><text x="81.16199999999999" y="160.153" class="c">file</text><text x="86.172" y="160.153" class="c">or</text><text x="89.178" y="160.153" class="c">directory&#x27;</text><text x="0" y="162.32399999999998" class="c">2:</text><text x="3.006" y="162.32399999999998" class="c">In</text><text x="6.012" y="162.32399999999998" class="c">file.rename(tmp_destfile,</text><text x="32.064" y="162.32399999999998" class="c">destfile)</text><text x="42.083999999999996" y="162.32399999999998" class="c">:</text><text x="2.004" y="164.495" class="c">cannot</text><text x="9.017999999999999" y="164.495" class="c">rename</text><text x="16.032" y="164.495" class="c">file</text><text x="21.041999999999998" y="164.495" class="c">&#x27;/tmp/RtmpXQ2Ad0/file36c07c537fc1/src/contrib/4.1.0/Recommended/nlme_3.1-152.ta</text><text x="0" y="166.66599999999997" class="c">r.gz.tmp.1&#x27;</text><text x="12.024" y="166.66599999999997" class="c">to</text><text x="15.029999999999998" y="166.66599999999997" class="c">&#x27;/tmp/RtmpXQ2Ad0/file36c07c537fc1/src/contrib/4.1.0/Recommended/nlme_3.1-152.tar.gz&#x27;,</text><text x="1.002" y="168.837" class="c">reason</text><text x="8.016" y="168.837" class="c">&#x27;No</text><text x="12.024" y="168.837" class="c">such</text><text x="17.034" y="168.837" class="c">file</text><text x="22.043999999999997" y="168.837" class="c">or</text><text x="25.05" y="168.837" class="c">directory&#x27;</text><text x="0" y="171.00799999999998" class="c">3:</text><text x="3.006" y="171.00799999999998" class="c">In</text><text x="6.012" y="171.00799999999998" class="c">file.rename(tmp_destfile,</text><text x="32.064" y="171.00799999999998" class="c">destfile)</text><text x="42.083999999999996" y="171.00799999999998" class="c">:</text><text x="2.004" y="173.179" class="c">cannot</text><text x="9.017999999999999" y="173.179" class="c">rename</text><text x="16.032" y="173.179" class="c">file</text><text x="21.041999999999998" y="173.179" class="c">&#x27;/tmp/RtmpXQ2Ad0/file36c07c537fc1/src/contrib/isoband_0.2.4.tar.gz.tmp.1&#x27;</text><text x="95.19" y="173.179" class="c">to</text><text x="98.196" y="173.179" class="c">&#x27;/</text><text x="0" y="175.35" class="c">tmp/RtmpXQ2Ad0/file36c07c537fc1/src/contrib/isoband_0.2.4.tar.gz&#x27;,</text><text x="67.134" y="175.35" class="c">reason</text><text x="74.148" y="175.35" class="c">&#x27;No</text><text x="78.15599999999999" y="175.35" class="c">such</text><text x="83.16599999999998" y="175.35" class="c">file</text><text x="88.17599999999999" y="175.35" class="c">or</text><text x="91.182" y="175.35" class="c">directory</text><text x="0" y="177.52099999999996" class="c">&#x27;</text><text x="0" y="179.69199999999998" class="c">#</text><text x="2.004" y="179.69199999999998" class="c">A</text><text x="4.008" y="179.69199999999998" class="c">tibble:</text><text x="12.024" y="179.69199999999998" class="c">74</text><text x="15.029999999999998" y="179.69199999999998" class="c">x</text><text x="17.034" y="179.69199999999998" class="c">34</text><text x="3.006" y="181.86299999999997" class="c">ref</text><text x="10.02" y="181.86299999999997" class="c">type</text><text x="16.032" y="181.86299999999997" class="c">direct</text><text x="23.045999999999996" y="181.86299999999997" class="c">directpkg</text><text x="33.065999999999995" y="181.86299999999997" class="c">status</text><text x="40.08" y="181.86299999999997" class="c">package</text><text x="48.096" y="181.86299999999997" class="c">version</text><text x="56.111999999999995" y="181.86299999999997" class="c">license</text><text x="64.128" y="181.86299999999997" class="c">needscompilation</text><text x="3.006" y="184.034" class="c">&lt;chr&gt;</text><text x="10.02" y="184.034" class="c">&lt;chr&gt;</text><text x="16.032" y="184.034" class="c">&lt;lgl&gt;</text><text x="23.045999999999996" y="184.034" class="c">&lt;lgl&gt;</text><text x="33.065999999999995" y="184.034" class="c">&lt;chr&gt;</text><text x="40.08" y="184.034" class="c">&lt;chr&gt;</text><text x="48.096" y="184.034" class="c">&lt;chr&gt;</text><text x="56.111999999999995" y="184.034" class="c">&lt;chr&gt;</text><text x="64.128" y="184.034" class="c">&lt;lgl&gt;</text><text x="1.002" y="186.20499999999998" class="c">1</text><text x="3.006" y="186.20499999999998" class="c">MASS</text><text x="10.02" y="186.20499999999998" class="c">stan…</text><text x="16.032" y="186.20499999999998" class="c">FALSE</text><text x="23.045999999999996" y="186.20499999999998" class="c">FALSE</text><text x="33.065999999999995" y="186.20499999999998" class="c">OK</text><text x="40.08" y="186.20499999999998" class="c">MASS</text><text x="48.096" y="186.20499999999998" class="c">7.3-53…</text><text x="56.111999999999995" y="186.20499999999998" class="c">GPL-2</text><text x="62.123999999999995" y="186.20499999999998" class="c">…</text><text x="64.128" y="186.20499999999998" class="c">TRUE</text><text x="1.002" y="188.376" class="c">2</text><text x="3.006" y="188.376" class="c">MASS</text><text x="10.02" y="188.376" class="c">stan…</text><text x="16.032" y="188.376" class="c">FALSE</text><text x="23.045999999999996" y="188.376" class="c">FALSE</text><text x="33.065999999999995" y="188.376" class="c">OK</text><text x="40.08" y="188.376" class="c">MASS</text><text x="48.096" y="188.376" class="c">7.3-53…</text><text x="56.111999999999995" y="188.376" class="c">GPL-2</text><text x="62.123999999999995" y="188.376" class="c">…</text><text x="64.128" y="188.376" class="c">TRUE</text><text x="1.002" y="190.547" class="c">3</text><text x="3.006" y="190.547" class="c">Matrix</text><text x="10.02" y="190.547" class="c">stan…</text><text x="16.032" y="190.547" class="c">FALSE</text><text x="23.045999999999996" y="190.547" class="c">FALSE</text><text x="33.065999999999995" y="190.547" class="c">OK</text><text x="40.08" y="190.547" class="c">Matrix</text><text x="48.096" y="190.547" class="c">1.3-2</text><text x="56.111999999999995" y="190.547" class="c">GPL</text><text x="60.11999999999999" y="190.547" class="c">(&gt;…</text><text x="64.128" y="190.547" class="c">TRUE</text><text x="1.002" y="192.71799999999996" class="c">4</text><text x="3.006" y="192.71799999999996" class="c">Matrix</text><text x="10.02" y="192.71799999999996" class="c">stan…</text><text x="16.032" y="192.71799999999996" class="c">FALSE</text><text x="23.045999999999996" y="192.71799999999996" class="c">FALSE</text><text x="33.065999999999995" y="192.71799999999996" class="c">OK</text><text x="40.08" y="192.71799999999996" class="c">Matrix</text><text x="48.096" y="192.71799999999996" class="c">1.3-2</text><text x="56.111999999999995" y="192.71799999999996" class="c">GPL</text><text x="60.11999999999999" y="192.71799999999996" class="c">(&gt;…</text><text x="64.128" y="192.71799999999996" class="c">TRUE</text><text x="1.002" y="194.88899999999998" class="c">5</text><text x="3.006" y="194.88899999999998" class="c">R6</text><text x="10.02" y="194.88899999999998" class="c">stan…</text><text x="16.032" y="194.88899999999998" class="c">FALSE</text><text x="23.045999999999996" y="194.88899999999998" class="c">FALSE</text><text x="33.065999999999995" y="194.88899999999998" class="c">OK</text><text x="40.08" y="194.88899999999998" class="c">R6</text><text x="48.096" y="194.88899999999998" class="c">2.5.0</text><text x="56.111999999999995" y="194.88899999999998" class="c">MIT</text><text x="60.11999999999999" y="194.88899999999998" class="c">+</text><text x="62.123999999999995" y="194.88899999999998" class="c">…</text><text x="64.128" y="194.88899999999998" class="c">FALSE</text><text x="1.002" y="197.05999999999997" class="c">6</text><text x="3.006" y="197.05999999999997" class="c">RColo…</text><text x="10.02" y="197.05999999999997" class="c">stan…</text><text x="16.032" y="197.05999999999997" class="c">FALSE</text><text x="23.045999999999996" y="197.05999999999997" class="c">FALSE</text><text x="33.065999999999995" y="197.05999999999997" class="c">OK</text><text x="40.08" y="197.05999999999997" class="c">RColor…</text><text x="48.096" y="197.05999999999997" class="c">1.1-2</text><text x="56.111999999999995" y="197.05999999999997" class="c">Apache…</text><text x="64.128" y="197.05999999999997" class="c">FALSE</text><text x="1.002" y="199.231" class="c">7</text><text x="3.006" y="199.231" class="c">asser…</text><text x="10.02" y="199.231" class="c">stan…</text><text x="16.032" y="199.231" class="c">FALSE</text><text x="23.045999999999996" y="199.231" class="c">FALSE</text><text x="33.065999999999995" y="199.231" class="c">OK</text><text x="40.08" y="199.231" class="c">assert…</text><text x="48.096" y="199.231" class="c">0.2.1</text><text x="56.111999999999995" y="199.231" class="c">GPL-3</text><text x="64.128" y="199.231" class="c">FALSE</text><text x="1.002" y="201.402" class="c">8</text><text x="3.006" y="201.402" class="c">cli</text><text x="10.02" y="201.402" class="c">stan…</text><text x="16.032" y="201.402" class="c">FALSE</text><text x="23.045999999999996" y="201.402" class="c">FALSE</text><text x="33.065999999999995" y="201.402" class="c">OK</text><text x="40.08" y="201.402" class="c">cli</text><text x="48.096" y="201.402" class="c">2.3.1</text><text x="56.111999999999995" y="201.402" class="c">MIT</text><text x="60.11999999999999" y="201.402" class="c">+</text><text x="62.123999999999995" y="201.402" class="c">…</text><text x="64.128" y="201.402" class="c">FALSE</text><text x="1.002" y="203.573" class="c">9</text><text x="3.006" y="203.573" class="c">color…</text><text x="10.02" y="203.573" class="c">stan…</text><text x="16.032" y="203.573" class="c">FALSE</text><text x="23.045999999999996" y="203.573" class="c">FALSE</text><text x="33.065999999999995" y="203.573" class="c">OK</text><text x="40.08" y="203.573" class="c">colors…</text><text x="48.096" y="203.573" class="c">2.0-0</text><text x="56.111999999999995" y="203.573" class="c">BSD_3_…</text><text x="64.128" y="203.573" class="c">TRUE</text><text x="0" y="205.74399999999997" class="c">10</text><text x="3.006" y="205.74399999999997" class="c">crayon</text><text x="10.02" y="205.74399999999997" class="c">stan…</text><text x="16.032" y="205.74399999999997" class="c">FALSE</text><text x="23.045999999999996" y="205.74399999999997" class="c">FALSE</text><text x="33.065999999999995" y="205.74399999999997" class="c">OK</text><text x="40.08" y="205.74399999999997" class="c">crayon</text><text x="48.096" y="205.74399999999997" class="c">1.4.1</text><text x="56.111999999999995" y="205.74399999999997" class="c">MIT</text><text x="60.11999999999999" y="205.74399999999997" class="c">+</text><text x="62.123999999999995" y="205.74399999999997" class="c">…</text><text x="64.128" y="205.74399999999997" class="c">FALSE</text><text x="0" y="207.915" class="c">#</text><text x="2.004" y="207.915" class="c">…</text><text x="4.008" y="207.915" class="c">with</text><text x="9.017999999999999" y="207.915" class="c">64</text><text x="12.024" y="207.915" class="c">more</text><text x="17.034" y="207.915" class="c">rows,</text><text x="23.045999999999996" y="207.915" class="c">and</text><text x="27.054" y="207.915" class="c">25</text><text x="30.059999999999995" y="207.915" class="c">more</text><text x="35.06999999999999" y="207.915" class="c">variables:</text><text x="46.09199999999999" y="207.915" class="c">priority</text><text x="55.10999999999999" y="207.915" class="c">&lt;chr&gt;,</text><text x="62.123999999999995" y="207.915" class="c">md5sum</text><text x="69.13799999999999" y="207.915" class="c">&lt;chr&gt;,</text><text x="0" y="210.08599999999998" class="c">#</text><text x="4.008" y="210.08599999999998" class="c">sha256</text><text x="11.021999999999998" y="210.08599999999998" class="c">&lt;chr&gt;,</text><text x="18.035999999999998" y="210.08599999999998" class="c">filesize</text><text x="27.054" y="210.08599999999998" class="c">&lt;int&gt;,</text><text x="34.068" y="210.08599999999998" class="c">built</text><text x="40.08" y="210.08599999999998" class="c">&lt;chr&gt;,</text><text x="47.093999999999994" y="210.08599999999998" class="c">platform</text><text x="56.111999999999995" y="210.08599999999998" class="c">&lt;chr&gt;,</text><text x="63.12599999999999" y="210.08599999999998" class="c">rversion</text><text x="72.14399999999999" y="210.08599999999998" class="c">&lt;chr&gt;,</text><text x="0" y="212.25699999999998" class="c">#</text><text x="4.008" y="212.25699999999998" class="c">repotype</text><text x="13.026" y="212.25699999999998" class="c">&lt;chr&gt;,</text><text x="20.04" y="212.25699999999998" class="c">repodir</text><text x="28.055999999999997" y="212.25699999999998" class="c">&lt;chr&gt;,</text><text x="35.06999999999999" y="212.25699999999998" class="c">target</text><text x="42.083999999999996" y="212.25699999999998" class="c">&lt;chr&gt;,</text><text x="49.098" y="212.25699999999998" class="c">deps</text><text x="54.108" y="212.25699999999998" class="c">&lt;list&gt;,</text><text x="62.123999999999995" y="212.25699999999998" class="c">mirror</text><text x="69.13799999999999" y="212.25699999999998" class="c">&lt;chr&gt;,</text><text x="0" y="214.428" class="c">#</text><text x="4.008" y="214.428" class="c">sources</text><text x="12.024" y="214.428" class="c">&lt;list&gt;,</text><text x="20.04" y="214.428" class="c">remote</text><text x="27.054" y="214.428" class="c">&lt;list&gt;,</text><text x="35.06999999999999" y="214.428" class="c">error</text><text x="41.082" y="214.428" class="c">&lt;list&gt;,</text><text x="49.098" y="214.428" class="c">metadata</text><text x="58.116" y="214.428" class="c">&lt;list&gt;,</text><text x="66.13199999999999" y="214.428" class="c">extra</text><text x="72.14399999999999" y="214.428" class="c">&lt;list&gt;,</text><text x="0" y="216.59899999999996" class="c">#</text><text x="4.008" y="216.59899999999996" class="c">dep_types</text><text x="14.027999999999999" y="216.59899999999996" class="c">&lt;list&gt;,</text><text x="22.043999999999997" y="216.59899999999996" class="c">params</text><text x="29.058" y="216.59899999999996" class="c">&lt;list&gt;,</text><text x="37.074" y="216.59899999999996" class="c">cache_status</text><text x="50.1" y="216.59899999999996" class="c">&lt;chr&gt;,</text><text x="57.114" y="216.59899999999996" class="c">fulltarget</text><text x="68.136" y="216.59899999999996" class="c">&lt;chr&gt;,</text><text x="0" y="218.76999999999998" class="c">#</text><text x="4.008" y="218.76999999999998" class="c">fulltarget_tree</text><text x="20.04" y="218.76999999999998" class="c">&lt;chr&gt;,</text><text x="27.054" y="218.76999999999998" class="c">download_status</text><text x="43.086" y="218.76999999999998" class="c">&lt;chr&gt;,</text><text x="50.1" y="218.76999999999998" class="c">download_error</text><text x="65.13" y="218.76999999999998" class="c">&lt;list&gt;,</text><text x="0" y="220.94099999999997" class="c">#</text><text x="4.008" y="220.94099999999997" class="c">file_size</text><text x="14.027999999999999" y="220.94099999999997" class="c">&lt;dbl&gt;</text><text x="0" y="223.112" class="c">[1]</text><text x="4.008" y="223.112" class="c">&quot;src&quot;</text></svg></svg></g></svg></svg>