<svg xmlns="http://www.w3.org/2000/svg" xmlns:xlink="http://www.w3.org/1999/xlink" width="1040" height="474.20000000000005"><rect width="1040" height="474.20000000000005" rx="0" ry="0" class="a"></rect><svg height="434.20000000000005" viewBox="0 0 100 43.42" width="1000" x="20" xmlns="http://www.w3.org/2000/svg" xmlns:xlink="http://www.w3.org/1999/xlink" y="20"><style>.a{fill:rgb(40,45,53)}.b{font-family:'Fira Code',Monaco,Consolas,Menlo,'Bitstream Vera Sans Mono','Powerline Symbols',monospace}.c{fill:transparent}.d{fill:rgb(168,204,140);white-space:pre}.e{fill:rgb(185,192,203);white-space:pre}.f{fill:rgb(111,119,131);white-space:pre}.g{fill:rgb(111,119,131);font-style:italic;white-space:pre}</style><g font-family="&#x27;Fira Code&#x27;,Monaco,Consolas,Menlo,&#x27;Bitstream Vera Sans Mono&#x27;,&#x27;Powerline Symbols&#x27;,monospace" font-size="1.67" class="b"><defs><symbol id="a"><rect height="21" width="100" x="0" y="0" class="c"></rect></symbol></defs><rect height="43.42" width="100" class="a"></rect><svg x="0" y="0" width="100"><svg x="0"><use xlink:href="#a"></use><text x="0" y="1.67" class="d">✔</text><text x="2.004" y="1.67" class="e">Updated</text><text x="10.02" y="1.67" class="e">metadata:</text><text x="20.04" y="1.67" class="e">0</text><text x="22.043999999999997" y="1.67" class="e">B</text><text x="24.048" y="1.67" class="e">in</text><text x="27.054" y="1.67" class="e">2</text><text x="29.058" y="1.67" class="e">files.</text><text x="0" y="3.8409999999999997" class="f">#</text><text x="2.004" y="3.8409999999999997" class="f">A</text><text x="4.008" y="3.8409999999999997" class="f">tibble:</text><text x="12.024" y="3.8409999999999997" class="f">32</text><text x="15.029999999999998" y="3.8409999999999997" class="f">x</text><text x="17.034" y="3.8409999999999997" class="f">30</text><text x="3.006" y="6.012" class="e">ref</text><text x="9.017999999999999" y="6.012" class="e">type</text><text x="15.029999999999998" y="6.012" class="e">direct</text><text x="22.043999999999997" y="6.012" class="e">directpkg</text><text x="32.064" y="6.012" class="e">status</text><text x="39.077999999999996" y="6.012" class="e">package</text><text x="47.093999999999994" y="6.012" class="e">version</text><text x="55.10999999999999" y="6.012" class="e">license</text><text x="63.12599999999999" y="6.012" class="e">needscompilation</text><text x="3.006" y="8.183" class="g">&lt;chr&gt;</text><text x="9.017999999999999" y="8.183" class="g">&lt;chr&gt;</text><text x="15.029999999999998" y="8.183" class="g">&lt;lgl&gt;</text><text x="22.043999999999997" y="8.183" class="g">&lt;lgl&gt;</text><text x="32.064" y="8.183" class="g">&lt;chr&gt;</text><text x="39.077999999999996" y="8.183" class="g">&lt;chr&gt;</text><text x="47.093999999999994" y="8.183" class="g">&lt;chr&gt;</text><text x="55.10999999999999" y="8.183" class="g">&lt;chr&gt;</text><text x="63.12599999999999" y="8.183" class="g">&lt;lgl&gt;</text><text x="1.002" y="10.354" class="f">1</text><text x="3.006" y="10.354" class="e">MASS</text><text x="9.017999999999999" y="10.354" class="e">stan…</text><text x="15.029999999999998" y="10.354" class="e">FALSE</text><text x="22.043999999999997" y="10.354" class="e">FALSE</text><text x="32.064" y="10.354" class="e">OK</text><text x="39.077999999999996" y="10.354" class="e">MASS</text><text x="47.093999999999994" y="10.354" class="e">7.3-53</text><text x="55.10999999999999" y="10.354" class="e">GPL-2</text><text x="61.12199999999999" y="10.354" class="e">…</text><text x="63.12599999999999" y="10.354" class="e">FALSE</text><text x="1.002" y="12.525" class="f">2</text><text x="3.006" y="12.525" class="e">Matr…</text><text x="9.017999999999999" y="12.525" class="e">stan…</text><text x="15.029999999999998" y="12.525" class="e">FALSE</text><text x="22.043999999999997" y="12.525" class="e">FALSE</text><text x="32.064" y="12.525" class="e">OK</text><text x="39.077999999999996" y="12.525" class="e">Matrix</text><text x="47.093999999999994" y="12.525" class="e">1.2-18</text><text x="55.10999999999999" y="12.525" class="e">GPL</text><text x="59.117999999999995" y="12.525" class="e">(&gt;…</text><text x="63.12599999999999" y="12.525" class="e">FALSE</text><text x="1.002" y="14.696" class="f">3</text><text x="3.006" y="14.696" class="e">R6</text><text x="9.017999999999999" y="14.696" class="e">stan…</text><text x="15.029999999999998" y="14.696" class="e">FALSE</text><text x="22.043999999999997" y="14.696" class="e">FALSE</text><text x="32.064" y="14.696" class="e">OK</text><text x="39.077999999999996" y="14.696" class="e">R6</text><text x="47.093999999999994" y="14.696" class="e">2.4.1</text><text x="55.10999999999999" y="14.696" class="e">MIT</text><text x="59.117999999999995" y="14.696" class="e">+</text><text x="61.12199999999999" y="14.696" class="e">…</text><text x="63.12599999999999" y="14.696" class="e">FALSE</text><text x="1.002" y="16.866999999999997" class="f">4</text><text x="3.006" y="16.866999999999997" class="e">RCol…</text><text x="9.017999999999999" y="16.866999999999997" class="e">stan…</text><text x="15.029999999999998" y="16.866999999999997" class="e">FALSE</text><text x="22.043999999999997" y="16.866999999999997" class="e">FALSE</text><text x="32.064" y="16.866999999999997" class="e">OK</text><text x="39.077999999999996" y="16.866999999999997" class="e">RColor…</text><text x="47.093999999999994" y="16.866999999999997" class="e">1.1-2</text><text x="55.10999999999999" y="16.866999999999997" class="e">Apache…</text><text x="63.12599999999999" y="16.866999999999997" class="e">FALSE</text><text x="1.002" y="19.037999999999997" class="f">5</text><text x="3.006" y="19.037999999999997" class="e">asse…</text><text x="9.017999999999999" y="19.037999999999997" class="e">stan…</text><text x="15.029999999999998" y="19.037999999999997" class="e">FALSE</text><text x="22.043999999999997" y="19.037999999999997" class="e">FALSE</text><text x="32.064" y="19.037999999999997" class="e">OK</text><text x="39.077999999999996" y="19.037999999999997" class="e">assert…</text><text x="47.093999999999994" y="19.037999999999997" class="e">0.2.1</text><text x="55.10999999999999" y="19.037999999999997" class="e">GPL-3</text><text x="63.12599999999999" y="19.037999999999997" class="e">FALSE</text><text x="1.002" y="21.209000000000003" class="f">6</text><text x="3.006" y="21.209000000000003" class="e">cli</text><text x="9.017999999999999" y="21.209000000000003" class="e">stan…</text><text x="15.029999999999998" y="21.209000000000003" class="e">FALSE</text><text x="22.043999999999997" y="21.209000000000003" class="e">FALSE</text><text x="32.064" y="21.209000000000003" class="e">OK</text><text x="39.077999999999996" y="21.209000000000003" class="e">cli</text><text x="47.093999999999994" y="21.209000000000003" class="e">2.1.0</text><text x="55.10999999999999" y="21.209000000000003" class="e">MIT</text><text x="59.117999999999995" y="21.209000000000003" class="e">+</text><text x="61.12199999999999" y="21.209000000000003" class="e">…</text><text x="63.12599999999999" y="21.209000000000003" class="e">FALSE</text><text x="1.002" y="23.380000000000003" class="f">7</text><text x="3.006" y="23.380000000000003" class="e">colo…</text><text x="9.017999999999999" y="23.380000000000003" class="e">stan…</text><text x="15.029999999999998" y="23.380000000000003" class="e">FALSE</text><text x="22.043999999999997" y="23.380000000000003" class="e">FALSE</text><text x="32.064" y="23.380000000000003" class="e">OK</text><text x="39.077999999999996" y="23.380000000000003" class="e">colors…</text><text x="47.093999999999994" y="23.380000000000003" class="e">1.4-1</text><text x="55.10999999999999" y="23.380000000000003" class="e">BSD_3_…</text><text x="63.12599999999999" y="23.380000000000003" class="e">FALSE</text><text x="1.002" y="25.550999999999995" class="f">8</text><text x="3.006" y="25.550999999999995" class="e">cray…</text><text x="9.017999999999999" y="25.550999999999995" class="e">stan…</text><text x="15.029999999999998" y="25.550999999999995" class="e">FALSE</text><text x="22.043999999999997" y="25.550999999999995" class="e">FALSE</text><text x="32.064" y="25.550999999999995" class="e">OK</text><text x="39.077999999999996" y="25.550999999999995" class="e">crayon</text><text x="47.093999999999994" y="25.550999999999995" class="e">1.3.4</text><text x="55.10999999999999" y="25.550999999999995" class="e">MIT</text><text x="59.117999999999995" y="25.550999999999995" class="e">+</text><text x="61.12199999999999" y="25.550999999999995" class="e">…</text><text x="63.12599999999999" y="25.550999999999995" class="e">FALSE</text><text x="1.002" y="27.722" class="f">9</text><text x="3.006" y="27.722" class="e">dige…</text><text x="9.017999999999999" y="27.722" class="e">stan…</text><text x="15.029999999999998" y="27.722" class="e">FALSE</text><text x="22.043999999999997" y="27.722" class="e">FALSE</text><text x="32.064" y="27.722" class="e">OK</text><text x="39.077999999999996" y="27.722" class="e">digest</text><text x="47.093999999999994" y="27.722" class="e">0.6.26</text><text x="55.10999999999999" y="27.722" class="e">GPL</text><text x="59.117999999999995" y="27.722" class="e">(&gt;…</text><text x="63.12599999999999" y="27.722" class="e">FALSE</text><text x="0" y="29.893" class="f">10</text><text x="3.006" y="29.893" class="e">elli…</text><text x="9.017999999999999" y="29.893" class="e">stan…</text><text x="15.029999999999998" y="29.893" class="e">FALSE</text><text x="22.043999999999997" y="29.893" class="e">FALSE</text><text x="32.064" y="29.893" class="e">OK</text><text x="39.077999999999996" y="29.893" class="e">ellips…</text><text x="47.093999999999994" y="29.893" class="e">0.3.1</text><text x="55.10999999999999" y="29.893" class="e">GPL-3</text><text x="63.12599999999999" y="29.893" class="e">FALSE</text><text x="0" y="32.064" class="f">#</text><text x="2.004" y="32.064" class="f">…</text><text x="4.008" y="32.064" class="f">with</text><text x="9.017999999999999" y="32.064" class="f">22</text><text x="12.024" y="32.064" class="f">more</text><text x="17.034" y="32.064" class="f">rows,</text><text x="23.045999999999996" y="32.064" class="f">and</text><text x="27.054" y="32.064" class="f">21</text><text x="30.059999999999995" y="32.064" class="f">more</text><text x="35.06999999999999" y="32.064" class="f">variables:</text><text x="46.09199999999999" y="32.064" class="f">priority</text><text x="55.10999999999999" y="32.064" class="g">&lt;chr&gt;</text><text x="60.11999999999999" y="32.064" class="f">,</text><text x="62.123999999999995" y="32.064" class="f">md5sum</text><text x="69.13799999999999" y="32.064" class="g">&lt;chr&gt;</text><text x="74.148" y="32.064" class="f">,</text><text x="0" y="34.235" class="f">#</text><text x="4.008" y="34.235" class="f">sha256</text><text x="11.021999999999998" y="34.235" class="g">&lt;chr&gt;</text><text x="16.032" y="34.235" class="f">,</text><text x="18.035999999999998" y="34.235" class="f">filesize</text><text x="27.054" y="34.235" class="g">&lt;int&gt;</text><text x="32.064" y="34.235" class="f">,</text><text x="34.068" y="34.235" class="f">built</text><text x="40.08" y="34.235" class="g">&lt;chr&gt;</text><text x="45.089999999999996" y="34.235" class="f">,</text><text x="47.093999999999994" y="34.235" class="f">platform</text><text x="56.111999999999995" y="34.235" class="g">&lt;chr&gt;</text><text x="61.12199999999999" y="34.235" class="f">,</text><text x="63.12599999999999" y="34.235" class="f">rversion</text><text x="72.14399999999999" y="34.235" class="g">&lt;chr&gt;</text><text x="77.154" y="34.235" class="f">,</text><text x="0" y="36.406" class="f">#</text><text x="4.008" y="36.406" class="f">repodir</text><text x="12.024" y="36.406" class="g">&lt;chr&gt;</text><text x="17.034" y="36.406" class="f">,</text><text x="19.037999999999997" y="36.406" class="f">target</text><text x="26.052" y="36.406" class="g">&lt;chr&gt;</text><text x="31.061999999999998" y="36.406" class="f">,</text><text x="33.065999999999995" y="36.406" class="f">deps</text><text x="38.07599999999999" y="36.406" class="g">&lt;list&gt;</text><text x="44.087999999999994" y="36.406" class="f">,</text><text x="46.09199999999999" y="36.406" class="f">mirror</text><text x="53.105999999999995" y="36.406" class="g">&lt;chr&gt;</text><text x="58.116" y="36.406" class="f">,</text><text x="60.11999999999999" y="36.406" class="f">sources</text><text x="68.136" y="36.406" class="g">&lt;list&gt;</text><text x="74.148" y="36.406" class="f">,</text><text x="0" y="38.577000000000005" class="f">#</text><text x="4.008" y="38.577000000000005" class="f">remote</text><text x="11.021999999999998" y="38.577000000000005" class="g">&lt;list&gt;</text><text x="17.034" y="38.577000000000005" class="f">,</text><text x="19.037999999999997" y="38.577000000000005" class="f">error</text><text x="25.05" y="38.577000000000005" class="g">&lt;list&gt;</text><text x="31.061999999999998" y="38.577000000000005" class="f">,</text><text x="33.065999999999995" y="38.577000000000005" class="f">metadata</text><text x="42.083999999999996" y="38.577000000000005" class="g">&lt;list&gt;</text><text x="48.096" y="38.577000000000005" class="f">,</text><text x="50.1" y="38.577000000000005" class="f">extra</text><text x="56.111999999999995" y="38.577000000000005" class="g">&lt;list&gt;</text><text x="62.123999999999995" y="38.577000000000005" class="f">,</text><text x="0" y="40.748000000000005" class="f">#</text><text x="4.008" y="40.748000000000005" class="f">dep_types</text><text x="14.027999999999999" y="40.748000000000005" class="g">&lt;list&gt;</text><text x="20.04" y="40.748000000000005" class="f">,</text><text x="22.043999999999997" y="40.748000000000005" class="f">cache_status</text><text x="35.06999999999999" y="40.748000000000005" class="g">&lt;chr&gt;</text><text x="40.08" y="40.748000000000005" class="f">,</text><text x="42.083999999999996" y="40.748000000000005" class="f">lib_status</text><text x="53.105999999999995" y="40.748000000000005" class="g">&lt;chr&gt;</text><text x="58.116" y="40.748000000000005" class="f">,</text><text x="60.11999999999999" y="40.748000000000005" class="f">old_version</text><text x="72.14399999999999" y="40.748000000000005" class="g">&lt;chr&gt;</text><text x="77.154" y="40.748000000000005" class="f">,</text><text x="0" y="42.919" class="f">#</text><text x="4.008" y="42.919" class="f">new_version</text><text x="16.032" y="42.919" class="g">&lt;chr&gt;</text></svg></svg></g></svg></svg>