<svg xmlns="http://www.w3.org/2000/svg" xmlns:xlink="http://www.w3.org/1999/xlink" width="1040" height="1299.18"><rect width="1040" height="1299.18" rx="0" ry="0" class="a"></rect><svg height="1259.18" viewBox="0 0 100 125.918" width="1000" x="20" xmlns="http://www.w3.org/2000/svg" xmlns:xlink="http://www.w3.org/1999/xlink" y="20"><style>.a{fill:rgb(40,45,53)}.b{font-family:'Fira Code',Monaco,Consolas,Menlo,'Bitstream Vera Sans Mono','Powerline Symbols',monospace}.c{fill:transparent}.d{fill:rgb(102,194,205);font-style:italic;font-weight:bold;white-space:pre}.e{fill:rgb(111,119,131);font-style:italic;font-weight:bold;white-space:pre}.f{fill:rgb(168,204,140);white-space:pre}.g{fill:rgb(185,192,203);white-space:pre}.h{fill:rgb(111,119,131);white-space:pre}</style><g font-family="&#x27;Fira Code&#x27;,Monaco,Consolas,Menlo,&#x27;Bitstream Vera Sans Mono&#x27;,&#x27;Powerline Symbols&#x27;,monospace" font-size="1.67" class="b"><defs><symbol id="a"><rect height="59" width="100" x="0" y="0" class="c"></rect></symbol></defs><rect height="125.918" width="100" class="a"></rect><svg x="0" y="0" width="100"><svg x="0"><use xlink:href="#a"></use><text x="0" y="1.67" class="d">ggplot2</text><text x="8.016" y="1.67" class="e">3.2.1</text><text x="14.027999999999999" y="1.67" class="f">✨</text><text x="0" y="3.8409999999999997" class="g">├─digest</text><text x="9.017999999999999" y="3.8409999999999997" class="h">0.6.23</text><text x="16.032" y="3.8409999999999997" class="f">✨</text><text x="0" y="6.012" class="g">├─gtable</text><text x="9.017999999999999" y="6.012" class="h">0.3.0</text><text x="15.029999999999998" y="6.012" class="f">✨</text><text x="0" y="8.183" class="g">├─lazyeval</text><text x="11.021999999999998" y="8.183" class="h">0.2.2</text><text x="17.034" y="8.183" class="f">✨</text><text x="0" y="10.354" class="g">├─MASS</text><text x="7.013999999999999" y="10.354" class="h">7.3-51.5</text><text x="16.032" y="10.354" class="f">✨</text><text x="0" y="12.525" class="g">├─mgcv</text><text x="7.013999999999999" y="12.525" class="h">1.8-31</text><text x="14.027999999999999" y="12.525" class="f">✨</text><text x="0" y="14.696" class="g">│</text><text x="2.004" y="14.696" class="g">├─nlme</text><text x="9.017999999999999" y="14.696" class="h">3.1-143</text><text x="17.034" y="14.696" class="f">✨</text><text x="0" y="16.866999999999997" class="g">│</text><text x="2.004" y="16.866999999999997" class="g">│</text><text x="4.008" y="16.866999999999997" class="g">└─lattice</text><text x="14.027999999999999" y="16.866999999999997" class="h">0.20-38</text><text x="22.043999999999997" y="16.866999999999997" class="f">✨</text><text x="0" y="19.037999999999997" class="g">│</text><text x="2.004" y="19.037999999999997" class="g">└─Matrix</text><text x="11.021999999999998" y="19.037999999999997" class="h">1.2-18</text><text x="18.035999999999998" y="19.037999999999997" class="f">✨</text><text x="0" y="21.209000000000003" class="g">│</text><text x="4.008" y="21.209000000000003" class="g">└─lattice</text><text x="0" y="23.380000000000003" class="g">├─reshape2</text><text x="11.021999999999998" y="23.380000000000003" class="h">1.4.3</text><text x="17.034" y="23.380000000000003" class="f">✨</text><text x="0" y="25.550999999999995" class="g">│</text><text x="2.004" y="25.550999999999995" class="g">├─plyr</text><text x="9.017999999999999" y="25.550999999999995" class="h">1.8.5</text><text x="15.029999999999998" y="25.550999999999995" class="f">✨</text><text x="0" y="27.722" class="g">│</text><text x="2.004" y="27.722" class="g">│</text><text x="4.008" y="27.722" class="g">└─Rcpp</text><text x="11.021999999999998" y="27.722" class="h">1.0.3</text><text x="17.034" y="27.722" class="f">✨</text><text x="0" y="29.893" class="g">│</text><text x="2.004" y="29.893" class="g">├─Rcpp</text><text x="0" y="32.064" class="g">│</text><text x="2.004" y="32.064" class="g">└─stringr</text><text x="12.024" y="32.064" class="h">1.4.0</text><text x="18.035999999999998" y="32.064" class="f">✨</text><text x="0" y="34.235" class="g">│</text><text x="4.008" y="34.235" class="g">├─glue</text><text x="11.021999999999998" y="34.235" class="h">1.3.1</text><text x="17.034" y="34.235" class="f">✨</text><text x="0" y="36.406" class="g">│</text><text x="4.008" y="36.406" class="g">├─magrittr</text><text x="15.029999999999998" y="36.406" class="h">1.5</text><text x="19.037999999999997" y="36.406" class="f">✨</text><text x="0" y="38.577000000000005" class="g">│</text><text x="4.008" y="38.577000000000005" class="g">└─stringi</text><text x="14.027999999999999" y="38.577000000000005" class="h">1.4.3</text><text x="20.04" y="38.577000000000005" class="f">✨</text><text x="0" y="40.748000000000005" class="g">├─rlang</text><text x="8.016" y="40.748000000000005" class="h">0.4.2</text><text x="14.027999999999999" y="40.748000000000005" class="f">✨</text><text x="0" y="42.919" class="g">├─scales</text><text x="9.017999999999999" y="42.919" class="h">1.1.0</text><text x="15.029999999999998" y="42.919" class="f">✨</text><text x="0" y="45.09" class="g">│</text><text x="2.004" y="45.09" class="g">├─farver</text><text x="11.021999999999998" y="45.09" class="h">2.0.1</text><text x="17.034" y="45.09" class="f">✨</text><text x="0" y="47.261" class="g">│</text><text x="2.004" y="47.261" class="g">├─labeling</text><text x="13.026" y="47.261" class="h">0.3</text><text x="17.034" y="47.261" class="f">✨</text><text x="0" y="49.431999999999995" class="g">│</text><text x="2.004" y="49.431999999999995" class="g">├─munsell</text><text x="12.024" y="49.431999999999995" class="h">0.5.0</text><text x="18.035999999999998" y="49.431999999999995" class="f">✨</text><text x="0" y="51.603" class="g">│</text><text x="2.004" y="51.603" class="g">│</text><text x="4.008" y="51.603" class="g">└─colorspace</text><text x="17.034" y="51.603" class="h">1.4-1</text><text x="23.045999999999996" y="51.603" class="f">✨</text><text x="0" y="53.774" class="g">│</text><text x="2.004" y="53.774" class="g">├─R6</text><text x="7.013999999999999" y="53.774" class="h">2.4.1</text><text x="13.026" y="53.774" class="f">✨</text><text x="0" y="55.945" class="g">│</text><text x="2.004" y="55.945" class="g">├─RColorBrewer</text><text x="17.034" y="55.945" class="h">1.1-2</text><text x="23.045999999999996" y="55.945" class="f">✨</text><text x="0" y="58.11600000000001" class="g">│</text><text x="2.004" y="58.11600000000001" class="g">├─viridisLite</text><text x="16.032" y="58.11600000000001" class="h">0.3.0</text><text x="22.043999999999997" y="58.11600000000001" class="f">✨</text><text x="0" y="60.287" class="g">│</text><text x="2.004" y="60.287" class="g">└─lifecycle</text><text x="14.027999999999999" y="60.287" class="h">0.1.0</text><text x="20.04" y="60.287" class="f">✨</text><text x="0" y="62.458" class="g">│</text><text x="4.008" y="62.458" class="g">├─glue</text><text x="0" y="64.629" class="g">│</text><text x="4.008" y="64.629" class="g">└─rlang</text><text x="0" y="66.8" class="g">├─tibble</text><text x="9.017999999999999" y="66.8" class="h">2.1.3</text><text x="15.029999999999998" y="66.8" class="f">✨</text><text x="0" y="68.971" class="g">│</text><text x="2.004" y="68.971" class="g">├─cli</text><text x="8.016" y="68.971" class="h">2.0.0</text><text x="14.027999999999999" y="68.971" class="f">✨</text><text x="0" y="71.142" class="g">│</text><text x="2.004" y="71.142" class="g">│</text><text x="4.008" y="71.142" class="g">├─assertthat</text><text x="17.034" y="71.142" class="h">0.2.1</text><text x="23.045999999999996" y="71.142" class="f">✨</text><text x="0" y="73.313" class="g">│</text><text x="2.004" y="73.313" class="g">│</text><text x="4.008" y="73.313" class="g">├─crayon</text><text x="13.026" y="73.313" class="h">1.3.4</text><text x="19.037999999999997" y="73.313" class="f">✨</text><text x="0" y="75.48400000000001" class="g">│</text><text x="2.004" y="75.48400000000001" class="g">│</text><text x="4.008" y="75.48400000000001" class="g">├─glue</text><text x="0" y="77.655" class="g">│</text><text x="2.004" y="77.655" class="g">│</text><text x="4.008" y="77.655" class="g">└─fansi</text><text x="12.024" y="77.655" class="h">0.4.0</text><text x="18.035999999999998" y="77.655" class="f">✨</text><text x="0" y="79.82600000000001" class="g">│</text><text x="2.004" y="79.82600000000001" class="g">├─crayon</text><text x="0" y="81.997" class="g">│</text><text x="2.004" y="81.997" class="g">├─fansi</text><text x="0" y="84.16799999999999" class="g">│</text><text x="2.004" y="84.16799999999999" class="g">├─pillar</text><text x="11.021999999999998" y="84.16799999999999" class="h">1.4.3</text><text x="17.034" y="84.16799999999999" class="f">✨</text><text x="0" y="86.339" class="g">│</text><text x="2.004" y="86.339" class="g">│</text><text x="4.008" y="86.339" class="g">├─cli</text><text x="0" y="88.51" class="g">│</text><text x="2.004" y="88.51" class="g">│</text><text x="4.008" y="88.51" class="g">├─crayon</text><text x="0" y="90.681" class="g">│</text><text x="2.004" y="90.681" class="g">│</text><text x="4.008" y="90.681" class="g">├─fansi</text><text x="0" y="92.852" class="g">│</text><text x="2.004" y="92.852" class="g">│</text><text x="4.008" y="92.852" class="g">├─rlang</text><text x="0" y="95.02300000000001" class="g">│</text><text x="2.004" y="95.02300000000001" class="g">│</text><text x="4.008" y="95.02300000000001" class="g">├─utf8</text><text x="11.021999999999998" y="95.02300000000001" class="h">1.1.4</text><text x="17.034" y="95.02300000000001" class="f">✨</text><text x="0" y="97.19399999999999" class="g">│</text><text x="2.004" y="97.19399999999999" class="g">│</text><text x="4.008" y="97.19399999999999" class="g">└─vctrs</text><text x="12.024" y="97.19399999999999" class="h">0.2.1</text><text x="18.035999999999998" y="97.19399999999999" class="f">✨</text><text x="0" y="99.365" class="g">│</text><text x="2.004" y="99.365" class="g">│</text><text x="6.012" y="99.365" class="g">├─backports</text><text x="18.035999999999998" y="99.365" class="h">1.1.5</text><text x="24.048" y="99.365" class="f">✨</text><text x="0" y="101.536" class="g">│</text><text x="2.004" y="101.536" class="g">│</text><text x="6.012" y="101.536" class="g">├─ellipsis</text><text x="17.034" y="101.536" class="h">0.3.0</text><text x="23.045999999999996" y="101.536" class="f">✨</text><text x="0" y="103.707" class="g">│</text><text x="2.004" y="103.707" class="g">│</text><text x="6.012" y="103.707" class="g">│</text><text x="8.016" y="103.707" class="g">└─rlang</text><text x="0" y="105.878" class="g">│</text><text x="2.004" y="105.878" class="g">│</text><text x="6.012" y="105.878" class="g">├─digest</text><text x="0" y="108.049" class="g">│</text><text x="2.004" y="108.049" class="g">│</text><text x="6.012" y="108.049" class="g">├─glue</text><text x="0" y="110.22" class="g">│</text><text x="2.004" y="110.22" class="g">│</text><text x="6.012" y="110.22" class="g">├─rlang</text><text x="0" y="112.391" class="g">│</text><text x="2.004" y="112.391" class="g">│</text><text x="6.012" y="112.391" class="g">└─zeallot</text><text x="16.032" y="112.391" class="h">0.1.0</text><text x="22.043999999999997" y="112.391" class="f">✨</text><text x="0" y="114.56200000000001" class="g">│</text><text x="2.004" y="114.56200000000001" class="g">├─pkgconfig</text><text x="14.027999999999999" y="114.56200000000001" class="h">2.0.3</text><text x="20.04" y="114.56200000000001" class="f">✨</text><text x="0" y="116.73299999999999" class="g">│</text><text x="2.004" y="116.73299999999999" class="g">└─rlang</text><text x="0" y="118.904" class="g">├─viridisLite</text><text x="0" y="121.075" class="g">└─withr</text><text x="8.016" y="121.075" class="h">2.1.2</text><text x="14.027999999999999" y="121.075" class="f">✨</text><text x="0" y="125.417" class="g">Key:</text><text x="6.012" y="125.417" class="f">✨</text><text x="8.016" y="125.417" class="g">new</text></svg></svg></g></svg></svg>