<svg xmlns="http://www.w3.org/2000/svg" xmlns:xlink="http://www.w3.org/1999/xlink" width="1040" height="2362.97"><rect width="1040" height="2362.97" rx="0" ry="0" class="a"></rect><svg height="2322.97" viewBox="0 0 100 232.297" width="1000" x="20" xmlns="http://www.w3.org/2000/svg" xmlns:xlink="http://www.w3.org/1999/xlink" y="20"><style>.a{fill:rgb(40,45,53)}.b{font-family:'Fira Code',Monaco,Consolas,Menlo,'Bitstream Vera Sans Mono','Powerline Symbols',monospace}.c{fill:rgb(185,192,203);white-space:pre}.d{fill:transparent}.e{fill:rgb(102,194,205);font-style:italic;font-weight:bold;white-space:pre}.f{fill:rgb(111,119,131);font-style:italic;font-weight:bold;white-space:pre}.g{fill:rgb(168,204,140);white-space:pre}.h{fill:rgb(111,119,131);white-space:pre}</style><g font-family="&#x27;Fira Code&#x27;,Monaco,Consolas,Menlo,&#x27;Bitstream Vera Sans Mono&#x27;,&#x27;Powerline Symbols&#x27;,monospace" font-size="1.67" class="b"><defs><symbol id="1"><text x="0" y="1.67" class="c">│</text><text x="2.004" y="1.67" class="c">├─assertthat</text></symbol><symbol id="2"><text x="0" y="1.67" class="c">│</text><text x="2.004" y="1.67" class="c">├─cli</text></symbol><symbol id="3"><text x="0" y="1.67" class="c">│</text><text x="2.004" y="1.67" class="c">├─crayon</text></symbol><symbol id="4"><text x="0" y="1.67" class="c">│</text><text x="2.004" y="1.67" class="c">├─glue</text></symbol><symbol id="5"><text x="0" y="1.67" class="c">│</text><text x="2.004" y="1.67" class="c">│</text><text x="4.008" y="1.67" class="c">└─crayon</text></symbol><symbol id="6"><text x="0" y="1.67" class="c">│</text><text x="2.004" y="1.67" class="c">├─R6</text></symbol><symbol id="7"><text x="0" y="1.67" class="c">│</text><text x="2.004" y="1.67" class="c">├─prettyunits</text></symbol><symbol id="8"><text x="0" y="1.67" class="c">│</text><text x="2.004" y="1.67" class="c">└─withr</text></symbol><symbol id="a"><rect height="108" width="100" x="0" y="0" class="d"></rect></symbol></defs><rect height="232.297" width="100" class="a"></rect><svg x="0" y="0" width="100"><svg x="0"><use xlink:href="#a"></use><text x="0" y="1.67" class="e">pak</text><text x="4.008" y="1.67" class="f">0.1.2</text><text x="10.02" y="1.67" class="g">✨</text><text x="0" y="3.8409999999999997" class="c">├─assertthat</text><text x="13.026" y="3.8409999999999997" class="h">0.2.1</text><text x="19.037999999999997" y="3.8409999999999997" class="g">✨</text><text x="0" y="6.012" class="c">├─base64enc</text><text x="12.024" y="6.012" class="h">0.1-3</text><text x="18.035999999999998" y="6.012" class="g">✨</text><text x="0" y="8.183" class="c">├─callr</text><text x="8.016" y="8.183" class="h">3.4.0</text><text x="14.027999999999999" y="8.183" class="g">✨</text><text x="0" y="10.354" class="c">│</text><text x="2.004" y="10.354" class="c">├─processx</text><text x="13.026" y="10.354" class="h">3.4.1</text><text x="19.037999999999997" y="10.354" class="g">✨</text><text x="0" y="12.525" class="c">│</text><text x="2.004" y="12.525" class="c">│</text><text x="4.008" y="12.525" class="c">├─ps</text><text x="9.017999999999999" y="12.525" class="h">1.3.0</text><text x="15.029999999999998" y="12.525" class="g">✨</text><text x="0" y="14.696" class="c">│</text><text x="2.004" y="14.696" class="c">│</text><text x="4.008" y="14.696" class="c">└─R6</text><text x="9.017999999999999" y="14.696" class="h">2.4.1</text><text x="15.029999999999998" y="14.696" class="g">✨</text><text x="0" y="16.866999999999997" class="c">│</text><text x="2.004" y="16.866999999999997" class="c">└─R6</text><text x="0" y="19.037999999999997" class="c">├─cli</text><text x="6.012" y="19.037999999999997" class="h">2.0.0</text><text x="12.024" y="19.037999999999997" class="g">✨</text><use xlink:href="#1" y="19.539"></use><text x="0" y="23.380000000000003" class="c">│</text><text x="2.004" y="23.380000000000003" class="c">├─crayon</text><text x="11.021999999999998" y="23.380000000000003" class="h">1.3.4</text><text x="17.034" y="23.380000000000003" class="g">✨</text><text x="0" y="25.550999999999995" class="c">│</text><text x="2.004" y="25.550999999999995" class="c">├─glue</text><text x="9.017999999999999" y="25.550999999999995" class="h">1.3.1</text><text x="15.029999999999998" y="25.550999999999995" class="g">✨</text><text x="0" y="27.722" class="c">│</text><text x="2.004" y="27.722" class="c">└─fansi</text><text x="10.02" y="27.722" class="h">0.4.0</text><text x="16.032" y="27.722" class="g">✨</text><text x="0" y="29.893" class="c">├─cliapp</text><text x="9.017999999999999" y="29.893" class="h">0.1.0</text><text x="15.029999999999998" y="29.893" class="g">✨</text><use xlink:href="#2" y="30.394"></use><use xlink:href="#3" y="32.565"></use><text x="0" y="36.406" class="c">│</text><text x="2.004" y="36.406" class="c">├─fansi</text><use xlink:href="#4" y="36.907000000000004"></use><text x="0" y="40.748000000000005" class="c">│</text><text x="2.004" y="40.748000000000005" class="c">├─prettycode</text><text x="15.029999999999998" y="40.748000000000005" class="h">1.1.0</text><text x="21.041999999999998" y="40.748000000000005" class="g">✨</text><use xlink:href="#5" y="41.248999999999995"></use><text x="0" y="45.09" class="c">│</text><text x="2.004" y="45.09" class="c">├─progress</text><text x="13.026" y="45.09" class="h">1.2.2</text><text x="19.037999999999997" y="45.09" class="g">✨</text><text x="0" y="47.261" class="c">│</text><text x="2.004" y="47.261" class="c">│</text><text x="4.008" y="47.261" class="c">├─hms</text><text x="10.02" y="47.261" class="h">0.5.2</text><text x="16.032" y="47.261" class="g">✨</text><text x="0" y="49.431999999999995" class="c">│</text><text x="2.004" y="49.431999999999995" class="c">│</text><text x="4.008" y="49.431999999999995" class="c">│</text><text x="6.012" y="49.431999999999995" class="c">├─pkgconfig</text><text x="18.035999999999998" y="49.431999999999995" class="h">2.0.3</text><text x="24.048" y="49.431999999999995" class="g">✨</text><text x="0" y="51.603" class="c">│</text><text x="2.004" y="51.603" class="c">│</text><text x="4.008" y="51.603" class="c">│</text><text x="6.012" y="51.603" class="c">├─rlang</text><text x="14.027999999999999" y="51.603" class="h">0.4.2</text><text x="20.04" y="51.603" class="g">✨</text><text x="0" y="53.774" class="c">│</text><text x="2.004" y="53.774" class="c">│</text><text x="4.008" y="53.774" class="c">│</text><text x="6.012" y="53.774" class="c">└─vctrs</text><text x="14.027999999999999" y="53.774" class="h">0.2.1</text><text x="20.04" y="53.774" class="g">✨</text><text x="0" y="55.945" class="c">│</text><text x="2.004" y="55.945" class="c">│</text><text x="4.008" y="55.945" class="c">│</text><text x="8.016" y="55.945" class="c">├─backports</text><text x="20.04" y="55.945" class="h">1.1.5</text><text x="26.052" y="55.945" class="g">✨</text><text x="0" y="58.11600000000001" class="c">│</text><text x="2.004" y="58.11600000000001" class="c">│</text><text x="4.008" y="58.11600000000001" class="c">│</text><text x="8.016" y="58.11600000000001" class="c">├─ellipsis</text><text x="19.037999999999997" y="58.11600000000001" class="h">0.3.0</text><text x="25.05" y="58.11600000000001" class="g">✨</text><text x="0" y="60.287" class="c">│</text><text x="2.004" y="60.287" class="c">│</text><text x="4.008" y="60.287" class="c">│</text><text x="8.016" y="60.287" class="c">│</text><text x="10.02" y="60.287" class="c">└─rlang</text><text x="0" y="62.458" class="c">│</text><text x="2.004" y="62.458" class="c">│</text><text x="4.008" y="62.458" class="c">│</text><text x="8.016" y="62.458" class="c">├─digest</text><text x="17.034" y="62.458" class="h">0.6.23</text><text x="24.048" y="62.458" class="g">✨</text><text x="0" y="64.629" class="c">│</text><text x="2.004" y="64.629" class="c">│</text><text x="4.008" y="64.629" class="c">│</text><text x="8.016" y="64.629" class="c">├─glue</text><text x="0" y="66.8" class="c">│</text><text x="2.004" y="66.8" class="c">│</text><text x="4.008" y="66.8" class="c">│</text><text x="8.016" y="66.8" class="c">├─rlang</text><text x="0" y="68.971" class="c">│</text><text x="2.004" y="68.971" class="c">│</text><text x="4.008" y="68.971" class="c">│</text><text x="8.016" y="68.971" class="c">└─zeallot</text><text x="18.035999999999998" y="68.971" class="h">0.1.0</text><text x="24.048" y="68.971" class="g">✨</text><text x="0" y="71.142" class="c">│</text><text x="2.004" y="71.142" class="c">│</text><text x="4.008" y="71.142" class="c">├─prettyunits</text><text x="18.035999999999998" y="71.142" class="h">1.0.2</text><text x="24.048" y="71.142" class="g">✨</text><text x="0" y="73.313" class="c">│</text><text x="2.004" y="73.313" class="c">│</text><text x="4.008" y="73.313" class="c">│</text><text x="6.012" y="73.313" class="c">├─magrittr</text><text x="17.034" y="73.313" class="h">1.5</text><text x="21.041999999999998" y="73.313" class="g">✨</text><text x="0" y="75.48400000000001" class="c">│</text><text x="2.004" y="75.48400000000001" class="c">│</text><text x="4.008" y="75.48400000000001" class="c">│</text><text x="6.012" y="75.48400000000001" class="c">└─assertthat</text><text x="0" y="77.655" class="c">│</text><text x="2.004" y="77.655" class="c">│</text><text x="4.008" y="77.655" class="c">├─R6</text><use xlink:href="#5" y="78.156"></use><use xlink:href="#6" y="80.327"></use><text x="0" y="84.16799999999999" class="c">│</text><text x="2.004" y="84.16799999999999" class="c">├─selectr</text><text x="12.024" y="84.16799999999999" class="h">0.4-2</text><text x="18.035999999999998" y="84.16799999999999" class="g">✨</text><text x="0" y="86.339" class="c">│</text><text x="2.004" y="86.339" class="c">│</text><text x="4.008" y="86.339" class="c">├─stringr</text><text x="14.027999999999999" y="86.339" class="h">1.4.0</text><text x="20.04" y="86.339" class="g">✨</text><text x="0" y="88.51" class="c">│</text><text x="2.004" y="88.51" class="c">│</text><text x="4.008" y="88.51" class="c">│</text><text x="6.012" y="88.51" class="c">├─glue</text><text x="0" y="90.681" class="c">│</text><text x="2.004" y="90.681" class="c">│</text><text x="4.008" y="90.681" class="c">│</text><text x="6.012" y="90.681" class="c">├─magrittr</text><text x="0" y="92.852" class="c">│</text><text x="2.004" y="92.852" class="c">│</text><text x="4.008" y="92.852" class="c">│</text><text x="6.012" y="92.852" class="c">└─stringi</text><text x="16.032" y="92.852" class="h">1.4.3</text><text x="22.043999999999997" y="92.852" class="g">✨</text><text x="0" y="95.02300000000001" class="c">│</text><text x="2.004" y="95.02300000000001" class="c">│</text><text x="4.008" y="95.02300000000001" class="c">└─R6</text><text x="0" y="97.19399999999999" class="c">│</text><text x="2.004" y="97.19399999999999" class="c">├─withr</text><text x="10.02" y="97.19399999999999" class="h">2.1.2</text><text x="16.032" y="97.19399999999999" class="g">✨</text><text x="0" y="99.365" class="c">│</text><text x="2.004" y="99.365" class="c">└─xml2</text><text x="9.017999999999999" y="99.365" class="h">1.2.2</text><text x="15.029999999999998" y="99.365" class="g">✨</text><text x="0" y="101.536" class="c">│</text><text x="4.008" y="101.536" class="c">└─Rcpp</text><text x="11.021999999999998" y="101.536" class="h">1.0.3</text><text x="17.034" y="101.536" class="g">✨</text><text x="0" y="103.707" class="c">├─crayon</text><text x="0" y="105.878" class="c">├─curl</text><text x="7.013999999999999" y="105.878" class="h">4.3</text><text x="11.021999999999998" y="105.878" class="g">✨</text><text x="0" y="108.049" class="c">├─desc</text><text x="7.013999999999999" y="108.049" class="h">1.2.0</text><text x="13.026" y="108.049" class="g">✨</text><use xlink:href="#1" y="108.55"></use><use xlink:href="#6" y="110.721"></use><use xlink:href="#3" y="112.89200000000001"></use><text x="0" y="116.73299999999999" class="c">│</text><text x="2.004" y="116.73299999999999" class="c">└─rprojroot</text><text x="14.027999999999999" y="116.73299999999999" class="h">1.3-2</text><text x="20.04" y="116.73299999999999" class="g">✨</text><text x="0" y="118.904" class="c">│</text><text x="4.008" y="118.904" class="c">└─backports</text><text x="0" y="121.075" class="c">├─filelock</text><text x="11.021999999999998" y="121.075" class="h">1.0.2</text><text x="17.034" y="121.075" class="g">✨</text><text x="0" y="123.246" class="c">├─glue</text><text x="0" y="125.417" class="c">├─jsonlite</text><text x="11.021999999999998" y="125.417" class="h">1.6</text><text x="15.029999999999998" y="125.417" class="g">✨</text><text x="0" y="127.58800000000001" class="c">├─lpSolve</text><text x="10.02" y="127.58800000000001" class="h">5.6.13.3</text><text x="19.037999999999997" y="127.58800000000001" class="g">✨</text><text x="0" y="129.759" class="c">├─pkgbuild</text><text x="11.021999999999998" y="129.759" class="h">1.0.6</text><text x="17.034" y="129.759" class="g">✨</text><text x="0" y="131.92999999999998" class="c">│</text><text x="2.004" y="131.92999999999998" class="c">├─callr</text><use xlink:href="#2" y="132.43099999999998"></use><use xlink:href="#3" y="134.602"></use><text x="0" y="138.44299999999998" class="c">│</text><text x="2.004" y="138.44299999999998" class="c">├─desc</text><use xlink:href="#7" y="138.944"></use><use xlink:href="#6" y="141.115"></use><text x="0" y="144.956" class="c">│</text><text x="2.004" y="144.956" class="c">├─rprojroot</text><use xlink:href="#8" y="145.457"></use><text x="0" y="149.298" class="c">├─pkgcache</text><text x="11.021999999999998" y="149.298" class="h">1.0.5</text><text x="17.034" y="149.298" class="g">✨</text><use xlink:href="#1" y="149.79899999999998"></use><use xlink:href="#2" y="151.97"></use><text x="0" y="155.81099999999998" class="c">│</text><text x="2.004" y="155.81099999999998" class="c">├─cliapp</text><text x="0" y="157.982" class="c">│</text><text x="2.004" y="157.982" class="c">├─curl</text><use xlink:href="#3" y="158.483"></use><text x="0" y="162.32399999999998" class="c">│</text><text x="2.004" y="162.32399999999998" class="c">├─digest</text><text x="0" y="164.495" class="c">│</text><text x="2.004" y="164.495" class="c">├─filelock</text><use xlink:href="#4" y="164.99599999999998"></use><use xlink:href="#7" y="167.167"></use><use xlink:href="#6" y="169.338"></use><text x="0" y="173.179" class="c">│</text><text x="2.004" y="173.179" class="c">├─rappdirs</text><text x="13.026" y="173.179" class="h">0.3.1</text><text x="19.037999999999997" y="173.179" class="g">✨</text><text x="0" y="175.35" class="c">│</text><text x="2.004" y="175.35" class="c">├─rematch2</text><text x="13.026" y="175.35" class="h">2.1.0</text><text x="19.037999999999997" y="175.35" class="g">✨</text><text x="0" y="177.52099999999996" class="c">│</text><text x="2.004" y="177.52099999999996" class="c">│</text><text x="4.008" y="177.52099999999996" class="c">└─tibble</text><text x="13.026" y="177.52099999999996" class="h">2.1.3</text><text x="19.037999999999997" y="177.52099999999996" class="g">✨</text><text x="0" y="179.69199999999998" class="c">│</text><text x="2.004" y="179.69199999999998" class="c">│</text><text x="6.012" y="179.69199999999998" class="c">├─cli</text><text x="0" y="181.86299999999997" class="c">│</text><text x="2.004" y="181.86299999999997" class="c">│</text><text x="6.012" y="181.86299999999997" class="c">├─crayon</text><text x="0" y="184.034" class="c">│</text><text x="2.004" y="184.034" class="c">│</text><text x="6.012" y="184.034" class="c">├─fansi</text><text x="0" y="186.20499999999998" class="c">│</text><text x="2.004" y="186.20499999999998" class="c">│</text><text x="6.012" y="186.20499999999998" class="c">├─pillar</text><text x="15.029999999999998" y="186.20499999999998" class="h">1.4.3</text><text x="21.041999999999998" y="186.20499999999998" class="g">✨</text><text x="0" y="188.376" class="c">│</text><text x="2.004" y="188.376" class="c">│</text><text x="6.012" y="188.376" class="c">│</text><text x="8.016" y="188.376" class="c">├─cli</text><text x="0" y="190.547" class="c">│</text><text x="2.004" y="190.547" class="c">│</text><text x="6.012" y="190.547" class="c">│</text><text x="8.016" y="190.547" class="c">├─crayon</text><text x="0" y="192.71799999999996" class="c">│</text><text x="2.004" y="192.71799999999996" class="c">│</text><text x="6.012" y="192.71799999999996" class="c">│</text><text x="8.016" y="192.71799999999996" class="c">├─fansi</text><text x="0" y="194.88899999999998" class="c">│</text><text x="2.004" y="194.88899999999998" class="c">│</text><text x="6.012" y="194.88899999999998" class="c">│</text><text x="8.016" y="194.88899999999998" class="c">├─rlang</text><text x="0" y="197.05999999999997" class="c">│</text><text x="2.004" y="197.05999999999997" class="c">│</text><text x="6.012" y="197.05999999999997" class="c">│</text><text x="8.016" y="197.05999999999997" class="c">├─utf8</text><text x="15.029999999999998" y="197.05999999999997" class="h">1.1.4</text><text x="21.041999999999998" y="197.05999999999997" class="g">✨</text><text x="0" y="199.231" class="c">│</text><text x="2.004" y="199.231" class="c">│</text><text x="6.012" y="199.231" class="c">│</text><text x="8.016" y="199.231" class="c">└─vctrs</text><text x="0" y="201.402" class="c">│</text><text x="2.004" y="201.402" class="c">│</text><text x="6.012" y="201.402" class="c">├─pkgconfig</text><text x="0" y="203.573" class="c">│</text><text x="2.004" y="203.573" class="c">│</text><text x="6.012" y="203.573" class="c">└─rlang</text><text x="0" y="205.74399999999997" class="c">│</text><text x="2.004" y="205.74399999999997" class="c">├─rlang</text><text x="0" y="207.915" class="c">│</text><text x="2.004" y="207.915" class="c">├─tibble</text><text x="0" y="210.08599999999998" class="c">│</text><text x="2.004" y="210.08599999999998" class="c">├─uuid</text><text x="9.017999999999999" y="210.08599999999998" class="h">0.1-2</text><text x="15.029999999999998" y="210.08599999999998" class="g">✨</text><use xlink:href="#8" y="210.587"></use><text x="0" y="214.428" class="c">├─prettyunits</text><text x="0" y="216.59899999999996" class="c">├─processx</text><text x="0" y="218.76999999999998" class="c">├─ps</text><text x="0" y="220.94099999999997" class="c">├─R6</text><text x="0" y="223.112" class="c">├─rematch2</text><text x="0" y="225.283" class="c">├─rprojroot</text><text x="0" y="227.454" class="c">└─tibble</text><text x="0" y="231.79599999999996" class="c">Key:</text><text x="6.012" y="231.79599999999996" class="g">✨</text><text x="8.016" y="231.79599999999996" class="c">new</text></svg></svg></g></svg></svg>