<svg xmlns="http://www.w3.org/2000/svg" xmlns:xlink="http://www.w3.org/1999/xlink" width="1040" height="430.78000000000003"><rect width="1040" height="430.78000000000003" rx="0" ry="0" class="a"></rect><svg height="390.78000000000003" viewBox="0 0 100 39.078" width="1000" x="20" xmlns="http://www.w3.org/2000/svg" xmlns:xlink="http://www.w3.org/1999/xlink" y="20"><style>.a{fill:rgb(40,45,53)}.b{font-family:'Fira Code',Monaco,Consolas,Menlo,'Bitstream Vera Sans Mono','Powerline Symbols',monospace}.c{fill:transparent}.d{fill:rgb(102,194,205);white-space:pre}.e{fill:rgb(185,192,203);white-space:pre}.f{fill:rgb(210,144,228);white-space:pre}.g{fill:rgb(168,204,140);white-space:pre}.h{fill:rgb(148,148,148);white-space:pre}.i{fill:rgb(148,148,148);font-style:italic;white-space:pre}.j{fill:rgb(188,188,188);white-space:pre}.k{fill:rgb(232,131,136);white-space:pre}</style><g font-family="&#x27;Fira Code&#x27;,Monaco,Consolas,Menlo,&#x27;Bitstream Vera Sans Mono&#x27;,&#x27;Powerline Symbols&#x27;,monospace" font-size="1.67" class="b"><defs><symbol id="a"><rect height="19" width="100" x="0" y="0" class="c"></rect></symbol></defs><rect height="39.078" width="100" class="a"></rect><svg x="0" y="0" width="100"><svg x="0"><use xlink:href="#a"></use><text x="0" y="1.67" class="d">ℹ</text><text x="2.004" y="1.67" class="e">Packaging</text><text x="12.024" y="1.67" class="f">pkgconfig</text><text x="22.043999999999997" y="1.67" class="e">2.0.2</text><text x="0" y="3.8409999999999997" class="g">✔</text><text x="2.004" y="3.8409999999999997" class="e">Packaged</text><text x="11.021999999999998" y="3.8409999999999997" class="f">pkgconfig</text><text x="21.041999999999998" y="3.8409999999999997" class="e">2.0.2</text><text x="27.054" y="3.8409999999999997" class="e">447ms</text><text x="0" y="6.012" class="d">ℹ</text><text x="2.004" y="6.012" class="e">Building</text><text x="11.021999999999998" y="6.012" class="f">pkgconfig</text><text x="21.041999999999998" y="6.012" class="e">2.0.2</text><text x="0" y="8.183" class="g">✔</text><text x="2.004" y="8.183" class="e">Built</text><text x="8.016" y="8.183" class="f">pkgconfig</text><text x="18.035999999999998" y="8.183" class="e">2.0.2</text><text x="24.048" y="8.183" class="e">857ms</text><text x="0" y="10.354" class="g">✔</text><text x="2.004" y="10.354" class="e">Installed</text><text x="12.024" y="10.354" class="f">pkgconfig</text><text x="22.043999999999997" y="10.354" class="e">2.0.2</text><text x="28.055999999999997" y="10.354" class="e">(github::cran/pkgconfig@d892880)</text><text x="61.12199999999999" y="10.354" class="e">24ms</text><text x="0" y="12.525" class="e">Installed:</text><text x="11.021999999999998" y="12.525" class="e">1</text><text x="0" y="14.696" class="e">Build</text><text x="6.012" y="14.696" class="e">time:</text><text x="13.026" y="14.696" class="e">857ms</text><text x="0" y="16.866999999999997" class="e">Intall</text><text x="7.013999999999999" y="16.866999999999997" class="e">time:</text><text x="13.026" y="16.866999999999997" class="e">24ms</text><text x="0" y="19.037999999999997" class="h">#</text><text x="2.004" y="19.037999999999997" class="h">A</text><text x="4.008" y="19.037999999999997" class="h">tibble:</text><text x="12.024" y="19.037999999999997" class="h">1</text><text x="14.027999999999999" y="19.037999999999997" class="h">x</text><text x="16.032" y="19.037999999999997" class="h">30</text><text x="2.004" y="21.209000000000003" class="e">package</text><text x="10.02" y="21.209000000000003" class="e">title</text><text x="16.032" y="21.209000000000003" class="e">version</text><text x="24.048" y="21.209000000000003" class="e">depends</text><text x="32.064" y="21.209000000000003" class="e">suggests</text><text x="41.082" y="21.209000000000003" class="e">imports</text><text x="49.098" y="21.209000000000003" class="e">linkingto</text><text x="59.117999999999995" y="21.209000000000003" class="e">enhances</text><text x="68.136" y="21.209000000000003" class="e">built</text><text x="74.148" y="21.209000000000003" class="e">md5sum</text><text x="2.004" y="23.380000000000003" class="i">&lt;chr&gt;</text><text x="10.02" y="23.380000000000003" class="i">&lt;chr&gt;</text><text x="16.032" y="23.380000000000003" class="i">&lt;chr&gt;</text><text x="24.048" y="23.380000000000003" class="i">&lt;chr&gt;</text><text x="32.064" y="23.380000000000003" class="i">&lt;chr&gt;</text><text x="41.082" y="23.380000000000003" class="i">&lt;chr&gt;</text><text x="49.098" y="23.380000000000003" class="i">&lt;chr&gt;</text><text x="59.117999999999995" y="23.380000000000003" class="i">&lt;chr&gt;</text><text x="68.136" y="23.380000000000003" class="i">&lt;chr&gt;</text><text x="74.148" y="23.380000000000003" class="i">&lt;chr&gt;</text><text x="0" y="25.550999999999995" class="j">1</text><text x="2.004" y="25.550999999999995" class="e">pkgcon…</text><text x="10.02" y="25.550999999999995" class="e">Priv…</text><text x="16.032" y="25.550999999999995" class="e">2.0.2</text><text x="24.048" y="25.550999999999995" class="k">NA</text><text x="32.064" y="25.550999999999995" class="e">covr,</text><text x="38.07599999999999" y="25.550999999999995" class="e">t…</text><text x="41.082" y="25.550999999999995" class="e">utils</text><text x="49.098" y="25.550999999999995" class="k">NA</text><text x="59.117999999999995" y="25.550999999999995" class="k">NA</text><text x="68.136" y="25.550999999999995" class="e">R</text><text x="70.13999999999999" y="25.550999999999995" class="e">3.…</text><text x="74.148" y="25.550999999999995" class="k">NA</text><text x="0" y="27.722" class="h">#</text><text x="2.004" y="27.722" class="h">…</text><text x="4.008" y="27.722" class="h">with</text><text x="9.017999999999999" y="27.722" class="h">20</text><text x="12.024" y="27.722" class="h">more</text><text x="17.034" y="27.722" class="h">variables:</text><text x="28.055999999999997" y="27.722" class="h">needscompilation</text><text x="45.089999999999996" y="27.722" class="i">&lt;lgl&gt;</text><text x="50.1" y="27.722" class="h">,</text><text x="52.104" y="27.722" class="h">platform</text><text x="61.12199999999999" y="27.722" class="i">&lt;chr&gt;</text><text x="66.13199999999999" y="27.722" class="h">,</text><text x="0" y="29.893" class="h">#</text><text x="4.008" y="29.893" class="h">license</text><text x="12.024" y="29.893" class="i">&lt;chr&gt;</text><text x="17.034" y="29.893" class="h">,</text><text x="19.037999999999997" y="29.893" class="h">priority</text><text x="28.055999999999997" y="29.893" class="i">&lt;chr&gt;</text><text x="33.065999999999995" y="29.893" class="h">,</text><text x="35.06999999999999" y="29.893" class="h">repository</text><text x="46.09199999999999" y="29.893" class="i">&lt;chr&gt;</text><text x="51.102" y="29.893" class="h">,</text><text x="53.105999999999995" y="29.893" class="h">biocviews</text><text x="63.12599999999999" y="29.893" class="i">&lt;chr&gt;</text><text x="68.136" y="29.893" class="h">,</text><text x="0" y="32.064" class="h">#</text><text x="4.008" y="32.064" class="h">remotetype</text><text x="15.029999999999998" y="32.064" class="i">&lt;chr&gt;</text><text x="20.04" y="32.064" class="h">,</text><text x="22.043999999999997" y="32.064" class="h">remotehost</text><text x="33.065999999999995" y="32.064" class="i">&lt;chr&gt;</text><text x="38.07599999999999" y="32.064" class="h">,</text><text x="40.08" y="32.064" class="h">remoterepo</text><text x="51.102" y="32.064" class="i">&lt;chr&gt;</text><text x="56.111999999999995" y="32.064" class="h">,</text><text x="58.116" y="32.064" class="h">remoteusername</text><text x="73.146" y="32.064" class="i">&lt;chr&gt;</text><text x="78.15599999999999" y="32.064" class="h">,</text><text x="0" y="34.235" class="h">#</text><text x="4.008" y="34.235" class="h">remotepkgref</text><text x="17.034" y="34.235" class="i">&lt;chr&gt;</text><text x="22.043999999999997" y="34.235" class="h">,</text><text x="24.048" y="34.235" class="h">remoteref</text><text x="34.068" y="34.235" class="i">&lt;chr&gt;</text><text x="39.077999999999996" y="34.235" class="h">,</text><text x="41.082" y="34.235" class="h">remotesha</text><text x="51.102" y="34.235" class="i">&lt;chr&gt;</text><text x="56.111999999999995" y="34.235" class="h">,</text><text x="58.116" y="34.235" class="h">ref</text><text x="62.123999999999995" y="34.235" class="i">&lt;chr&gt;</text><text x="67.134" y="34.235" class="h">,</text><text x="0" y="36.406" class="h">#</text><text x="4.008" y="36.406" class="h">type</text><text x="9.017999999999999" y="36.406" class="i">&lt;chr&gt;</text><text x="14.027999999999999" y="36.406" class="h">,</text><text x="16.032" y="36.406" class="h">status</text><text x="23.045999999999996" y="36.406" class="i">&lt;chr&gt;</text><text x="28.055999999999997" y="36.406" class="h">,</text><text x="30.059999999999995" y="36.406" class="h">rversion</text><text x="39.077999999999996" y="36.406" class="i">&lt;chr&gt;</text><text x="44.087999999999994" y="36.406" class="h">,</text><text x="46.09199999999999" y="36.406" class="h">sources</text><text x="54.108" y="36.406" class="i">&lt;list&gt;</text><text x="60.11999999999999" y="36.406" class="h">,</text><text x="62.123999999999995" y="36.406" class="h">repotype</text><text x="71.142" y="36.406" class="i">&lt;chr&gt;</text><text x="76.15199999999999" y="36.406" class="h">,</text><text x="0" y="38.577000000000005" class="h">#</text><text x="4.008" y="38.577000000000005" class="h">deps</text><text x="9.017999999999999" y="38.577000000000005" class="i">&lt;list&gt;</text></svg></svg></g></svg></svg>