<svg xmlns="http://www.w3.org/2000/svg" xmlns:xlink="http://www.w3.org/1999/xlink" width="1040" height="322.23"><rect width="1040" height="322.23" rx="0" ry="0" class="a"></rect><svg height="282.23" viewBox="0 0 100 28.223000000000003" width="1000" x="20" xmlns="http://www.w3.org/2000/svg" xmlns:xlink="http://www.w3.org/1999/xlink" y="20"><style>.a{fill:rgb(40,45,53)}.b{font-family:'Fira Code',Monaco,Consolas,Menlo,'Bitstream Vera Sans Mono','Powerline Symbols',monospace}.c{fill:transparent}.d{fill:rgb(168,204,140);white-space:pre}.e{fill:rgb(185,192,203);white-space:pre}.f{fill:rgb(210,144,228);white-space:pre}.g{fill:rgb(148,148,148);white-space:pre}.h{fill:rgb(148,148,148);font-style:italic;white-space:pre}.i{fill:rgb(188,188,188);white-space:pre}.j{fill:rgb(232,131,136);white-space:pre}</style><g font-family="&#x27;Fira Code&#x27;,Monaco,Consolas,Menlo,&#x27;Bitstream Vera Sans Mono&#x27;,&#x27;Powerline Symbols&#x27;,monospace" font-size="1.67" class="b"><defs><symbol id="a"><rect height="14" width="100" x="0" y="0" class="c"></rect></symbol></defs><rect height="28.223000000000003" width="100" class="a"></rect><svg x="0" y="0" width="100"><svg x="0"><use xlink:href="#a"></use><text x="0" y="1.67" class="d">✔</text><text x="2.004" y="1.67" class="e">Installed</text><text x="12.024" y="1.67" class="f">pkgconfig</text><text x="22.043999999999997" y="1.67" class="e">2.0.3</text><text x="29.058" y="1.67" class="e">23ms</text><text x="0" y="3.8409999999999997" class="e">Installed:</text><text x="11.021999999999998" y="3.8409999999999997" class="e">1</text><text x="0" y="6.012" class="e">Build</text><text x="6.012" y="6.012" class="e">time:</text><text x="13.026" y="6.012" class="e">0ms</text><text x="0" y="8.183" class="e">Intall</text><text x="7.013999999999999" y="8.183" class="e">time:</text><text x="13.026" y="8.183" class="e">23ms</text><text x="0" y="10.354" class="g">#</text><text x="2.004" y="10.354" class="g">A</text><text x="4.008" y="10.354" class="g">tibble:</text><text x="12.024" y="10.354" class="g">1</text><text x="14.027999999999999" y="10.354" class="g">x</text><text x="16.032" y="10.354" class="g">29</text><text x="2.004" y="12.525" class="e">package</text><text x="10.02" y="12.525" class="e">title</text><text x="16.032" y="12.525" class="e">version</text><text x="24.048" y="12.525" class="e">depends</text><text x="32.064" y="12.525" class="e">suggests</text><text x="41.082" y="12.525" class="e">imports</text><text x="49.098" y="12.525" class="e">linkingto</text><text x="59.117999999999995" y="12.525" class="e">enhances</text><text x="68.136" y="12.525" class="e">built</text><text x="74.148" y="12.525" class="e">md5sum</text><text x="2.004" y="14.696" class="h">&lt;chr&gt;</text><text x="10.02" y="14.696" class="h">&lt;chr&gt;</text><text x="16.032" y="14.696" class="h">&lt;chr&gt;</text><text x="24.048" y="14.696" class="h">&lt;chr&gt;</text><text x="32.064" y="14.696" class="h">&lt;chr&gt;</text><text x="41.082" y="14.696" class="h">&lt;chr&gt;</text><text x="49.098" y="14.696" class="h">&lt;chr&gt;</text><text x="59.117999999999995" y="14.696" class="h">&lt;chr&gt;</text><text x="68.136" y="14.696" class="h">&lt;chr&gt;</text><text x="74.148" y="14.696" class="h">&lt;chr&gt;</text><text x="0" y="16.866999999999997" class="i">1</text><text x="2.004" y="16.866999999999997" class="e">pkgcon…</text><text x="10.02" y="16.866999999999997" class="e">Priv…</text><text x="16.032" y="16.866999999999997" class="e">2.0.3</text><text x="24.048" y="16.866999999999997" class="j">NA</text><text x="32.064" y="16.866999999999997" class="e">covr,</text><text x="38.07599999999999" y="16.866999999999997" class="e">t…</text><text x="41.082" y="16.866999999999997" class="e">utils</text><text x="49.098" y="16.866999999999997" class="j">NA</text><text x="59.117999999999995" y="16.866999999999997" class="j">NA</text><text x="68.136" y="16.866999999999997" class="e">R</text><text x="70.13999999999999" y="16.866999999999997" class="e">3.…</text><text x="74.148" y="16.866999999999997" class="j">NA</text><text x="0" y="19.037999999999997" class="g">#</text><text x="2.004" y="19.037999999999997" class="g">…</text><text x="4.008" y="19.037999999999997" class="g">with</text><text x="9.017999999999999" y="19.037999999999997" class="g">19</text><text x="12.024" y="19.037999999999997" class="g">more</text><text x="17.034" y="19.037999999999997" class="g">variables:</text><text x="28.055999999999997" y="19.037999999999997" class="g">needscompilation</text><text x="45.089999999999996" y="19.037999999999997" class="h">&lt;lgl&gt;</text><text x="50.1" y="19.037999999999997" class="g">,</text><text x="52.104" y="19.037999999999997" class="g">platform</text><text x="61.12199999999999" y="19.037999999999997" class="h">&lt;chr&gt;</text><text x="66.13199999999999" y="19.037999999999997" class="g">,</text><text x="0" y="21.209000000000003" class="g">#</text><text x="4.008" y="21.209000000000003" class="g">license</text><text x="12.024" y="21.209000000000003" class="h">&lt;chr&gt;</text><text x="17.034" y="21.209000000000003" class="g">,</text><text x="19.037999999999997" y="21.209000000000003" class="g">priority</text><text x="28.055999999999997" y="21.209000000000003" class="h">&lt;chr&gt;</text><text x="33.065999999999995" y="21.209000000000003" class="g">,</text><text x="35.06999999999999" y="21.209000000000003" class="g">repository</text><text x="46.09199999999999" y="21.209000000000003" class="h">&lt;chr&gt;</text><text x="51.102" y="21.209000000000003" class="g">,</text><text x="53.105999999999995" y="21.209000000000003" class="g">biocviews</text><text x="63.12599999999999" y="21.209000000000003" class="h">&lt;chr&gt;</text><text x="68.136" y="21.209000000000003" class="g">,</text><text x="0" y="23.380000000000003" class="g">#</text><text x="4.008" y="23.380000000000003" class="g">remotetype</text><text x="15.029999999999998" y="23.380000000000003" class="h">&lt;chr&gt;</text><text x="20.04" y="23.380000000000003" class="g">,</text><text x="22.043999999999997" y="23.380000000000003" class="g">remotepkgref</text><text x="35.06999999999999" y="23.380000000000003" class="h">&lt;chr&gt;</text><text x="40.08" y="23.380000000000003" class="g">,</text><text x="42.083999999999996" y="23.380000000000003" class="g">remoteref</text><text x="52.104" y="23.380000000000003" class="h">&lt;chr&gt;</text><text x="57.114" y="23.380000000000003" class="g">,</text><text x="59.117999999999995" y="23.380000000000003" class="g">remoterepos</text><text x="71.142" y="23.380000000000003" class="h">&lt;chr&gt;</text><text x="76.15199999999999" y="23.380000000000003" class="g">,</text><text x="0" y="25.550999999999995" class="g">#</text><text x="4.008" y="25.550999999999995" class="g">remotepkgtype</text><text x="18.035999999999998" y="25.550999999999995" class="h">&lt;chr&gt;</text><text x="23.045999999999996" y="25.550999999999995" class="g">,</text><text x="25.05" y="25.550999999999995" class="g">remotesha</text><text x="35.06999999999999" y="25.550999999999995" class="h">&lt;chr&gt;</text><text x="40.08" y="25.550999999999995" class="g">,</text><text x="42.083999999999996" y="25.550999999999995" class="g">ref</text><text x="46.09199999999999" y="25.550999999999995" class="h">&lt;chr&gt;</text><text x="51.102" y="25.550999999999995" class="g">,</text><text x="53.105999999999995" y="25.550999999999995" class="g">type</text><text x="58.116" y="25.550999999999995" class="h">&lt;chr&gt;</text><text x="63.12599999999999" y="25.550999999999995" class="g">,</text><text x="65.13" y="25.550999999999995" class="g">status</text><text x="72.14399999999999" y="25.550999999999995" class="h">&lt;chr&gt;</text><text x="77.154" y="25.550999999999995" class="g">,</text><text x="0" y="27.722" class="g">#</text><text x="4.008" y="27.722" class="g">rversion</text><text x="13.026" y="27.722" class="h">&lt;chr&gt;</text><text x="18.035999999999998" y="27.722" class="g">,</text><text x="20.04" y="27.722" class="g">sources</text><text x="28.055999999999997" y="27.722" class="h">&lt;list&gt;</text><text x="34.068" y="27.722" class="g">,</text><text x="36.071999999999996" y="27.722" class="g">repotype</text><text x="45.089999999999996" y="27.722" class="h">&lt;chr&gt;</text><text x="50.1" y="27.722" class="g">,</text><text x="52.104" y="27.722" class="g">deps</text><text x="57.114" y="27.722" class="h">&lt;list&gt;</text></svg></svg></g></svg></svg>