<svg xmlns="http://www.w3.org/2000/svg" xmlns:xlink="http://www.w3.org/1999/xlink" width="1040" height="1494.57"><rect width="1040" height="1494.57" rx="0" ry="0" class="a"></rect><svg height="1454.57" viewBox="0 0 100 145.457" width="1000" x="20" xmlns="http://www.w3.org/2000/svg" xmlns:xlink="http://www.w3.org/1999/xlink" y="20"><style>.a{fill:rgb(40,45,53)}.b{font-family:'Fira Code',Monaco,Consolas,Menlo,'Bitstream Vera Sans Mono','Powerline Symbols',monospace}.c{fill:transparent}.d{fill:rgb(168,204,140);font-weight:bold;white-space:pre}.e{fill:rgb(185,192,203);white-space:pre}.f{fill:rgb(168,204,140);white-space:pre}.g{fill:rgb(210,144,228);white-space:pre}.h{fill:rgb(148,148,148);white-space:pre}.i{fill:rgb(148,148,148);font-style:italic;white-space:pre}.j{fill:rgb(188,188,188);white-space:pre}.k{fill:rgb(232,131,136);white-space:pre}</style><g font-family="&#x27;Fira Code&#x27;,Monaco,Consolas,Menlo,&#x27;Bitstream Vera Sans Mono&#x27;,&#x27;Powerline Symbols&#x27;,monospace" font-size="1.67" class="b"><defs><symbol id="a"><rect height="68" width="100" x="0" y="0" class="c"></rect></symbol></defs><rect height="145.457" width="100" class="a"></rect><svg x="0" y="0" width="100"><svg x="0"><use xlink:href="#a"></use><text x="0" y="1.67" class="d">✔</text><text x="2.004" y="1.67" class="e">Loading</text><text x="10.02" y="1.67" class="e">session</text><text x="18.035999999999998" y="1.67" class="e">disk</text><text x="23.045999999999996" y="1.67" class="e">cached</text><text x="30.059999999999995" y="1.67" class="e">package</text><text x="38.07599999999999" y="1.67" class="e">metadata</text><text x="0" y="3.8409999999999997" class="f">✔</text><text x="2.004" y="3.8409999999999997" class="e">Installed</text><text x="12.024" y="3.8409999999999997" class="g">assertthat</text><text x="23.045999999999996" y="3.8409999999999997" class="e">0.2.1</text><text x="30.059999999999995" y="3.8409999999999997" class="e">54ms</text><text x="0" y="6.012" class="f">✔</text><text x="2.004" y="6.012" class="e">Installed</text><text x="12.024" y="6.012" class="g">backports</text><text x="22.043999999999997" y="6.012" class="e">1.1.5</text><text x="29.058" y="6.012" class="e">136ms</text><text x="0" y="8.183" class="f">✔</text><text x="2.004" y="8.183" class="e">Installed</text><text x="12.024" y="8.183" class="g">base64enc</text><text x="22.043999999999997" y="8.183" class="e">0.1-3</text><text x="29.058" y="8.183" class="e">158ms</text><text x="0" y="10.354" class="f">✔</text><text x="2.004" y="10.354" class="e">Installed</text><text x="12.024" y="10.354" class="g">callr</text><text x="18.035999999999998" y="10.354" class="e">3.4.0</text><text x="25.05" y="10.354" class="e">199ms</text><text x="0" y="12.525" class="f">✔</text><text x="2.004" y="12.525" class="e">Installed</text><text x="12.024" y="12.525" class="g">cli</text><text x="16.032" y="12.525" class="e">2.0.0</text><text x="23.045999999999996" y="12.525" class="e">94ms</text><text x="0" y="14.696" class="f">✔</text><text x="2.004" y="14.696" class="e">Installed</text><text x="12.024" y="14.696" class="g">cliapp</text><text x="19.037999999999997" y="14.696" class="e">0.1.0</text><text x="26.052" y="14.696" class="e">94ms</text><text x="0" y="16.866999999999997" class="f">✔</text><text x="2.004" y="16.866999999999997" class="e">Installed</text><text x="12.024" y="16.866999999999997" class="g">crayon</text><text x="19.037999999999997" y="16.866999999999997" class="e">1.3.4</text><text x="26.052" y="16.866999999999997" class="e">71ms</text><text x="0" y="19.037999999999997" class="f">✔</text><text x="2.004" y="19.037999999999997" class="e">Installed</text><text x="12.024" y="19.037999999999997" class="g">curl</text><text x="17.034" y="19.037999999999997" class="e">4.3</text><text x="22.043999999999997" y="19.037999999999997" class="e">72ms</text><text x="0" y="21.209000000000003" class="f">✔</text><text x="2.004" y="21.209000000000003" class="e">Installed</text><text x="12.024" y="21.209000000000003" class="g">desc</text><text x="17.034" y="21.209000000000003" class="e">1.2.0</text><text x="24.048" y="21.209000000000003" class="e">91ms</text><text x="0" y="23.380000000000003" class="f">✔</text><text x="2.004" y="23.380000000000003" class="e">Installed</text><text x="12.024" y="23.380000000000003" class="g">digest</text><text x="19.037999999999997" y="23.380000000000003" class="e">0.6.23</text><text x="27.054" y="23.380000000000003" class="e">102ms</text><text x="0" y="25.550999999999995" class="f">✔</text><text x="2.004" y="25.550999999999995" class="e">Installed</text><text x="12.024" y="25.550999999999995" class="g">ellipsis</text><text x="21.041999999999998" y="25.550999999999995" class="e">0.3.0</text><text x="28.055999999999997" y="25.550999999999995" class="e">72ms</text><text x="0" y="27.722" class="f">✔</text><text x="2.004" y="27.722" class="e">Installed</text><text x="12.024" y="27.722" class="g">fansi</text><text x="18.035999999999998" y="27.722" class="e">0.4.0</text><text x="25.05" y="27.722" class="e">71ms</text><text x="0" y="29.893" class="f">✔</text><text x="2.004" y="29.893" class="e">Installed</text><text x="12.024" y="29.893" class="g">filelock</text><text x="21.041999999999998" y="29.893" class="e">1.0.2</text><text x="28.055999999999997" y="29.893" class="e">71ms</text><text x="0" y="32.064" class="f">✔</text><text x="2.004" y="32.064" class="e">Installed</text><text x="12.024" y="32.064" class="g">glue</text><text x="17.034" y="32.064" class="e">1.3.1</text><text x="24.048" y="32.064" class="e">97ms</text><text x="0" y="34.235" class="f">✔</text><text x="2.004" y="34.235" class="e">Installed</text><text x="12.024" y="34.235" class="g">hms</text><text x="16.032" y="34.235" class="e">0.5.2</text><text x="23.045999999999996" y="34.235" class="e">80ms</text><text x="0" y="36.406" class="f">✔</text><text x="2.004" y="36.406" class="e">Installed</text><text x="12.024" y="36.406" class="g">jsonlite</text><text x="21.041999999999998" y="36.406" class="e">1.6</text><text x="26.052" y="36.406" class="e">70ms</text><text x="0" y="38.577000000000005" class="f">✔</text><text x="2.004" y="38.577000000000005" class="e">Installed</text><text x="12.024" y="38.577000000000005" class="g">lpSolve</text><text x="20.04" y="38.577000000000005" class="e">5.6.13.3</text><text x="30.059999999999995" y="38.577000000000005" class="e">66ms</text><text x="0" y="40.748000000000005" class="f">✔</text><text x="2.004" y="40.748000000000005" class="e">Installed</text><text x="12.024" y="40.748000000000005" class="g">magrittr</text><text x="21.041999999999998" y="40.748000000000005" class="e">1.5</text><text x="26.052" y="40.748000000000005" class="e">87ms</text><text x="0" y="42.919" class="f">✔</text><text x="2.004" y="42.919" class="e">Installed</text><text x="12.024" y="42.919" class="g">pak</text><text x="16.032" y="42.919" class="e">0.1.2</text><text x="23.045999999999996" y="42.919" class="e">73ms</text><text x="0" y="45.09" class="f">✔</text><text x="2.004" y="45.09" class="e">Installed</text><text x="12.024" y="45.09" class="g">pillar</text><text x="19.037999999999997" y="45.09" class="e">1.4.3</text><text x="26.052" y="45.09" class="e">72ms</text><text x="0" y="47.261" class="f">✔</text><text x="2.004" y="47.261" class="e">Installed</text><text x="12.024" y="47.261" class="g">pkgbuild</text><text x="21.041999999999998" y="47.261" class="e">1.0.6</text><text x="28.055999999999997" y="47.261" class="e">69ms</text><text x="0" y="49.431999999999995" class="f">✔</text><text x="2.004" y="49.431999999999995" class="e">Installed</text><text x="12.024" y="49.431999999999995" class="g">pkgcache</text><text x="21.041999999999998" y="49.431999999999995" class="e">1.0.5</text><text x="28.055999999999997" y="49.431999999999995" class="e">89ms</text><text x="0" y="51.603" class="f">✔</text><text x="2.004" y="51.603" class="e">Installed</text><text x="12.024" y="51.603" class="g">pkgconfig</text><text x="22.043999999999997" y="51.603" class="e">2.0.3</text><text x="29.058" y="51.603" class="e">71ms</text><text x="0" y="53.774" class="f">✔</text><text x="2.004" y="53.774" class="e">Installed</text><text x="12.024" y="53.774" class="g">prettycode</text><text x="23.045999999999996" y="53.774" class="e">1.1.0</text><text x="30.059999999999995" y="53.774" class="e">70ms</text><text x="0" y="55.945" class="f">✔</text><text x="2.004" y="55.945" class="e">Installed</text><text x="12.024" y="55.945" class="g">prettyunits</text><text x="24.048" y="55.945" class="e">1.0.2</text><text x="31.061999999999998" y="55.945" class="e">68ms</text><text x="0" y="58.11600000000001" class="f">✔</text><text x="2.004" y="58.11600000000001" class="e">Installed</text><text x="12.024" y="58.11600000000001" class="g">processx</text><text x="21.041999999999998" y="58.11600000000001" class="e">3.4.1</text><text x="28.055999999999997" y="58.11600000000001" class="e">90ms</text><text x="0" y="60.287" class="f">✔</text><text x="2.004" y="60.287" class="e">Installed</text><text x="12.024" y="60.287" class="g">progress</text><text x="21.041999999999998" y="60.287" class="e">1.2.2</text><text x="28.055999999999997" y="60.287" class="e">76ms</text><text x="0" y="62.458" class="f">✔</text><text x="2.004" y="62.458" class="e">Installed</text><text x="12.024" y="62.458" class="g">ps</text><text x="15.029999999999998" y="62.458" class="e">1.3.0</text><text x="22.043999999999997" y="62.458" class="e">70ms</text><text x="0" y="64.629" class="f">✔</text><text x="2.004" y="64.629" class="e">Installed</text><text x="12.024" y="64.629" class="g">R6</text><text x="15.029999999999998" y="64.629" class="e">2.4.1</text><text x="22.043999999999997" y="64.629" class="e">71ms</text><text x="0" y="66.8" class="f">✔</text><text x="2.004" y="66.8" class="e">Installed</text><text x="12.024" y="66.8" class="g">rappdirs</text><text x="21.041999999999998" y="66.8" class="e">0.3.1</text><text x="28.055999999999997" y="66.8" class="e">97ms</text><text x="0" y="68.971" class="f">✔</text><text x="2.004" y="68.971" class="e">Installed</text><text x="12.024" y="68.971" class="g">rematch2</text><text x="21.041999999999998" y="68.971" class="e">2.1.0</text><text x="28.055999999999997" y="68.971" class="e">23ms</text><text x="0" y="71.142" class="f">✔</text><text x="2.004" y="71.142" class="e">Installed</text><text x="12.024" y="71.142" class="g">Rcpp</text><text x="17.034" y="71.142" class="e">1.0.3</text><text x="24.048" y="71.142" class="e">182ms</text><text x="0" y="73.313" class="f">✔</text><text x="2.004" y="73.313" class="e">Installed</text><text x="12.024" y="73.313" class="g">rlang</text><text x="18.035999999999998" y="73.313" class="e">0.4.2</text><text x="25.05" y="73.313" class="e">83ms</text><text x="0" y="75.48400000000001" class="f">✔</text><text x="2.004" y="75.48400000000001" class="e">Installed</text><text x="12.024" y="75.48400000000001" class="g">rprojroot</text><text x="22.043999999999997" y="75.48400000000001" class="e">1.3-2</text><text x="29.058" y="75.48400000000001" class="e">93ms</text><text x="0" y="77.655" class="f">✔</text><text x="2.004" y="77.655" class="e">Installed</text><text x="12.024" y="77.655" class="g">selectr</text><text x="20.04" y="77.655" class="e">0.4-2</text><text x="27.054" y="77.655" class="e">98ms</text><text x="0" y="79.82600000000001" class="f">✔</text><text x="2.004" y="79.82600000000001" class="e">Installed</text><text x="12.024" y="79.82600000000001" class="g">stringr</text><text x="20.04" y="79.82600000000001" class="e">1.4.0</text><text x="27.054" y="79.82600000000001" class="e">28ms</text><text x="0" y="81.997" class="f">✔</text><text x="2.004" y="81.997" class="e">Installed</text><text x="12.024" y="81.997" class="g">tibble</text><text x="19.037999999999997" y="81.997" class="e">2.1.3</text><text x="26.052" y="81.997" class="e">28ms</text><text x="0" y="84.16799999999999" class="f">✔</text><text x="2.004" y="84.16799999999999" class="e">Installed</text><text x="12.024" y="84.16799999999999" class="g">stringi</text><text x="20.04" y="84.16799999999999" class="e">1.4.3</text><text x="27.054" y="84.16799999999999" class="e">228ms</text><text x="0" y="86.339" class="f">✔</text><text x="2.004" y="86.339" class="e">Installed</text><text x="12.024" y="86.339" class="g">utf8</text><text x="17.034" y="86.339" class="e">1.1.4</text><text x="24.048" y="86.339" class="e">97ms</text><text x="0" y="88.51" class="f">✔</text><text x="2.004" y="88.51" class="e">Installed</text><text x="12.024" y="88.51" class="g">uuid</text><text x="17.034" y="88.51" class="e">0.1-2</text><text x="24.048" y="88.51" class="e">74ms</text><text x="0" y="90.681" class="f">✔</text><text x="2.004" y="90.681" class="e">Installed</text><text x="12.024" y="90.681" class="g">vctrs</text><text x="18.035999999999998" y="90.681" class="e">0.2.1</text><text x="25.05" y="90.681" class="e">69ms</text><text x="0" y="92.852" class="f">✔</text><text x="2.004" y="92.852" class="e">Installed</text><text x="12.024" y="92.852" class="g">withr</text><text x="18.035999999999998" y="92.852" class="e">2.1.2</text><text x="25.05" y="92.852" class="e">91ms</text><text x="0" y="95.02300000000001" class="f">✔</text><text x="2.004" y="95.02300000000001" class="e">Installed</text><text x="12.024" y="95.02300000000001" class="g">xml2</text><text x="17.034" y="95.02300000000001" class="e">1.2.2</text><text x="24.048" y="95.02300000000001" class="e">96ms</text><text x="0" y="97.19399999999999" class="f">✔</text><text x="2.004" y="97.19399999999999" class="e">Installed</text><text x="12.024" y="97.19399999999999" class="g">zeallot</text><text x="20.04" y="97.19399999999999" class="e">0.1.0</text><text x="27.054" y="97.19399999999999" class="e">62ms</text><text x="0" y="99.365" class="e">Installed:</text><text x="11.021999999999998" y="99.365" class="e">44</text><text x="0" y="101.536" class="e">Build</text><text x="6.012" y="101.536" class="e">time:</text><text x="13.026" y="101.536" class="e">0ms</text><text x="0" y="103.707" class="e">Intall</text><text x="7.013999999999999" y="103.707" class="e">time:</text><text x="13.026" y="103.707" class="e">3.8s</text><text x="0" y="105.878" class="h">#</text><text x="2.004" y="105.878" class="h">A</text><text x="4.008" y="105.878" class="h">tibble:</text><text x="12.024" y="105.878" class="h">44</text><text x="15.029999999999998" y="105.878" class="h">x</text><text x="17.034" y="105.878" class="h">29</text><text x="3.006" y="108.049" class="e">package</text><text x="11.021999999999998" y="108.049" class="e">title</text><text x="17.034" y="108.049" class="e">version</text><text x="25.05" y="108.049" class="e">depends</text><text x="33.065999999999995" y="108.049" class="e">suggests</text><text x="42.083999999999996" y="108.049" class="e">imports</text><text x="50.1" y="108.049" class="e">linkingto</text><text x="60.11999999999999" y="108.049" class="e">enhances</text><text x="69.13799999999999" y="108.049" class="e">built</text><text x="3.006" y="110.22" class="i">&lt;chr&gt;</text><text x="11.021999999999998" y="110.22" class="i">&lt;chr&gt;</text><text x="17.034" y="110.22" class="i">&lt;chr&gt;</text><text x="25.05" y="110.22" class="i">&lt;chr&gt;</text><text x="33.065999999999995" y="110.22" class="i">&lt;chr&gt;</text><text x="42.083999999999996" y="110.22" class="i">&lt;chr&gt;</text><text x="50.1" y="110.22" class="i">&lt;chr&gt;</text><text x="60.11999999999999" y="110.22" class="i">&lt;chr&gt;</text><text x="69.13799999999999" y="110.22" class="i">&lt;chr&gt;</text><text x="1.002" y="112.391" class="j">1</text><text x="3.006" y="112.391" class="e">assert…</text><text x="11.021999999999998" y="112.391" class="e">Easy…</text><text x="17.034" y="112.391" class="e">0.2.1</text><text x="25.05" y="112.391" class="k">NA</text><text x="33.065999999999995" y="112.391" class="e">testtha…</text><text x="42.083999999999996" y="112.391" class="e">tools</text><text x="50.1" y="112.391" class="k">NA</text><text x="60.11999999999999" y="112.391" class="k">NA</text><text x="69.13799999999999" y="112.391" class="e">R</text><text x="71.142" y="112.391" class="e">3.…</text><text x="1.002" y="114.56200000000001" class="j">2</text><text x="3.006" y="114.56200000000001" class="e">backpo…</text><text x="11.021999999999998" y="114.56200000000001" class="e">Reim…</text><text x="17.034" y="114.56200000000001" class="e">1.1.5</text><text x="25.05" y="114.56200000000001" class="e">R</text><text x="27.054" y="114.56200000000001" class="e">(&gt;=</text><text x="31.061999999999998" y="114.56200000000001" class="e">…</text><text x="33.065999999999995" y="114.56200000000001" class="k">NA</text><text x="42.083999999999996" y="114.56200000000001" class="e">utils</text><text x="50.1" y="114.56200000000001" class="k">NA</text><text x="60.11999999999999" y="114.56200000000001" class="k">NA</text><text x="69.13799999999999" y="114.56200000000001" class="e">R</text><text x="71.142" y="114.56200000000001" class="e">3.…</text><text x="1.002" y="116.73299999999999" class="j">3</text><text x="3.006" y="116.73299999999999" class="e">base64…</text><text x="11.021999999999998" y="116.73299999999999" class="e">Tool…</text><text x="17.034" y="116.73299999999999" class="e">0.1-3</text><text x="25.05" y="116.73299999999999" class="e">R</text><text x="27.054" y="116.73299999999999" class="e">(&gt;=</text><text x="31.061999999999998" y="116.73299999999999" class="e">…</text><text x="33.065999999999995" y="116.73299999999999" class="k">NA</text><text x="42.083999999999996" y="116.73299999999999" class="k">NA</text><text x="50.1" y="116.73299999999999" class="k">NA</text><text x="60.11999999999999" y="116.73299999999999" class="e">png</text><text x="69.13799999999999" y="116.73299999999999" class="e">R</text><text x="71.142" y="116.73299999999999" class="e">3.…</text><text x="1.002" y="118.904" class="j">4</text><text x="3.006" y="118.904" class="e">callr</text><text x="11.021999999999998" y="118.904" class="e">Call…</text><text x="17.034" y="118.904" class="e">3.4.0</text><text x="25.05" y="118.904" class="k">NA</text><text x="33.065999999999995" y="118.904" class="h">&quot;</text><text x="34.068" y="118.904" class="e">cliapp…</text><text x="42.083999999999996" y="118.904" class="e">proces…</text><text x="50.1" y="118.904" class="k">NA</text><text x="60.11999999999999" y="118.904" class="k">NA</text><text x="69.13799999999999" y="118.904" class="e">R</text><text x="71.142" y="118.904" class="e">3.…</text><text x="1.002" y="121.075" class="j">5</text><text x="3.006" y="121.075" class="e">cli</text><text x="11.021999999999998" y="121.075" class="e">Help…</text><text x="17.034" y="121.075" class="e">2.0.0</text><text x="25.05" y="121.075" class="e">R</text><text x="27.054" y="121.075" class="e">(&gt;=</text><text x="31.061999999999998" y="121.075" class="e">…</text><text x="33.065999999999995" y="121.075" class="h">&quot;</text><text x="34.068" y="121.075" class="e">callr,…</text><text x="42.083999999999996" y="121.075" class="e">assert…</text><text x="50.1" y="121.075" class="k">NA</text><text x="60.11999999999999" y="121.075" class="k">NA</text><text x="69.13799999999999" y="121.075" class="e">R</text><text x="71.142" y="121.075" class="e">3.…</text><text x="1.002" y="123.246" class="j">6</text><text x="3.006" y="123.246" class="e">cliapp</text><text x="11.021999999999998" y="123.246" class="e">Crea…</text><text x="17.034" y="123.246" class="e">0.1.0</text><text x="25.05" y="123.246" class="k">NA</text><text x="33.065999999999995" y="123.246" class="e">callr,</text><text x="40.08" y="123.246" class="e">…</text><text x="42.083999999999996" y="123.246" class="h">&quot;</text><text x="43.086" y="123.246" class="e">cli,</text><text x="48.096" y="123.246" class="e">…</text><text x="50.1" y="123.246" class="k">NA</text><text x="60.11999999999999" y="123.246" class="k">NA</text><text x="69.13799999999999" y="123.246" class="e">R</text><text x="71.142" y="123.246" class="e">3.…</text><text x="1.002" y="125.417" class="j">7</text><text x="3.006" y="125.417" class="e">crayon</text><text x="11.021999999999998" y="125.417" class="e">Colo…</text><text x="17.034" y="125.417" class="e">1.3.4</text><text x="25.05" y="125.417" class="k">NA</text><text x="33.065999999999995" y="125.417" class="e">mockery…</text><text x="42.083999999999996" y="125.417" class="e">grDevi…</text><text x="50.1" y="125.417" class="k">NA</text><text x="60.11999999999999" y="125.417" class="k">NA</text><text x="69.13799999999999" y="125.417" class="e">R</text><text x="71.142" y="125.417" class="e">3.…</text><text x="1.002" y="127.58800000000001" class="j">8</text><text x="3.006" y="127.58800000000001" class="e">curl</text><text x="11.021999999999998" y="127.58800000000001" class="e">A</text><text x="13.026" y="127.58800000000001" class="e">Mo…</text><text x="17.034" y="127.58800000000001" class="e">4.3</text><text x="25.05" y="127.58800000000001" class="e">R</text><text x="27.054" y="127.58800000000001" class="e">(&gt;=</text><text x="31.061999999999998" y="127.58800000000001" class="e">…</text><text x="33.065999999999995" y="127.58800000000001" class="h">&quot;</text><text x="34.068" y="127.58800000000001" class="e">spelli…</text><text x="42.083999999999996" y="127.58800000000001" class="k">NA</text><text x="50.1" y="127.58800000000001" class="k">NA</text><text x="60.11999999999999" y="127.58800000000001" class="k">NA</text><text x="69.13799999999999" y="127.58800000000001" class="e">R</text><text x="71.142" y="127.58800000000001" class="e">3.…</text><text x="1.002" y="129.759" class="j">9</text><text x="3.006" y="129.759" class="e">desc</text><text x="11.021999999999998" y="129.759" class="e">Mani…</text><text x="17.034" y="129.759" class="e">1.2.0</text><text x="25.05" y="129.759" class="e">R</text><text x="27.054" y="129.759" class="e">(&gt;=</text><text x="31.061999999999998" y="129.759" class="e">…</text><text x="33.065999999999995" y="129.759" class="e">covr,</text><text x="39.077999999999996" y="129.759" class="e">t…</text><text x="42.083999999999996" y="129.759" class="e">assert…</text><text x="50.1" y="129.759" class="k">NA</text><text x="60.11999999999999" y="129.759" class="k">NA</text><text x="69.13799999999999" y="129.759" class="e">R</text><text x="71.142" y="129.759" class="e">3.…</text><text x="0" y="131.92999999999998" class="j">10</text><text x="3.006" y="131.92999999999998" class="e">digest</text><text x="11.021999999999998" y="131.92999999999998" class="e">Crea…</text><text x="17.034" y="131.92999999999998" class="e">0.6.23</text><text x="25.05" y="131.92999999999998" class="e">R</text><text x="27.054" y="131.92999999999998" class="e">(&gt;=</text><text x="31.061999999999998" y="131.92999999999998" class="e">…</text><text x="33.065999999999995" y="131.92999999999998" class="e">tinytes…</text><text x="42.083999999999996" y="131.92999999999998" class="e">utils</text><text x="50.1" y="131.92999999999998" class="k">NA</text><text x="60.11999999999999" y="131.92999999999998" class="k">NA</text><text x="69.13799999999999" y="131.92999999999998" class="e">R</text><text x="71.142" y="131.92999999999998" class="e">3.…</text><text x="0" y="134.10099999999997" class="h">#</text><text x="2.004" y="134.10099999999997" class="h">…</text><text x="4.008" y="134.10099999999997" class="h">with</text><text x="9.017999999999999" y="134.10099999999997" class="h">34</text><text x="12.024" y="134.10099999999997" class="h">more</text><text x="17.034" y="134.10099999999997" class="h">rows,</text><text x="23.045999999999996" y="134.10099999999997" class="h">and</text><text x="27.054" y="134.10099999999997" class="h">20</text><text x="30.059999999999995" y="134.10099999999997" class="h">more</text><text x="35.06999999999999" y="134.10099999999997" class="h">variables:</text><text x="46.09199999999999" y="134.10099999999997" class="h">md5sum</text><text x="53.105999999999995" y="134.10099999999997" class="i">&lt;chr&gt;</text><text x="58.116" y="134.10099999999997" class="h">,</text><text x="0" y="136.272" class="h">#</text><text x="4.008" y="136.272" class="h">needscompilation</text><text x="21.041999999999998" y="136.272" class="i">&lt;lgl&gt;</text><text x="26.052" y="136.272" class="h">,</text><text x="28.055999999999997" y="136.272" class="h">platform</text><text x="37.074" y="136.272" class="i">&lt;chr&gt;</text><text x="42.083999999999996" y="136.272" class="h">,</text><text x="44.087999999999994" y="136.272" class="h">license</text><text x="52.104" y="136.272" class="i">&lt;chr&gt;</text><text x="57.114" y="136.272" class="h">,</text><text x="59.117999999999995" y="136.272" class="h">priority</text><text x="68.136" y="136.272" class="i">&lt;chr&gt;</text><text x="73.146" y="136.272" class="h">,</text><text x="0" y="138.44299999999998" class="h">#</text><text x="4.008" y="138.44299999999998" class="h">repository</text><text x="15.029999999999998" y="138.44299999999998" class="i">&lt;chr&gt;</text><text x="20.04" y="138.44299999999998" class="h">,</text><text x="22.043999999999997" y="138.44299999999998" class="h">biocviews</text><text x="32.064" y="138.44299999999998" class="i">&lt;chr&gt;</text><text x="37.074" y="138.44299999999998" class="h">,</text><text x="39.077999999999996" y="138.44299999999998" class="h">remotetype</text><text x="50.1" y="138.44299999999998" class="i">&lt;chr&gt;</text><text x="55.10999999999999" y="138.44299999999998" class="h">,</text><text x="57.114" y="138.44299999999998" class="h">remotepkgref</text><text x="70.13999999999999" y="138.44299999999998" class="i">&lt;chr&gt;</text><text x="75.14999999999999" y="138.44299999999998" class="h">,</text><text x="0" y="140.61399999999998" class="h">#</text><text x="4.008" y="140.61399999999998" class="h">remoteref</text><text x="14.027999999999999" y="140.61399999999998" class="i">&lt;chr&gt;</text><text x="19.037999999999997" y="140.61399999999998" class="h">,</text><text x="21.041999999999998" y="140.61399999999998" class="h">remoterepos</text><text x="33.065999999999995" y="140.61399999999998" class="i">&lt;chr&gt;</text><text x="38.07599999999999" y="140.61399999999998" class="h">,</text><text x="40.08" y="140.61399999999998" class="h">remotepkgtype</text><text x="54.108" y="140.61399999999998" class="i">&lt;chr&gt;</text><text x="59.117999999999995" y="140.61399999999998" class="h">,</text><text x="61.12199999999999" y="140.61399999999998" class="h">remotesha</text><text x="71.142" y="140.61399999999998" class="i">&lt;chr&gt;</text><text x="76.15199999999999" y="140.61399999999998" class="h">,</text><text x="0" y="142.785" class="h">#</text><text x="4.008" y="142.785" class="h">ref</text><text x="8.016" y="142.785" class="i">&lt;chr&gt;</text><text x="13.026" y="142.785" class="h">,</text><text x="15.029999999999998" y="142.785" class="h">type</text><text x="20.04" y="142.785" class="i">&lt;chr&gt;</text><text x="25.05" y="142.785" class="h">,</text><text x="27.054" y="142.785" class="h">status</text><text x="34.068" y="142.785" class="i">&lt;chr&gt;</text><text x="39.077999999999996" y="142.785" class="h">,</text><text x="41.082" y="142.785" class="h">rversion</text><text x="50.1" y="142.785" class="i">&lt;chr&gt;</text><text x="55.10999999999999" y="142.785" class="h">,</text><text x="57.114" y="142.785" class="h">sources</text><text x="65.13" y="142.785" class="i">&lt;list&gt;</text><text x="71.142" y="142.785" class="h">,</text><text x="0" y="144.956" class="h">#</text><text x="4.008" y="144.956" class="h">repotype</text><text x="13.026" y="144.956" class="i">&lt;chr&gt;</text><text x="18.035999999999998" y="144.956" class="h">,</text><text x="20.04" y="144.956" class="h">deps</text><text x="25.05" y="144.956" class="i">&lt;list&gt;</text></svg></svg></g></svg></svg>